<svg width="48" height="48" viewBox="0 0 48 48" fill="none" xmlns="http://www.w3.org/2000/svg">
<path d="M30.4675 12.905H17.0525C14.641 12.905 12.6791 14.8804 12.6791 17.3083V30.3425C12.6791 32.7704 14.641 34.7458 17.0525 34.7458H30.4675C32.879 34.7458 34.841 32.7704 34.841 30.3425V17.3083C34.841 14.8804 32.8791 12.905 30.4675 12.905ZM33.1835 30.3425C33.1835 31.8503 31.9652 33.077 30.4675 33.077H17.0525C15.5548 33.077 14.3365 31.8503 14.3365 30.3425V17.3083C14.3365 15.8005 15.5548 14.5738 17.0525 14.5738H30.4675C31.9652 14.5738 33.1835 15.8005 33.1835 17.3083V30.3425ZM17.8701 6.74148V9.90479C17.8701 10.1261 17.9575 10.3383 18.1129 10.4948C18.2683 10.6513 18.4791 10.7392 18.6989 10.7392C18.9187 10.7392 19.1294 10.6513 19.2849 10.4948C19.4403 10.3383 19.5276 10.1261 19.5276 9.90479V6.74148C21.0027 6.36801 22.098 5.02176 22.098 3.42241C22.098 1.53526 20.5732 0 18.6989 0C16.8245 0 15.2997 1.53526 15.2997 3.42241C15.2997 5.02176 16.3951 6.36801 17.8701 6.74148ZM18.6989 1.66876C19.6593 1.66876 20.4406 2.45542 20.4406 3.42241C20.4406 4.3893 19.6593 5.17606 18.6989 5.17606C17.7384 5.17606 16.9571 4.3893 16.9571 3.42241C16.9571 2.45542 17.7384 1.66876 18.6989 1.66876ZM27.6083 6.74148V9.90479C27.6083 10.1261 27.6957 10.3383 27.8511 10.4948C28.0065 10.6513 28.2173 10.7392 28.4371 10.7392C28.6569 10.7392 28.8676 10.6513 29.0231 10.4948C29.1785 10.3383 29.2658 10.1261 29.2658 9.90479V6.74148C30.7409 6.36801 31.8362 5.02176 31.8362 3.42241C31.8362 1.53526 30.3114 0 28.4371 0C26.5627 0 25.0379 1.53526 25.0379 3.42241C25.0379 5.02176 26.1333 6.36801 27.6083 6.74148ZM28.4371 1.66876C29.3975 1.66876 30.1788 2.45542 30.1788 3.42241C30.1788 4.3893 29.3975 5.17606 28.4371 5.17606C27.4766 5.17606 26.6953 4.3893 26.6953 3.42241C26.6953 2.45542 27.4765 1.66876 28.4371 1.66876ZM29.4578 40.9093V37.746C29.4578 37.5247 29.3705 37.3125 29.2151 37.156C29.0597 36.9995 28.8489 36.9116 28.6291 36.9116C28.4093 36.9116 28.1985 36.9995 28.0431 37.156C27.8877 37.3125 27.8004 37.5247 27.8004 37.746V40.9093C26.3253 41.2828 25.2299 42.629 25.2299 44.2284C25.2299 46.1155 26.7548 47.6508 28.6291 47.6508C30.5034 47.6508 32.0283 46.1155 32.0283 44.2284C32.0283 42.629 30.9328 41.2828 29.4578 40.9093ZM28.6291 45.982C27.6687 45.982 26.8874 45.1954 26.8874 44.2284C26.8874 43.2615 27.6687 42.4747 28.6291 42.4747C29.5895 42.4747 30.3709 43.2615 30.3709 44.2284C30.3709 45.1954 29.5895 45.982 28.6291 45.982ZM19.7196 40.9093V37.746C19.7196 37.5247 19.6323 37.3125 19.4769 37.156C19.3215 36.9995 19.1107 36.9116 18.8909 36.9116C18.6711 36.9116 18.4603 36.9995 18.3049 37.156C18.1495 37.3125 18.0622 37.5247 18.0622 37.746V40.9093C16.5871 41.2828 15.4917 42.629 15.4917 44.2284C15.4917 46.1155 17.0166 47.6508 18.8909 47.6508C20.7652 47.6508 22.2901 46.1155 22.2901 44.2284C22.2901 42.629 21.1946 41.2828 19.7196 40.9093ZM18.8909 45.982C17.9305 45.982 17.1492 45.1954 17.1492 44.2284C17.1492 43.2615 17.9305 42.4747 18.8909 42.4747C19.8513 42.4747 20.6327 43.2615 20.6327 44.2284C20.6327 45.1954 19.8514 45.982 18.8909 45.982ZM37.4901 19.6607H40.6319C41.0029 21.1459 42.34 22.2487 43.9286 22.2487C45.8028 22.2487 47.3276 20.7135 47.3276 18.8263C47.3276 16.9392 45.8028 15.4039 43.9286 15.4039C42.3401 15.4039 41.0029 16.5069 40.6319 17.992H37.4901C37.2703 17.992 37.0595 18.0799 36.9041 18.2363C36.7487 18.3928 36.6614 18.605 36.6614 18.8263C36.6614 19.0476 36.7487 19.2599 36.9041 19.4163C37.0595 19.5728 37.2703 19.6607 37.4901 19.6607ZM43.9286 17.0727C44.8888 17.0727 45.6702 17.8595 45.6702 18.8263C45.6702 19.7933 44.8889 20.58 43.9286 20.58C42.968 20.58 42.1867 19.7933 42.1867 18.8263C42.1867 17.8593 42.968 17.0727 43.9284 17.0727H43.9286ZM43.9286 25.2087C42.34 25.2087 41.0029 26.3115 40.6319 27.7967H37.4901C37.2703 27.7967 37.0595 27.8846 36.9041 28.0411C36.7487 28.1976 36.6614 28.4098 36.6614 28.6311C36.6614 28.8524 36.7487 29.0646 36.9041 29.2211C37.0595 29.3776 37.2703 29.4655 37.4901 29.4655H40.6319C41.0029 30.9506 42.34 32.0535 43.9286 32.0535C45.8028 32.0535 47.3276 30.5183 47.3276 28.6311C47.3276 26.744 45.8028 25.2087 43.9286 25.2087ZM43.9286 30.3848C42.968 30.3848 42.1867 29.5981 42.1867 28.6311C42.1867 27.6641 42.968 26.8775 43.9284 26.8775C44.8889 26.8775 45.6702 27.664 45.6702 28.6311C45.6702 29.5982 44.8889 30.3848 43.9284 30.3848H43.9286ZM9.83789 27.9901H6.69628C6.32523 26.5049 4.98813 25.402 3.39964 25.402C1.52531 25.402 0.00046501 26.9373 0.00046501 28.8245C0.00046501 30.7115 1.5253 32.2469 3.39953 32.2469C4.98813 32.2469 6.32523 31.1439 6.69628 29.6588H9.838C10.0578 29.6588 10.2686 29.5709 10.424 29.4145C10.5794 29.258 10.6667 29.0458 10.6667 28.8245C10.6667 28.6032 10.5794 28.3909 10.424 28.2345C10.2686 28.078 10.0578 27.9901 9.838 27.9901H9.83789ZM3.39953 30.5781C2.4391 30.5781 1.65779 29.7913 1.65779 28.8245C1.65779 27.8575 2.4391 27.0708 3.39942 27.0708C4.35996 27.0708 5.14127 27.8575 5.14127 28.8245C5.14127 29.7913 4.36007 30.5781 3.39953 30.5781ZM9.83789 18.1853H6.69628C6.32501 16.7002 4.98802 15.5973 3.39942 15.5973C1.52508 15.5973 0.000244141 17.1325 0.000244141 19.0197C0.000244141 20.9068 1.52508 22.4421 3.39931 22.4421C4.98791 22.4421 6.32501 21.3393 6.69606 19.8541H9.83778C10.0576 19.8541 10.2684 19.7662 10.4238 19.6097C10.5792 19.4532 10.6665 19.241 10.6665 19.0197C10.6665 18.7984 10.5792 18.5862 10.4238 18.4297C10.2684 18.2732 10.0577 18.1853 9.83789 18.1853ZM3.39953 20.7733C2.4391 20.7733 1.65779 19.9868 1.65779 19.0197C1.65779 18.0526 2.4391 17.266 3.39942 17.266C4.35996 17.266 5.14127 18.0527 5.14127 19.0197C5.14127 19.9867 4.36007 20.7733 3.39953 20.7733Z" fill="#1B0D84"/>
<path d="M22.8422 19.3463C22.7316 19.0948 22.5509 18.8811 22.3219 18.731C22.0929 18.581 21.8256 18.5011 21.5524 18.5011C21.2792 18.5011 21.0119 18.581 20.7829 18.731C20.554 18.8811 20.3732 19.0948 20.2626 19.3463L16.6869 27.4766C16.434 28.0513 16.852 28.6979 17.4763 28.6979C17.6445 28.6979 17.8091 28.6484 17.9498 28.5556C18.0904 28.4627 18.2011 28.3305 18.2682 28.1752L18.948 26.6014C18.9664 26.5588 18.9968 26.5225 19.0354 26.4971C19.074 26.4716 19.1191 26.458 19.1653 26.4581H23.9326C24.0269 26.4581 24.1122 26.5144 24.1497 26.6014L24.8287 28.1733C24.8961 28.3292 25.0071 28.4619 25.1483 28.5551C25.2895 28.6483 25.4547 28.6979 25.6235 28.6979C26.2501 28.6979 26.6697 28.049 26.416 27.4719L22.8422 19.3463ZM23.0912 24.9576H20.0278C19.9885 24.9576 19.9499 24.9478 19.9153 24.929C19.8807 24.9102 19.8514 24.8831 19.8298 24.85C19.8083 24.8169 19.7952 24.779 19.7919 24.7396C19.7885 24.7002 19.7949 24.6606 19.8106 24.6243L21.3424 21.0739C21.4248 20.8826 21.6942 20.8826 21.7767 21.0739L23.3084 24.6243C23.3241 24.6606 23.3305 24.7002 23.3271 24.7396C23.3238 24.779 23.3107 24.8169 23.2892 24.85C23.2676 24.8831 23.2382 24.9102 23.2037 24.929C23.1691 24.9478 23.1305 24.9576 23.0912 24.9576ZM29.0596 18.5012C28.8217 18.5012 28.5936 18.5963 28.4254 18.7657C28.2572 18.935 28.1627 19.1647 28.1627 19.4042V27.7947C28.1627 28.0342 28.2572 28.2639 28.4254 28.4333C28.5936 28.6026 28.8217 28.6978 29.0596 28.6978C29.2975 28.6978 29.5256 28.6026 29.6938 28.4333C29.862 28.2639 29.9565 28.0342 29.9565 27.7947V19.4042C29.9565 19.1647 29.862 18.935 29.6938 18.7657C29.5256 18.5963 29.2975 18.5012 29.0596 18.5012Z" fill="#1B0D84"/>
</svg>
