<svg width="38" height="38" viewBox="0 0 38 38" fill="none" xmlns="http://www.w3.org/2000/svg">
<g clip-path="url(#clip0_2383_61)">
<path d="M37.9552 2.8369C37.8729 1.32744 36.6724 0.127101 35.163 0.0447184C32.1172 -0.12168 26.1571 0.0401912 20.458 2.98794C17.5527 4.49072 14.4801 7.03857 12.028 9.97823C11.9978 10.0144 11.9684 10.0509 11.9384 10.0872L6.37346 10.5171C5.45745 10.5879 4.64156 11.068 4.13495 11.8342L0.33836 17.5767C-0.0458701 18.1578 -0.106952 18.8851 0.174856 19.5221C0.456739 20.1592 1.03594 20.6032 1.72432 20.7098L6.41279 21.436C6.39624 21.5271 6.37962 21.6182 6.3644 21.7093C6.20832 22.643 6.51766 23.6029 7.19202 24.2772L13.7227 30.8079C14.2818 31.367 15.0372 31.6753 15.8113 31.6753C15.9719 31.6753 16.1322 31.6619 16.2906 31.6355C16.3818 31.6203 16.4728 31.6036 16.564 31.5871L17.2901 36.2756C17.3968 36.964 17.8408 37.5433 18.4777 37.8251C18.7374 37.9404 19.0183 38.0001 19.3024 38.0003C19.7012 37.9999 20.091 37.8822 20.4232 37.6617L26.1657 33.865C26.932 33.3583 27.412 32.5424 27.4827 31.6265L27.9126 26.0617C27.9488 26.0317 27.9854 26.0023 28.0216 25.9721C30.9613 23.52 33.5092 20.4473 35.012 17.5419C37.9598 11.8426 38.1214 5.88247 37.9552 2.8369ZM24.9377 32.0076L19.4447 35.6394L18.737 31.0701C21.0585 30.3875 23.3551 29.2943 25.543 27.8297L25.2629 31.4549C25.2547 31.5658 25.2211 31.6733 25.1647 31.7692C25.1083 31.865 25.0307 31.9466 24.9377 32.0076ZM15.2971 29.2335L8.76635 22.7028C8.59972 22.5361 8.52269 22.302 8.56046 22.0764C8.75462 20.9154 9.05632 19.8102 9.42979 18.7691L19.2287 28.568C17.9783 29.0159 16.8583 29.2831 15.9235 29.4394C15.6976 29.477 15.4637 29.4002 15.2971 29.2335ZM6.54498 12.737L10.1701 12.457C8.70548 14.6449 7.61224 16.9414 6.92965 19.263L2.36045 18.5553L5.99227 13.0622C6.0533 12.9693 6.13489 12.8916 6.23073 12.8352C6.32656 12.7788 6.43408 12.7452 6.54498 12.737ZM26.5955 24.2621C24.797 25.7623 23.0512 26.8474 21.4419 27.6326L10.3669 16.5576C11.3955 14.4569 12.6507 12.7076 13.7377 11.4045C16.007 8.684 18.8293 6.33713 21.4811 4.96557C26.7115 2.26007 32.2224 2.11438 35.0418 2.26787C35.2218 2.27747 35.3918 2.35329 35.5193 2.48074C35.6467 2.60819 35.7225 2.77827 35.7321 2.95825C35.8858 5.77767 35.7398 11.2884 33.0343 16.519C31.6628 19.1707 29.316 21.9929 26.5955 24.2621Z" fill="#1A0C84"/>
<path d="M26.0301 17.5337C27.4552 17.5336 28.881 16.991 29.966 15.906C31.0174 14.8547 31.5963 13.4569 31.5963 11.9701C31.5963 10.4834 31.0173 9.08553 29.966 8.03422C27.7957 5.86384 24.2644 5.86399 22.0942 8.03422C21.0428 9.08553 20.4638 10.4834 20.4638 11.9701C20.4638 13.4569 21.0429 14.8547 22.0942 15.906C23.1794 16.9912 24.6044 17.5339 26.0301 17.5337ZM23.6685 9.60855C24.3195 8.95743 25.1747 8.63191 26.0299 8.63191C26.8852 8.63191 27.7405 8.95743 28.3915 9.60855C29.0223 10.2393 29.3696 11.078 29.3696 11.97C29.3696 12.8621 29.0223 13.7008 28.3915 14.3316C27.0894 15.6338 24.9706 15.6337 23.6684 14.3316C23.0376 13.7008 22.6902 12.8622 22.6902 11.9701C22.6902 11.0781 23.0377 10.2393 23.6685 9.60855ZM1.13564 31.3158C1.42057 31.3158 1.7055 31.2071 1.92281 30.9896L5.55752 27.3549C5.9923 26.9201 5.9923 26.2153 5.55752 25.7805C5.12282 25.3457 4.41789 25.3457 3.98312 25.7805L0.348481 29.4152C-0.0862925 29.85 -0.0862925 30.5549 0.348481 30.9896C0.451728 31.0932 0.574423 31.1753 0.709512 31.2313C0.844602 31.2872 0.989421 31.3159 1.13564 31.3158ZM8.88854 29.1115C8.45384 28.6768 7.74891 28.6768 7.31413 29.1115L0.326141 36.0996C-0.108632 36.5344 -0.108632 37.2392 0.326141 37.674C0.543528 37.8914 0.828379 38 1.11331 38C1.39823 38 1.68316 37.8914 1.90047 37.6739L8.88846 30.6859C9.32331 30.2512 9.32331 29.5463 8.88854 29.1115ZM10.6451 32.4425L7.01043 36.0773C6.57566 36.512 6.57566 37.2169 7.01043 37.6517C7.22782 37.869 7.51274 37.9778 7.79759 37.9778C8.08245 37.9778 8.36745 37.8691 8.58476 37.6517L12.2195 34.0169C12.6542 33.5822 12.6542 32.8773 12.2195 32.4425C11.7848 32.0078 11.0798 32.0078 10.6451 32.4425Z" fill="#1A0C84"/>
</g>
<defs>
<clipPath id="clip0_2383_61">
<rect width="38" height="38" fill="white"/>
</clipPath>
</defs>
</svg>
