<svg width="40" height="41" viewBox="0 0 40 41" fill="none" xmlns="http://www.w3.org/2000/svg">
<g clip-path="url(#clip0_2383_83)">
<path d="M40 18.75H37.4375C37.1333 14.5575 35.3301 10.6146 32.3578 7.64223C29.3854 4.66989 25.4425 2.86674 21.25 2.5625V0H18.75V2.5625C14.5575 2.86674 10.6146 4.66989 7.64223 7.64223C4.66989 10.6146 2.86674 14.5575 2.5625 18.75H0V21.25H2.5625C2.86674 25.4425 4.66989 29.3854 7.64223 32.3578C10.6146 35.3301 14.5575 37.1333 18.75 37.4375V40H21.25V37.4375C25.4425 37.1333 29.3854 35.3301 32.3578 32.3578C35.3301 29.3854 37.1333 25.4425 37.4375 21.25H40V18.75ZM20 35C11.7275 35 5 28.2725 5 20C5 11.7275 11.7275 5 20 5C28.2725 5 35 11.7275 35 20C35 28.2725 28.2725 35 20 35Z" fill="#1A0C84"/>
<path d="M27.8 21.725C23.0525 19.465 16.94 19.4675 12.205 21.725C11.5488 22.0258 10.9924 22.5081 10.6017 23.1151C10.2109 23.722 10.0021 24.4282 10 25.15V30H30V25.15C30 23.685 29.1575 22.3725 27.8 21.725ZM27.5 27.5H12.5V25.15C12.5 24.66 12.8 24.21 13.28 23.9825C17.35 22.0425 22.6475 22.04 26.7225 23.9825C27.2025 24.21 27.5 24.6575 27.5 25.1525V27.5ZM20 17.5C22.7575 17.5 25 15.2575 25 12.5C25 9.7425 22.7575 7.5 20 7.5C17.2425 7.5 15 9.7425 15 12.5C15 15.2575 17.2425 17.5 20 17.5ZM20 10C21.3775 10 22.5 11.1225 22.5 12.5C22.5 13.8775 21.3775 15 20 15C18.6225 15 17.5 13.8775 17.5 12.5C17.5 11.1225 18.6225 10 20 10Z" fill="#1A0C84"/>
</g>
<defs>
<clipPath id="clip0_2383_83">
<rect width="40" height="40" fill="white"/>
</clipPath>
</defs>
</svg>
