<svg width="40" height="40" viewBox="0 0 40 40" fill="none" xmlns="http://www.w3.org/2000/svg">
<path d="M9.368 36.824C9.52032 37.3241 9.82902 37.7623 10.2488 38.074C10.6685 38.3858 11.1772 38.5547 11.7 38.556C11.9369 38.5561 12.1726 38.5225 12.4 38.456L28.248 33.684L31.1 33.312C31.4171 33.271 31.7231 33.168 32.0003 33.0086C32.2776 32.8493 32.5207 32.6369 32.7158 32.3835C32.9108 32.1301 33.054 31.8407 33.1371 31.532C33.2202 31.2232 33.2416 30.901 33.2 30.584L31.696 19.104L36.432 11.84L37.6 10.076L38.16 9.19998C38.5531 8.59847 38.6911 7.86545 38.5436 7.16219C38.3962 6.45893 37.9755 5.84303 37.374 5.44998C36.7725 5.05693 36.0395 4.91892 35.3362 5.06633C34.633 5.21373 34.017 5.63447 33.624 6.23598L33.048 7.11998L31.896 8.87998L30.604 10.856L29.64 3.51598C29.5986 3.1992 29.4951 2.89368 29.3356 2.61688C29.1761 2.34009 28.9636 2.09744 28.7103 1.90279C28.4569 1.70814 28.1677 1.56532 27.8592 1.48248C27.5506 1.39964 27.2288 1.3784 26.912 1.41998L10.08 3.63198C9.46767 3.71105 8.90859 4.02081 8.51685 4.49803C8.12511 4.97525 7.93024 5.58398 7.972 6.19998L3.132 7.65598C2.51474 7.84187 1.99653 8.26522 1.69126 8.83301C1.38599 9.4008 1.31864 10.0666 1.504 10.684L9.368 36.824ZM33.724 8.27598L34.988 9.09998L36.248 9.92398L35.752 10.684L33.228 9.03598L33.724 8.27598ZM34.628 6.88798C34.8471 6.55274 35.1903 6.31827 35.5823 6.23612C35.9742 6.15398 36.3828 6.23091 36.718 6.44998C37.0532 6.66905 37.2877 7.01231 37.3699 7.40426C37.452 7.79622 37.3751 8.20474 37.156 8.53998L36.908 8.91998L34.4 7.26798L34.628 6.88798ZM32.572 10.04L33.836 10.864L35.096 11.688L27.396 23.48L26.132 22.656L24.872 21.832L32.572 10.04ZM23.372 26.164L23.612 25.396C24.0143 25.5 24.3712 25.7333 24.628 26.06L24.02 26.588C23.9544 26.6476 23.8709 26.6837 23.7826 26.6907C23.6943 26.6977 23.6061 26.6752 23.532 26.6267C23.4578 26.5782 23.4019 26.5064 23.3729 26.4227C23.344 26.3389 23.3436 26.2479 23.372 26.164ZM25.532 25.272C25.1292 24.7752 24.5808 24.4171 23.964 24.248L24.364 22.94L26.56 24.376L25.532 25.272ZM9.416 5.29198C9.51499 5.16331 9.63835 5.0554 9.77905 4.97441C9.91975 4.89342 10.075 4.84095 10.236 4.81998L27.068 2.61198C27.1226 2.60801 27.1774 2.60801 27.232 2.61198C27.5271 2.61797 27.8102 2.72935 28.0303 2.92596C28.2504 3.12258 28.3929 3.39146 28.432 3.68398L29.6 12.4L26.536 17.084L20.512 17.884C20.4332 17.889 20.3562 17.9094 20.2853 17.9442C20.2144 17.979 20.1511 18.0273 20.0989 18.0866C19.9935 18.2062 19.9399 18.3628 19.95 18.522C19.9601 18.6811 20.033 18.8297 20.1526 18.9351C20.2723 19.0405 20.4289 19.0941 20.588 19.084H20.668L25.672 18.4L23.54 21.668C23.5393 21.6813 23.5393 21.6947 23.54 21.708C23.5247 21.733 23.5126 21.7599 23.504 21.788L23.132 22.988L14.604 24.136C14.4449 24.1466 14.2965 24.22 14.1915 24.34C14.0864 24.46 14.0334 24.6168 14.044 24.776C14.0546 24.9351 14.128 25.0835 14.248 25.1885C14.368 25.2935 14.5249 25.3466 14.684 25.336H14.76L22.708 24.296L22.236 25.824C22.1332 26.1558 22.1412 26.5121 22.2589 26.839C22.3765 27.1659 22.5973 27.4457 22.888 27.636C23.1481 27.8074 23.4525 27.8991 23.764 27.9C24.1502 27.8975 24.5224 27.7554 24.812 27.5L27.964 24.772L27.996 24.736C28.0204 24.7134 28.0419 24.6879 28.06 24.66L30.668 20.66L32 30.74C32.0215 30.9006 32.011 31.0638 31.9691 31.2204C31.9273 31.3769 31.8548 31.5236 31.756 31.652C31.6603 31.7791 31.5403 31.886 31.403 31.9663C31.2657 32.0467 31.1137 32.0989 30.956 32.12L14.108 34.332C13.9475 34.3527 13.7845 34.3417 13.6283 34.2995C13.4721 34.2572 13.3257 34.1846 13.1976 34.0858C13.0694 33.987 12.962 33.864 12.8814 33.7236C12.8009 33.5833 12.7487 33.4285 12.728 33.268L9.172 6.20398C9.12946 5.87967 9.2172 5.55172 9.416 5.29198ZM3.48 8.79998L8.12 7.40398L11.536 33.424C11.6132 34.007 11.8988 34.5423 12.3399 34.9312C12.781 35.3202 13.3479 35.5364 13.936 35.54C14.0431 35.5399 14.1501 35.5319 14.256 35.516L20.848 34.652L12.048 37.3C11.7366 37.3934 11.401 37.3595 11.1145 37.2058C10.8281 37.0521 10.6143 36.7911 10.52 36.48L2.652 10.34C2.6052 10.1845 2.5895 10.0213 2.60578 9.85976C2.62207 9.6982 2.67003 9.54144 2.74692 9.39842C2.82382 9.25541 2.92814 9.12895 3.05392 9.02626C3.1797 8.92358 3.32449 8.84669 3.48 8.79998ZM15.576 8.15998C15.5556 8.00248 15.5984 7.8433 15.6951 7.71734C15.7918 7.59137 15.9346 7.50889 16.092 7.48798L25.692 6.22398C25.8511 6.20329 26.012 6.24667 26.1391 6.34456C26.2663 6.44245 26.3493 6.58685 26.37 6.74598C26.3907 6.90511 26.3473 7.06594 26.2494 7.19309C26.1515 7.32024 26.0071 7.40329 25.848 7.42398L16.248 8.68398H16.172C16.0261 8.68333 15.8854 8.62991 15.7759 8.5336C15.6663 8.43728 15.5953 8.30457 15.576 8.15998ZM12.672 14.024C12.662 13.9451 12.6677 13.865 12.6889 13.7884C12.7101 13.7117 12.7463 13.64 12.7954 13.5775C12.8445 13.515 12.9056 13.4628 12.9751 13.4241C13.0445 13.3854 13.121 13.3609 13.2 13.352L26.4 11.6C26.5591 11.5793 26.72 11.6227 26.8471 11.7206C26.9743 11.8185 27.0573 11.9628 27.078 12.122C27.0987 12.2811 27.0553 12.4419 26.9574 12.5691C26.8595 12.6962 26.7151 12.7793 26.556 12.8L13.344 14.544H13.268C13.1227 14.5435 12.9825 14.4906 12.873 14.3951C12.7636 14.2996 12.6922 14.1678 12.672 14.024ZM17.156 18.92C17.1673 18.9986 17.1628 19.0786 17.1429 19.1555C17.123 19.2324 17.088 19.3045 17.04 19.3678C16.992 19.431 16.932 19.4841 16.8633 19.524C16.7946 19.5638 16.7187 19.5897 16.64 19.6L14.052 19.94H13.976C13.8169 19.9506 13.66 19.8975 13.54 19.7925C13.42 19.6875 13.3466 19.5391 13.336 19.38C13.3254 19.2208 13.3784 19.064 13.4835 18.944C13.5885 18.824 13.7369 18.7506 13.896 18.74L16.484 18.4C16.5623 18.3899 16.6418 18.3953 16.718 18.416C16.7941 18.4367 16.8655 18.4722 16.9279 18.5205C16.9903 18.5688 17.0426 18.629 17.0818 18.6975C17.1209 18.7661 17.1461 18.8417 17.156 18.92ZM14.8 30.2C14.7796 30.0425 14.8224 29.8833 14.9191 29.7573C15.0158 29.6314 15.1586 29.5489 15.316 29.528L19.92 28.924C19.9988 28.9135 20.0789 28.9186 20.1557 28.939C20.2325 28.9595 20.3046 28.9949 20.3677 29.0431C20.4308 29.0914 20.4839 29.1517 20.5237 29.2205C20.5636 29.2892 20.5895 29.3652 20.6 29.444C20.6105 29.5228 20.6054 29.6029 20.5849 29.6797C20.5645 29.7565 20.5291 29.8285 20.4808 29.8917C20.4325 29.9548 20.3723 30.0078 20.3035 30.0477C20.2347 30.0875 20.1588 30.1135 20.08 30.124L15.468 30.716H15.392C15.2478 30.7155 15.1086 30.663 14.9999 30.5683C14.8911 30.4735 14.8202 30.3428 14.8 30.2Z" fill="#1B0E84"/>
</svg>
