<svg width="22" height="20" viewBox="0 0 22 20" fill="none" xmlns="http://www.w3.org/2000/svg">
<path fill-rule="evenodd" clip-rule="evenodd" d="M9.53833 19.0767C4.27682 19.0767 0 14.7993 0 9.53833C0 4.27733 4.27682 0 9.53833 0C11.9508 0 14.2151 0.876073 15.9789 2.4932C15.391 2.84178 14.8243 3.22482 14.2816 3.64032C12.9389 2.55589 11.2643 1.96563 9.53833 1.96837C5.36861 1.96837 1.96837 5.36861 1.96837 9.53833C1.96837 13.7081 5.36861 17.1078 9.53833 17.1078C15.3399 17.1078 18.7843 10.9062 16.2891 6.0848C16.7799 5.62819 17.2882 5.19067 17.8128 4.77323C18.6478 6.21474 19.0767 7.84964 19.0767 9.53783C19.0767 14.7993 14.7998 19.0767 9.53833 19.0767Z" fill="#74D33A"/>
<path fill-rule="evenodd" clip-rule="evenodd" d="M9.78903 14.4421C9.73863 14.4413 9.6896 14.4256 9.64813 14.397C9.60666 14.3683 9.57462 14.328 9.55605 14.2812C9.53828 14.2457 7.99932 10.2724 5.6193 8.76894C5.15386 8.48267 4.79602 8.17863 4.93915 7.49848C5.08229 6.83661 5.52946 6.46049 6.33498 6.28183C7.76634 5.97728 9.30582 8.1964 9.87785 9.10902C11.8828 6.19249 15.8911 1.61113 21.7251 1.07412C22.0063 1.04113 22.1109 1.45835 21.8505 1.57509C21.7612 1.61062 13.4217 5.4225 10.0393 14.299C10.014 14.3429 9.97749 14.3792 9.93352 14.4044C9.88954 14.4295 9.83968 14.4426 9.78903 14.4421Z" fill="#74D33A"/>
</svg>
