<svg width="274" height="229" viewBox="0 0 274 229" fill="none" xmlns="http://www.w3.org/2000/svg">
<path d="M125.796 100.384L103.225 83.0314V0.938354H1V147.411H103.225V91.2458L125.796 100.384Z" fill="white" stroke="#263238" stroke-linecap="round" stroke-linejoin="round"/>
<path d="M97.8975 26.318H6.33411V117.881H97.8975V26.318Z" fill="white"/>
<mask id="mask0_2372_4796" style="mask-type:luminance" maskUnits="userSpaceOnUse" x="6" y="26" width="92" height="92">
<path d="M97.8977 26.3174H6.33423V117.881H97.8977V26.3174Z" fill="white"/>
</mask>
<g mask="url(#mask0_2372_4796)">
<path opacity="0.4" d="M97.8977 66.1122V117.881H6.33423V65.441C16.4398 64.582 30.8329 63.4848 45.3127 63.3982C76.842 63.2177 90.9104 65.3615 97.8977 66.1122Z" fill="#407BFF"/>
<path d="M86.1678 64.3936C90.0946 64.8483 94.0069 65.4113 97.8975 66.1115" stroke="#263238" stroke-linecap="round" stroke-linejoin="round"/>
<path d="M53.1373 62.8928C63.0156 62.7384 72.895 63.1192 82.7321 64.0332" stroke="#263238" stroke-linecap="round" stroke-linejoin="round"/>
<path d="M24.9069 63.9968C33.1573 63.5132 41.4222 63.109 49.6871 62.9502" stroke="#263238" stroke-linecap="round" stroke-linejoin="round"/>
<path d="M16.4402 64.5453C17.6047 64.4587 18.7669 64.3793 19.9266 64.3071" stroke="#263238" stroke-linecap="round" stroke-linejoin="round"/>
<path d="M6.33423 65.4402C8.74512 65.1659 11.156 64.9566 13.5525 64.7184" stroke="#263238" stroke-linecap="round" stroke-linejoin="round"/>
<path opacity="0.4" d="M17.1902 30.2874V49.6467H54.1909V28.1219H52.076V47.3802H36.1236V28.1219H34.052V47.3802H19.0741V30.6628L17.1902 30.2874Z" fill="#407BFF"/>
</g>
<path d="M97.8975 26.318H6.33411V117.881H97.8975V26.318Z" stroke="#263238" stroke-linecap="round" stroke-linejoin="round"/>
<path d="M48.929 9.53516H27.3681C27.081 9.53516 26.8056 9.64922 26.6025 9.85228C26.3995 10.0553 26.2854 10.3307 26.2854 10.6179C26.2854 10.9051 26.3995 11.1804 26.6025 11.3835C26.8056 11.5866 27.081 11.7006 27.3681 11.7006H48.929C49.2162 11.7006 49.4916 11.5866 49.6946 11.3835C49.8977 11.1804 50.0118 10.9051 50.0118 10.6179C50.0118 10.3307 49.8977 10.0553 49.6946 9.85228C49.4916 9.64922 49.2162 9.53516 48.929 9.53516Z" fill="#263238"/>
<path d="M37.6109 14.0101H26.8341C26.6924 14.0101 26.5565 14.0664 26.4564 14.1666C26.3562 14.2667 26.2999 14.4026 26.2999 14.5443C26.2999 14.686 26.3562 14.8218 26.4564 14.922C26.5565 15.0222 26.6924 15.0784 26.8341 15.0784H37.6109C37.7526 15.0784 37.8884 15.0222 37.9886 14.922C38.0888 14.8218 38.1451 14.686 38.1451 14.5443C38.1451 14.4026 38.0888 14.2667 37.9886 14.1666C37.8884 14.0664 37.7526 14.0101 37.6109 14.0101Z" fill="#263238"/>
<path d="M43.6813 80.2589C27.5341 80.2589 13.5018 83.868 6.33411 89.1301V105.14C13.5018 110.424 27.5341 114.011 43.6813 114.011C67.1117 114.011 86.1029 106.454 86.1029 97.1279C86.1029 87.802 67.1117 80.2589 43.6813 80.2589Z" fill="white" stroke="#263238" stroke-linecap="round" stroke-linejoin="round"/>
<path opacity="0.4" d="M18.6775 86.3731C13.6248 89.2171 10.0156 88.6974 12.376 89.3614C14.7364 90.0255 11.7047 93.4975 9.35156 95.2804C6.99841 97.0633 11.1994 99.4165 16.0717 99.4165C20.9441 99.4165 24.1562 100.615 23.4055 102.304C23.1659 102.784 23.0288 103.308 23.0028 103.844C22.9769 104.38 23.0627 104.916 23.2548 105.417C23.4469 105.918 23.7411 106.373 24.1187 106.754C24.4963 107.136 24.9491 107.434 25.4482 107.631C27.9891 108.634 23.9613 110.352 26.7331 110.836C29.5049 111.319 27.4549 108.468 30.8475 107.948C34.2401 107.429 34.37 109.457 35.1784 106.692C35.9869 103.928 44.1868 103.249 45.5583 104.592C46.9297 105.935 42.6204 107.948 44.5261 108.288C46.4317 108.627 48.7704 109.688 48.7776 108.114C48.7848 106.541 47.9403 103.567 52.3001 103.322C56.6599 103.076 62.6006 105.588 62.8243 103.322C63.0481 101.055 64.5784 99.0483 67.1914 100.557C69.8044 102.066 73.1248 102.91 73.464 100.557C73.6175 99.4678 74.1022 98.4522 74.8524 97.6477C75.6026 96.8433 76.582 96.289 77.6578 96.06C79.6717 95.6846 75.9399 94.9123 74.5323 91.6063C73.1247 88.3004 76.8205 87.9322 70.9232 86.272C65.0259 84.6118 60.0308 87.6002 54.3934 86.1854C48.756 84.7706 25.4771 82.598 18.6775 86.3731Z" fill="#407BFF"/>
<path d="M43.6817 106.751C61.6768 106.751 76.2648 101.629 76.2648 95.3101C76.2648 88.9914 61.6768 83.8691 43.6817 83.8691C25.6865 83.8691 11.0985 88.9914 11.0985 95.3101C11.0985 101.629 25.6865 106.751 43.6817 106.751Z" stroke="#263238" stroke-linecap="round" stroke-linejoin="round"/>
<path d="M14.5267 100.911C14.5267 100.911 15.2486 92.8919 16.223 90.5027C17.3491 87.6515 22.8999 80.8086 22.8999 80.8086C22.8999 80.8086 45.5074 78.4193 64.7657 80.8086C64.7657 80.8086 70.1361 87.204 71.3127 89.8531C72.2871 92.0185 73.4781 99.4533 73.4781 99.4533C73.4781 99.4533 46.3592 105.777 14.5267 100.911Z" fill="white" stroke="#263238" stroke-linecap="round" stroke-linejoin="round"/>
<path opacity="0.4" d="M17.5007 90.7693C18.0854 92.4944 27.0721 93.3101 33.3808 93.5122C39.6896 93.7143 45.1321 94.8404 50.0839 94.4362C55.0356 94.0319 54.6241 93.4112 59.6553 93.4112C64.6864 93.4112 69.9846 91.6788 70.6559 90.7693C71.321 93.2195 71.8535 95.7038 72.2511 98.2113C72.2511 98.2113 51.8523 104.231 16.0859 99.9437C16.0859 99.9437 16.5912 95.2518 16.7572 93.4112C16.7824 92.4826 17.0379 91.5748 17.5007 90.7693Z" fill="#407BFF"/>
<path opacity="0.4" d="M26.3578 82.3026C26.6641 82.1804 26.9775 82.0767 27.2962 81.9922C27.0111 81.7976 26.6631 81.7177 26.3217 81.7684H30.2629C30.6588 81.736 31.0564 81.8056 31.4178 81.9705C31.6869 82.2178 31.8522 82.558 31.8803 82.9224C31.9084 83.2867 31.7973 83.6482 31.5694 83.9339C31.393 84.0661 31.19 84.1585 30.9744 84.2046C30.7588 84.2507 30.5357 84.2495 30.3206 84.201C28.3212 84.0422 26.3217 83.804 24.3367 83.4791C24.1923 83.4791 24.0335 83.4142 23.9758 83.2842C23.817 82.9306 24.3367 82.3026 24.6976 82.2376C25.1957 82.151 25.6649 82.3964 26.1413 82.3603C26.2152 82.3485 26.2878 82.3292 26.3578 82.3026Z" fill="#407BFF"/>
<path opacity="0.4" d="M22.6045 86.4885C22.4347 86.6055 22.2899 86.7552 22.1786 86.9288C21.6147 87.6355 21.1575 88.421 20.8216 89.2603C20.7898 89.3415 20.7898 89.4318 20.8216 89.513C20.875 89.5832 20.9518 89.6318 21.0381 89.6501C21.6791 89.7803 22.3356 89.8168 22.9871 89.7584C24.9755 89.7609 26.9619 89.8863 28.9349 90.1337C29.1513 90.1781 29.3764 90.1367 29.5629 90.0182C29.7866 89.8234 29.7361 89.4697 29.7145 89.1737C29.6953 88.7841 29.7695 88.3955 29.931 88.0404C30.0639 87.8396 30.1319 87.6027 30.1259 87.3619C30.0537 86.9433 29.5123 86.8278 29.0865 86.8061L25.4773 86.6112C24.705 86.5607 23.283 86.0987 22.6045 86.4885Z" fill="#407BFF"/>
<path opacity="0.4" d="M34.9118 82.6846C35.4783 82.2663 36.1513 82.0161 36.8535 81.9628C38.5842 81.6193 40.3595 81.5632 42.1084 81.7968C41.9207 82.6124 42.3683 83.6086 41.8125 84.2293C41.4618 84.5363 41.0078 84.6988 40.542 84.6841C39.016 84.8057 37.4811 84.7573 35.9657 84.5397C35.612 84.4892 34.7747 84.5397 34.522 84.2149C34.2694 83.8901 34.587 82.9806 34.9118 82.6846Z" fill="#407BFF"/>
<path opacity="0.4" d="M33.1357 88.6114C33.511 87.8896 34.4638 87.803 35.3011 87.803C37.7625 87.803 40.224 87.8968 42.6854 88.0051C42.7911 87.9954 42.8977 88.0091 42.9975 88.0453C43.0973 88.0815 43.1879 88.1392 43.2629 88.2144C43.3199 88.3213 43.352 88.4398 43.3567 88.5609C43.3567 88.9362 43.4 89.2827 43.3567 89.6869C43.381 89.8946 43.3542 90.105 43.2787 90.3C43.2033 90.495 43.0814 90.6686 42.9236 90.8058C42.7815 90.8773 42.6273 90.9214 42.4688 90.9357C40.4145 91.1366 38.3416 91.0296 36.3189 90.6181C35.4311 90.481 34.5143 90.4232 33.6409 90.2933C32.8902 90.1706 32.8108 89.2105 33.1357 88.6114Z" fill="#407BFF"/>
<path opacity="0.4" d="M45.0891 83.0311C45.154 82.5186 45.2839 81.9195 45.7531 81.7174C45.9669 81.6466 46.1932 81.6219 46.4172 81.6452L50.7482 81.8401C51.4744 81.8586 52.1982 81.931 52.9136 82.0567C53.2693 82.1093 53.6051 82.2536 53.8881 82.4753C54.0934 82.72 54.2482 83.0028 54.3436 83.3076C54.439 83.6124 54.4731 83.933 54.4439 84.251C54.4439 84.5398 48.8137 84.5542 48.2867 84.5325C47.7598 84.5109 47.2906 84.4315 46.8431 84.4459C46.5255 84.4459 46.2512 84.5975 45.9552 84.6264C45.0313 84.713 45.0097 83.7024 45.0891 83.0311Z" fill="#407BFF"/>
<path opacity="0.4" d="M56.9128 90.3293C56.9128 90.0694 56.8334 89.8096 56.7973 89.5425C56.7737 89.0565 56.5997 88.5898 56.2992 88.2071C55.88 87.8595 55.3494 87.6749 54.805 87.6874C52.6595 87.5142 50.5002 87.7021 48.4169 88.2432C47.9301 88.4225 47.404 88.4674 46.8938 88.3731C46.7201 88.3209 46.5633 88.2238 46.4391 88.0916C46.5113 89.0156 46.5762 89.9395 46.6412 90.8634C47.1826 90.9284 47.7311 90.95 48.2725 90.9645L52.7334 91.1233C53.159 91.1449 53.5854 91.1449 54.011 91.1233C54.6751 91.0872 55.3392 90.9573 56.0033 90.9717C56.357 90.9717 56.8261 90.9717 56.92 90.6108C56.9324 90.5171 56.93 90.4221 56.9128 90.3293Z" fill="#407BFF"/>
<path opacity="0.4" d="M61.6263 82.49C61.7562 82.49 61.9295 82.49 61.9367 82.3312C61.951 82.2915 61.951 82.2481 61.9367 82.2085C61.7274 81.8331 61.2149 81.7754 60.789 81.7537H59.7784C60.6265 81.5809 61.4898 81.4938 62.3553 81.4939C62.4437 81.4837 62.5328 81.5041 62.608 81.5516C62.671 81.6025 62.7185 81.67 62.7451 81.7465L63.5897 83.6305C63.6053 83.6682 63.6134 83.7087 63.6134 83.7496C63.6134 83.7905 63.6053 83.8309 63.5897 83.8687C63.5897 83.9625 63.4453 83.9914 63.3515 84.013C61.6942 84.2873 60.013 84.3889 58.3348 84.3162C58.0565 84.36 57.7718 84.3342 57.506 84.2409C57.2402 84.1477 57.0016 83.9901 56.8117 83.7821C56.7354 83.6908 56.6798 83.584 56.6487 83.4691C56.6176 83.3542 56.6118 83.2339 56.6317 83.1166C56.6516 82.9993 56.6967 82.8876 56.7639 82.7894C56.8312 82.6912 56.9189 82.6088 57.0211 82.5477C57.5841 82.2879 58.6163 82.4972 59.2298 82.5044L61.6263 82.49Z" fill="#407BFF"/>
<path opacity="0.4" d="M64.0299 86.6116L60.7384 87.1385C60.7147 87.2108 60.7177 87.2891 60.7468 87.3593C60.776 87.4295 60.8293 87.4869 60.8972 87.5211C61.0385 87.5897 61.1954 87.6196 61.3519 87.6077L65.8561 87.6871C65.9394 87.6838 66.0219 87.7038 66.0943 87.7449C66.1474 87.7901 66.1852 87.8506 66.2026 87.9181C66.4119 88.4234 66.5924 88.9431 66.7512 89.4628C66.8095 89.6119 66.8294 89.7732 66.8089 89.932C66.7223 90.2929 66.2892 90.4228 65.9211 90.4806C64.2187 90.6875 62.5025 90.7575 60.7889 90.6899C60.4897 90.7163 60.1901 90.6427 59.9372 90.4806C59.7993 90.3456 59.6954 90.1799 59.634 89.997C59.3525 89.3185 58.443 87.1097 59.4824 86.8426C60.9852 86.5995 62.5102 86.522 64.0299 86.6116Z" fill="#407BFF"/>
<path d="M30.061 90.6612C26.8128 90.459 23.5646 90.2136 20.3236 89.8744C20.8203 88.2376 21.605 86.7026 22.6407 85.3413" stroke="#263238" stroke-linecap="round" stroke-linejoin="round"/>
<path d="M43.1618 91.224C39.7187 91.1518 36.2828 91.0002 32.8469 90.8197L33.5687 86.8641" stroke="#263238" stroke-linecap="round" stroke-linejoin="round"/>
<path d="M56.3639 91.0151C53.1157 91.2027 49.8675 91.2749 46.612 91.2677L46.2367 87.2183" stroke="#263238" stroke-linecap="round" stroke-linejoin="round"/>
<path d="M65.8847 87.427L67.2272 89.874C64.7586 90.2542 62.2827 90.5525 59.7997 90.7691L58.4932 86.3732" stroke="#263238" stroke-linecap="round" stroke-linejoin="round"/>
<path d="M42.2088 83.068V84.6343H34.3192L34.5935 82.5916" stroke="#263238" stroke-linecap="round" stroke-linejoin="round"/>
<path d="M32.0746 82.5917L31.6848 84.2303L23.7953 83.6167L24.6903 82.1875" stroke="#263238" stroke-linecap="round" stroke-linejoin="round"/>
<path d="M23.4058 86.4021L30.061 86.8641L29.6712 88.582" stroke="#263238" stroke-linecap="round" stroke-linejoin="round"/>
<path d="M34.7667 87.9976H43.1615L43.4431 89.6" stroke="#263238" stroke-linecap="round" stroke-linejoin="round"/>
<path d="M47.7523 87.9978L56.0316 87.4926L56.9267 89.2466" stroke="#263238" stroke-linecap="round" stroke-linejoin="round"/>
<path d="M45.2622 82.5911V84.6338L54.8336 84.2296L54.1623 82.1868C54.1623 82.1868 51.6431 81.299 46.5543 81.7754" stroke="#263238" stroke-linecap="round" stroke-linejoin="round"/>
<path d="M57.1508 84.2301L63.8709 83.9558L63.1419 82.5916" stroke="#263238" stroke-linecap="round" stroke-linejoin="round"/>
<path d="M57.1508 82.5916H61.3734" stroke="#263238" stroke-linecap="round" stroke-linejoin="round"/>
<path d="M36.3331 82.1868C38.2742 81.8495 40.2388 81.6661 42.2088 81.6382" stroke="#263238" stroke-linecap="round" stroke-linejoin="round"/>
<path d="M43.1618 74.9252C43.1618 74.9252 43.8836 71.3161 42.772 69.8724C42.772 69.8724 40.6065 73.4816 40.4982 74.9252C40.4982 74.9252 39.8702 71.5687 38.0007 70.984C38.0007 70.984 36.8891 71.4316 36.9757 72.2978C37.4987 73.3406 37.9286 74.4276 38.2606 75.546C37.6992 75.5221 37.139 75.6143 36.6149 75.8167C36.0907 76.0191 35.614 76.3275 35.2145 76.7226C35.4934 77.1076 35.8588 77.4218 36.2813 77.64C36.7038 77.8581 37.1716 77.9741 37.647 77.9785C37.647 77.9785 35.7198 79.285 35.2145 80.476C35.2145 80.476 38.3183 81.7537 40.9891 80.2884C43.6598 78.8231 43.1618 74.9252 43.1618 74.9252Z" fill="#263238"/>
<path d="M41.4796 74.8742C41.7569 74.2982 42.1531 73.7875 42.642 73.3757C43.131 72.9639 43.7016 72.6603 44.3164 72.485C48.1782 71.4239 49.9539 75.0619 50.7118 78.2018C51.3181 80.7282 52.0183 84.0486 50.6685 86.4523C48.438 90.4223 42.4036 87.9753 39.4441 86.3224C37.5024 85.2396 36.0732 83.7093 36.4485 81.2696C36.5269 80.6934 36.7404 80.144 37.0716 79.666C37.4027 79.1881 37.8422 78.7952 38.3541 78.5194C38.9726 78.3006 39.5675 78.0201 40.1298 77.6821C40.9888 76.9892 41.0177 75.8054 41.4796 74.8742Z" fill="#F8247D" stroke="#263238" stroke-linecap="round" stroke-linejoin="round"/>
<path opacity="0.6" d="M44.1504 74.5931C45.7312 74.7014 46.518 76.0368 47.413 78.8447C48.3081 81.6526 49.3764 82.5259 49.3764 84.2944C49.3764 86.0629 48.8711 86.3733 48.8711 86.3733C48.8711 86.3733 50.885 86.1856 50.0693 80.9379C49.2537 75.6903 48.3153 73.8929 46.4602 73.5537C45.9928 73.4169 45.4935 73.4359 45.0378 73.6078C44.582 73.7797 44.1946 74.0951 43.9338 74.5065" fill="white"/>
<path d="M38.3757 82.0859C38.3757 82.0859 39.4656 82.4829 38.7366 82.8799C38.0075 83.277 38.3757 82.0859 38.3757 82.0859Z" fill="#263238"/>
<path d="M40.9316 79.5452C40.9316 79.5452 41.8844 80.0938 41.6029 80.4474C41.3214 80.8011 40.9316 79.5452 40.9316 79.5452Z" fill="#263238"/>
<path d="M43.4435 76.9899C43.4435 76.9899 44.8149 77.1054 44.4757 77.5529C44.1364 78.0004 43.4435 76.9899 43.4435 76.9899Z" fill="#263238"/>
<path d="M45.5946 74.1029C45.5946 74.1029 46.4969 73.742 46.4391 74.2689C46.3814 74.7958 45.5946 74.1029 45.5946 74.1029Z" fill="#263238"/>
<path d="M47.0884 78.2021C47.0884 78.2021 48.2794 78.8446 47.7525 79.1838C47.2255 79.5231 47.0884 78.2021 47.0884 78.2021Z" fill="#263238"/>
<path d="M44.7573 81.4647C44.7573 81.4647 45.6524 81.7823 45.2843 82.1865C44.9161 82.5908 44.7573 81.4647 44.7573 81.4647Z" fill="#263238"/>
<path d="M41.7325 83.4137C41.7325 83.4137 42.7142 83.7457 42.4544 84.0778C42.1945 84.4098 41.7325 83.4137 41.7325 83.4137Z" fill="#263238"/>
<path d="M43.6813 86.0412C43.6813 86.0412 44.7496 85.8174 44.5258 86.3371C44.302 86.8569 43.6813 86.0412 43.6813 86.0412Z" fill="#263238"/>
<path d="M46.4391 84.7281C46.4391 84.7281 47.3053 85.0602 46.966 85.3417C46.6268 85.6232 46.4391 84.7281 46.4391 84.7281Z" fill="#263238"/>
<path d="M47.7523 82.3171C47.7523 82.3171 48.6763 82.7141 48.4236 82.9884C48.171 83.2627 47.7523 82.3171 47.7523 82.3171Z" fill="#263238"/>
<path d="M49.759 80.4324C49.759 80.4324 50.3509 80.8149 50.0694 80.9665C49.7879 81.1181 49.759 80.4324 49.759 80.4324Z" fill="#263238"/>
<path d="M48.8137 85.3921C48.8137 85.3921 49.6005 85.7097 49.3984 85.9912C49.1963 86.2727 48.8137 85.3921 48.8137 85.3921Z" fill="#263238"/>
<path d="M50.1488 83.616C50.1488 83.616 50.3581 84.1646 50.2643 84.2945C50.1705 84.4244 50.1488 83.616 50.1488 83.616Z" fill="#263238"/>
<path d="M46.7416 86.8641C46.7416 86.8641 47.384 86.763 47.3046 87.0445C47.2252 87.3261 46.7416 86.8641 46.7416 86.8641Z" fill="#263238"/>
<path d="M39.8049 85.0599C39.8049 85.0599 40.5845 85.392 40.3319 85.5363C40.0792 85.6807 39.8049 85.0599 39.8049 85.0599Z" fill="#263238"/>
<path d="M49.1235 76.1887C49.1235 76.1887 49.8454 76.629 49.5999 76.9972C49.3545 77.3653 49.1235 76.1887 49.1235 76.1887Z" fill="#263238"/>
<path d="M97.8973 78.3543V72.3848C94.0427 70.8545 87.3586 69.844 79.7795 69.844C67.8549 69.844 58.1897 72.3415 58.1897 75.4309C58.1897 78.5203 67.8549 81.0106 79.7795 81.0106C87.3731 81.0106 94.0499 79.9928 97.8973 78.4626V78.3543Z" fill="white" stroke="#263238" stroke-linecap="round" stroke-linejoin="round"/>
<path opacity="0.4" d="M94.3462 74.7161C94.3462 76.3474 87.691 77.6755 79.4766 77.6755C71.2623 77.6755 64.6071 76.3474 64.6071 74.7161C64.6071 73.0847 71.2695 71.7638 79.4766 71.7638C87.6838 71.7638 94.3462 73.0847 94.3462 74.7161Z" fill="#407BFF"/>
<path d="M79.7798 78.6066C88.9408 78.6066 96.3673 76.9132 96.3673 74.8242C96.3673 72.7353 88.9408 71.0419 79.7798 71.0419C70.6188 71.0419 63.1923 72.7353 63.1923 74.8242C63.1923 76.9132 70.6188 78.6066 79.7798 78.6066Z" stroke="#263238" stroke-linecap="round" stroke-linejoin="round"/>
<path d="M88.449 74.2108C88.449 75.5678 85.0276 76.665 79.7871 76.665C74.5467 76.665 71.1252 75.5678 71.1252 74.2108C71.1252 72.8537 74.5539 71.7638 79.7871 71.7638C85.0204 71.7638 88.449 72.861 88.449 74.2108Z" stroke="#263238" stroke-linecap="round" stroke-linejoin="round"/>
<path d="M97.8978 62.6327V60.0341C96.3841 59.7953 94.8461 59.7516 93.3214 59.9042L92.1809 62.409C92.1809 62.409 96.8078 60.9942 97.8978 62.6327Z" fill="white"/>
<mask id="mask1_2372_4796" style="mask-type:luminance" maskUnits="userSpaceOnUse" x="92" y="59" width="6" height="4">
<path d="M97.8992 62.6341V60.0355C96.3856 59.7966 94.8476 59.753 93.3229 59.9056L92.1824 62.4103C92.1824 62.4103 96.8093 60.9955 97.8992 62.6341Z" fill="white"/>
</mask>
<g mask="url(#mask1_2372_4796)">
<path opacity="0.4" d="M97.8992 62.6341V60.0355C96.3856 59.7966 94.8476 59.753 93.3229 59.9056L92.1824 62.4103C92.1824 62.4103 96.8093 60.9955 97.8992 62.6341Z" fill="#407BFF"/>
</g>
<path d="M97.8978 62.6327V60.0341C96.3841 59.7953 94.8461 59.7516 93.3214 59.9042L92.1809 62.409C92.1809 62.409 96.8078 60.9942 97.8978 62.6327Z" stroke="#263238" stroke-linecap="round" stroke-linejoin="round"/>
<path d="M97.8978 64.6108C95.8045 71.3094 88.8245 70.306 88.8245 70.306V72.2333C90.4907 72.4417 92.1825 72.2505 93.7602 71.6757C95.3379 71.1008 96.7562 70.1588 97.8978 68.9273V64.6108Z" fill="white"/>
<mask id="mask2_2372_4796" style="mask-type:luminance" maskUnits="userSpaceOnUse" x="88" y="64" width="10" height="9">
<path d="M97.8971 64.6118C95.8038 71.3103 88.8237 70.307 88.8237 70.307V72.2343C90.4899 72.4426 92.1818 72.2515 93.7595 71.6767C95.3372 71.1018 96.7555 70.1597 97.8971 68.9283V64.6118Z" fill="white"/>
</mask>
<g mask="url(#mask2_2372_4796)">
<path opacity="0.4" d="M97.8971 64.6118C95.8038 71.3103 88.8237 70.307 88.8237 70.307V72.2343C90.4899 72.4426 92.1818 72.2515 93.7595 71.6767C95.3372 71.1018 96.7555 70.1597 97.8971 68.9283V64.6118Z" fill="#407BFF"/>
</g>
<path d="M97.8978 64.6108C95.8045 71.3094 88.8245 70.306 88.8245 70.306V72.2333C90.4907 72.4417 92.1825 72.2505 93.7602 71.6757C95.3379 71.1008 96.7562 70.1588 97.8978 68.9273V64.6108Z" stroke="#263238" stroke-linecap="round" stroke-linejoin="round"/>
<path d="M64.6361 58.2225C64.6361 58.2225 65.4734 75.4308 79.7944 75.4308C94.1154 75.4308 94.9527 58.2225 94.9527 58.2225H64.6361Z" fill="white"/>
<mask id="mask3_2372_4796" style="mask-type:luminance" maskUnits="userSpaceOnUse" x="64" y="58" width="31" height="18">
<path d="M64.6356 58.2235C64.6356 58.2235 65.4729 75.4318 79.7939 75.4318C94.1149 75.4318 94.9522 58.2235 94.9522 58.2235H64.6356Z" fill="white"/>
</mask>
<g mask="url(#mask3_2372_4796)">
<path opacity="0.4" d="M94.9235 58.2235C94.9235 58.2235 94.0862 75.4318 79.7652 75.4318C76.5258 75.5273 73.364 74.4306 70.8795 72.3496L71.0888 72.2991C74.2948 73.8846 77.987 74.1791 81.4037 73.122C86.4565 71.4762 91.8124 60.2374 92.7291 58.2235H94.9235Z" fill="#407BFF"/>
</g>
<path d="M64.6361 58.2225C64.6361 58.2225 65.4734 75.4308 79.7944 75.4308C94.1154 75.4308 94.9527 58.2225 94.9527 58.2225H64.6361Z" stroke="#263238" stroke-linecap="round" stroke-linejoin="round"/>
<path d="M94.9239 58.2219C94.9239 58.9438 94.202 59.6295 92.8667 60.207C90.3764 61.2825 85.7495 62.0043 79.78 62.0043C73.8105 62.0043 69.1836 61.2825 66.6933 60.207C65.3579 59.6295 64.6361 58.9438 64.6361 58.2219C64.6361 56.1286 70.62 54.4396 79.7944 54.4396C88.9688 54.4396 94.9239 56.1286 94.9239 58.2219Z" fill="white" stroke="#263238" stroke-linecap="round" stroke-linejoin="round"/>
<path d="M92.9027 60.0122C92.9098 60.077 92.9098 60.1423 92.9027 60.2071C90.4124 61.2826 85.7855 62.0044 79.816 62.0044C73.8465 62.0044 69.2196 61.2826 66.7293 60.2071C66.7222 60.1423 66.7222 60.077 66.7293 60.0122C66.7293 58.2004 71.9048 56.7351 79.8376 56.7351C87.7705 56.7351 92.9027 58.2221 92.9027 60.0122Z" fill="#936247" stroke="#263238" stroke-linecap="round" stroke-linejoin="round"/>
<path d="M79.7798 59.1898C79.7798 59.1898 81.9886 58.0782 83.093 59.1898C84.1974 60.3014 81.5266 61.2542 79.3106 61.2181C77.0946 61.182 75.0663 59.7745 75.8531 58.865C76.6399 57.9555 78.993 58.6123 79.7798 59.1898Z" fill="white"/>
<path d="M79.9535 58.2222C79.9535 58.2222 82.9202 57.2694 84.3494 58.446C85.7786 59.6225 83.1656 61.2611 83.1656 61.2611C83.1656 61.2611 86.6737 59.9618 85.3311 58.446C83.9885 56.9301 80.2422 57.5798 79.9535 58.2222Z" fill="white"/>
<path d="M85.6846 57.9696C85.6846 57.9696 88.9472 58.8791 85.6846 60.6548C85.6846 60.6548 88.6657 60.0773 88.2759 58.8285C87.8861 57.5798 85.6846 57.9696 85.6846 57.9696Z" fill="white"/>
<path d="M75.9539 60.6551C75.9539 60.6551 74.2071 59.9333 74.3153 59.0094C74.4236 58.0854 77.1016 57.9122 77.1016 57.9122C77.1016 57.9122 73.8534 56.9738 73.3842 58.6846C72.915 60.3953 75.9539 60.6551 75.9539 60.6551Z" fill="white"/>
<path d="M73.5288 60.6551C73.5288 60.6551 71.2551 60.0776 71.1035 59.5074C70.9519 58.9371 72.3162 58.2225 72.3162 58.2225C72.3162 58.2225 70.0713 58.3813 69.9269 59.3558C69.7826 60.3303 73.5288 60.6551 73.5288 60.6551Z" fill="white"/>
<path d="M79.2817 35.2755C74.099 39.6498 83.028 46.6948 79.2817 49.647C79.2817 49.647 82.9486 48.2034 80.6676 43.3672C78.3867 38.5309 79.2817 35.2755 79.2817 35.2755Z" fill="#A7AFC1"/>
<path d="M20.1851 17.0137C21.845 13.0065 19.942 8.41248 15.9349 6.75265C11.9277 5.09282 7.33367 6.99572 5.67384 11.0029C4.01401 15.0101 5.91692 19.6041 9.9241 21.2639C13.9313 22.9238 18.5253 21.0209 20.1851 17.0137Z" fill="white" stroke="#263238" stroke-linecap="round" stroke-linejoin="round"/>
<path d="M16.1436 18.9117C15.6672 18.9117 14.2813 17.865 14.7577 17.006C15.2341 16.1471 16.1436 14.7251 16.1436 14.7251C16.5485 13.9267 16.7751 13.0499 16.8077 12.1554C17.0026 10.82 16.2375 8.54626 12.9315 8.54626C9.62556 8.54626 8.86043 10.8272 9.0481 12.1554C9.08086 13.0508 9.31004 13.9281 9.7194 14.7251C9.7194 14.7251 10.6289 16.1687 11.1053 17.006C11.5817 17.8434 10.1886 18.9117 9.7194 18.9117C8.94528 19.0807 8.18882 19.3224 7.46008 19.6335C7.46008 19.6335 10.6217 21.8567 12.9315 21.8567C15.2414 21.8567 18.3957 19.6335 18.3957 19.6335C17.6695 19.3222 16.9155 19.0805 16.1436 18.9117Z" fill="#263238"/>
<path d="M12.9969 122.789C12.3472 121.699 11.0696 122.067 10.3983 122.926C9.75589 122.075 8.4927 121.641 7.81419 122.717C6.66649 124.522 8.95467 126.24 10.0374 126.911L10.3406 127.106L10.6582 126.918C11.7553 126.276 14.0868 124.63 12.9969 122.789Z" fill="#F97659" stroke="#263238" stroke-linecap="round" stroke-linejoin="round"/>
<path d="M96.8872 126.933L94.5484 125.785L92.2025 126.933V122.248H96.8872V126.933Z" fill="#151820" stroke="#263238" stroke-linecap="round" stroke-linejoin="round"/>
<path d="M18.2514 122.024H21.8605C21.9455 122.024 22.0296 122.041 22.1081 122.074C22.1865 122.106 22.2576 122.154 22.3174 122.215C22.3771 122.275 22.4243 122.347 22.4561 122.426C22.488 122.505 22.5039 122.589 22.503 122.674V125.633C22.503 125.718 22.4863 125.801 22.4541 125.879C22.4218 125.957 22.3745 126.028 22.3148 126.088C22.2551 126.147 22.1843 126.195 22.1064 126.227C22.0284 126.259 21.9449 126.276 21.8605 126.276H20.4891L20.0704 127.156L19.6518 126.276H18.2803C18.1959 126.276 18.1124 126.259 18.0344 126.227C17.9565 126.195 17.8857 126.147 17.826 126.088C17.7664 126.028 17.719 125.957 17.6868 125.879C17.6545 125.801 17.6379 125.718 17.6379 125.633V122.674C17.6358 122.507 17.6987 122.346 17.8132 122.225C17.9277 122.104 18.0848 122.032 18.2514 122.024Z" fill="white" stroke="#263238" stroke-linecap="round" stroke-linejoin="round"/>
<path d="M24.6039 130.224H7.64826C7.43867 130.243 7.2439 130.34 7.10211 130.496C6.96031 130.651 6.88171 130.854 6.88171 131.065C6.88171 131.275 6.96031 131.478 7.10211 131.634C7.2439 131.789 7.43867 131.886 7.64826 131.906H24.6039C24.7209 131.917 24.8388 131.903 24.9502 131.866C25.0616 131.828 25.164 131.768 25.2508 131.689C25.3377 131.61 25.407 131.513 25.4545 131.406C25.5019 131.298 25.5264 131.182 25.5264 131.065C25.5264 130.947 25.5019 130.831 25.4545 130.724C25.407 130.616 25.3377 130.52 25.2508 130.441C25.164 130.361 25.0616 130.301 24.9502 130.264C24.8388 130.227 24.7209 130.213 24.6039 130.224Z" fill="#263238"/>
<path d="M92.4697 134.556H7.34494C7.20327 134.556 7.06741 134.612 6.96724 134.712C6.86706 134.812 6.81079 134.948 6.81079 135.09C6.81079 135.231 6.86706 135.367 6.96724 135.467C7.06741 135.568 7.20327 135.624 7.34494 135.624H92.4697C92.6114 135.624 92.7472 135.568 92.8474 135.467C92.9476 135.367 93.0038 135.231 93.0038 135.09C93.0038 134.948 92.9476 134.812 92.8474 134.712C92.7472 134.612 92.6114 134.556 92.4697 134.556Z" fill="#263238"/>
<path d="M78.0332 138.164H7.34494C7.20327 138.164 7.06741 138.22 6.96724 138.321C6.86706 138.421 6.81079 138.557 6.81079 138.698C6.81079 138.84 6.86706 138.976 6.96724 139.076C7.06741 139.176 7.20327 139.232 7.34494 139.232H78.0332C78.1749 139.232 78.3107 139.176 78.4109 139.076C78.5111 138.976 78.5674 138.84 78.5674 138.698C78.5674 138.557 78.5111 138.421 78.4109 138.321C78.3107 138.22 78.1749 138.164 78.0332 138.164Z" fill="#263238"/>
<path d="M172.643 160.67C168.48 166.115 163.994 171.304 159.209 176.211C150.078 185.53 138.175 195.079 129.809 192.293C114.391 187.154 115.532 176.016 115.532 162.698C115.532 149.381 119.718 146.717 119.718 146.717L120.39 142.891C127.954 141.195 133.346 143.787 133.346 143.787L133.808 147.482C137.237 148.731 139.236 160.692 139.236 160.692C139.236 160.692 141.055 157.249 143.827 152.564C149.479 143 159.079 128.224 165.186 126.809L170.571 151.272L172.643 160.67Z" fill="#407BFF"/>
<mask id="mask4_2372_4796" style="mask-type:luminance" maskUnits="userSpaceOnUse" x="115" y="126" width="58" height="67">
<path d="M172.643 160.67C168.48 166.115 163.994 171.304 159.209 176.211C150.078 185.53 138.175 195.079 129.809 192.293C114.391 187.154 115.532 176.016 115.532 162.698C115.532 149.381 119.718 146.717 119.718 146.717L120.39 142.891C127.954 141.195 133.346 143.787 133.346 143.787L133.808 147.482C137.237 148.731 139.236 160.692 139.236 160.692C139.236 160.692 141.055 157.249 143.827 152.564C149.479 143 159.079 128.224 165.186 126.809L170.571 151.272L172.643 160.67Z" fill="white"/>
</mask>
<g mask="url(#mask4_2372_4796)">
<path opacity="0.2" d="M172.642 160.67C168.48 166.115 163.994 171.304 159.209 176.211C157.766 163.586 168.023 146.695 168.023 146.695L170.571 151.25L172.642 160.67Z" fill="black"/>
<path opacity="0.2" d="M143.25 169.83C143.25 169.83 141.33 162.662 139.237 160.67C139.237 160.67 141.056 157.227 143.827 152.542C145.257 158.049 146.231 165.318 143.25 169.83Z" fill="black"/>
</g>
<path d="M172.643 160.67C168.48 166.115 163.994 171.304 159.209 176.211C150.078 185.53 138.175 195.079 129.809 192.293C114.391 187.154 115.532 176.016 115.532 162.698C115.532 149.381 119.718 146.717 119.718 146.717L120.39 142.891C127.954 141.195 133.346 143.787 133.346 143.787L133.808 147.482C137.237 148.731 139.236 160.692 139.236 160.692C139.236 160.692 141.055 157.249 143.827 152.564C149.479 143 159.079 128.224 165.186 126.809L170.571 151.272L172.643 160.67Z" stroke="#263238" stroke-linecap="round" stroke-linejoin="round"/>
<path d="M131.08 116.221L128.503 119.151C119.387 129.502 122.389 138.034 122.389 138.034L121.913 143.65C125.109 145.145 128.745 145.403 132.12 144.372L132.322 137.428C132.322 137.428 143.373 132.606 131.08 116.221Z" fill="white" stroke="#263238" stroke-linecap="round" stroke-linejoin="round"/>
<path d="M136.371 132.865L144.751 135.652C145.639 135.875 147.393 134.396 147.314 133.486L144.824 104.187C144.775 103.61 144.547 103.063 144.174 102.621C143.8 102.178 143.298 101.863 142.737 101.719L133.455 99.7047C132.567 99.4737 130.337 100.535 130.409 101.444L134.285 130.404C134.335 130.98 134.563 131.525 134.937 131.966C135.31 132.407 135.811 132.721 136.371 132.865Z" fill="#407BFF"/>
<mask id="mask5_2372_4796" style="mask-type:luminance" maskUnits="userSpaceOnUse" x="130" y="99" width="18" height="37">
<path d="M136.371 132.865L144.752 135.651C145.64 135.875 147.394 134.395 147.314 133.486L144.824 104.187C144.775 103.61 144.548 103.063 144.174 102.62C143.8 102.178 143.299 101.863 142.738 101.718L133.455 99.7046C132.567 99.4736 130.337 100.535 130.409 101.444L134.285 130.404C134.336 130.979 134.563 131.525 134.937 131.966C135.311 132.407 135.812 132.721 136.371 132.865Z" fill="white"/>
</mask>
<g mask="url(#mask5_2372_4796)">
<path opacity="0.3" d="M136.371 132.865L144.752 135.651C145.64 135.875 147.394 134.395 147.314 133.486L144.824 104.187C144.775 103.61 144.548 103.063 144.174 102.62C143.8 102.178 143.299 101.863 142.738 101.718L133.455 99.7046C132.567 99.4736 130.337 100.535 130.409 101.444L134.285 130.404C134.336 130.979 134.563 131.525 134.937 131.966C135.311 132.407 135.812 132.721 136.371 132.865Z" fill="black" fill-opacity="0.7"/>
</g>
<path d="M136.371 132.865L144.751 135.652C145.639 135.875 147.393 134.396 147.314 133.486L144.824 104.187C144.775 103.61 144.547 103.063 144.174 102.621C143.8 102.178 143.298 101.863 142.737 101.719L133.455 99.7047C132.567 99.4737 130.337 100.535 130.409 101.444L134.285 130.404C134.335 130.98 134.563 131.525 134.937 131.966C135.31 132.407 135.811 132.721 136.371 132.865Z" stroke="#263238" stroke-linecap="round" stroke-linejoin="round"/>
<path d="M134.992 133.588L144.275 135.609C144.481 135.661 144.696 135.663 144.903 135.616C145.11 135.568 145.303 135.472 145.465 135.335C145.627 135.198 145.755 135.025 145.837 134.829C145.918 134.633 145.952 134.42 145.935 134.208L143.431 104.909C143.382 104.333 143.154 103.785 142.781 103.343C142.407 102.901 141.905 102.585 141.344 102.441L132.055 100.427C131.852 100.38 131.641 100.381 131.439 100.43C131.237 100.48 131.05 100.577 130.892 100.713C130.734 100.848 130.611 101.019 130.532 101.212C130.453 101.404 130.421 101.613 130.438 101.82L132.906 131.126C132.957 131.702 133.184 132.248 133.558 132.688C133.932 133.129 134.433 133.443 134.992 133.588Z" fill="#407BFF" stroke="#263238" stroke-linecap="round" stroke-linejoin="round"/>
<path opacity="0.3" d="M140.139 110.331L141.64 110.655C141.673 110.663 141.707 110.663 141.74 110.656C141.773 110.648 141.804 110.633 141.83 110.611C141.856 110.589 141.877 110.562 141.89 110.53C141.903 110.499 141.909 110.465 141.907 110.432L141.503 105.704C141.494 105.611 141.457 105.523 141.396 105.452C141.335 105.381 141.254 105.33 141.164 105.307L139.669 104.982C139.637 104.974 139.602 104.974 139.569 104.981C139.536 104.989 139.505 105.004 139.479 105.026C139.453 105.048 139.433 105.076 139.42 105.107C139.406 105.138 139.4 105.172 139.402 105.206L139.807 109.934C139.813 110.026 139.848 110.115 139.908 110.186C139.968 110.257 140.048 110.308 140.139 110.331Z" fill="black" fill-opacity="0.7"/>
<path d="M127.081 125.019C126.72 120.912 130.459 114.748 132.942 114.748C135.425 114.748 143.004 120.573 143.004 120.573C145.935 122.702 144.448 124.724 144.448 124.724C146.173 125.864 146.614 127.401 145.892 128.116C145.17 128.831 142.593 128.116 142.593 128.116C142.593 128.116 145.105 129.957 144.484 130.859C143.04 132.988 138.132 130.173 138.132 130.173C138.132 130.173 140.962 132.036 140.796 132.389C139.735 134.721 135.122 132.007 135.122 132.007L131.874 133.667C131.877 134.048 131.801 134.425 131.651 134.776C131.502 135.126 131.282 135.442 131.005 135.703C130.728 135.965 130.4 136.166 130.041 136.295C129.683 136.424 129.302 136.478 128.922 136.453" fill="white"/>
<path d="M127.081 125.019C126.72 120.912 130.459 114.748 132.942 114.748C135.425 114.748 143.004 120.573 143.004 120.573C145.935 122.702 144.448 124.724 144.448 124.724C146.173 125.864 146.614 127.401 145.892 128.116C145.17 128.831 142.593 128.116 142.593 128.116C142.593 128.116 145.105 129.957 144.484 130.859C143.04 132.988 138.132 130.173 138.132 130.173C138.132 130.173 140.962 132.036 140.796 132.389C139.735 134.721 135.122 132.007 135.122 132.007L131.874 133.667C131.877 134.048 131.801 134.425 131.651 134.776C131.502 135.126 131.282 135.442 131.005 135.703C130.728 135.965 130.4 136.166 130.041 136.295C129.683 136.424 129.302 136.478 128.922 136.453" stroke="#263238" stroke-linecap="round" stroke-linejoin="round"/>
<path d="M144.484 124.724C144.484 124.724 137.396 120.14 136.501 120.017C135.606 119.895 132.322 119.18 132.322 119.18" fill="white"/>
<path d="M144.484 124.724C144.484 124.724 137.396 120.14 136.501 120.017C135.606 119.895 132.322 119.18 132.322 119.18" stroke="#263238" stroke-linecap="round" stroke-linejoin="round"/>
<path d="M142.593 128.116C142.593 128.116 136.819 125.142 135.786 125.142C134.203 124.968 132.631 124.698 131.08 124.334" fill="white"/>
<path d="M142.593 128.116C142.593 128.116 136.819 125.142 135.786 125.142C134.203 124.968 132.631 124.698 131.08 124.334" stroke="#263238" stroke-linecap="round" stroke-linejoin="round"/>
<path d="M138.132 130.173C137.459 129.694 136.747 129.274 136.003 128.917C134.628 128.822 133.248 128.822 131.874 128.917" fill="white"/>
<path d="M138.132 130.173C137.459 129.694 136.747 129.274 136.003 128.917C134.628 128.822 133.248 128.822 131.874 128.917" stroke="#263238" stroke-linecap="round" stroke-linejoin="round"/>
<path d="M162.558 131.126C162.941 129.004 163.8 127.517 165.186 126.795C180.893 118.963 214.414 117.476 235.066 120.068C254.122 122.464 257.045 174.775 255.111 223.231H181.145C181.145 223.231 181.607 181.019 172.274 164.388C170.21 160.721 165.597 151.46 165.056 147.194" fill="#407BFF"/>
<mask id="mask6_2372_4796" style="mask-type:luminance" maskUnits="userSpaceOnUse" x="162" y="118" width="94" height="106">
<path d="M162.559 131.126C162.942 129.004 163.801 127.517 165.187 126.795C180.894 118.963 214.415 117.476 235.066 120.067C254.123 122.464 257.046 174.774 255.112 223.231H181.146C181.146 223.231 181.608 181.018 172.275 164.387C170.211 160.721 165.598 151.46 165.057 147.194" fill="white"/>
</mask>
<g mask="url(#mask6_2372_4796)">
<path opacity="0.2" d="M255.111 223.224H181.146C181.146 223.224 181.247 214.28 180.424 203.013C180.424 203.013 178.374 194.979 185.383 190.778C191.728 186.974 207.716 185.097 211.788 181.661C216.472 177.705 217.685 167.001 224.982 148.977C229.458 137.926 250.47 141.759 250.47 141.759C255.646 161.934 256.302 193.311 255.111 223.224Z" fill="black"/>
</g>
<path d="M139.236 160.671C139.236 160.671 145.675 169.16 142.593 176.017" stroke="#263238" stroke-linecap="round" stroke-linejoin="round"/>
<path d="M162.313 151.453C162.313 151.453 164.753 158.635 170.412 160.902" stroke="#263238" stroke-linecap="round" stroke-linejoin="round"/>
<path d="M119.718 146.696C119.718 146.696 125.948 150.883 131.874 147.887" stroke="#263238" stroke-linecap="round" stroke-linejoin="round"/>
<path d="M141.33 164.157C141.33 164.157 145.56 165.832 146.628 169.831" stroke="#263238" stroke-linecap="round" stroke-linejoin="round"/>
<path d="M181.145 223.224C181.145 223.224 181.607 181.012 172.274 164.381C170.21 160.714 165.597 151.453 165.056 147.187" stroke="#263238" stroke-miterlimit="10"/>
<path d="M162.558 131.126C162.941 129.004 163.8 127.517 165.186 126.795C180.893 118.963 214.414 117.476 235.066 120.068C254.122 122.464 257.045 174.775 255.111 223.231" stroke="#263238" stroke-miterlimit="10"/>
<path d="M213.664 120.407C213.664 120.407 210.379 134.562 196.78 134.627C186.92 134.677 187.685 124.723 187.685 124.723C188.232 124.146 188.596 123.42 188.731 122.636C188.865 121.853 188.765 121.047 188.443 120.32C188.292 119.991 188.093 119.687 187.851 119.418C186.755 118.325 185.417 117.504 183.946 117.021C183.074 116.691 182.179 116.423 181.268 116.22C181.268 116.22 182.257 113.333 181.723 112.791C174.692 105.393 189.273 91.4688 203.905 95.3811C203.905 95.3811 195.878 105.552 213.664 120.407Z" fill="white" stroke="#263238" stroke-linecap="round" stroke-linejoin="round"/>
<path d="M187.851 119.418C186.755 118.325 185.417 117.504 183.946 117.022C187.237 114.676 190.861 112.46 190.861 112.46C190.913 113.771 190.669 115.077 190.148 116.282C189.627 117.486 188.842 118.558 187.851 119.418Z" fill="#263238"/>
<path d="M206.734 87.694C208.365 65.9166 196.787 58.3952 189.706 56.6556C178.359 53.8982 165.583 62.9932 164.247 75.1559C162.912 87.3187 166.167 89.5347 166.759 94.3348C167.178 97.7057 165.373 99.6763 168.925 107.725C171.292 113.037 175.176 121.548 184.415 118.48C187.236 117.51 189.909 116.152 192.355 114.445" fill="white"/>
<path d="M206.734 87.694C208.365 65.9166 196.787 58.3952 189.706 56.6556C178.359 53.8982 165.583 62.9932 164.247 75.1559C162.912 87.3187 166.167 89.5347 166.759 94.3348C167.178 97.7057 165.373 99.6763 168.925 107.725C171.292 113.037 175.176 121.548 184.415 118.48C187.236 117.51 189.909 116.152 192.355 114.445" stroke="#263238" stroke-linecap="round" stroke-linejoin="round"/>
<path d="M177.999 85.1753C177.999 85.1753 181.716 83.0965 184.538 87.3914" stroke="#263238" stroke-linecap="round" stroke-linejoin="round"/>
<path d="M164.219 84.8068C164.219 84.8068 168.197 83.2837 170.413 85.9905" stroke="#263238" stroke-linecap="round" stroke-linejoin="round"/>
<path d="M172.39 91.7865C172.39 91.7865 173.314 95.3956 172.022 96.3268C170.73 97.2579 168.304 96.103 169.423 98.9326C170.542 101.762 173.927 101.416 173.927 101.416" stroke="#263238" stroke-linecap="round" stroke-linejoin="round"/>
<path d="M179.803 91.6208C179.954 92.6025 180.525 93.3243 181.059 93.2377C181.593 93.151 181.911 92.2993 181.781 91.3176C181.651 90.3359 181.059 89.6213 180.532 89.7007C180.005 89.7801 179.651 90.6463 179.803 91.6208Z" fill="#263238" stroke="#263238" stroke-linecap="round" stroke-linejoin="round"/>
<path d="M168.405 92.4081C168.557 93.3826 169.127 94.1116 169.654 94.025C170.181 93.9384 170.513 93.0794 170.376 92.105C170.239 91.1305 169.654 90.4014 169.127 90.4881C168.6 90.5747 168.254 91.4264 168.405 92.4081Z" fill="#263238" stroke="#263238" stroke-linecap="round" stroke-linejoin="round"/>
<path d="M181.601 103.17C181.601 103.17 177.681 106.223 173.495 105.804" stroke="#263238" stroke-linecap="round" stroke-linejoin="round"/>
<path d="M180.965 104.094C180.965 104.094 180.965 107.306 178.078 108.028C175.191 108.749 174.606 105.898 174.606 105.898" stroke="#263238" stroke-linecap="round" stroke-linejoin="round"/>
<path d="M200.252 56.1792C200.252 56.1792 195.784 50.0726 181.6 53.1331C167.416 56.1936 162.45 59.247 160.155 63.6357C157.859 68.0244 154.041 82.0783 157.672 85.1821C161.302 88.286 163.93 87.3909 163.93 87.3909C163.93 87.3909 158.632 86.9506 158.632 82.9373C158.632 82.9373 161.23 85.7812 164.515 86.4598C164.243 84.0349 164.144 81.5938 164.219 79.1549C164.363 73.9 168.311 71.0705 171.531 72.3697C171.531 72.3697 173.783 69.4319 175.573 71.5324C177.998 74.3764 173.783 88.6685 183.852 87.4126C183.852 87.4126 178.078 86.0122 180.784 76.1738C180.784 76.1738 181.6 86.8784 189.201 87.4126C191.929 87.6075 192.853 90.8845 193.113 92.7035L195.401 91.7868C195.979 90.8629 198.549 89.3976 199.732 90.1988C204.316 93.3532 200.83 97.1789 200.454 101.423L202.107 104.094C206.474 100.42 216.154 83.7024 210.61 72.2398C211.368 72.5576 212.04 73.0504 212.57 73.6777C213.101 74.305 213.476 75.049 213.664 75.8489C213.664 75.8489 214.364 60.5679 200.252 56.1792Z" fill="#263238"/>
<path d="M195.402 93.2307C195.402 93.2307 198.138 85.4495 202.44 86.5755C206.742 87.7016 205.269 96.7172 202.209 100.059C199.148 103.401 196.6 100.933 196.6 100.933" fill="white"/>
<path d="M195.402 93.2307C195.402 93.2307 198.138 85.4495 202.44 86.5755C206.742 87.7016 205.269 96.7172 202.209 100.059C199.148 103.401 196.6 100.933 196.6 100.933" stroke="#263238" stroke-linecap="round" stroke-linejoin="round"/>
<g opacity="0.2">
<path d="M174.628 64.6109C179.868 61.9185 182.871 69.0574 185.585 76.7665C188.299 84.4755 193.576 85.1829 193.576 85.1829" stroke="white" stroke-linecap="round" stroke-linejoin="round"/>
<path d="M171.531 67.2023C171.531 67.2023 167.684 61.9185 163.93 65.2028C160.177 68.4871 156.597 80.1951 161.88 82.7648" stroke="white" stroke-linecap="round" stroke-linejoin="round"/>
<path d="M179.298 60.7346C185.152 58.6341 189.721 58.0494 193.15 68.0467C196.578 78.0439 199.43 83.6092 205.854 85.1828" stroke="white" stroke-linecap="round" stroke-linejoin="round"/>
<path d="M193.576 57.2048C199.011 58.7784 204.064 72.5869 208.662 74.8246" stroke="white" stroke-linecap="round" stroke-linejoin="round"/>
<path d="M176.014 59.8178C176.014 59.8178 174.303 56.4614 169.878 58.3381" stroke="white" stroke-linecap="round" stroke-linejoin="round"/>
</g>
<path d="M235.275 123.569C229.371 126.024 227.415 129.734 225.567 140.352C224.412 146.971 224.845 185.105 224.845 185.105C224.845 185.105 191.641 188.548 185.405 190.764C182.553 191.775 181.268 195.095 181.268 195.095L177.551 195.817C176.566 198.558 176.236 201.491 176.587 204.383C176.938 207.274 177.96 210.043 179.572 212.469L184.069 211.957C186.292 218.287 240.906 216.822 248.413 208.044C256.114 199.036 262.734 133.697 239.924 121.974" fill="#407BFF"/>
<path d="M235.275 123.569C229.371 126.024 227.415 129.734 225.567 140.352C224.412 146.971 224.845 185.105 224.845 185.105C224.845 185.105 191.641 188.548 185.405 190.764C182.553 191.775 181.268 195.095 181.268 195.095L177.551 195.817C176.566 198.558 176.236 201.491 176.587 204.383C176.938 207.274 177.96 210.043 179.572 212.469L184.069 211.957C186.292 218.287 240.906 216.822 248.413 208.044C256.114 199.036 262.734 133.697 239.924 121.974" stroke="#263238" stroke-linecap="round" stroke-linejoin="round"/>
<path d="M185.404 125.597C185.404 125.597 184.495 133.898 193.236 137.623C201.977 141.347 214.508 132.014 216.334 121.966" stroke="#263238" stroke-linecap="round" stroke-linejoin="round"/>
<path d="M215.338 149.316C215.338 149.316 201.197 170.733 186.638 176.024" stroke="#263238" stroke-linecap="round" stroke-linejoin="round"/>
<path d="M224.845 185.112C224.845 185.112 229.616 184.578 232.063 187.436" stroke="#263238" stroke-linecap="round" stroke-linejoin="round"/>
<path d="M228.44 147.886C228.44 147.886 235.47 169.592 244.175 173.728" stroke="#263238" stroke-linecap="round" stroke-linejoin="round"/>
<path d="M232.041 179.583C232.041 179.583 227.277 180.153 224.823 183.726" stroke="#263238" stroke-linecap="round" stroke-linejoin="round"/>
<path d="M181.268 195.073C182.866 197.484 183.829 200.26 184.069 203.143" stroke="#263238" stroke-linecap="round" stroke-linejoin="round"/>
<path d="M177.861 197.628C177.861 197.628 167.756 198.35 166.962 198.35C166.168 198.35 157.441 192.907 154.914 193.218C152.128 193.557 145.495 202.486 145.155 203.461C144.963 203.994 144.987 204.582 145.224 205.097C145.46 205.613 145.889 206.015 146.419 206.218C146.296 208.535 149.306 209.444 149.306 209.444C149.263 211.466 152.706 211.92 152.706 211.92C154.655 215.631 161.368 210.751 161.368 210.751C164.029 210.765 166.676 210.351 169.207 209.524L179.89 209.834C180.243 202.356 177.861 197.628 177.861 197.628Z" fill="white" stroke="#263238" stroke-linecap="round" stroke-linejoin="round"/>
<path d="M155.636 194.437C155.636 194.437 155.088 196.148 155.586 196.79C156.084 197.433 157.325 197.274 157.304 198.458C157.282 199.642 157.159 200.356 158.993 201.208C160.826 202.06 158.661 204.817 160.09 205.387" stroke="#263238" stroke-linecap="round" stroke-linejoin="round"/>
<path d="M153.363 201.98C153.363 201.98 149.335 207.3 149.292 209.459" stroke="#263238" stroke-linecap="round" stroke-linejoin="round"/>
<path d="M156.026 205.308C156.026 205.308 152.417 210.202 152.691 211.934" stroke="#263238" stroke-linecap="round" stroke-linejoin="round"/>
<path d="M146.419 206.232C146.419 206.232 148.916 201.31 152.431 198.927" stroke="#263238" stroke-linecap="round" stroke-linejoin="round"/>
<path d="M159.412 208.312C158.723 209.511 157.65 210.442 156.365 210.953" stroke="#263238" stroke-linecap="round" stroke-linejoin="round"/>
<path d="M158.372 209.639C158.372 209.639 162.703 209.726 161.368 210.765" stroke="#263238" stroke-linecap="round" stroke-linejoin="round"/>
<path d="M273.265 227.556V211.509C273.265 210.585 272.897 209.698 272.244 209.044C271.59 208.39 270.703 208.023 269.778 208.023H4.58724C3.66259 208.023 2.7758 208.39 2.12198 209.044C1.46815 209.698 1.10083 210.585 1.10083 211.509V227.556" fill="white"/>
<mask id="mask7_2372_4796" style="mask-type:luminance" maskUnits="userSpaceOnUse" x="1" y="208" width="273" height="20">
<path d="M273.265 227.555V211.509C273.265 210.584 272.897 209.698 272.244 209.044C271.59 208.39 270.703 208.023 269.778 208.023H4.58724C3.66259 208.023 2.7758 208.39 2.12198 209.044C1.46815 209.698 1.10083 210.584 1.10083 211.509V227.555" fill="white"/>
</mask>
<g mask="url(#mask7_2372_4796)">
<path opacity="0.4" d="M273.265 211.509V218.042C271.32 217.642 269.324 217.556 267.353 217.789C261.441 218.605 255.645 224.69 237.809 224.69C219.972 224.69 211.953 218.691 196.022 218.691C180.092 218.691 178.258 225.26 171.697 225.26C165.135 225.26 159.426 222.56 147.516 222.56C135.606 222.56 128.005 226.408 104.452 226.408C80.8985 226.408 75.4848 216.981 64.2604 217.796C53.0361 218.612 39.2131 223.232 19.796 223.232C13.4105 223.313 7.06946 222.159 1.12244 219.832V211.509C1.12244 210.584 1.48975 209.698 2.14358 209.044C2.79741 208.39 3.6842 208.023 4.60885 208.023H269.749C270.21 208.019 270.666 208.106 271.092 208.28C271.519 208.453 271.907 208.709 272.233 209.034C272.56 209.358 272.82 209.743 272.997 210.168C273.174 210.593 273.265 211.049 273.265 211.509Z" fill="#FC4772"/>
</g>
<path d="M273.265 227.556V211.509C273.265 210.585 272.897 209.698 272.244 209.044C271.59 208.39 270.703 208.023 269.778 208.023H4.58724C3.66259 208.023 2.7758 208.39 2.12198 209.044C1.46815 209.698 1.10083 210.585 1.10083 211.509V227.556" stroke="#263238" stroke-linecap="round" stroke-linejoin="round"/>
<path d="M112.963 194.583C112.963 194.583 114.009 192.49 115.532 193.24C117.055 193.991 116.579 199.917 114.247 199.917C111.916 199.917 109.635 198.416 109.44 196.243C109.245 194.071 112.963 194.583 112.963 194.583Z" fill="#F8247D" stroke="#263238" stroke-linecap="round" stroke-linejoin="round"/>
<path d="M113.67 193.637L114.103 192.193L112.486 193.637L110.775 192.193L111.345 193.637L109.433 194.582C109.433 194.582 113.229 195.102 113.67 193.637Z" fill="#263238"/>
<path d="M130.668 204.5H97.8253L98.41 200.451C98.4484 200.178 98.5843 199.928 98.7926 199.748C99.001 199.567 99.2676 199.468 99.5433 199.469H128.994C129.268 199.47 129.533 199.57 129.74 199.75C129.947 199.93 130.082 200.179 130.12 200.451L130.668 204.5Z" fill="white"/>
<mask id="mask8_2372_4796" style="mask-type:luminance" maskUnits="userSpaceOnUse" x="97" y="199" width="34" height="6">
<path d="M130.669 204.5H97.8257L98.4104 200.45C98.4487 200.177 98.5847 199.927 98.793 199.747C99.0013 199.566 99.268 199.467 99.5436 199.468H128.994C129.268 199.469 129.533 199.569 129.74 199.749C129.947 199.93 130.082 200.178 130.12 200.45L130.669 204.5Z" fill="white"/>
</mask>
<g mask="url(#mask8_2372_4796)">
<path opacity="0.4" d="M130.669 204.5H97.8257L98.4104 200.45C98.4487 200.177 98.5847 199.927 98.793 199.747C99.0013 199.566 99.268 199.467 99.5436 199.468H128.994C129.268 199.469 129.533 199.569 129.74 199.749C129.947 199.93 130.082 200.178 130.12 200.45L130.669 204.5Z" fill="#407BFF"/>
</g>
<path d="M130.668 204.5H97.8253L98.41 200.451C98.4484 200.178 98.5843 199.928 98.7926 199.748C99.001 199.567 99.2676 199.468 99.5433 199.469H128.994C129.268 199.47 129.533 199.57 129.74 199.75C129.947 199.93 130.082 200.179 130.12 200.451L130.668 204.5Z" stroke="#263238" stroke-linecap="round" stroke-linejoin="round"/>
<path d="M128.987 208.023H99.7386L92.5204 205.309H136.205L128.987 208.023Z" fill="white"/>
<mask id="mask9_2372_4796" style="mask-type:luminance" maskUnits="userSpaceOnUse" x="92" y="205" width="45" height="4">
<path d="M128.988 208.024H99.7395L92.5212 205.31H136.206L128.988 208.024Z" fill="white"/>
</mask>
<g mask="url(#mask9_2372_4796)">
<path opacity="0.4" d="M128.988 208.024H99.7395L92.5212 205.31H136.206L128.988 208.024Z" fill="#407BFF"/>
</g>
<path d="M128.987 208.023H99.7386L92.5204 205.309H136.205L128.987 208.023Z" stroke="#263238" stroke-linecap="round" stroke-linejoin="round"/>
<path d="M137.735 205.807H90.9968C90.7071 205.807 90.4291 205.693 90.2236 205.488C90.018 205.284 89.9016 205.007 89.8997 204.717C89.8997 204.426 90.0153 204.147 90.221 203.941C90.4268 203.736 90.7058 203.62 90.9968 203.62H137.735C138.025 203.622 138.302 203.738 138.506 203.944C138.71 204.149 138.825 204.427 138.825 204.717C138.823 205.006 138.708 205.282 138.504 205.486C138.3 205.69 138.023 205.805 137.735 205.807Z" fill="white" stroke="#263238" stroke-linecap="round" stroke-linejoin="round"/>
<path d="M53.7944 192.172C53.7944 192.172 48.1786 191.342 47.8971 194.677C47.6156 198.011 51.5639 205.569 57.2808 204.501V202.588C57.2808 202.588 51.73 203.634 50.243 196.51C49.384 192.554 54.6461 194.648 54.6461 194.648L53.7944 192.172Z" fill="white"/>
<mask id="mask10_2372_4796" style="mask-type:luminance" maskUnits="userSpaceOnUse" x="47" y="192" width="11" height="13">
<path d="M53.7935 192.171C53.7935 192.171 48.1777 191.341 47.8962 194.676C47.6147 198.011 51.5631 205.568 57.2799 204.5V202.587C57.2799 202.587 51.7291 203.634 50.2422 196.509C49.3832 192.554 54.6453 194.647 54.6453 194.647L53.7935 192.171Z" fill="white"/>
</mask>
<g mask="url(#mask10_2372_4796)">
<path opacity="0.4" d="M53.7935 192.171C53.7935 192.171 48.1777 191.341 47.8962 194.676C47.6147 198.011 51.5631 205.568 57.2799 204.5V202.587C57.2799 202.587 51.7291 203.634 50.2422 196.509C49.3832 192.554 54.6453 194.647 54.6453 194.647L53.7935 192.171Z" fill="#407BFF"/>
</g>
<path d="M53.7944 192.172C53.7944 192.172 48.1786 191.342 47.8971 194.677C47.6156 198.011 51.5639 205.569 57.2808 204.501V202.588C57.2808 202.588 51.73 203.634 50.243 196.51C49.384 192.554 54.6461 194.648 54.6461 194.648L53.7944 192.172Z" stroke="#263238" stroke-linecap="round" stroke-linejoin="round"/>
<path d="M70.5257 204.501C68.6399 205.989 66.2856 206.757 63.885 206.667C51.3252 206.667 52.7472 190.577 52.7472 190.577H75.0227C75.0227 190.577 75.8672 200.112 70.5257 204.501Z" fill="white"/>
<mask id="mask11_2372_4796" style="mask-type:luminance" maskUnits="userSpaceOnUse" x="52" y="190" width="24" height="17">
<path d="M70.5257 204.501C68.6399 205.989 66.2856 206.757 63.885 206.667C51.3252 206.667 52.7472 190.577 52.7472 190.577H75.0227C75.0227 190.577 75.8672 200.112 70.5257 204.501Z" fill="white"/>
</mask>
<g mask="url(#mask11_2372_4796)">
<path opacity="0.4" d="M70.5257 204.501C68.6399 205.989 66.2856 206.757 63.885 206.667C51.3252 206.667 52.7472 190.577 52.7472 190.577H56.8111C56.8111 190.577 57.2875 197.651 59.8572 201.08C62.4269 204.508 70.4608 204.501 70.5257 204.501Z" fill="#407BFF"/>
</g>
<path d="M70.5257 204.501C68.6399 205.989 66.2856 206.757 63.885 206.667C51.3252 206.667 52.7472 190.577 52.7472 190.577H75.0227C75.0227 190.577 75.8672 200.112 70.5257 204.501Z" stroke="#263238" stroke-linecap="round" stroke-linejoin="round"/>
<path d="M73.2257 208.023H53.2961L48.3805 206.175H78.1485L73.2257 208.023Z" fill="white"/>
<mask id="mask12_2372_4796" style="mask-type:luminance" maskUnits="userSpaceOnUse" x="48" y="206" width="31" height="3">
<path d="M73.2268 208.024H53.2972L48.3816 206.176H78.1496L73.2268 208.024Z" fill="white"/>
</mask>
<g mask="url(#mask12_2372_4796)">
<path opacity="0.4" d="M73.2268 208.024H53.2972L48.3816 206.176H78.1496L73.2268 208.024Z" fill="#407BFF"/>
</g>
<path d="M73.2257 208.023H53.2961L48.3805 206.175H78.1485L73.2257 208.023Z" stroke="#263238" stroke-linecap="round" stroke-linejoin="round"/>
<path d="M79.1877 206.515H47.3408C47.1494 206.515 46.9658 206.439 46.8304 206.303C46.6951 206.168 46.619 205.984 46.619 205.793C46.619 205.601 46.6951 205.418 46.8304 205.282C46.9658 205.147 47.1494 205.071 47.3408 205.071H79.1877C79.3792 205.071 79.5628 205.147 79.6981 205.282C79.8335 205.418 79.9096 205.601 79.9096 205.793C79.9096 205.984 79.8335 206.168 79.6981 206.303C79.5628 206.439 79.3792 206.515 79.1877 206.515Z" fill="white" stroke="#263238" stroke-linecap="round" stroke-linejoin="round"/>
<path d="M63.0262 172.401C57.8435 176.775 66.7797 183.82 63.0262 186.773C63.0262 186.773 66.7003 185.329 64.4121 180.486C62.1239 175.642 63.0262 172.401 63.0262 172.401Z" fill="white"/>
</svg>
