<svg width="272" height="327" viewBox="0 0 272 327" fill="none" xmlns="http://www.w3.org/2000/svg">
<path d="M19.8777 127.728C19.8777 127.728 21.4017 130.601 19.799 132.398C19.799 132.398 23.1338 135.04 23.5836 137.158C23.5836 137.158 16.3968 140.543 13.3545 143.25L2.10742 121.779C2.10742 121.779 3.38396 120.113 5.81332 121.654C8.24268 123.195 12.8146 131.964 19.8777 127.728Z" stroke="#263238" stroke-linecap="round" stroke-linejoin="round"/>
<path d="M8.31547 124.199C8.31547 124.199 8.18613 127.81 5.63867 128.59" stroke="#263238" stroke-linecap="round" stroke-linejoin="round"/>
<path d="M15.5648 138.579C15.3378 138.782 15.0591 138.909 14.7639 138.944C14.4687 138.979 14.1703 138.92 13.9065 138.776C13.6426 138.632 13.4252 138.408 13.2817 138.133C13.1381 137.858 13.0749 137.544 13.1001 137.231C13.1253 136.917 13.2377 136.619 13.4232 136.374C13.6086 136.128 13.8586 135.946 14.1418 135.851C14.4249 135.756 14.7283 135.752 15.0136 135.839C15.299 135.927 15.5534 136.102 15.7447 136.342C15.9996 136.665 16.1237 137.081 16.09 137.5C16.0563 137.919 15.8675 138.307 15.5648 138.579Z" stroke="#263238" stroke-linecap="round" stroke-linejoin="round"/>
<path d="M17.3594 128.744V131.242" stroke="#263238" stroke-linecap="round" stroke-linejoin="round"/>
<path d="M15.4473 128.84L15.4585 131.683" stroke="#263238" stroke-linecap="round" stroke-linejoin="round"/>
<path d="M13.9337 128.5L13.6807 130.934" stroke="#263238" stroke-linecap="round" stroke-linejoin="round"/>
<path d="M12.2989 127.71L12.0459 129.75" stroke="#263238" stroke-linecap="round" stroke-linejoin="round"/>
<path d="M10.9033 126.71L10.1104 128.424" stroke="#263238" stroke-linecap="round" stroke-linejoin="round"/>
<path d="M2.08535 121.802L1 122.742L12.1402 143.564L13.3549 143.273" stroke="#263238" stroke-linecap="round" stroke-linejoin="round"/>
<path d="M171.051 207.928C171.051 207.928 178.361 202.955 185.166 202.978C185.166 202.978 185.644 209.225 184.603 212.533L175.876 215.597C173.489 213.696 171.787 210.991 171.051 207.928Z" stroke="#263238" stroke-linecap="round" stroke-linejoin="round"/>
<path d="M175.882 215.597L176.602 217.887L185.616 214.723L184.61 212.539" stroke="#263238" stroke-linecap="round" stroke-linejoin="round"/>
<path d="M176.602 217.888C176.602 217.888 176.039 231.024 171.113 238.02C171.113 238.02 172.109 242.227 175.292 240.013C178.474 237.8 178.384 240.941 181.241 240.608C184.098 240.275 184.306 235.789 186.336 237.11C188.366 238.431 189.828 238.461 191.285 235.373C192.741 232.285 194.344 235.343 196.234 233.642C198.123 231.94 197.583 230.727 199.405 230.358C201.227 229.989 202.403 227.044 202.403 227.044C202.403 227.044 186.269 218.501 185.622 214.723" stroke="#263238" stroke-linecap="round" stroke-linejoin="round"/>
<path d="M173.093 206.702L170.832 202.264L171.456 201.472L174.33 206.041" stroke="#263238" stroke-linecap="round" stroke-linejoin="round"/>
<path d="M180.983 203.514L180.264 197.874L181.349 198.005L181.962 203.3" stroke="#263238" stroke-linecap="round" stroke-linejoin="round"/>
<path d="M223.443 84.1326L220.925 80.2896C220.636 79.8495 220.065 79.74 219.649 80.0451L213.863 84.2885C213.447 84.5937 213.343 85.1978 213.632 85.638L216.15 89.481C216.438 89.9211 217.009 90.0306 217.425 89.7255L223.212 85.482C223.628 85.1769 223.731 84.5728 223.443 84.1326Z" stroke="#263238" stroke-linecap="round" stroke-linejoin="round"/>
<path d="M220.848 80.1753L230.469 74L232.483 77.0817L223.513 84.2446" stroke="#263238" stroke-linecap="round" stroke-linejoin="round"/>
<path d="M213.554 85.524L204 93.7756L205.8 96.5241L216.22 89.5933" stroke="#263238" stroke-linecap="round" stroke-linejoin="round"/>
<path d="M219.707 82.6338L218.537 84.8886L220.179 85.2455" stroke="#263238" stroke-linecap="round" stroke-linejoin="round"/>
<path d="M180.514 127.431L209.464 135.272L205.989 155.244L191.475 153.727L190.429 148.866L187.431 152.632L174.126 145.999L180.514 127.431Z" stroke="#263238" stroke-linecap="round" stroke-linejoin="round"/>
<path d="M180.986 129.757L207.895 137.045" stroke="#263238" stroke-linecap="round" stroke-linejoin="round"/>
<path d="M205.274 140.514C205.274 140.514 204.605 144.97 207.81 144.755" stroke="#263238" stroke-linecap="round" stroke-linejoin="round"/>
<path d="M182.038 133.137C182.038 133.137 179.839 136.373 177.73 135.517" stroke="#263238" stroke-linecap="round" stroke-linejoin="round"/>
<path d="M190.99 146.541L194.162 134.565" stroke="#263238" stroke-linecap="round" stroke-linejoin="round"/>
<path d="M195.512 134.928C195.405 135.369 193.825 143.668 191.722 143.727" stroke="#263238" stroke-linecap="round" stroke-linejoin="round"/>
<path d="M192.971 151.795C193.241 151.872 204.932 153.413 204.932 153.413" stroke="#263238" stroke-linecap="round" stroke-linejoin="round"/>
<path d="M175.864 144.536C176.19 144.703 187.111 150.598 187.111 150.598" stroke="#263238" stroke-linecap="round" stroke-linejoin="round"/>
<path d="M17.3934 40.1637C18.5518 39.3367 27.5157 36.5941 42.0244 45.9106C56.5331 55.2271 55.4477 62.8361 43.987 63.318C32.5263 63.7999 10.2178 45.2859 17.3934 40.1637Z" stroke="#263238" stroke-linecap="round" stroke-linejoin="round"/>
<path d="M43.8692 58.408C47.8057 57.1409 35.642 45.1413 27.2686 44.4036C18.8952 43.6659 26.8187 50.5134 26.8187 50.5134" stroke="#263238" stroke-linecap="round" stroke-linejoin="round"/>
<path d="M44.1668 55.891C44.1668 55.891 42.3279 62.0306 23.5566 46.4674" stroke="#263238" stroke-linecap="round" stroke-linejoin="round"/>
<path d="M36.0854 42.5896C36.0854 42.5896 38.5035 43.4106 39.0209 40.5609C39.5382 37.7112 34.6064 40.3824 34.6064 40.3824C34.6064 40.3824 33.043 35.0282 31.0636 36.1288C29.0841 37.2294 28.9098 39.0082 30.6249 40.4657" stroke="#263238" stroke-linecap="round" stroke-linejoin="round"/>
<path d="M32.6902 41.1545C32.6902 41.1545 32.6227 40.274 33.3369 40.2621C33.3369 40.2621 31.8748 37.0317 31.1494 38.043C30.4239 39.0544 32.0716 39.8992 32.0716 39.8992" stroke="#263238" stroke-linecap="round" stroke-linejoin="round"/>
<path d="M35.062 40.9712C35.062 40.9712 38.0144 40.2514 37.7163 40.9712C37.4183 41.6911 34.2129 41.459 34.2129 41.459" stroke="#263238" stroke-linecap="round" stroke-linejoin="round"/>
<path d="M34.2695 39.37C34.2695 39.37 37.7111 35.8541 41.8669 38.4301C46.0227 41.0061 44.8586 47.8596 44.8586 47.8596" stroke="#263238" stroke-linecap="round" stroke-linejoin="round"/>
<path d="M38.1543 42.2442C38.1543 42.2442 42.9568 44.5763 44.9025 47.2772" stroke="#263238" stroke-linecap="round" stroke-linejoin="round"/>
<path d="M238.998 38.8665L254.862 57.0413L252.118 60.3312L238.807 49.4263L234.016 54.7211L222.049 47.7605L223.219 42.5788L207.248 38.5571C207.248 38.5571 208.721 34.1011 209.267 34.0654C209.812 34.0297 232.52 34.7853 232.52 34.7853L233.555 41.2402L238.998 38.8665Z" stroke="#263238" stroke-linecap="round" stroke-linejoin="round"/>
<path d="M238.999 38.8659L239.922 37.0812C238.924 36.8182 237.871 36.934 236.947 37.4084C235.417 38.1996 233.573 41.2397 233.573 41.2397C233.573 41.2397 235.232 36.4029 235.001 34.9216C234.932 34.4894 234.756 34.0842 234.491 33.7468C234.227 33.4094 233.883 33.1518 233.494 33L232.51 34.7848" stroke="#263238" stroke-linecap="round" stroke-linejoin="round"/>
<path d="M233.555 41.239L228.449 50.3948" stroke="#263238" stroke-linecap="round" stroke-linejoin="round"/>
<path d="M222.05 47.7601L221.212 49.6162L226.835 53.2988L227.898 51.633L227.488 53.626C227.488 53.626 232.976 56.91 233.044 56.7493C233.111 56.5887 234.022 54.7207 234.022 54.7207" stroke="#263238" stroke-linecap="round" stroke-linejoin="round"/>
<path d="M232.498 48.7886L234.303 51.3527L233.786 51.9417L231.801 49.2407L232.498 48.7886Z" stroke="#263238" stroke-linecap="round" stroke-linejoin="round"/>
<path d="M228.319 46.159L227.965 46.9562L224.675 46.504L224.642 45.3975L228.319 46.159Z" stroke="#263238" stroke-linecap="round" stroke-linejoin="round"/>
<path d="M242.895 44.5765L242.395 45.689L244.689 48.9313L245.875 47.8069" stroke="#263238" stroke-linecap="round" stroke-linejoin="round"/>
<path d="M224.772 35.4392L224.62 36.7361L220.863 36.9265L221.274 35.4095" stroke="#263238" stroke-linecap="round" stroke-linejoin="round"/>
<path d="M209.059 34.226L207.485 34.2914L206 37.5873L207.344 38.2655" stroke="#263238" stroke-linecap="round" stroke-linejoin="round"/>
<path d="M147.92 133.137C156.817 134.404 143.984 154.893 130.605 155.244C117.227 155.595 128.047 130.299 147.92 133.137Z" stroke="#263238" stroke-linecap="round" stroke-linejoin="round"/>
<path d="M128.356 155.102L124.532 158.975L124.684 165.091L128.356 160.189V155.102Z" stroke="#263238" stroke-linecap="round" stroke-linejoin="round"/>
<path d="M124.532 158.975L125.528 160.189L126.945 160.099" stroke="#263238" stroke-linecap="round" stroke-linejoin="round"/>
<path d="M125.527 160.189L124.684 165.091" stroke="#263238" stroke-linecap="round" stroke-linejoin="round"/>
<path d="M131.438 155.512L129.318 159.153L130.55 163.651L132.366 159.272L131.438 155.512Z" stroke="#263238" stroke-linecap="round" stroke-linejoin="round"/>
<path d="M129.318 159.153L130.274 159.849L131.309 159.492" stroke="#263238" stroke-linecap="round" stroke-linejoin="round"/>
<path d="M130.274 159.849L130.55 163.651" stroke="#263238" stroke-linecap="round" stroke-linejoin="round"/>
<path d="M126.056 153.882L122.3 155.47L120.759 159.855L124.684 157.487L126.056 153.882Z" stroke="#263238" stroke-linecap="round" stroke-linejoin="round"/>
<path d="M122.299 155.471L122.676 156.631L123.71 157" stroke="#263238" stroke-linecap="round" stroke-linejoin="round"/>
<path d="M122.676 156.631L120.759 159.856" stroke="#263238" stroke-linecap="round" stroke-linejoin="round"/>
<path d="M66.9257 153.077L59.7551 156.707L63.7264 160.718C63.7264 160.718 62.0881 161.825 62.6028 164.656L62.8515 168.149L61.2475 168.512C61.2475 168.512 60.2526 166.198 59.0518 165.962L60.5356 170.4C60.5356 170.4 63.8465 172.133 65.1931 171.407C65.905 171.026 67.4575 171.852 68.0065 170.5C69.3617 167.088 71.3688 159.529 71.3688 159.529L66.9257 153.077Z" fill="white" stroke="#263238" stroke-linecap="round" stroke-linejoin="round"/>
<path d="M130.586 202.657C131.495 209.336 132.791 215.061 131.332 217.829C129.874 220.597 125.011 220.869 122.755 219.381C120.499 217.893 116.425 215.905 117.609 213.383C118.288 211.943 119.074 210.562 119.959 209.254C120.258 206.283 121.1 203.401 122.438 200.77" fill="white"/>
<path d="M130.586 202.657C131.495 209.336 132.791 215.061 131.332 217.829C129.874 220.597 125.011 220.869 122.755 219.381C120.499 217.893 116.425 215.905 117.609 213.383C118.288 211.943 119.074 210.562 119.959 209.254C120.258 206.283 121.1 203.401 122.438 200.77" stroke="#263238" stroke-linecap="round" stroke-linejoin="round"/>
<path d="M129.584 209.009C129.584 209.009 128.538 214.2 127.869 215.361C127.2 216.523 121.238 217.63 121.238 217.63C121.238 217.63 121.444 215.57 125.527 213.338C125.527 213.338 122.593 210.824 123.108 207.63" fill="white"/>
<path d="M129.584 209.009C129.584 209.009 128.538 214.2 127.869 215.361C127.2 216.523 121.238 217.63 121.238 217.63C121.238 217.63 121.444 215.57 125.527 213.338C125.527 213.338 122.593 210.824 123.108 207.63" stroke="#263238" stroke-linecap="round" stroke-linejoin="round"/>
<path d="M124.077 211.705C124.077 211.705 122.121 211.106 121.058 214.989" stroke="#263238" stroke-linecap="round" stroke-linejoin="round"/>
<path d="M122.293 209.7C121.608 209.777 120.967 210.097 120.475 210.608C119.936 211.673 119.513 212.799 119.214 213.965" stroke="#263238" stroke-linecap="round" stroke-linejoin="round"/>
<path d="M117.215 53.2553C129.978 56.9485 123.519 86.3122 125.217 92.5642C126.916 98.8163 118.896 98.2809 118.896 98.2809C118.896 98.2809 122.018 95.7674 120.611 90.5589C120.611 90.5589 118.981 96.9107 114.993 98.29C111.005 99.6693 102.359 95.1957 96.7405 97.3826C91.1224 99.5694 82.0047 97.7365 85.0582 90.3774C88.1117 83.0183 86.4134 77.5285 86.4134 68.5996C86.4134 67.6922 86.7737 55.2788 99.9999 50.5966C113.226 45.9144 117.215 53.2553 117.215 53.2553Z" fill="#263238" stroke="#263238" stroke-linecap="round" stroke-linejoin="round"/>
<path d="M78.7208 155.246C78.7208 155.246 96.7332 158.503 100.713 158.993C110.809 160.246 113.888 163.903 113.888 163.903L115.775 180.898C115.775 180.898 130.15 228.991 130.828 242.284C131.506 255.578 155.256 312.636 155.256 312.636H144.74C144.74 312.636 130.013 285.713 123.443 273.871C116.873 262.03 116.778 250.723 114.643 244.889C112.507 239.054 95.8583 209.6 95.8583 209.6L95.498 209.445C95.9355 239.617 89.9228 256.367 88.0701 264.516C86.0373 273.49 88.0701 312.609 88.0701 312.609H77.1083C77.1083 312.609 70.4266 263.79 71.4987 255.896C72.5709 248.001 67.2958 209.618 67.2958 209.618C63.5132 197.867 63.6419 164.229 78.7208 155.246Z" fill="#999999"/>
<mask id="mask0_2294_2804" style="mask-type:luminance" maskUnits="userSpaceOnUse" x="65" y="155" width="91" height="158">
<path d="M78.7208 155.247C78.7208 155.247 96.7332 158.505 100.713 158.995C110.809 160.247 113.888 163.904 113.888 163.904L115.775 180.899C115.775 180.899 130.15 228.992 130.828 242.285C131.506 255.579 155.256 312.637 155.256 312.637H144.74C144.74 312.637 130.013 285.714 123.443 273.872C116.873 262.031 116.778 250.724 114.643 244.89C112.507 239.055 95.8583 209.601 95.8583 209.601L95.498 209.446C95.9355 239.618 89.9228 256.368 88.0701 264.517C86.0373 273.491 88.0701 312.61 88.0701 312.61H77.1083C77.1083 312.61 70.4266 263.791 71.4987 255.897C72.5709 248.002 67.2958 209.619 67.2958 209.619C63.5132 197.868 63.6419 164.23 78.7208 155.247Z" fill="white"/>
</mask>
<g mask="url(#mask0_2294_2804)">
<path opacity="0.2" d="M155.256 312.636H144.741C144.741 312.636 130.013 285.714 123.443 273.872C116.873 262.03 116.779 250.724 114.643 244.889C112.507 239.055 95.8586 209.6 95.8586 209.6L95.4983 209.446C95.4983 209.872 95.4983 210.29 95.4983 210.707C95.3525 207.259 95.1381 203.357 94.8379 199.301L104.522 190.653C104.522 190.653 100.044 199.936 97.2824 201.542L107.284 199.419C107.284 199.419 106.014 201.288 101.837 202.677C101.837 202.677 110.166 230.47 113.631 236.532C117.096 242.593 124.087 245.706 125.459 247.621C126.831 249.535 125.922 259.417 127.963 269.398C130.005 279.38 142.665 297.192 144.02 297.528C144.561 297.655 146.43 296.802 148.472 295.822C152.314 305.577 155.256 312.636 155.256 312.636Z" fill="black" fill-opacity="0.7"/>
</g>
<path d="M78.7208 155.246C78.7208 155.246 96.7332 158.503 100.713 158.993C110.809 160.246 113.888 163.903 113.888 163.903L115.775 180.898C115.775 180.898 130.15 228.991 130.828 242.284C131.506 255.578 155.256 312.636 155.256 312.636H144.74C144.74 312.636 130.013 285.713 123.443 273.871C116.873 262.03 116.778 250.723 114.643 244.889C112.507 239.054 95.8583 209.6 95.8583 209.6L95.498 209.445C95.9355 239.617 89.9228 256.367 88.0701 264.516C86.0373 273.49 88.0701 312.609 88.0701 312.609H77.1083C77.1083 312.609 70.4266 263.79 71.4987 255.896C72.5709 248.001 67.2958 209.618 67.2958 209.618C63.5132 197.867 63.6419 164.229 78.7208 155.246Z" stroke="#263238" stroke-linecap="round" stroke-linejoin="round"/>
<path d="M114.676 157.223L113.887 163.901C113.887 163.901 109.435 165.88 100.283 164.573C89.4156 163.021 78.7197 155.245 78.7197 155.245L82.3565 150.862L114.676 157.223Z" fill="white" stroke="#263238" stroke-linecap="round" stroke-linejoin="round"/>
<path d="M121.435 103.86C125.81 109.014 130.759 120.012 127.44 128.042C124.12 136.073 116.907 144.993 116.907 144.993L114.719 157.224C101.648 157.397 82.4001 150.873 82.4001 150.873L87.0576 138.722C87.0576 138.722 71.2667 109.213 83.275 94.5134C83.275 94.5134 85.6252 95.321 86.4143 95.557C117.653 104.876 116.066 97.5532 121.435 103.86Z" fill="#FF89D8"/>
<mask id="mask1_2294_2804" style="mask-type:luminance" maskUnits="userSpaceOnUse" x="78" y="94" width="51" height="64">
<path d="M121.436 103.861C125.811 109.015 130.76 120.013 127.441 128.043C124.121 136.074 116.908 144.994 116.908 144.994L114.72 157.226C101.649 157.398 82.4011 150.874 82.4011 150.874L87.0586 138.723C87.0586 138.723 71.2677 109.215 83.276 94.5146C83.276 94.5146 85.6261 95.3222 86.4153 95.5581C117.654 104.877 116.067 97.5544 121.436 103.861Z" fill="white"/>
</mask>
<g mask="url(#mask1_2294_2804)">
<path opacity="0.2" d="M127.44 128.043C124.009 136.101 116.865 144.993 116.865 144.993L115.818 150.846L111.238 157.053C111.238 157.053 106.718 152.153 105.019 146.527C105.019 146.527 101.588 149.911 97.1282 154.947C88.9969 153.133 82.358 150.864 82.358 150.864L87.0155 138.714C87.0155 138.714 80.0679 125.72 78.9014 112.68L87.1013 109.958C87.1013 109.958 86.7496 114.214 85.0084 116.473C86.3207 115.103 89.4515 112.127 89.6316 114.532C89.8632 117.58 88.9282 117.971 89.3142 120.693C89.7002 123.415 98.7493 131.101 101.966 132.181C105.182 133.26 109.548 128.088 111.692 128.696C113.837 129.304 116.487 132.144 119.644 126.555C122.8 120.965 123.34 111.719 122.431 109.205C121.796 107.39 125.708 113.742 128.049 117.78C128.863 121.184 128.65 124.773 127.44 128.043Z" fill="black" fill-opacity="0.7"/>
</g>
<path d="M121.435 103.86C125.81 109.014 130.759 120.012 127.44 128.042C124.12 136.073 116.907 144.993 116.907 144.993L114.719 157.224C101.648 157.397 82.4001 150.873 82.4001 150.873L87.0576 138.722C87.0576 138.722 71.2667 109.213 83.275 94.5134C83.275 94.5134 85.6252 95.321 86.4143 95.557C117.653 104.876 116.066 97.5532 121.435 103.86Z" stroke="#263238" stroke-linecap="round" stroke-linejoin="round"/>
<path d="M119.557 104.613C118.699 108.016 116.821 112.889 112.867 112.698C104.804 112.299 86.9376 96.0653 86.3887 95.5572C86.8175 95.6207 94.7944 96.8094 96.3727 94.4501C96.7906 93.7235 97.0649 92.9147 97.1789 92.0727C97.4258 90.4043 97.5291 88.7157 97.4877 87.0275C97.4455 84.1421 97.2536 81.2613 96.913 78.3981L113.562 79.0605C112.262 81.714 111.142 84.4612 110.208 87.2816C109.467 89.4118 108.977 91.6305 108.75 93.8875C108.588 95.2181 108.771 96.5702 109.282 97.7985C110.191 99.6586 114.428 100.63 117.361 101.083C117.734 101.141 118.092 101.282 118.41 101.497C118.728 101.711 118.999 101.994 119.207 102.328C119.414 102.661 119.552 103.037 119.613 103.431C119.673 103.825 119.654 104.228 119.557 104.613Z" fill="white" stroke="#263238" stroke-linecap="round" stroke-linejoin="round"/>
<path d="M119.625 104.34C117.446 104.908 115.304 105.621 113.209 106.472C112.834 106.668 112.519 106.974 112.303 107.354C112.087 107.734 111.979 108.171 111.991 108.614" stroke="#263238" stroke-linecap="round" stroke-linejoin="round"/>
<path d="M110.345 108.105C110.031 107.471 109.597 106.911 109.071 106.462C108.544 106.012 107.935 105.682 107.283 105.492C105.044 104.83 96.2179 102.162 91.0801 99.6212" stroke="#263238" stroke-linecap="round" stroke-linejoin="round"/>
<path d="M83.2315 94.5034C83.2315 94.5034 91.6372 102.334 86.3708 111.381C77.7935 126.09 76.8757 111.381 76.8757 111.381L62.6202 119.693L58.3916 105.782C58.3916 105.782 74.9973 91.5724 83.2315 94.5034Z" fill="white"/>
<mask id="mask2_2294_2804" style="mask-type:luminance" maskUnits="userSpaceOnUse" x="58" y="94" width="31" height="26">
<path d="M83.2315 94.5034C83.2315 94.5034 91.6372 102.334 86.3708 111.381C77.7935 126.09 76.8757 111.381 76.8757 111.381L62.6202 119.693L58.3916 105.782C58.3916 105.782 74.9973 91.5724 83.2315 94.5034Z" fill="white"/>
</mask>
<g mask="url(#mask2_2294_2804)">
<path opacity="0.2" d="M81.6202 115.502C81.6191 116.177 81.5501 116.849 81.4143 117.508C77.5803 119.749 76.9284 112.063 76.877 111.419C78.9269 110.584 81.6374 110.439 81.6202 115.502Z" fill="black" fill-opacity="0.7"/>
</g>
<path d="M83.2315 94.5034C83.2315 94.5034 91.6373 102.334 86.3708 111.381C77.7935 126.09 76.8757 111.381 76.8757 111.381L62.6202 119.693L58.3916 105.782C58.3916 105.782 74.9973 91.5724 83.2315 94.5034Z" stroke="#263238" stroke-linecap="round" stroke-linejoin="round"/>
<path d="M95.4968 209.463C95.4968 206.922 94.8535 199.318 94.8535 199.318C94.8535 199.318 103.225 192.141 105.944 189.273C108.663 186.406 107.093 193.103 103.011 195.489" stroke="#263238" stroke-linecap="round" stroke-linejoin="round"/>
<path d="M108.655 199.009C108.655 199.009 101.013 201.505 95.0518 201.732" stroke="#263238" stroke-linecap="round" stroke-linejoin="round"/>
<path d="M93.8423 197.049C93.8423 197.049 89.425 192.14 84.4072 190.225" stroke="#263238" stroke-linecap="round" stroke-linejoin="round"/>
<path d="M110.285 166.777C111.603 166.651 112.901 166.346 114.145 165.87C114.5 166.328 114.723 166.885 114.788 167.473C114.854 168.062 114.758 168.658 114.514 169.191C113.201 169.654 111.856 170.006 110.491 170.243C110.508 169.084 110.44 167.925 110.285 166.777Z" fill="#757575" stroke="#263238" stroke-linecap="round" stroke-linejoin="round"/>
<path d="M76.8758 156.362C83.6391 161.357 91.343 164.747 99.4598 166.298C102.196 166.841 104.98 167.072 107.763 166.988C107.797 167.188 107.823 167.378 107.84 167.56C107.954 168.538 108.009 169.523 108.003 170.509C100.369 171.071 93.2327 168.213 87.4173 166.063C82.8542 164.362 78.4911 162.112 74.4141 159.357L76.8758 156.362Z" fill="#757575" stroke="#263238" stroke-linecap="round" stroke-linejoin="round"/>
<path d="M96.7148 168.04C96.5346 169.501 97.9413 170.889 99.8541 171.153C101.767 171.416 103.465 170.454 103.637 169.002C103.808 167.55 102.41 166.153 100.497 165.89C98.5846 165.626 96.8949 166.588 96.7148 168.04Z" fill="white" stroke="#263238" stroke-linecap="round" stroke-linejoin="round"/>
<path d="M46.899 147.15L55.4764 160.762L67.0128 154.265L68.3766 160.998L62.7156 170.18C62.7156 170.18 69.1057 173.683 70.4352 174.881C71.7647 176.079 90.4632 169.881 90.4632 169.881C94.4431 154.8 110.303 138.83 110.303 138.83C86.0201 123.004 68.6511 102.461 62.3382 102.624C56.5142 102.778 59.4305 104.856 59.4305 104.856L40.0715 119.656C32.6521 126.815 46.899 147.15 46.899 147.15ZM60.6227 134.592C60.6227 134.592 60.9572 132.078 65.9321 130.636V132.641L69.9548 135.545L71.4816 142.123L69.9548 144.519L67.3817 141.652L65.2288 142.123C65.2288 142.123 60.5884 136.924 60.5884 134.592H60.6227Z" fill="#263238"/>
<path d="M107.076 137.695C107.076 137.695 121.657 133.158 122.867 120.455C123.268 116.828 122.836 113.152 121.607 109.74C120.378 106.327 118.388 103.279 115.808 100.855C115.808 100.855 121.357 99.6931 122.867 99.6658L122.987 102.697L127.275 106.943L128.511 115.609C128.511 115.609 130.672 119.91 129.488 127.405C128.305 134.9 129.686 156.706 129.84 157.94C130.048 158.905 130.439 159.816 130.989 160.616C130.989 160.616 132.199 178.383 132.199 183.229C132.175 186.031 132.575 188.818 133.382 191.486C133.185 194.898 133.185 198.319 133.382 201.731C133.382 201.731 124.316 205.306 120.705 204.408C120.705 204.408 118.458 190.86 116.931 188.565C116.931 188.565 118.69 179.345 116.588 174.255L112.522 176.587C112.522 176.587 105.995 152.205 107.076 137.695Z" fill="#263238"/>
<path d="M122.927 104.34C122.927 104.34 126.804 119.339 122.927 124.738" stroke="white" stroke-linecap="round" stroke-linejoin="round"/>
<path d="M108.003 140.418C108.548 140.418 108.989 139.95 108.989 139.374C108.989 138.798 108.548 138.331 108.003 138.331C107.458 138.331 107.017 138.798 107.017 139.374C107.017 139.95 107.458 140.418 108.003 140.418Z" fill="white"/>
<path d="M128.494 130.037C125.852 134.229 117.592 142.369 117.592 144.755C117.592 147.142 114.771 145.953 114.771 145.953" stroke="white" stroke-linecap="round" stroke-linejoin="round"/>
<path d="M116.802 148.467L118.835 156.008C118.835 156.008 119.795 164.174 121.631 166.651C123.467 169.129 114.675 174.192 114.675 174.192" stroke="white" stroke-linecap="round" stroke-linejoin="round"/>
<path d="M121.633 142.123C121.633 142.123 123.46 152.695 128.495 157.223" stroke="white" stroke-linecap="round" stroke-linejoin="round"/>
<path d="M130.26 186.515C130.26 186.515 125.705 193.457 120.688 189.391" stroke="white" stroke-linecap="round" stroke-linejoin="round"/>
<path d="M68.7264 152.087L71.2996 147.55C71.2996 147.55 68.0745 143.92 67.2253 143.24C66.3762 142.559 58.0476 148.739 57.207 148.503" stroke="white" stroke-linecap="round" stroke-linejoin="round"/>
<path d="M58.3917 131.563C58.2115 126.536 48.0303 124.74 48.0303 124.74" stroke="white" stroke-linecap="round" stroke-linejoin="round"/>
<path d="M65.2197 113.549C65.2197 113.549 70.9322 124.674 68.2218 128.975" stroke="white" stroke-linecap="round" stroke-linejoin="round"/>
<path d="M59.0957 108.107C60.0735 108.207 79.2524 114.459 86.3715 122.897" stroke="white" stroke-linecap="round" stroke-linejoin="round"/>
<path d="M103.012 142.125C102.154 141.771 91.5782 151.879 85.4111 150.863" stroke="white" stroke-linecap="round" stroke-linejoin="round"/>
<path d="M108.98 143.151C109.958 144.965 113.621 154.275 114.676 154.303" stroke="white" stroke-linecap="round" stroke-linejoin="round"/>
<path d="M69.9189 161.335C69.9189 161.335 84.243 165.818 88.1028 158.994" stroke="white" stroke-linecap="round" stroke-linejoin="round"/>
<path d="M75.5119 124.711C75.349 125.618 70.3656 134.583 67.3721 132.251" stroke="white" stroke-linecap="round" stroke-linejoin="round"/>
<path d="M76.877 111.381C77.2115 110.655 81.0798 110.12 81.6202 113.55" stroke="#263238" stroke-linecap="round" stroke-linejoin="round"/>
<path d="M90.308 199.935C90.308 199.935 84.3897 195.18 77.2705 196.469C81.3049 198.674 85.7674 199.861 90.308 199.935Z" fill="white" stroke="#263238" stroke-linecap="round" stroke-linejoin="round"/>
<path d="M76.4117 204.907C76.1201 204.78 87.5622 205.134 91.5335 206.722C91.5335 206.704 83.265 207.956 76.4117 204.907Z" fill="white" stroke="#263238" stroke-linecap="round" stroke-linejoin="round"/>
<path d="M85.5555 208.484C85.5555 208.484 80.6064 206.769 76.4121 208.484C72.2178 210.199 83.0167 211.124 85.5555 208.484Z" fill="white" stroke="#263238" stroke-linecap="round" stroke-linejoin="round"/>
<path d="M91.5343 215.497C92.3405 215.08 85.9161 211.731 79.4317 214.962C79.406 214.962 88.7552 216.931 91.5343 215.497Z" fill="white" stroke="#263238" stroke-linecap="round" stroke-linejoin="round"/>
<path d="M87.1262 218.193C84.1881 217.302 81.1088 217.055 78.0771 217.467C78.0771 217.467 83.6953 219.355 87.1262 218.193Z" fill="white" stroke="#263238" stroke-linecap="round" stroke-linejoin="round"/>
<path d="M88.7563 223.392C88.7563 223.392 84.1331 222.139 80.5049 223.392C80.5049 223.392 86.0115 225.098 88.7563 223.392Z" fill="white" stroke="#263238" stroke-linecap="round" stroke-linejoin="round"/>
<path d="M118.398 198.937C116.644 198.675 114.857 198.881 113.197 199.535C111.537 200.19 110.058 201.272 108.895 202.685C108.895 202.685 114.736 201.587 118.398 198.937Z" fill="white" stroke="#263238" stroke-linecap="round" stroke-linejoin="round"/>
<path d="M118.905 201.297C118.905 201.297 115.843 203.575 109.47 204.482C109.427 204.482 116.966 206.206 118.905 201.297Z" fill="white" stroke="#263238" stroke-linecap="round" stroke-linejoin="round"/>
<path d="M116.289 205.796C116.289 205.796 111.725 205.932 109.427 207.457C109.427 207.457 114.47 208.437 116.289 205.796Z" fill="white" stroke="#263238" stroke-linecap="round" stroke-linejoin="round"/>
<path d="M120.577 207.638C120.577 207.638 113.544 207.701 110.894 210.587C110.911 210.587 117.026 213.109 120.577 207.638Z" fill="white" stroke="#263238" stroke-linecap="round" stroke-linejoin="round"/>
<path d="M122.061 210.588C120.692 210.628 119.377 211.166 118.339 212.113C118.676 212.284 119.043 212.381 119.417 212.396C119.79 212.412 120.163 212.346 120.512 212.203C120.861 212.06 121.179 211.843 121.445 211.566C121.712 211.288 121.921 210.955 122.061 210.588Z" fill="white" stroke="#263238" stroke-linecap="round" stroke-linejoin="round"/>
<path d="M123.219 215.623C123.219 215.623 122.516 215.297 114.839 218.418C114.839 218.418 120.809 221.013 123.219 215.623Z" fill="white" stroke="#263238" stroke-linecap="round" stroke-linejoin="round"/>
<path d="M123.219 221.568C123.219 221.568 119.788 221.186 118.398 223.382C118.398 223.346 122.001 224.117 123.219 221.568Z" fill="white" stroke="#263238" stroke-linecap="round" stroke-linejoin="round"/>
<path d="M152.141 298.215C152.141 298.215 149.053 297.517 148.393 298.215C146.935 299.758 147.99 304.476 147.99 304.476C147.99 304.476 145.237 299.331 140.493 300.711L135.75 302.09C135.75 302.09 141.214 310.828 141.402 314.204C141.591 317.579 139.893 321.554 142.989 326H176.329C176.329 326 179.64 320.247 175.472 319.14C159.578 314.939 156.233 309.159 154.886 306.7C153.539 304.24 152.141 298.215 152.141 298.215Z" fill="#263238"/>
<path opacity="0.3" d="M148.599 305.612C150.683 308.878 153.839 311.355 156.97 313.388C157.519 313.742 164.844 317.925 160.959 318.515" stroke="white" stroke-linecap="round" stroke-linejoin="round"/>
<path d="M154.887 306.692C154.887 306.692 152.691 306.084 149.869 308.571" stroke="white" stroke-linecap="round" stroke-linejoin="round"/>
<path d="M156.645 309.414C154.901 309.64 153.25 310.364 151.867 311.51" stroke="white" stroke-linecap="round" stroke-linejoin="round"/>
<path d="M158.738 311.494C158.738 311.494 155.556 312.401 154.261 313.871" stroke="white" stroke-linecap="round" stroke-linejoin="round"/>
<path d="M162.092 313.871C160.605 314.14 159.195 314.76 157.966 315.685" stroke="white" stroke-linecap="round" stroke-linejoin="round"/>
<path d="M92.6826 325.983C92.6826 325.983 94.0636 320.175 92.6826 318.406C91.3017 316.636 87.2532 304.532 88.677 299.74L86.4469 300.421C86.4469 300.421 85.1003 295.703 79.5851 296.211C74.0699 296.719 75.0562 302.263 75.0562 302.263C75.0562 302.263 73.3837 302.517 72.9033 303.524C72.9033 303.524 76.7202 313.869 74.5759 316.137C72.4316 318.406 68.6147 320.429 70.759 325.983H92.6826Z" fill="#263238"/>
<path opacity="0.3" d="M85.813 301.701C85.3841 304.759 86.1218 307.889 86.1389 310.956C86.1389 313.279 83.8917 315.893 85.9845 317.462" stroke="white" stroke-linecap="round" stroke-linejoin="round"/>
<path opacity="0.3" d="M75.8123 303.325C77.3305 305.739 76.8759 309.15 77.0646 311.918C77.2533 314.686 77.2533 316.455 75.0918 318.406" stroke="white" stroke-linecap="round" stroke-linejoin="round"/>
<path d="M87.4862 307.054C87.4862 307.054 80.1269 304.241 76.207 307.544" stroke="white" stroke-linecap="round" stroke-linejoin="round"/>
<path d="M87.4862 310.322C87.4862 310.322 81.2076 307.735 76.207 310.322" stroke="white" stroke-linecap="round" stroke-linejoin="round"/>
<path d="M87.4862 313.208C87.4862 313.208 80.4871 310.839 76.207 313.208" stroke="white" stroke-linecap="round" stroke-linejoin="round"/>
<path d="M87.4862 315.947C87.4862 315.947 80.8302 312.744 76.207 315.947" stroke="white" stroke-linecap="round" stroke-linejoin="round"/>
<path d="M99.4595 173.24C99.4595 173.24 99.0392 187.477 95.8398 193.638" stroke="#263238" stroke-linecap="round" stroke-linejoin="round"/>
<path d="M101.853 173.24C101.782 177.039 101.366 180.822 100.609 184.537C100.495 185.099 100.202 185.602 99.7785 185.962C99.3552 186.322 98.8278 186.517 98.2847 186.515H98.0273" stroke="#263238" stroke-linecap="round" stroke-linejoin="round"/>
<path d="M110.207 87.2795C109.466 89.4097 108.977 91.6284 108.749 93.8854C105.67 92.0706 103.603 87.9238 103.603 87.9238L110.207 87.2795Z" fill="#263238"/>
<path d="M99.2283 86.2464C90.5051 77.8257 92.7953 58.5523 99.64 54.5779C112.403 47.1734 117.507 56.5288 118.75 61.9642C119.805 66.5738 118.57 72.8077 119.291 75.5753C121.092 82.4716 115.439 90.9287 111.571 91.6818C109.169 92.1446 106.596 91.2644 103.74 89.5494" fill="white"/>
<path d="M99.2283 86.2464C90.5051 77.8257 92.7953 58.5523 99.64 54.5779C112.403 47.1734 117.507 56.5288 118.75 61.9642C119.805 66.5738 118.57 72.8077 119.291 75.5753C121.092 82.4716 115.439 90.9287 111.571 91.6818C109.169 92.1446 106.596 91.2644 103.74 89.5494" stroke="#263238" stroke-linecap="round" stroke-linejoin="round"/>
<path d="M100.704 70.5473C100.704 70.5473 104.075 67.0992 107.446 68.3423" stroke="#263238" stroke-linecap="round" stroke-linejoin="round"/>
<path d="M114.256 66.2295C114.256 66.2295 117.258 65.2313 118.707 68.0443" stroke="#263238" stroke-linecap="round" stroke-linejoin="round"/>
<path d="M116.434 71.5186C116.494 72.426 116.16 73.1883 115.688 73.2246C115.216 73.2608 114.779 72.5531 114.719 71.6366C114.659 70.7201 114.993 69.967 115.465 69.9307C115.937 69.8944 116.374 70.6021 116.434 71.5186Z" fill="#263238"/>
<path d="M111.69 74.6411C112.13 75.4156 112.766 76.0442 113.526 76.456C114.555 76.8552 112.608 79.4595 112.608 79.4595" stroke="#263238" stroke-linecap="round" stroke-linejoin="round"/>
<path d="M113.938 82.0345C113.938 82.0345 110.01 83.1959 107.017 81.9709" stroke="#263238" stroke-linecap="round" stroke-linejoin="round"/>
<path d="M107.445 82.126C107.445 82.126 109.066 84.9662 111.331 84.8482C113.595 84.7303 113.321 82.126 113.321 82.126" stroke="#263238" stroke-linecap="round" stroke-linejoin="round"/>
<path d="M97.3323 83.9533C97.3323 83.9533 94.1072 78.2911 95.188 73.0009C95.188 73.0009 95.9943 72.4111 96.9892 74.3348C96.9892 74.3348 103.294 62.0213 113.286 58.0014C113.286 58.0014 119.436 60.0885 119.196 72.4202C120.049 69.7596 120.495 66.972 120.517 64.1627C120.199 55.9961 115.774 53.1286 115.774 53.1286C114.247 47.539 97.9413 46.196 89.8014 54.9435C79.6202 65.914 87.0824 76.9391 85.873 87.7917" fill="#263238"/>
<path d="M117.216 53.3061C115.689 47.7164 97.968 46.2918 89.8282 55.1209C79.6469 66.0914 87.255 77.5611 85.8998 87.9691" stroke="#263238" stroke-linecap="round" stroke-linejoin="round"/>
<path d="M97.3336 84.0047C97.3336 84.0047 94.1085 78.3424 95.1893 73.0523C95.1893 73.0523 95.9956 72.4624 96.9905 74.3861C96.9905 74.3861 103.295 62.0726 113.287 58.0528C113.287 58.0528 119.437 60.1398 119.197 72.4715" stroke="#263238" stroke-miterlimit="10"/>
<path d="M93.5507 80.4294C93.5507 80.4294 92.2298 83.2514 93.8251 87.3257C95.4205 91.3999 96.3297 90.792 96.3297 90.792C96.3297 90.792 93.8423 92.3981 91.6894 89.0225C91.6894 89.0225 92.2726 92.6521 94.3226 93.5596C94.3226 93.5596 92.367 96.0731 89.3135 93.5596" stroke="#515B60" stroke-linecap="round" stroke-linejoin="round"/>
<path d="M96.3292 64.4679C93.8878 66.6707 92.0078 69.4864 90.8614 72.657C89.715 75.8276 89.339 79.2519 89.7676 82.6161" stroke="#515B60" stroke-linecap="round" stroke-linejoin="round"/>
<path d="M113.715 55.8199C113.715 55.8199 108.088 49.4681 99.1338 56.9996" stroke="#515B60" stroke-linecap="round" stroke-linejoin="round"/>
<path d="M116.795 59.1962C116.795 59.1962 121.521 61.5373 122.07 71.3192C122.619 81.101 121.049 85.4929 122.928 90.9101" stroke="#515B60" stroke-linecap="round" stroke-linejoin="round"/>
<path d="M117.73 87.9243C117.73 87.9243 116.298 97.2343 112.104 98.5591" stroke="#515B60" stroke-linecap="round" stroke-linejoin="round"/>
<path d="M95.1885 73.0533C95.1885 73.0533 97.8732 63.7977 103.294 60.3495" stroke="#515B60" stroke-linecap="round" stroke-linejoin="round"/>
<path d="M90.5565 59.1962C90.222 59.8042 85.2643 65.5481 86.8425 80.6473" stroke="#515B60" stroke-linecap="round" stroke-linejoin="round"/>
<path d="M97.1189 75.4668C96.956 74.1057 93.688 71.3562 92.5558 72.8262C91.4236 74.2962 91.9039 79.532 94.074 80.8749C96.2441 82.2179 97.8566 83.5064 97.8566 81.7824" fill="white"/>
<path d="M97.1189 75.4668C96.956 74.1057 93.688 71.3562 92.5558 72.8262C91.4236 74.2962 91.9039 79.532 94.074 80.8749C96.2441 82.2179 97.8566 83.5064 97.8566 81.7824" stroke="#515B60" stroke-linecap="round" stroke-linejoin="round"/>
<path d="M96.7757 81.011C99.246 80.9384 99.8464 89.0688 96.7757 89.5407C94.1511 89.9399 94.2025 83.2977 95.8065 81.9729" stroke="#515B60" stroke-linecap="round" stroke-linejoin="round"/>
<path d="M103.61 72.4091C103.61 72.4091 105.823 71.7263 107.093 72.4091" stroke="#515B60" stroke-linecap="round" stroke-linejoin="round"/>
<path opacity="0.2" d="M74.6123 112.696C75.2482 112.233 75.9263 111.837 76.6366 111.517L74.6123 112.696Z" fill="black" fill-opacity="0.7"/>
<path d="M53.8289 77.4999L60.1332 69.7688C60.3463 69.5146 60.6446 69.3583 60.9649 69.3329C61.2851 69.3074 61.6021 69.415 61.8487 69.6327L71.095 78.0262C71.2488 78.1653 71.3676 78.3425 71.4409 78.542C71.5143 78.7415 71.5398 78.9571 71.5153 79.1695L70.872 85.3127C70.8452 85.5767 70.743 85.8258 70.5791 86.0268C70.4151 86.2278 70.1971 86.3712 69.9542 86.4379L64.3018 88.0077C64.1078 88.064 63.9037 88.0686 63.7076 88.0211C63.5115 87.9736 63.3296 87.8755 63.1782 87.7355L53.9575 79.3329C53.7142 79.1056 53.5646 78.7866 53.5405 78.4441C53.5165 78.1016 53.62 77.7628 53.8289 77.4999Z" stroke="#263238" stroke-linecap="round" stroke-linejoin="round"/>
<path d="M65.9144 81.1276L66.3175 81.4996L65.7171 82.2437L65.3054 81.8717C64.9894 82.1246 64.594 82.2401 64.2001 82.1945C63.8062 82.149 63.4437 81.9458 63.1868 81.6267L63.0152 81.4724L63.71 80.6195L63.933 80.8191C64.3276 81.1821 64.6106 81.1458 64.8422 80.8191C65.0738 80.4924 65.0652 80.2383 64.6792 79.9117C64.2933 79.585 63.8816 79.4671 62.9209 79.6576C62.5113 79.8004 62.0744 79.8321 61.6502 79.7496C61.2261 79.6672 60.8283 79.4733 60.4935 79.1858C60.1594 78.956 59.9187 78.6023 59.8187 78.1942C59.7187 77.7862 59.7667 77.3533 59.9532 76.9808L59.5586 76.6178L60.1676 75.8737L60.5621 76.2367C60.8809 75.9826 61.2791 75.8666 61.6758 75.9121C62.0726 75.9576 62.438 76.1613 62.6979 76.4817L63.0753 76.8265L62.372 77.6795L61.9431 77.2893C61.5571 76.9354 61.2741 76.9898 61.0339 77.2893C60.7937 77.5887 60.7937 77.8791 61.1797 78.1967C61.5657 78.5143 61.986 78.6504 62.9381 78.4508C63.3455 78.3027 63.7823 78.2683 64.206 78.3509C64.6297 78.4336 65.0261 78.6305 65.3569 78.9226C65.7002 79.1436 65.9498 79.4961 66.0536 79.9068C66.1575 80.3175 66.1076 80.7548 65.9144 81.1276Z" fill="#263238"/>
<path d="M165.805 162.46L162.005 171.842C161.942 172.001 161.849 172.145 161.733 172.266C161.616 172.387 161.478 172.483 161.327 172.547C161.175 172.611 161.013 172.642 160.85 172.64C160.687 172.637 160.525 172.601 160.376 172.532L149.225 167.469C149.039 167.385 148.876 167.254 148.749 167.088C148.621 166.922 148.535 166.726 148.496 166.516L147.355 160.445C147.308 160.185 147.336 159.916 147.436 159.674C147.535 159.431 147.701 159.225 147.913 159.084L152.845 155.772C153.015 155.656 153.21 155.587 153.412 155.569C153.614 155.552 153.817 155.587 154.003 155.672L165.153 160.736C165.454 160.875 165.691 161.134 165.813 161.457C165.934 161.779 165.932 162.139 165.805 162.46Z" stroke="#263238" stroke-linecap="round" stroke-linejoin="round"/>
<path d="M153.248 162.858L152.759 162.631L153.119 161.724L153.608 161.95C153.841 161.599 154.193 161.356 154.591 161.273C154.989 161.19 155.402 161.273 155.744 161.506L155.95 161.606L155.529 162.64L155.255 162.522C154.783 162.304 154.517 162.422 154.397 162.776C154.277 163.13 154.354 163.402 154.826 163.62C155.298 163.838 155.684 163.783 156.541 163.293C156.891 163.028 157.298 162.861 157.725 162.805C158.152 162.75 158.586 162.808 158.986 162.976C159.372 163.083 159.705 163.341 159.918 163.698C160.132 164.055 160.209 164.484 160.135 164.899L160.616 165.117L160.247 166.025L159.766 165.807C159.537 166.152 159.192 166.392 158.801 166.476C158.41 166.56 158.004 166.483 157.665 166.261L157.21 166.061L157.631 165.017L158.145 165.253C158.617 165.471 158.883 165.326 159.003 164.972C159.123 164.618 159.063 164.328 158.591 164.11C158.12 163.892 157.734 163.947 156.876 164.437C156.527 164.703 156.12 164.873 155.693 164.93C155.266 164.987 154.832 164.93 154.431 164.763C154.041 164.666 153.702 164.414 153.482 164.059C153.261 163.705 153.178 163.275 153.248 162.858Z" fill="#263238"/>
<path d="M40.4051 202.157L35.1043 193.619C34.9257 193.327 34.8634 192.973 34.9309 192.633C34.9983 192.293 35.1902 191.995 35.4645 191.804L45.6372 184.744C45.8055 184.628 45.998 184.556 46.1982 184.536C46.3984 184.515 46.6003 184.546 46.7866 184.626L52.1989 186.976C52.4304 187.078 52.6277 187.251 52.7653 187.473C52.903 187.694 52.9745 187.954 52.9708 188.22L52.8508 194.399C52.8474 194.612 52.7948 194.821 52.6977 195.008C52.6005 195.194 52.4616 195.353 52.2932 195.47L42.1205 202.529C41.9849 202.625 41.8329 202.69 41.6732 202.723C41.5134 202.756 41.3491 202.755 41.1897 202.721C41.0303 202.686 40.8789 202.618 40.7443 202.522C40.6096 202.425 40.4944 202.301 40.4051 202.157Z" stroke="#263238" stroke-linecap="round" stroke-linejoin="round"/>
<path d="M47.0269 190.87L47.4729 190.552L47.979 191.378L47.533 191.686C47.6782 192.078 47.6756 192.515 47.5255 192.905C47.3755 193.295 47.0895 193.609 46.7267 193.782L46.538 193.909L45.9547 193.002L46.2035 192.83C46.6323 192.53 46.6838 192.231 46.4865 191.922C46.2893 191.614 46.0148 191.541 45.5859 191.841C45.157 192.14 44.9683 192.521 44.874 193.556C44.8899 194.01 44.7977 194.462 44.6059 194.87C44.4141 195.277 44.1288 195.627 43.7761 195.888C43.4765 196.167 43.0886 196.316 42.6896 196.306C42.2906 196.296 41.9098 196.127 41.6232 195.833L41.1858 196.133L40.6797 195.316L41.1171 195.016C40.9732 194.622 40.9764 194.184 41.1261 193.791C41.2757 193.399 41.5607 193.081 41.9234 192.902L42.3351 192.612L42.9269 193.519L42.4552 193.846C42.0263 194.145 41.992 194.454 42.1893 194.753C42.3866 195.053 42.6696 195.162 43.0985 194.862C43.5274 194.563 43.7246 194.173 43.8018 193.147C43.7803 192.692 43.87 192.238 44.0623 191.829C44.2546 191.421 44.5429 191.072 44.8997 190.815C45.196 190.54 45.5792 190.393 45.9734 190.403C46.3675 190.413 46.7436 190.58 47.0269 190.87Z" fill="#263238"/>
<path d="M52.6787 187.349C52.6787 187.349 56.1096 184.753 58.6228 186.096C61.1359 187.439 64.1294 187.911 65.4846 185.706" stroke="#263238" stroke-linecap="round" stroke-linejoin="round"/>
<path d="M147.354 159.81C147.354 159.81 141.41 161.625 138.777 154.302C136.144 146.98 131.058 145.092 128.484 146.526" stroke="#263238" stroke-linecap="round" stroke-linejoin="round"/>
<path d="M70.5029 86.1183C70.5029 86.1183 71.5065 88.4594 75.2376 87.9331C78.9687 87.4068 84.1409 90.2561 83.8149 95.1017" stroke="#263238" stroke-linecap="round" stroke-linejoin="round"/>
<path d="M170.091 95.9736H156.414C155.94 95.9736 155.485 96.1727 155.15 96.5272C154.815 96.8816 154.627 97.3623 154.627 97.8636V106.482C154.627 106.73 154.673 106.976 154.763 107.205C154.853 107.434 154.984 107.643 155.15 107.818C155.316 107.994 155.513 108.133 155.73 108.228C155.947 108.323 156.179 108.372 156.414 108.372H158.123L156.548 111.537L160.181 108.372H170.084C170.319 108.372 170.551 108.323 170.768 108.228C170.984 108.133 171.181 107.994 171.347 107.818C171.512 107.643 171.644 107.434 171.733 107.205C171.823 106.976 171.869 106.73 171.869 106.482V97.8613C171.868 97.362 171.681 96.8832 171.348 96.5295C171.014 96.1758 170.563 95.976 170.091 95.9736Z" fill="white" stroke="#263238" stroke-linecap="round" stroke-linejoin="round"/>
<g opacity="0.5">
<path d="M169.308 99.4582H157.198C157.124 99.4582 157.054 99.4275 157.003 99.3728C156.951 99.3181 156.922 99.2439 156.922 99.1666C156.922 99.0892 156.951 99.0151 157.003 98.9604C157.054 98.9057 157.124 98.8749 157.198 98.8749H169.308C169.344 98.8749 169.38 98.8825 169.413 98.8972C169.447 98.9119 169.477 98.9334 169.502 98.9605C169.528 98.9876 169.548 99.0198 169.561 99.0551C169.575 99.0905 169.582 99.1284 169.582 99.1666C169.582 99.2048 169.575 99.2427 169.561 99.278C169.548 99.3134 169.528 99.3456 169.502 99.3727C169.477 99.3998 169.447 99.4213 169.413 99.436C169.38 99.4507 169.344 99.4582 169.308 99.4582Z" fill="#263238"/>
<path d="M169.308 101.419H157.198C157.124 101.419 157.054 101.389 157.003 101.334C156.951 101.279 156.922 101.205 156.922 101.128C156.922 101.05 156.951 100.976 157.003 100.921C157.054 100.867 157.124 100.836 157.198 100.836H169.308C169.344 100.836 169.38 100.844 169.413 100.858C169.447 100.873 169.477 100.894 169.502 100.922C169.528 100.949 169.548 100.981 169.561 101.016C169.575 101.052 169.582 101.089 169.582 101.128C169.582 101.166 169.575 101.204 169.561 101.239C169.548 101.274 169.528 101.307 169.502 101.334C169.477 101.361 169.447 101.382 169.413 101.397C169.38 101.412 169.344 101.419 169.308 101.419Z" fill="#263238"/>
<path d="M169.308 103.376H157.198C157.124 103.376 157.054 103.345 157.003 103.29C156.951 103.236 156.922 103.161 156.922 103.084C156.922 103.046 156.929 103.008 156.943 102.973C156.957 102.938 156.977 102.906 157.003 102.879C157.028 102.852 157.059 102.831 157.092 102.816C157.126 102.802 157.161 102.794 157.198 102.795H169.308C169.381 102.795 169.45 102.825 169.502 102.88C169.553 102.934 169.582 103.007 169.582 103.084C169.582 103.122 169.575 103.16 169.561 103.196C169.548 103.231 169.528 103.263 169.502 103.29C169.477 103.317 169.447 103.339 169.413 103.354C169.38 103.368 169.344 103.376 169.308 103.376Z" fill="#263238"/>
<path d="M163.538 105.337H157.198C157.124 105.337 157.054 105.306 157.003 105.251C156.951 105.197 156.922 105.123 156.922 105.045C156.922 104.968 156.951 104.894 157.003 104.839C157.054 104.784 157.124 104.754 157.198 104.754H163.538C163.574 104.754 163.61 104.761 163.643 104.776C163.677 104.79 163.707 104.812 163.732 104.839C163.758 104.866 163.778 104.898 163.791 104.934C163.805 104.969 163.812 105.007 163.812 105.045C163.812 105.083 163.805 105.121 163.791 105.157C163.778 105.192 163.758 105.224 163.732 105.251C163.707 105.278 163.677 105.3 163.643 105.315C163.61 105.329 163.574 105.337 163.538 105.337Z" fill="#263238"/>
</g>
<path d="M255.095 144.592V118.867C255.095 117.855 254.319 117.034 253.362 117.034H240.136C239.179 117.034 238.403 117.855 238.403 118.867V144.592C238.403 145.604 239.179 146.425 240.136 146.425H253.362C254.319 146.425 255.095 145.604 255.095 144.592Z" fill="#999999" stroke="#263238" stroke-linecap="round" stroke-linejoin="round"/>
<path d="M251.742 122.424C251.596 122.424 251.453 122.378 251.332 122.293C251.21 122.207 251.116 122.085 251.06 121.942C251.004 121.8 250.99 121.643 251.018 121.491C251.047 121.34 251.117 121.201 251.22 121.092C251.323 120.983 251.455 120.908 251.598 120.878C251.741 120.848 251.889 120.864 252.024 120.923C252.159 120.982 252.274 121.082 252.355 121.21C252.436 121.338 252.479 121.489 252.479 121.644C252.48 121.747 252.462 121.849 252.425 121.944C252.389 122.039 252.334 122.125 252.266 122.198C252.197 122.271 252.115 122.328 252.025 122.367C251.935 122.406 251.839 122.425 251.742 122.424Z" fill="#263238"/>
<path d="M249.597 122.424C249.451 122.424 249.308 122.378 249.187 122.293C249.066 122.207 248.971 122.085 248.916 121.942C248.86 121.8 248.845 121.643 248.874 121.491C248.902 121.34 248.972 121.201 249.075 121.092C249.179 120.983 249.31 120.908 249.453 120.878C249.596 120.848 249.745 120.864 249.879 120.923C250.014 120.982 250.129 121.082 250.21 121.21C250.291 121.338 250.335 121.489 250.335 121.644C250.335 121.746 250.316 121.848 250.279 121.942C250.241 122.037 250.187 122.123 250.119 122.195C250.05 122.268 249.969 122.325 249.879 122.365C249.79 122.404 249.694 122.424 249.597 122.424Z" fill="#263238"/>
<path d="M251.742 124.575C251.595 124.575 251.452 124.529 251.331 124.443C251.209 124.356 251.115 124.234 251.059 124.091C251.004 123.948 250.99 123.79 251.019 123.639C251.048 123.487 251.119 123.348 251.223 123.239C251.327 123.131 251.459 123.057 251.603 123.028C251.747 122.999 251.895 123.016 252.03 123.076C252.164 123.136 252.279 123.238 252.359 123.367C252.439 123.497 252.481 123.649 252.479 123.803C252.479 123.905 252.46 124.007 252.423 124.101C252.386 124.195 252.331 124.28 252.263 124.352C252.194 124.424 252.113 124.48 252.023 124.519C251.934 124.557 251.838 124.576 251.742 124.575Z" fill="#263238"/>
<path d="M249.597 124.575C249.451 124.575 249.308 124.529 249.186 124.443C249.065 124.356 248.97 124.234 248.915 124.091C248.859 123.948 248.845 123.79 248.874 123.639C248.903 123.487 248.974 123.348 249.078 123.239C249.183 123.131 249.315 123.057 249.458 123.028C249.602 122.999 249.751 123.016 249.885 123.076C250.02 123.136 250.134 123.238 250.215 123.367C250.295 123.497 250.336 123.649 250.335 123.803C250.332 124.009 250.254 124.205 250.116 124.349C249.977 124.494 249.791 124.575 249.597 124.575Z" fill="#263238"/>
<path d="M239.931 119.548V144.193" stroke="#263238" stroke-linecap="round" stroke-linejoin="round"/>
<path d="M257.343 136.77V128.476C257.343 128.235 257.252 128.004 257.092 127.834C256.931 127.664 256.713 127.568 256.485 127.568H255.061V129.801H241.037V128.249C241.037 128.07 240.971 127.898 240.852 127.771C240.733 127.644 240.572 127.571 240.403 127.568H237.04C236.813 127.568 236.595 127.664 236.434 127.834C236.273 128.004 236.183 128.235 236.183 128.476V136.761C236.183 137.001 236.273 137.232 236.434 137.402C236.595 137.572 236.813 137.668 237.04 137.668H256.468C256.581 137.67 256.694 137.649 256.799 137.605C256.905 137.561 257.001 137.495 257.083 137.412C257.164 137.328 257.229 137.229 257.273 137.118C257.318 137.008 257.342 136.89 257.343 136.77Z" fill="#263238"/>
<path d="M266.82 325.975H270.868L236.559 155.445H232.511L266.82 325.975Z" fill="#999999" stroke="#263238" stroke-linecap="round" stroke-linejoin="round"/>
<path d="M202.251 325.975H198.202L232.511 155.445H236.56L202.251 325.975Z" fill="#999999" stroke="#263238" stroke-linecap="round" stroke-linejoin="round"/>
<path d="M236.559 155.445H232.511V325.984H236.559V155.445Z" fill="#BFBFBF" stroke="#263238" stroke-linecap="round" stroke-linejoin="round"/>
<path d="M233.154 128.476H235.916C236.264 128.476 236.598 128.623 236.844 128.883C237.09 129.143 237.228 129.497 237.228 129.865V152.732H231.842V129.865C231.842 129.497 231.98 129.143 232.226 128.883C232.472 128.623 232.806 128.476 233.154 128.476Z" fill="#263238"/>
<path d="M239.416 151.298H229.664C228.939 151.298 228.352 151.92 228.352 152.686V155.835C228.352 156.602 228.939 157.224 229.664 157.224H239.416C240.141 157.224 240.729 156.602 240.729 155.835V152.686C240.729 151.92 240.141 151.298 239.416 151.298Z" fill="#263238"/>
<path d="M232.512 132.623H229.132V128.513C229.132 128.39 229.109 128.268 229.063 128.155C229.017 128.042 228.95 127.939 228.866 127.855C228.782 127.77 228.682 127.704 228.573 127.661C228.464 127.618 228.348 127.599 228.231 127.605C227.998 127.603 227.773 127.696 227.604 127.865C227.434 128.034 227.333 128.266 227.322 128.513V132.587C227.322 132.713 227.346 132.838 227.392 132.954C227.437 133.07 227.505 133.175 227.589 133.264C227.674 133.353 227.774 133.423 227.884 133.47C227.994 133.517 228.112 133.541 228.231 133.54H232.52L232.512 132.623Z" fill="#263238"/>
<path d="M116 1V42.8777L174.988 42.8777V1L116 1Z" stroke="#999999" stroke-linecap="round" stroke-linejoin="round"/>
<path d="M119.372 4.0083V39.3461H171.605V4.0083H119.372Z" stroke="#999999" stroke-linecap="round" stroke-linejoin="round"/>
<path d="M152.409 12.511H139.551C135.912 12.511 132.962 15.6317 132.962 19.4813V22.3648C132.962 26.2144 135.912 29.3352 139.551 29.3352H152.409C156.048 29.3352 158.998 26.2144 158.998 22.3648V19.4813C158.998 15.6317 156.048 12.511 152.409 12.511Z" fill="#EB928C" stroke="#999999" stroke-linecap="round" stroke-linejoin="round"/>
<path d="M141.957 16.3192L150.046 21.0587L141.957 25.7981V16.3192Z" fill="white" stroke="#999999" stroke-linecap="round" stroke-linejoin="round"/>
</svg>
