<svg width="280" height="229" viewBox="0 0 280 229" fill="none" xmlns="http://www.w3.org/2000/svg">
<path d="M23.5888 110.051C23.5888 110.051 25.4124 113.489 23.4946 115.639C23.4946 115.639 27.4849 118.8 28.0233 121.334C28.0233 121.334 19.4236 125.384 15.7832 128.623L2.3252 102.932C2.3252 102.932 3.85268 100.939 6.7596 102.782C9.66653 104.626 15.1372 115.119 23.5888 110.051Z" stroke="#263238" stroke-linecap="round" stroke-linejoin="round"/>
<path d="M9.75367 105.828C9.75367 105.828 9.5989 110.149 6.55066 111.082" stroke="#263238" stroke-linecap="round" stroke-linejoin="round"/>
<path d="M18.4278 123.035C18.1562 123.277 17.8227 123.429 17.4695 123.471C17.1163 123.513 16.7592 123.443 16.4435 123.271C16.1278 123.098 15.8676 122.83 15.6958 122.501C15.5241 122.171 15.4485 121.796 15.4786 121.421C15.5088 121.046 15.6433 120.69 15.8652 120.396C16.087 120.102 16.3863 119.884 16.725 119.771C17.0638 119.657 17.4269 119.652 17.7683 119.756C18.1097 119.861 18.4142 120.07 18.6431 120.358C18.9481 120.744 19.0966 121.242 19.0562 121.743C19.0159 122.244 18.79 122.709 18.4278 123.035Z" stroke="#263238" stroke-linecap="round" stroke-linejoin="round"/>
<path d="M20.5753 111.266V114.256" stroke="#263238" stroke-linecap="round" stroke-linejoin="round"/>
<path d="M18.2871 111.381L18.3006 114.783" stroke="#263238" stroke-linecap="round" stroke-linejoin="round"/>
<path d="M16.476 110.975L16.1732 113.886" stroke="#263238" stroke-linecap="round" stroke-linejoin="round"/>
<path d="M14.52 110.028L14.2172 112.47" stroke="#263238" stroke-linecap="round" stroke-linejoin="round"/>
<path d="M12.8499 108.833L11.9011 110.883" stroke="#263238" stroke-linecap="round" stroke-linejoin="round"/>
<path d="M2.29871 102.96L1 104.084L14.3302 129L15.7836 128.651" stroke="#263238" stroke-linecap="round" stroke-linejoin="round"/>
<path d="M236.234 139.765C236.234 139.765 244.061 134.44 251.346 134.465C251.346 134.465 251.858 141.153 250.744 144.694L241.4 147.975C238.845 145.94 237.022 143.044 236.234 139.765Z" stroke="#263238" stroke-linecap="round" stroke-linejoin="round"/>
<path d="M241.406 147.975L242.177 150.427L251.828 147.039L250.751 144.701" stroke="#263238" stroke-linecap="round" stroke-linejoin="round"/>
<path d="M242.177 150.428C242.177 150.428 241.575 164.492 236.301 171.982C236.301 171.982 237.367 176.486 240.775 174.116C244.182 171.747 244.086 175.11 247.144 174.753C250.203 174.396 250.426 169.594 252.599 171.008C254.773 172.422 256.338 172.454 257.898 169.148C259.457 165.842 261.173 169.116 263.196 167.294C265.219 165.473 264.641 164.173 266.592 163.779C268.542 163.384 269.801 160.231 269.801 160.231C269.801 160.231 252.527 151.084 251.835 147.04" stroke="#263238" stroke-linecap="round" stroke-linejoin="round"/>
<path d="M238.42 138.452L236 133.7L236.668 132.853L239.745 137.745" stroke="#263238" stroke-linecap="round" stroke-linejoin="round"/>
<path d="M246.869 135.038L246.098 129L247.26 129.14L247.916 134.809" stroke="#263238" stroke-linecap="round" stroke-linejoin="round"/>
<path d="M202.216 31.5776L199.338 27.1866C199.009 26.6837 198.356 26.5586 197.881 26.9072L191.269 31.7558C190.794 32.1044 190.676 32.7947 191.005 33.2976L193.883 37.6887C194.212 38.1916 194.865 38.3167 195.34 37.968L201.951 33.1195C202.427 32.7709 202.545 32.0805 202.216 31.5776Z" stroke="#263238" stroke-linecap="round" stroke-linejoin="round"/>
<path d="M199.25 27.0559L210.244 20.0001L212.544 23.5212L202.296 31.7055" stroke="#263238" stroke-linecap="round" stroke-linejoin="round"/>
<path d="M190.917 33.1675L180 42.5957L182.056 45.7362L193.962 37.817" stroke="#263238" stroke-linecap="round" stroke-linejoin="round"/>
<path d="M197.947 29.8651L196.61 32.4414L198.486 32.8492" stroke="#263238" stroke-linecap="round" stroke-linejoin="round"/>
<path d="M164.28 82.7851L185.452 88.5193L182.91 103.125L172.296 102.015L171.531 98.4607L169.339 101.215L159.608 96.3637L164.28 82.7851Z" stroke="#263238" stroke-linecap="round" stroke-linejoin="round"/>
<path d="M164.625 84.486L184.304 89.8156" stroke="#263238" stroke-linecap="round" stroke-linejoin="round"/>
<path d="M182.387 92.3524C182.387 92.3524 181.898 95.611 184.242 95.4544" stroke="#263238" stroke-linecap="round" stroke-linejoin="round"/>
<path d="M165.395 86.9577C165.395 86.9577 163.787 89.3245 162.244 88.698" stroke="#263238" stroke-linecap="round" stroke-linejoin="round"/>
<path d="M171.941 96.7598L174.261 88.0018" stroke="#263238" stroke-linecap="round" stroke-linejoin="round"/>
<path d="M175.248 88.2678C175.17 88.5897 174.014 94.659 172.476 94.7025" stroke="#263238" stroke-linecap="round" stroke-linejoin="round"/>
<path d="M173.39 100.602C173.587 100.659 182.137 101.786 182.137 101.786" stroke="#263238" stroke-linecap="round" stroke-linejoin="round"/>
<path d="M160.88 95.2939C161.118 95.4158 169.105 99.7273 169.105 99.7273" stroke="#263238" stroke-linecap="round" stroke-linejoin="round"/>
<path d="M7.68139 12.0488C9.07928 11.051 19.8959 7.7415 37.4034 18.9836C54.9109 30.2257 53.6012 39.4075 39.7717 39.989C25.9421 40.5705 -0.977358 18.2298 7.68139 12.0488Z" stroke="#263238" stroke-linecap="round" stroke-linejoin="round"/>
<path d="M39.6298 34.064C44.3799 32.5349 29.7021 18.0552 19.598 17.165C9.49382 16.2748 19.0551 24.5377 19.0551 24.5377" stroke="#263238" stroke-linecap="round" stroke-linejoin="round"/>
<path d="M39.989 31.0268C39.989 31.0268 37.7701 38.4354 15.1189 19.6555" stroke="#263238" stroke-linecap="round" stroke-linejoin="round"/>
<path d="M30.2369 14.9762C30.2369 14.9762 33.1548 15.9669 33.7791 12.5282C34.4034 9.08954 28.4522 12.3128 28.4522 12.3128C28.4522 12.3128 26.5658 5.85187 24.1771 7.17996C21.7885 8.50805 21.5782 10.6545 23.6478 12.4133" stroke="#263238" stroke-linecap="round" stroke-linejoin="round"/>
<path d="M26.1402 13.2444C26.1402 13.2444 26.0588 12.1819 26.9206 12.1676C26.9206 12.1676 25.1563 8.26942 24.2809 9.48983C23.4055 10.7102 25.3938 11.7296 25.3938 11.7296" stroke="#263238" stroke-linecap="round" stroke-linejoin="round"/>
<path d="M29.002 13.0231C29.002 13.0231 32.5645 12.1544 32.2049 13.0231C31.8452 13.8917 27.9773 13.6118 27.9773 13.6118" stroke="#263238" stroke-linecap="round" stroke-linejoin="round"/>
<path d="M28.0458 11.0913C28.0458 11.0913 32.1987 6.84855 37.2135 9.957C42.2282 13.0654 40.8235 21.3355 40.8235 21.3355" stroke="#263238" stroke-linecap="round" stroke-linejoin="round"/>
<path d="M32.7336 14.5593C32.7336 14.5593 38.5288 17.3734 40.8767 20.6326" stroke="#263238" stroke-linecap="round" stroke-linejoin="round"/>
<path d="M262.929 14.8543L278.759 32.9907L276.021 36.2737L262.738 25.3918L257.957 30.6755L246.015 23.7296L247.183 18.5588L231.245 14.5456C231.245 14.5456 232.716 10.099 233.26 10.0634C233.804 10.0278 256.464 10.7818 256.464 10.7818L257.497 17.223L262.929 14.8543Z" stroke="#263238" stroke-linecap="round" stroke-linejoin="round"/>
<path d="M262.929 14.8536L263.85 13.0726C262.855 12.8102 261.804 12.9257 260.881 13.3991C259.355 14.1887 257.514 17.2223 257.514 17.2223C257.514 17.2223 259.17 12.3958 258.94 10.9176C258.87 10.4863 258.695 10.0819 258.431 9.74526C258.167 9.40859 257.824 9.15155 257.436 9.00006L256.454 10.7811" stroke="#263238" stroke-linecap="round" stroke-linejoin="round"/>
<path d="M257.497 17.2217L252.402 26.3582" stroke="#263238" stroke-linecap="round" stroke-linejoin="round"/>
<path d="M246.016 23.7289L245.18 25.5812L250.791 29.256L251.852 27.5937L251.442 29.5825C251.442 29.5825 256.919 32.8595 256.987 32.6992C257.054 32.5389 257.963 30.6748 257.963 30.6748" stroke="#263238" stroke-linecap="round" stroke-linejoin="round"/>
<path d="M256.442 24.7552L258.244 27.314L257.727 27.9017L255.746 25.2064L256.442 24.7552Z" stroke="#263238" stroke-linecap="round" stroke-linejoin="round"/>
<path d="M252.272 22.1313L251.919 22.9268L248.636 22.4756L248.602 21.3714L252.272 22.1313Z" stroke="#263238" stroke-linecap="round" stroke-linejoin="round"/>
<path d="M266.817 20.5521L266.318 21.6623L268.607 24.8977L269.791 23.7757" stroke="#263238" stroke-linecap="round" stroke-linejoin="round"/>
<path d="M248.732 11.4342L248.58 12.7283L244.832 12.9183L245.241 11.4045" stroke="#263238" stroke-linecap="round" stroke-linejoin="round"/>
<path d="M233.053 10.2235L231.481 10.2888L230 13.5777L231.341 14.2545" stroke="#263238" stroke-linecap="round" stroke-linejoin="round"/>
<path d="M140.444 86.9579C146.95 87.8846 137.565 102.868 127.781 103.125C117.998 103.382 125.91 84.8826 140.444 86.9579Z" stroke="#263238" stroke-linecap="round" stroke-linejoin="round"/>
<path d="M126.137 103.021L123.34 105.853L123.451 110.326L126.137 106.741V103.021Z" stroke="#263238" stroke-linecap="round" stroke-linejoin="round"/>
<path d="M123.34 105.853L124.068 106.741L125.104 106.675" stroke="#263238" stroke-linecap="round" stroke-linejoin="round"/>
<path d="M124.068 106.741L123.451 110.326" stroke="#263238" stroke-linecap="round" stroke-linejoin="round"/>
<path d="M128.391 103.321L126.84 105.984L127.741 109.273L129.069 106.071L128.391 103.321Z" stroke="#263238" stroke-linecap="round" stroke-linejoin="round"/>
<path d="M126.84 105.984L127.539 106.493L128.296 106.232" stroke="#263238" stroke-linecap="round" stroke-linejoin="round"/>
<path d="M127.539 106.493L127.741 109.273" stroke="#263238" stroke-linecap="round" stroke-linejoin="round"/>
<path d="M124.455 102.128L121.707 103.29L120.581 106.497L123.451 104.765L124.455 102.128Z" stroke="#263238" stroke-linecap="round" stroke-linejoin="round"/>
<path d="M121.707 103.291L121.982 104.139L122.739 104.409" stroke="#263238" stroke-linecap="round" stroke-linejoin="round"/>
<path d="M121.983 104.139L120.581 106.497" stroke="#263238" stroke-linecap="round" stroke-linejoin="round"/>
<path d="M81.212 101.54L75.9681 104.195L78.8723 107.128C78.8723 107.128 77.6743 107.937 78.0506 110.008L78.2325 112.563L77.0595 112.828C77.0595 112.828 76.3319 111.136 75.4537 110.963L76.5389 114.208C76.5389 114.208 78.9601 115.476 79.945 114.945C80.4656 114.666 81.6009 115.27 82.0024 114.281C82.9935 111.786 84.4613 106.258 84.4613 106.258L81.212 101.54Z" fill="white" stroke="#263238" stroke-linecap="round" stroke-linejoin="round"/>
<path d="M127.768 137.798C128.432 142.682 129.38 146.87 128.313 148.894C127.247 150.918 123.69 151.117 122.041 150.028C120.391 148.94 117.411 147.487 118.277 145.642C118.774 144.589 119.348 143.58 119.996 142.623C120.215 140.45 120.83 138.343 121.808 136.418" fill="white"/>
<path d="M127.768 137.798C128.432 142.682 129.38 146.87 128.313 148.894C127.247 150.918 123.69 151.117 122.041 150.028C120.391 148.94 117.411 147.487 118.277 145.642C118.774 144.589 119.348 143.58 119.996 142.623C120.215 140.45 120.83 138.343 121.808 136.418" stroke="#263238" stroke-linecap="round" stroke-linejoin="round"/>
<path d="M127.035 142.444C127.035 142.444 126.269 146.24 125.78 147.089C125.291 147.938 120.931 148.748 120.931 148.748C120.931 148.748 121.082 147.242 124.068 145.609C124.068 145.609 121.922 143.771 122.299 141.435" fill="white"/>
<path d="M127.035 142.444C127.035 142.444 126.269 146.24 125.78 147.089C125.291 147.938 120.931 148.748 120.931 148.748C120.931 148.748 121.082 147.242 124.068 145.609C124.068 145.609 121.922 143.771 122.299 141.435" stroke="#263238" stroke-linecap="round" stroke-linejoin="round"/>
<path d="M123.007 144.415C123.007 144.415 121.577 143.977 120.799 146.817" stroke="#263238" stroke-linecap="round" stroke-linejoin="round"/>
<path d="M121.703 142.949C121.201 143.005 120.733 143.239 120.373 143.613C119.979 144.392 119.669 145.215 119.451 146.068" stroke="#263238" stroke-linecap="round" stroke-linejoin="round"/>
<path d="M117.989 28.5395C127.322 31.2404 122.599 52.7143 123.841 57.2865C125.083 61.8587 119.218 61.4672 119.218 61.4672C119.218 61.4672 121.501 59.629 120.473 55.82C120.473 55.82 119.281 60.4651 116.364 61.4738C113.447 62.4825 107.124 59.2109 103.016 60.8102C98.9072 62.4095 92.2394 61.069 94.4725 55.6872C96.7055 50.3055 95.4635 46.2907 95.4635 39.7609C95.4635 39.0973 95.727 30.0194 105.399 26.5952C115.072 23.1711 117.989 28.5395 117.989 28.5395Z" fill="#263238" stroke="#263238" stroke-linecap="round" stroke-linejoin="round"/>
<path d="M89.8378 103.126C89.8378 103.126 103.01 105.508 105.921 105.867C113.304 106.783 115.556 109.457 115.556 109.457L116.936 121.886C116.936 121.886 127.449 157.057 127.944 166.778C128.44 176.5 145.809 218.227 145.809 218.227H138.118C138.118 218.227 127.348 198.538 122.543 189.878C117.739 181.218 117.67 172.95 116.108 168.683C114.546 164.416 102.371 142.876 102.371 142.876L102.107 142.763C102.427 164.827 98.0299 177.077 96.675 183.036C95.1884 189.599 96.675 218.207 96.675 218.207H88.6585C88.6585 218.207 83.7721 182.505 84.5562 176.732C85.3403 170.959 81.4826 142.889 81.4826 142.889C78.7164 134.295 78.8105 109.696 89.8378 103.126Z" fill="#999999"/>
<mask id="mask0_2372_5286" style="mask-type:luminance" maskUnits="userSpaceOnUse" x="79" y="103" width="67" height="116">
<path d="M89.8378 103.127C89.8378 103.127 103.01 105.509 105.921 105.868C113.304 106.783 115.556 109.458 115.556 109.458L116.936 121.887C116.936 121.887 127.449 157.057 127.944 166.779C128.44 176.501 145.809 218.228 145.809 218.228H138.118C138.118 218.228 127.348 198.539 122.543 189.879C117.739 181.219 117.67 172.95 116.108 168.683C114.546 164.417 102.371 142.876 102.371 142.876L102.107 142.763C102.427 164.828 98.0299 177.078 96.675 183.037C95.1884 189.6 96.675 218.208 96.675 218.208H88.6585C88.6585 218.208 83.7721 182.506 84.5562 176.733C85.3403 170.96 81.4826 142.89 81.4826 142.89C78.7164 134.296 78.8105 109.696 89.8378 103.127Z" fill="white"/>
</mask>
<g mask="url(#mask0_2372_5286)">
<path opacity="0.2" d="M145.809 218.227H138.119C138.119 218.227 127.349 198.538 122.544 189.878C117.739 181.219 117.67 172.95 116.108 168.683C114.546 164.416 102.371 142.876 102.371 142.876L102.107 142.763C102.107 143.075 102.107 143.38 102.107 143.686C102.001 141.164 101.844 138.31 101.624 135.344L108.706 129.02C108.706 129.02 105.432 135.809 103.412 136.983L110.726 135.43C110.726 135.43 109.798 136.797 106.743 137.813C106.743 137.813 112.834 158.139 115.368 162.571C117.902 167.004 123.014 169.28 124.018 170.681C125.021 172.081 124.357 179.307 125.849 186.607C127.342 193.906 136.601 206.933 137.592 207.178C137.987 207.271 139.354 206.647 140.847 205.931C143.657 213.064 145.809 218.227 145.809 218.227Z" fill="black" fill-opacity="0.7"/>
</g>
<path d="M89.8378 103.126C89.8378 103.126 103.01 105.508 105.921 105.867C113.304 106.783 115.556 109.457 115.556 109.457L116.936 121.886C116.936 121.886 127.449 157.057 127.944 166.778C128.44 176.5 145.809 218.227 145.809 218.227H138.118C138.118 218.227 127.348 198.538 122.543 189.878C117.739 181.218 117.67 172.95 116.108 168.683C114.546 164.416 102.371 142.876 102.371 142.876L102.107 142.763C102.427 164.827 98.0299 177.077 96.675 183.036C95.1884 189.599 96.675 218.207 96.675 218.207H88.6585C88.6585 218.207 83.7721 182.505 84.5562 176.732C85.3403 170.959 81.4826 142.889 81.4826 142.889C78.7164 134.295 78.8105 109.696 89.8378 103.126Z" stroke="#263238" stroke-linecap="round" stroke-linejoin="round"/>
<path d="M116.132 104.572L115.555 109.456C115.555 109.456 112.299 110.903 105.607 109.947C97.659 108.812 89.837 103.125 89.837 103.125L92.4966 99.9201L116.132 104.572Z" fill="white" stroke="#263238" stroke-linecap="round" stroke-linejoin="round"/>
<path d="M121.075 65.547C124.275 69.3162 127.894 77.359 125.466 83.2318C123.039 89.1047 117.764 95.6278 117.764 95.6278L116.164 104.573C106.604 104.699 92.5286 99.9279 92.5286 99.9279L95.9346 91.0424C95.9346 91.0424 84.3867 69.4622 93.1684 58.712C93.1684 58.712 94.8871 59.3026 95.4642 59.4751C118.309 66.2902 117.149 60.935 121.075 65.547Z" fill="#FF89D8"/>
<mask id="mask1_2372_5286" style="mask-type:luminance" maskUnits="userSpaceOnUse" x="89" y="58" width="38" height="47">
<path d="M121.076 65.5478C124.275 69.317 127.894 77.3598 125.467 83.2326C123.039 89.1054 117.764 95.6286 117.764 95.6286L116.165 104.574C106.605 104.7 92.5292 99.9287 92.5292 99.9287L95.9352 91.0431C95.9352 91.0431 84.3873 69.463 93.169 58.7128C93.169 58.7128 94.8877 59.3034 95.4648 59.4759C118.31 66.291 117.149 60.9358 121.076 65.5478Z" fill="white"/>
</mask>
<g mask="url(#mask1_2372_5286)">
<path opacity="0.2" d="M125.467 83.2323C122.958 89.125 117.733 95.6283 117.733 95.6283L116.967 99.9085L113.618 104.447C113.618 104.447 110.312 100.864 109.07 96.7497C109.07 96.7497 106.561 99.225 103.299 102.908C97.3526 101.581 92.4976 99.9217 92.4976 99.9217L95.9037 91.0362C95.9037 91.0362 90.8228 81.5335 89.9697 71.9976L95.9664 70.0068C95.9664 70.0068 95.7092 73.1191 94.4359 74.7715C95.3956 73.7694 97.6851 71.5928 97.8168 73.3514C97.9862 75.581 97.3025 75.8664 97.5847 77.8572C97.867 79.848 104.485 85.4686 106.837 86.2583C109.189 87.048 112.382 83.2655 113.95 83.7101C115.518 84.1547 117.457 86.2317 119.765 82.144C122.073 78.0562 122.468 71.2942 121.803 69.4561C121.339 68.1289 124.2 72.774 125.912 75.727C126.507 78.2167 126.352 80.8409 125.467 83.2323Z" fill="black" fill-opacity="0.7"/>
</g>
<path d="M121.075 65.547C124.275 69.3162 127.894 77.359 125.466 83.2318C123.039 89.1046 117.764 95.6278 117.764 95.6278L116.164 104.573C106.604 104.699 92.5286 99.9279 92.5286 99.9279L95.9346 91.0424C95.9346 91.0424 84.3867 69.4622 93.1684 58.712C93.1684 58.712 94.8871 59.3026 95.4642 59.4751C118.309 66.2902 117.149 60.935 121.075 65.547Z" stroke="#263238" stroke-linecap="round" stroke-linejoin="round"/>
<path d="M119.702 66.0979C119.074 68.5864 117.701 72.1499 114.809 72.0106C108.913 71.7186 95.8468 59.8468 95.4453 59.4752C95.7589 59.5217 101.593 60.391 102.747 58.6656C103.052 58.1343 103.253 57.5428 103.336 56.927C103.517 55.7069 103.592 54.472 103.562 53.2374C103.531 51.1273 103.391 49.0205 103.142 46.9266L115.317 47.4111C114.367 49.3516 113.547 51.3606 112.864 53.4232C112.323 54.9811 111.965 56.6036 111.798 58.2542C111.68 59.2273 111.814 60.2161 112.187 61.1143C112.852 62.4747 115.951 63.1847 118.096 63.5165C118.369 63.5591 118.63 63.6621 118.863 63.819C119.095 63.9758 119.294 64.1829 119.445 64.4266C119.597 64.6704 119.698 64.9453 119.742 65.2333C119.787 65.5213 119.773 65.816 119.702 66.0979Z" fill="white" stroke="#263238" stroke-linecap="round" stroke-linejoin="round"/>
<path d="M119.751 65.898C118.158 66.3139 116.591 66.8348 115.059 67.4575C114.785 67.6009 114.555 67.8247 114.397 68.1023C114.239 68.38 114.16 68.6997 114.169 69.0236" stroke="#263238" stroke-linecap="round" stroke-linejoin="round"/>
<path d="M112.965 68.6519C112.735 68.1879 112.418 67.7787 112.033 67.4499C111.648 67.1211 111.203 66.8797 110.725 66.7408C109.088 66.2564 102.634 64.3054 98.8763 62.4473" stroke="#263238" stroke-linecap="round" stroke-linejoin="round"/>
<path d="M93.1366 58.7047C93.1366 58.7047 99.2838 64.4315 95.4324 71.0475C89.1597 81.8044 88.4885 71.0475 88.4885 71.0475L78.0634 77.1261L74.9709 66.9531C74.9709 66.9531 87.1148 56.5612 93.1366 58.7047Z" fill="white"/>
<mask id="mask2_2372_5286" style="mask-type:luminance" maskUnits="userSpaceOnUse" x="74" y="58" width="23" height="20">
<path d="M93.1366 58.7047C93.1366 58.7047 99.2838 64.4315 95.4324 71.0475C89.1597 81.8044 88.4885 71.0475 88.4885 71.0475L78.0634 77.1261L74.9709 66.9531C74.9709 66.9531 87.1148 56.5612 93.1366 58.7047Z" fill="white"/>
</mask>
<g mask="url(#mask2_2372_5286)">
<path opacity="0.2" d="M91.9583 74.0613C91.9575 74.5545 91.907 75.0461 91.8077 75.5279C89.0039 77.167 88.5271 71.5463 88.4895 71.0752C89.9887 70.4646 91.9708 70.3585 91.9583 74.0613Z" fill="black" fill-opacity="0.7"/>
</g>
<path d="M93.1366 58.7047C93.1366 58.7047 99.2838 64.4315 95.4324 71.0475C89.1597 81.8044 88.4885 71.0475 88.4885 71.0475L78.0634 77.1261L74.9709 66.9531C74.9709 66.9531 87.1148 56.5612 93.1366 58.7047Z" stroke="#263238" stroke-linecap="round" stroke-linejoin="round"/>
<path d="M102.106 142.776C102.106 140.918 101.636 135.357 101.636 135.357C101.636 135.357 107.758 130.108 109.746 128.011C111.735 125.914 110.587 130.811 107.601 132.556" stroke="#263238" stroke-linecap="round" stroke-linejoin="round"/>
<path d="M111.729 135.131C111.729 135.131 106.14 136.956 101.781 137.122" stroke="#263238" stroke-linecap="round" stroke-linejoin="round"/>
<path d="M100.896 133.697C100.896 133.697 97.6658 130.107 93.9963 128.707" stroke="#263238" stroke-linecap="round" stroke-linejoin="round"/>
<path d="M112.921 111.559C113.885 111.467 114.834 111.244 115.744 110.895C116.003 111.231 116.167 111.638 116.214 112.068C116.262 112.498 116.192 112.934 116.014 113.324C115.054 113.663 114.07 113.921 113.072 114.094C113.084 113.246 113.034 112.398 112.921 111.559Z" fill="#757575" stroke="#263238" stroke-linecap="round" stroke-linejoin="round"/>
<path d="M88.4886 103.943C93.4347 107.595 99.0686 110.074 105.005 111.209C107.006 111.606 109.041 111.775 111.076 111.713C111.102 111.859 111.12 111.999 111.133 112.131C111.217 112.847 111.257 113.567 111.252 114.288C105.669 114.7 100.451 112.609 96.1977 111.036C92.8607 109.793 89.6699 108.147 86.6884 106.132L88.4886 103.943Z" fill="#757575" stroke="#263238" stroke-linecap="round" stroke-linejoin="round"/>
<path d="M102.997 112.483C102.865 113.551 103.894 114.566 105.293 114.759C106.692 114.951 107.934 114.248 108.059 113.186C108.184 112.124 107.162 111.102 105.763 110.91C104.364 110.718 103.129 111.421 102.997 112.483Z" fill="white" stroke="#263238" stroke-linecap="round" stroke-linejoin="round"/>
<path d="M66.5661 97.2059L72.8388 107.16L81.2755 102.409L82.2728 107.332L78.1329 114.048C78.1329 114.048 82.806 116.609 83.7783 117.485C84.7505 118.361 98.4249 113.829 98.4249 113.829C101.335 102.8 112.934 91.1207 112.934 91.1207C95.1757 79.5476 82.4736 64.5238 77.8569 64.6433C73.5978 64.7561 75.7305 66.2757 75.7305 66.2757L61.5731 77.099C56.1472 82.3347 66.5661 97.2059 66.5661 97.2059ZM76.6024 88.0218C76.6024 88.0218 76.847 86.1836 80.4851 85.1285V86.595L83.427 88.7185L84.5435 93.5296L83.427 95.2815L81.5452 93.1845L79.9708 93.5296C79.9708 93.5296 76.5773 89.7272 76.5773 88.0218H76.6024Z" fill="#263238"/>
<path d="M110.574 90.2913C110.574 90.2913 121.238 86.9733 122.122 77.6829C122.416 75.0306 122.1 72.3425 121.201 69.847C120.302 67.3516 118.847 65.1225 116.96 63.3493C116.96 63.3493 121.018 62.4999 122.122 62.48L122.21 64.6964L125.346 67.802L126.249 74.1393C126.249 74.1393 127.83 77.2848 126.965 82.7661C126.099 88.2474 127.109 104.194 127.222 105.096C127.374 105.802 127.66 106.468 128.062 107.054C128.062 107.054 128.947 120.047 128.947 123.59C128.93 125.639 129.222 127.678 129.812 129.629C129.668 132.124 129.668 134.626 129.812 137.121C129.812 137.121 123.182 139.736 120.541 139.079C120.541 139.079 118.898 129.171 117.781 127.492C117.781 127.492 119.067 120.75 117.53 117.028L114.557 118.733C114.557 118.733 109.784 100.902 110.574 90.2913Z" fill="#263238"/>
<path d="M122.166 65.898C122.166 65.898 125.001 76.8672 122.166 80.8156" stroke="white" stroke-linecap="round" stroke-linejoin="round"/>
<path d="M111.252 92.2821C111.651 92.2821 111.974 91.9405 111.974 91.519C111.974 91.0975 111.651 90.7559 111.252 90.7559C110.854 90.7559 110.531 91.0975 110.531 91.519C110.531 91.9405 110.854 92.2821 111.252 92.2821Z" fill="white"/>
<path d="M126.238 84.6907C124.306 87.7565 118.265 93.709 118.265 95.4542C118.265 97.1995 116.201 96.3302 116.201 96.3302" stroke="white" stroke-linecap="round" stroke-linejoin="round"/>
<path d="M117.687 98.1688L119.173 103.683C119.173 103.683 119.876 109.656 121.218 111.467C122.561 113.279 116.131 116.982 116.131 116.982" stroke="white" stroke-linecap="round" stroke-linejoin="round"/>
<path d="M121.22 93.5295C121.22 93.5295 122.556 101.26 126.238 104.572" stroke="white" stroke-linecap="round" stroke-linejoin="round"/>
<path d="M127.529 125.994C127.529 125.994 124.198 131.07 120.528 128.097" stroke="white" stroke-linecap="round" stroke-linejoin="round"/>
<path d="M82.5288 100.816L84.4106 97.4981C84.4106 97.4981 82.0521 94.8437 81.4311 94.346C80.8101 93.8484 74.7193 98.3674 74.1046 98.1949" stroke="white" stroke-linecap="round" stroke-linejoin="round"/>
<path d="M74.9711 85.8069C74.8393 82.1306 67.3937 80.8167 67.3937 80.8167" stroke="white" stroke-linecap="round" stroke-linejoin="round"/>
<path d="M79.9642 72.633C79.9642 72.633 84.1418 80.7687 82.1597 83.9141" stroke="white" stroke-linecap="round" stroke-linejoin="round"/>
<path d="M75.4858 68.6528C76.2009 68.7258 90.2266 73.298 95.4329 79.4694" stroke="white" stroke-linecap="round" stroke-linejoin="round"/>
<path d="M107.602 93.5304C106.975 93.2716 99.2405 100.664 94.7305 99.9209" stroke="white" stroke-linecap="round" stroke-linejoin="round"/>
<path d="M111.967 94.2808C112.682 95.608 115.361 102.416 116.132 102.436" stroke="white" stroke-linecap="round" stroke-linejoin="round"/>
<path d="M83.401 107.579C83.401 107.579 93.8763 110.857 96.699 105.867" stroke="white" stroke-linecap="round" stroke-linejoin="round"/>
<path d="M87.4912 80.7955C87.372 81.4591 83.7276 88.0154 81.5385 86.3099" stroke="white" stroke-linecap="round" stroke-linejoin="round"/>
<path d="M88.4895 71.0477C88.7341 70.5168 91.5631 70.1253 91.9583 72.6337" stroke="#263238" stroke-linecap="round" stroke-linejoin="round"/>
<path d="M98.3117 135.808C98.3117 135.808 93.9835 132.331 88.7772 133.273C91.7276 134.886 94.9911 135.753 98.3117 135.808Z" fill="white" stroke="#263238" stroke-linecap="round" stroke-linejoin="round"/>
<path d="M88.1493 139.444C87.936 139.351 96.3037 139.61 99.208 140.771C99.208 140.758 93.1611 141.674 88.1493 139.444Z" fill="white" stroke="#263238" stroke-linecap="round" stroke-linejoin="round"/>
<path d="M94.8361 142.059C94.8361 142.059 91.2168 140.805 88.1495 142.059C85.0821 143.314 92.9794 143.99 94.8361 142.059Z" fill="white" stroke="#263238" stroke-linecap="round" stroke-linejoin="round"/>
<path d="M99.2084 147.188C99.7981 146.883 95.0998 144.434 90.3577 146.797C90.3389 146.797 97.1761 148.237 99.2084 147.188Z" fill="white" stroke="#263238" stroke-linecap="round" stroke-linejoin="round"/>
<path d="M95.9848 149.16C93.8362 148.508 91.5842 148.327 89.3672 148.629C89.3672 148.629 93.4758 150.009 95.9848 149.16Z" fill="white" stroke="#263238" stroke-linecap="round" stroke-linejoin="round"/>
<path d="M97.1769 152.962C97.1769 152.962 93.7959 152.046 91.1426 152.962C91.1426 152.962 95.1696 154.209 97.1769 152.962Z" fill="white" stroke="#263238" stroke-linecap="round" stroke-linejoin="round"/>
<path d="M118.854 135.078C117.572 134.886 116.264 135.037 115.05 135.515C113.837 135.994 112.755 136.786 111.904 137.818C111.904 137.818 116.176 137.016 118.854 135.078Z" fill="white" stroke="#263238" stroke-linecap="round" stroke-linejoin="round"/>
<path d="M119.225 136.804C119.225 136.804 116.985 138.47 112.325 139.133C112.293 139.133 117.807 140.394 119.225 136.804Z" fill="white" stroke="#263238" stroke-linecap="round" stroke-linejoin="round"/>
<path d="M117.311 140.094C117.311 140.094 113.974 140.194 112.293 141.308C112.293 141.308 115.982 142.025 117.311 140.094Z" fill="white" stroke="#263238" stroke-linecap="round" stroke-linejoin="round"/>
<path d="M120.448 141.441C120.448 141.441 115.304 141.487 113.366 143.597C113.379 143.597 117.851 145.442 120.448 141.441Z" fill="white" stroke="#263238" stroke-linecap="round" stroke-linejoin="round"/>
<path d="M121.533 143.598C120.532 143.628 119.57 144.021 118.811 144.713C119.057 144.839 119.326 144.909 119.599 144.921C119.872 144.932 120.145 144.884 120.4 144.78C120.655 144.675 120.888 144.516 121.082 144.313C121.277 144.11 121.431 143.867 121.533 143.598Z" fill="white" stroke="#263238" stroke-linecap="round" stroke-linejoin="round"/>
<path d="M122.38 147.281C122.38 147.281 121.865 147.042 116.251 149.325C116.251 149.325 120.617 151.222 122.38 147.281Z" fill="white" stroke="#263238" stroke-linecap="round" stroke-linejoin="round"/>
<path d="M122.38 151.628C122.38 151.628 119.871 151.349 118.854 152.955C118.854 152.928 121.489 153.492 122.38 151.628Z" fill="white" stroke="#263238" stroke-linecap="round" stroke-linejoin="round"/>
<path d="M143.531 207.681C143.531 207.681 141.273 207.17 140.79 207.681C139.723 208.809 140.495 212.26 140.495 212.26C140.495 212.26 138.481 208.497 135.013 209.506L131.544 210.514C131.544 210.514 135.54 216.905 135.678 219.373C135.816 221.842 134.574 224.749 136.838 228H161.22C161.22 228 163.641 223.793 160.593 222.983C148.969 219.911 146.523 215.684 145.538 213.886C144.553 212.087 143.531 207.681 143.531 207.681Z" fill="#263238"/>
<path opacity="0.3" d="M140.94 213.09C142.464 215.479 144.773 217.29 147.062 218.777C147.464 219.036 152.82 222.095 149.979 222.526" stroke="white" stroke-linecap="round" stroke-linejoin="round"/>
<path d="M145.539 213.88C145.539 213.88 143.933 213.436 141.869 215.254" stroke="white" stroke-linecap="round" stroke-linejoin="round"/>
<path d="M146.824 215.871C145.549 216.036 144.341 216.566 143.33 217.404" stroke="white" stroke-linecap="round" stroke-linejoin="round"/>
<path d="M148.355 217.391C148.355 217.391 146.028 218.055 145.081 219.13" stroke="white" stroke-linecap="round" stroke-linejoin="round"/>
<path d="M150.808 219.13C149.72 219.327 148.689 219.78 147.791 220.457" stroke="white" stroke-linecap="round" stroke-linejoin="round"/>
<path d="M100.048 227.987C100.048 227.987 101.058 223.74 100.048 222.446C99.0383 221.152 96.0776 212.3 97.1189 208.796L95.488 209.294C95.488 209.294 94.5032 205.843 90.4699 206.215C86.4366 206.586 87.1579 210.641 87.1579 210.641C87.1579 210.641 85.9348 210.827 85.5835 211.563C85.5835 211.563 88.3748 219.128 86.8066 220.787C85.2385 222.446 82.4472 223.926 84.0153 227.987H100.048Z" fill="#263238"/>
<path opacity="0.3" d="M95.0245 210.23C94.7109 212.466 95.2503 214.756 95.2629 216.999C95.2629 218.697 93.6194 220.608 95.1499 221.757" stroke="white" stroke-linecap="round" stroke-linejoin="round"/>
<path opacity="0.3" d="M87.7107 211.418C88.821 213.183 88.4886 215.678 88.6266 217.702C88.7646 219.726 88.7645 221.02 87.1838 222.446" stroke="white" stroke-linecap="round" stroke-linejoin="round"/>
<path d="M96.2481 214.145C96.2481 214.145 90.8661 212.088 87.9995 214.503" stroke="white" stroke-linecap="round" stroke-linejoin="round"/>
<path d="M96.2481 216.534C96.2481 216.534 91.6565 214.643 87.9995 216.534" stroke="white" stroke-linecap="round" stroke-linejoin="round"/>
<path d="M96.2481 218.645C96.2481 218.645 91.1296 216.913 87.9995 218.645" stroke="white" stroke-linecap="round" stroke-linejoin="round"/>
<path d="M96.2481 220.648C96.2481 220.648 91.3805 218.306 87.9995 220.648" stroke="white" stroke-linecap="round" stroke-linejoin="round"/>
<path d="M105.004 116.285C105.004 116.285 104.697 126.697 102.357 131.203" stroke="#263238" stroke-linecap="round" stroke-linejoin="round"/>
<path d="M106.755 116.285C106.703 119.064 106.398 121.83 105.845 124.547C105.762 124.958 105.547 125.326 105.238 125.589C104.928 125.852 104.542 125.995 104.145 125.994H103.957" stroke="#263238" stroke-linecap="round" stroke-linejoin="round"/>
<path d="M112.864 53.4218C112.322 54.9797 111.964 56.6022 111.798 58.2528C109.546 56.9256 108.034 53.893 108.034 53.893L112.864 53.4218Z" fill="#263238"/>
<path d="M104.835 52.6662C98.456 46.5081 100.131 32.4133 105.136 29.5068C114.47 24.0918 118.202 30.9335 119.112 34.9084C119.883 38.2795 118.98 42.8384 119.507 44.8624C120.824 49.9057 116.691 56.0904 113.862 56.6412C112.105 56.9796 110.223 56.3359 108.135 55.0817" fill="white"/>
<path d="M104.835 52.6662C98.456 46.5081 100.131 32.4133 105.136 29.5068C114.47 24.0918 118.202 30.9335 119.112 34.9084C119.883 38.2795 118.98 42.8384 119.507 44.8624C120.824 49.9057 116.691 56.0904 113.862 56.6412C112.105 56.9796 110.223 56.3359 108.135 55.0817" stroke="#263238" stroke-linecap="round" stroke-linejoin="round"/>
<path d="M105.914 41.1853C105.914 41.1853 108.38 38.6637 110.845 39.5728" stroke="#263238" stroke-linecap="round" stroke-linejoin="round"/>
<path d="M115.825 38.0277C115.825 38.0277 118.02 37.2977 119.08 39.3549" stroke="#263238" stroke-linecap="round" stroke-linejoin="round"/>
<path d="M117.418 41.8957C117.462 42.5593 117.217 43.1167 116.872 43.1433C116.527 43.1698 116.207 42.6522 116.164 41.982C116.12 41.3118 116.364 40.761 116.709 40.7344C117.054 40.7079 117.374 41.2255 117.418 41.8957Z" fill="#263238"/>
<path d="M113.949 44.1792C114.27 44.7455 114.735 45.2053 115.291 45.5064C116.044 45.7984 114.62 47.7029 114.62 47.7029" stroke="#263238" stroke-linecap="round" stroke-linejoin="round"/>
<path d="M115.593 49.5859C115.593 49.5859 112.72 50.4353 110.531 49.5395" stroke="#263238" stroke-linecap="round" stroke-linejoin="round"/>
<path d="M110.844 49.653C110.844 49.653 112.03 51.7301 113.686 51.6438C115.342 51.5575 115.141 49.653 115.141 49.653" stroke="#263238" stroke-linecap="round" stroke-linejoin="round"/>
<path d="M103.449 50.9892C103.449 50.9892 101.09 46.8484 101.88 42.9796C101.88 42.9796 102.47 42.5483 103.198 43.9551C103.198 43.9551 107.808 34.9501 115.116 32.0104C115.116 32.0104 119.613 33.5367 119.438 42.5549C120.061 40.6092 120.387 38.5707 120.404 36.5162C120.171 30.5439 116.935 28.4469 116.935 28.4469C115.818 24.3591 103.894 23.377 97.9411 29.7741C90.4955 37.797 95.9527 45.8596 95.0683 53.7962" fill="#263238"/>
<path d="M117.989 28.5767C116.873 24.4889 103.913 23.4471 97.9607 29.9039C90.515 37.9267 96.0789 46.3146 95.0878 53.926" stroke="#263238" stroke-linecap="round" stroke-linejoin="round"/>
<path d="M103.45 51.0269C103.45 51.0269 101.091 46.886 101.881 43.0173C101.881 43.0173 102.471 42.5859 103.199 43.9928C103.199 43.9928 107.809 34.9878 115.117 32.048C115.117 32.048 119.614 33.5743 119.439 42.5926" stroke="#263238" stroke-miterlimit="10"/>
<path d="M100.683 48.4122C100.683 48.4122 99.7169 50.476 100.884 53.4555C102.05 56.435 102.715 55.9904 102.715 55.9904C102.715 55.9904 100.896 57.165 99.3218 54.6964C99.3218 54.6964 99.7483 57.3508 101.247 58.0144C101.247 58.0144 99.8173 59.8526 97.5842 58.0144" stroke="#515B60" stroke-linecap="round" stroke-linejoin="round"/>
<path d="M102.715 36.7395C100.93 38.3504 99.5547 40.4096 98.7164 42.7283C97.878 45.047 97.603 47.5511 97.9165 50.0114" stroke="#515B60" stroke-linecap="round" stroke-linejoin="round"/>
<path d="M115.43 30.4151C115.43 30.4151 111.315 25.7699 104.766 31.2777" stroke="#515B60" stroke-linecap="round" stroke-linejoin="round"/>
<path d="M117.682 32.8842C117.682 32.8842 121.138 34.5963 121.539 41.7499C121.941 48.9034 120.793 52.1152 122.167 56.0769" stroke="#515B60" stroke-linecap="round" stroke-linejoin="round"/>
<path d="M118.366 53.8933C118.366 53.8933 117.318 60.7018 114.251 61.6707" stroke="#515B60" stroke-linecap="round" stroke-linejoin="round"/>
<path d="M101.881 43.018C101.881 43.018 103.844 36.2493 107.808 33.7277" stroke="#515B60" stroke-linecap="round" stroke-linejoin="round"/>
<path d="M98.4934 32.8842C98.2488 33.3288 94.6232 37.5294 95.7774 48.5716" stroke="#515B60" stroke-linecap="round" stroke-linejoin="round"/>
<path d="M103.293 44.783C103.173 43.7876 100.783 41.777 99.9555 42.852C99.1275 43.927 99.4787 47.7559 101.066 48.7381C102.653 49.7202 103.832 50.6625 103.832 49.4017" fill="white"/>
<path d="M103.293 44.783C103.173 43.7876 100.783 41.777 99.9555 42.852C99.1275 43.927 99.4787 47.7559 101.066 48.7381C102.653 49.7202 103.832 50.6625 103.832 49.4017" stroke="#515B60" stroke-linecap="round" stroke-linejoin="round"/>
<path d="M103.042 48.8375C104.848 48.7844 105.287 54.7302 103.042 55.0753C101.122 55.3673 101.16 50.5098 102.333 49.5409" stroke="#515B60" stroke-linecap="round" stroke-linejoin="round"/>
<path d="M108.04 42.5469C108.04 42.5469 109.658 42.0476 110.586 42.5469" stroke="#515B60" stroke-linecap="round" stroke-linejoin="round"/>
<path opacity="0.2" d="M86.8331 72.0093C87.2981 71.6702 87.7941 71.3812 88.3135 71.1467L86.8331 72.0093Z" fill="black" fill-opacity="0.7"/>
<path d="M71.6342 46.2699L76.2446 40.616C76.4004 40.4302 76.6186 40.3158 76.8528 40.2972C77.087 40.2787 77.3188 40.3573 77.4991 40.5165L84.261 46.6548C84.3735 46.7565 84.4604 46.8861 84.514 47.032C84.5676 47.1779 84.5863 47.3355 84.5684 47.4909L84.0979 51.9834C84.0783 52.1765 84.0036 52.3586 83.8837 52.5056C83.7638 52.6526 83.6044 52.7575 83.4268 52.8063L79.2931 53.9543C79.1512 53.9955 79.0019 53.9989 78.8585 53.9641C78.7152 53.9294 78.5821 53.8576 78.4714 53.7552L71.7282 47.6103C71.5503 47.4441 71.4409 47.2108 71.4233 46.9604C71.4057 46.7099 71.4814 46.4621 71.6342 46.2699Z" stroke="#263238" stroke-linecap="round" stroke-linejoin="round"/>
<path d="M80.4724 48.9228L80.7672 49.1949L80.3281 49.739L80.027 49.4669C79.7959 49.6519 79.5067 49.7363 79.2187 49.703C78.9306 49.6697 78.6655 49.5211 78.4777 49.2878L78.3522 49.1749L78.8603 48.5512L79.0234 48.6972C79.3119 48.9626 79.5189 48.9361 79.6883 48.6972C79.8577 48.4583 79.8514 48.2725 79.5691 48.0336C79.2869 47.7947 78.9858 47.7084 78.2832 47.8478C77.9837 47.9522 77.6642 47.9754 77.354 47.9151C77.0438 47.8548 76.7529 47.713 76.5081 47.5027C76.2637 47.3347 76.0877 47.076 76.0146 46.7776C75.9414 46.4792 75.9765 46.1626 76.1129 45.8902L75.8243 45.6247L76.2697 45.0806L76.5582 45.346C76.7913 45.1602 77.0826 45.0754 77.3727 45.1086C77.6628 45.1419 77.9301 45.2909 78.1201 45.5252L78.3961 45.7773L77.8818 46.4011L77.5681 46.1158C77.2859 45.857 77.0789 45.8968 76.9032 46.1158C76.7276 46.3348 76.7276 46.5471 77.0099 46.7794C77.2921 47.0116 77.5995 47.1112 78.2958 46.9652C78.5938 46.8569 78.9131 46.8317 79.223 46.8922C79.5329 46.9526 79.8228 47.0966 80.0647 47.3102C80.3158 47.4718 80.4983 47.7296 80.5742 48.03C80.6502 48.3304 80.6137 48.6502 80.4724 48.9228Z" fill="#263238"/>
<path d="M153.524 108.402L150.745 115.263C150.698 115.38 150.63 115.485 150.545 115.573C150.46 115.662 150.359 115.731 150.248 115.778C150.137 115.825 150.019 115.848 149.9 115.847C149.78 115.845 149.662 115.818 149.553 115.768L141.398 112.065C141.262 112.004 141.143 111.908 141.05 111.787C140.957 111.665 140.894 111.521 140.865 111.368L140.031 106.928C139.996 106.738 140.017 106.542 140.09 106.364C140.162 106.187 140.284 106.036 140.439 105.933L144.046 103.511C144.17 103.426 144.313 103.375 144.46 103.363C144.608 103.35 144.756 103.376 144.892 103.438L153.047 107.141C153.267 107.243 153.44 107.432 153.529 107.668C153.618 107.904 153.616 108.167 153.524 108.402Z" stroke="#263238" stroke-linecap="round" stroke-linejoin="round"/>
<path d="M144.34 108.693L143.982 108.527L144.246 107.863L144.603 108.029C144.774 107.772 145.031 107.594 145.322 107.534C145.614 107.473 145.916 107.534 146.165 107.704L146.316 107.777L146.008 108.533L145.808 108.447C145.463 108.288 145.268 108.374 145.18 108.633C145.093 108.892 145.149 109.091 145.494 109.25C145.839 109.409 146.121 109.37 146.749 109.011C147.005 108.817 147.302 108.695 147.615 108.654C147.927 108.614 148.244 108.656 148.536 108.779C148.819 108.858 149.062 109.046 149.218 109.307C149.374 109.568 149.431 109.882 149.377 110.186L149.728 110.345L149.458 111.009L149.107 110.849C148.94 111.102 148.687 111.277 148.401 111.339C148.115 111.4 147.818 111.344 147.57 111.181L147.238 111.035L147.545 110.272L147.922 110.445C148.267 110.604 148.461 110.498 148.549 110.239C148.637 109.98 148.593 109.768 148.248 109.608C147.903 109.449 147.621 109.489 146.993 109.847C146.738 110.042 146.441 110.166 146.128 110.208C145.816 110.25 145.499 110.208 145.206 110.086C144.92 110.015 144.672 109.831 144.511 109.572C144.35 109.312 144.289 108.998 144.34 108.693Z" fill="#263238"/>
<path d="M61.8172 137.433L57.9407 131.189C57.8101 130.975 57.7645 130.716 57.8139 130.468C57.8632 130.219 58.0035 130.001 58.2042 129.861L65.6435 124.699C65.7666 124.613 65.9074 124.561 66.0538 124.546C66.2002 124.531 66.3478 124.554 66.4841 124.612L70.4421 126.331C70.6114 126.405 70.7557 126.532 70.8564 126.694C70.957 126.856 71.0094 127.046 71.0067 127.24L70.9188 131.759C70.9164 131.915 70.8779 132.068 70.8069 132.204C70.7358 132.341 70.6343 132.457 70.5111 132.542L63.0717 137.705C62.9726 137.775 62.8614 137.823 62.7446 137.847C62.6277 137.871 62.5076 137.87 62.391 137.845C62.2744 137.82 62.1637 137.77 62.0653 137.7C61.9668 137.629 61.8825 137.538 61.8172 137.433Z" stroke="#263238" stroke-linecap="round" stroke-linejoin="round"/>
<path d="M66.6598 129.178L66.986 128.946L67.3561 129.55L67.0299 129.775C67.1362 130.062 67.1342 130.381 67.0245 130.666C66.9147 130.952 66.7056 131.181 66.4403 131.308L66.3023 131.401L65.8758 130.738L66.0577 130.611C66.3713 130.392 66.4089 130.173 66.2647 129.948C66.1204 129.722 65.9197 129.669 65.606 129.888C65.2924 130.107 65.1544 130.386 65.0854 131.142C65.097 131.475 65.0296 131.805 64.8893 132.103C64.7491 132.401 64.5404 132.657 64.2825 132.848C64.0634 133.052 63.7797 133.161 63.4879 133.154C63.1961 133.146 62.9177 133.023 62.7081 132.808L62.3882 133.027L62.0181 132.43L62.338 132.211C62.2327 131.922 62.235 131.602 62.3445 131.315C62.454 131.028 62.6624 130.795 62.9276 130.665L63.2287 130.452L63.6615 131.116L63.3165 131.355C63.0029 131.574 62.9778 131.799 63.1221 132.018C63.2663 132.237 63.4733 132.317 63.787 132.098C64.1006 131.879 64.2449 131.594 64.3013 130.844C64.2856 130.51 64.3512 130.179 64.4918 129.88C64.6324 129.581 64.8433 129.326 65.1042 129.138C65.3209 128.937 65.6012 128.829 65.8894 128.837C66.1776 128.844 66.4526 128.966 66.6598 129.178Z" fill="#263238"/>
<path d="M70.7931 126.603C70.7931 126.603 73.3022 124.705 75.1401 125.688C76.9779 126.67 79.1671 127.015 80.1582 125.402" stroke="#263238" stroke-linecap="round" stroke-linejoin="round"/>
<path d="M140.03 106.464C140.03 106.464 135.683 107.791 133.758 102.436C131.832 97.081 128.112 95.7007 126.23 96.7492" stroke="#263238" stroke-linecap="round" stroke-linejoin="round"/>
<path d="M83.828 52.5726C83.828 52.5726 84.5619 54.2846 87.2905 53.8998C90.0191 53.5149 93.8015 55.5986 93.5632 59.1422" stroke="#263238" stroke-linecap="round" stroke-linejoin="round"/>
<path d="M160.283 56.131H147.074C146.616 56.131 146.178 56.3233 145.854 56.6656C145.53 57.0079 145.349 57.4722 145.349 57.9563V66.2795C145.349 66.5192 145.393 66.7565 145.48 66.978C145.567 67.1995 145.694 67.4007 145.854 67.5702C146.014 67.7397 146.204 67.8741 146.414 67.9659C146.623 68.0576 146.847 68.1048 147.074 68.1048H148.725L147.204 71.1616L150.713 68.1048H160.277C160.503 68.1048 160.727 68.0576 160.937 67.9658C161.146 67.8741 161.336 67.7396 161.496 67.5701C161.656 67.4005 161.783 67.1993 161.869 66.9778C161.956 66.7564 162 66.5191 162 66.2795V57.9541C161.999 57.4719 161.819 57.0095 161.497 56.6679C161.175 56.3263 160.739 56.1333 160.283 56.131Z" fill="white" stroke="#263238" stroke-linecap="round" stroke-linejoin="round"/>
<g opacity="0.5">
<path d="M159.527 59.4963H147.831C147.761 59.4963 147.693 59.4666 147.643 59.4138C147.593 59.361 147.565 59.2893 147.565 59.2146C147.565 59.1399 147.593 59.0683 147.643 59.0155C147.693 58.9627 147.761 58.933 147.831 58.933H159.527C159.562 58.933 159.597 58.9403 159.629 58.9545C159.661 58.9686 159.69 58.9894 159.715 59.0156C159.739 59.0418 159.759 59.0729 159.772 59.107C159.785 59.1412 159.792 59.1778 159.791 59.2146C159.792 59.2515 159.785 59.2881 159.772 59.3223C159.759 59.3564 159.739 59.3875 159.715 59.4137C159.69 59.4399 159.661 59.4606 159.629 59.4748C159.597 59.489 159.562 59.4963 159.527 59.4963Z" fill="#263238"/>
<path d="M159.527 61.3902H147.831C147.761 61.3902 147.693 61.3606 147.643 61.3077C147.593 61.2549 147.565 61.1833 147.565 61.1086C147.565 61.0339 147.593 60.9622 147.643 60.9094C147.693 60.8566 147.761 60.8269 147.831 60.8269H159.527C159.562 60.8269 159.597 60.8342 159.629 60.8484C159.661 60.8626 159.69 60.8833 159.715 60.9095C159.739 60.9357 159.759 60.9668 159.772 61.0009C159.785 61.0351 159.792 61.0717 159.791 61.1086C159.792 61.1455 159.785 61.182 159.772 61.2162C159.759 61.2503 159.739 61.2814 159.715 61.3076C159.69 61.3338 159.661 61.3546 159.629 61.3687C159.597 61.3829 159.562 61.3902 159.527 61.3902Z" fill="#263238"/>
<path d="M159.527 63.2796H147.831C147.761 63.2796 147.693 63.2499 147.643 63.1971C147.593 63.1443 147.565 63.0726 147.565 62.9979C147.565 62.961 147.572 62.9245 147.585 62.8905C147.599 62.8564 147.618 62.8255 147.643 62.7995C147.668 62.7736 147.697 62.753 147.729 62.7391C147.762 62.7252 147.796 62.7182 147.831 62.7185H159.527C159.597 62.7185 159.664 62.7479 159.714 62.8003C159.764 62.8527 159.791 62.9238 159.791 62.9979C159.792 63.0348 159.785 63.0714 159.772 63.1056C159.759 63.1397 159.739 63.1708 159.715 63.197C159.69 63.2231 159.661 63.2439 159.629 63.2581C159.597 63.2723 159.562 63.2796 159.527 63.2796Z" fill="#263238"/>
<path d="M153.955 65.1736H147.831C147.761 65.1736 147.693 65.1439 147.643 65.0911C147.593 65.0383 147.565 64.9667 147.565 64.892C147.565 64.8173 147.593 64.7456 147.643 64.6928C147.693 64.64 147.761 64.6103 147.831 64.6103H153.955C153.99 64.6103 154.024 64.6176 154.056 64.6318C154.088 64.646 154.118 64.6667 154.142 64.6929C154.167 64.7191 154.186 64.7502 154.199 64.7843C154.213 64.8185 154.219 64.8551 154.219 64.892C154.219 64.9288 154.213 64.9654 154.199 64.9996C154.186 65.0337 154.167 65.0648 154.142 65.091C154.118 65.1172 154.088 65.138 154.056 65.1521C154.024 65.1663 153.99 65.1736 153.955 65.1736Z" fill="#263238"/>
</g>
<path d="M218.822 95.3347V76.5218C218.822 75.7815 218.254 75.1813 217.554 75.1813H207.882C207.182 75.1813 206.615 75.7815 206.615 76.5218V95.3347C206.615 96.075 207.182 96.6752 207.882 96.6752H217.554C218.254 96.6752 218.822 96.075 218.822 95.3347Z" fill="#999999" stroke="#263238" stroke-linecap="round" stroke-linejoin="round"/>
<path d="M216.369 79.1232C216.263 79.1232 216.158 79.0898 216.07 79.0271C215.981 78.9644 215.912 78.8752 215.871 78.771C215.83 78.6667 215.82 78.5519 215.84 78.4412C215.861 78.3305 215.913 78.2288 215.988 78.149C216.063 78.0692 216.16 78.0149 216.264 77.9928C216.369 77.9708 216.477 77.9821 216.576 78.0253C216.674 78.0685 216.759 78.1417 216.818 78.2355C216.877 78.3294 216.909 78.4397 216.909 78.5526C216.91 78.6278 216.896 78.7024 216.869 78.772C216.843 78.8416 216.803 78.9049 216.753 78.9581C216.702 79.0113 216.643 79.0533 216.577 79.0816C216.511 79.11 216.44 79.1241 216.369 79.1232Z" fill="#263238"/>
<path d="M214.801 79.1232C214.694 79.1232 214.59 79.0898 214.501 79.0271C214.413 78.9644 214.343 78.8752 214.303 78.771C214.262 78.6667 214.251 78.5519 214.272 78.4412C214.293 78.3305 214.344 78.2288 214.42 78.149C214.495 78.0692 214.591 78.0149 214.696 77.9928C214.8 77.9708 214.909 77.9821 215.007 78.0253C215.106 78.0685 215.19 78.1417 215.25 78.2355C215.309 78.3294 215.34 78.4397 215.34 78.5526C215.34 78.6275 215.327 78.7017 215.299 78.771C215.272 78.8402 215.233 78.9031 215.182 78.9561C215.132 79.0091 215.073 79.0511 215.007 79.0798C214.942 79.1085 214.872 79.1232 214.801 79.1232Z" fill="#263238"/>
<path d="M216.369 80.6961C216.262 80.6961 216.158 80.6624 216.069 80.5994C215.98 80.5364 215.911 80.4469 215.87 80.3422C215.83 80.2375 215.819 80.1225 215.841 80.0116C215.862 79.9007 215.914 79.799 215.99 79.7195C216.066 79.6399 216.163 79.5861 216.268 79.5649C216.373 79.5436 216.482 79.5558 216.58 79.6001C216.679 79.6443 216.762 79.7184 216.821 79.8132C216.879 79.9079 216.91 80.0189 216.909 80.132C216.909 80.2066 216.895 80.2805 216.868 80.3494C216.84 80.4183 216.801 80.4808 216.75 80.5332C216.7 80.5857 216.641 80.6271 216.575 80.6551C216.51 80.683 216.44 80.697 216.369 80.6961Z" fill="#263238"/>
<path d="M214.801 80.6961C214.694 80.6961 214.59 80.6624 214.501 80.5994C214.412 80.5364 214.343 80.4469 214.302 80.3422C214.261 80.2375 214.251 80.1225 214.272 80.0116C214.294 79.9007 214.346 79.799 214.422 79.7195C214.498 79.6399 214.595 79.5861 214.7 79.5649C214.805 79.5436 214.913 79.5558 215.012 79.6001C215.11 79.6443 215.194 79.7184 215.253 79.8132C215.311 79.9079 215.342 80.0189 215.34 80.132C215.339 80.2822 215.281 80.4257 215.18 80.5313C215.079 80.6369 214.943 80.6961 214.801 80.6961Z" fill="#263238"/>
<path d="M207.732 77.0201V95.0433" stroke="#263238" stroke-linecap="round" stroke-linejoin="round"/>
<path d="M220.466 89.6143V83.549C220.466 83.373 220.4 83.2042 220.282 83.0798C220.164 82.9554 220.005 82.8854 219.838 82.8854H218.797V84.5179H208.541V83.3831C208.541 83.2523 208.493 83.1267 208.406 83.0335C208.319 82.9404 208.201 82.8872 208.077 82.8854H205.618C205.452 82.8854 205.292 82.9554 205.175 83.0798C205.057 83.2042 204.991 83.373 204.991 83.549V89.6077C204.991 89.7837 205.057 89.9524 205.175 90.0769C205.292 90.2013 205.452 90.2712 205.618 90.2712H219.826C219.909 90.273 219.991 90.2574 220.068 90.2252C220.145 90.1931 220.216 90.1451 220.275 90.084C220.335 90.0229 220.382 89.9499 220.415 89.8693C220.448 89.7887 220.465 89.702 220.466 89.6143Z" fill="#263238"/>
<path d="M227.396 227.982H230.357L205.266 103.272H202.306L227.396 227.982Z" fill="#999999" stroke="#263238" stroke-linecap="round" stroke-linejoin="round"/>
<path d="M180.176 227.982H177.216L202.306 103.272H205.267L180.176 227.982Z" fill="#999999" stroke="#263238" stroke-linecap="round" stroke-linejoin="round"/>
<path d="M205.266 103.272H202.306V227.988H205.266V103.272Z" fill="#BFBFBF" stroke="#263238" stroke-linecap="round" stroke-linejoin="round"/>
<path d="M202.776 83.5495H204.796C205.05 83.5495 205.295 83.6565 205.475 83.8469C205.655 84.0373 205.756 84.2955 205.756 84.5648V101.287H201.816V84.5648C201.816 84.2955 201.918 84.0373 202.097 83.8469C202.277 83.6565 202.522 83.5495 202.776 83.5495Z" fill="#263238"/>
<path d="M207.356 100.239H200.224C199.694 100.239 199.264 100.694 199.264 101.254V103.557C199.264 104.118 199.694 104.572 200.224 104.572H207.356C207.886 104.572 208.315 104.118 208.315 103.557V101.254C208.315 100.694 207.886 100.239 207.356 100.239Z" fill="#263238"/>
<path d="M202.306 86.582H199.835V83.5759C199.835 83.4859 199.818 83.3968 199.784 83.3141C199.751 83.2313 199.702 83.1566 199.64 83.0946C199.579 83.0325 199.506 82.9843 199.426 82.953C199.346 82.9217 199.261 82.9078 199.176 82.9123C199.006 82.9104 198.841 82.9785 198.717 83.1022C198.593 83.226 198.52 83.3958 198.511 83.5759V86.5555C198.511 86.6475 198.529 86.7387 198.562 86.8237C198.596 86.9086 198.645 86.9857 198.707 87.0505C198.768 87.1153 198.842 87.1665 198.922 87.2011C199.003 87.2357 199.089 87.2531 199.176 87.2522H202.313L202.306 86.582Z" fill="#263238"/>
<path d="M134 28.4464V1L172.661 1V28.4464L134 28.4464Z" stroke="#999999" stroke-linecap="round" stroke-linejoin="round"/>
<path d="M136.21 26.4748V3.31458L170.443 3.31458V26.4748L136.21 26.4748Z" stroke="#999999" stroke-linecap="round" stroke-linejoin="round"/>
<path d="M157.862 20.9022H149.435C147.05 20.9022 145.117 18.8569 145.117 16.3339V14.4441C145.117 11.921 147.05 9.87573 149.435 9.87573H157.862C160.247 9.87573 162.18 11.921 162.18 14.4441V16.3339C162.18 18.8569 160.247 20.9022 157.862 20.9022Z" fill="#EB928C" stroke="#999999" stroke-linecap="round" stroke-linejoin="round"/>
<path d="M151.012 18.4064L156.314 15.3001L151.012 12.1939V18.4064Z" fill="white" stroke="#999999" stroke-linecap="round" stroke-linejoin="round"/>
</svg>
