<svg width="271" height="226" viewBox="0 0 271 226" fill="none" xmlns="http://www.w3.org/2000/svg">
<path d="M124.355 99.2972L102.044 82.1449V1H1V145.781H102.044V90.2644L124.355 99.2972Z" fill="white" stroke="#263238" stroke-linecap="round" stroke-linejoin="round"/>
<path d="M96.7784 26.0865H6.27251V116.592H96.7784V26.0865Z" fill="white"/>
<mask id="mask0_2294_2494" style="mask-type:luminance" maskUnits="userSpaceOnUse" x="6" y="26" width="91" height="91">
<path d="M96.7785 26.0859H6.27258V116.592H96.7785V26.0859Z" fill="white"/>
</mask>
<g mask="url(#mask0_2294_2494)">
<path opacity="0.4" d="M96.7785 65.4212V116.593H6.27258V64.7577C16.2614 63.9086 30.4883 62.8241 44.8009 62.7385C75.966 62.5601 89.8719 64.6792 96.7785 65.4212Z" fill="#407BFF"/>
<path d="M85.1841 63.7223C89.0655 64.1718 92.9326 64.7283 96.7783 65.4204" stroke="#263238" stroke-linecap="round" stroke-linejoin="round"/>
<path d="M52.5352 62.2389C62.2993 62.0864 72.0646 62.4627 81.7881 63.3662" stroke="#263238" stroke-linecap="round" stroke-linejoin="round"/>
<path d="M24.6309 63.3304C32.786 62.8524 40.9554 62.4528 49.1249 62.2958" stroke="#263238" stroke-linecap="round" stroke-linejoin="round"/>
<path d="M16.2617 63.8724C17.4128 63.7868 18.5615 63.7083 19.7079 63.637" stroke="#263238" stroke-linecap="round" stroke-linejoin="round"/>
<path d="M6.27258 64.7571C8.65563 64.4859 11.0387 64.279 13.4075 64.0436" stroke="#263238" stroke-linecap="round" stroke-linejoin="round"/>
<path opacity="0.4" d="M17.0033 30.0103V49.146H53.5767V27.8698H51.4861V46.9056H35.7181V27.8698H33.6704V46.9056H18.8655V30.3813L17.0033 30.0103Z" fill="#407BFF"/>
</g>
<path d="M96.7784 26.0865H6.27251V116.592H96.7784V26.0865Z" stroke="#263238" stroke-linecap="round" stroke-linejoin="round"/>
<path d="M48.3755 9.4975H27.0636C26.7798 9.4975 26.5075 9.61025 26.3068 9.81095C26.1061 10.0117 25.9934 10.2839 25.9934 10.5677C25.9934 10.8516 26.1061 11.1238 26.3068 11.3245C26.5075 11.5252 26.7798 11.638 27.0636 11.638H48.3755C48.6593 11.638 48.9315 11.5252 49.1322 11.3245C49.3329 11.1238 49.4457 10.8516 49.4457 10.5677C49.4457 10.2839 49.3329 10.0117 49.1322 9.81095C48.9315 9.61025 48.6593 9.4975 48.3755 9.4975Z" fill="#263238"/>
<path d="M37.1881 13.9209H26.5357C26.3957 13.9209 26.2614 13.9765 26.1624 14.0755C26.0633 14.1746 26.0077 14.3089 26.0077 14.4489C26.0077 14.5889 26.0633 14.7232 26.1624 14.8222C26.2614 14.9212 26.3957 14.9769 26.5357 14.9769H37.1881C37.3281 14.9769 37.4624 14.9212 37.5614 14.8222C37.6604 14.7232 37.716 14.5889 37.716 14.4489C37.716 14.3089 37.6604 14.1746 37.5614 14.0755C37.4624 13.9765 37.3281 13.9209 37.1881 13.9209Z" fill="#263238"/>
<path d="M43.1883 79.4045C27.2276 79.4045 13.3574 82.972 6.27251 88.1733V103.998C13.3574 109.221 27.2276 112.767 43.1883 112.767C66.3481 112.767 85.12 105.297 85.12 96.0787C85.12 86.8605 66.3481 79.4045 43.1883 79.4045Z" fill="white" stroke="#263238" stroke-linecap="round" stroke-linejoin="round"/>
<path opacity="0.4" d="M18.4735 85.4479C13.4791 88.259 9.91167 87.7453 12.2448 88.4017C14.5779 89.0581 11.5812 92.49 9.25526 94.2523C6.92929 96.0146 11.0818 98.3406 15.8978 98.3406C20.7139 98.3406 23.8889 99.525 23.1469 101.195C22.91 101.669 22.7745 102.188 22.7488 102.717C22.7232 103.247 22.808 103.776 22.9979 104.272C23.1878 104.767 23.4786 105.217 23.8519 105.594C24.2251 105.971 24.6726 106.266 25.166 106.46C27.6775 107.452 23.6962 109.15 26.436 109.628C29.1758 110.106 27.1495 107.288 30.5029 106.774C33.8563 106.26 33.9847 108.265 34.7838 105.533C35.5829 102.8 43.6882 102.129 45.0438 103.456C46.3994 104.783 42.1399 106.774 44.0235 107.109C45.9071 107.445 48.2188 108.494 48.2259 106.938C48.2331 105.383 47.3983 102.443 51.7078 102.201C56.0172 101.958 61.8892 104.441 62.1104 102.201C62.3316 99.9602 63.8442 97.9767 66.427 99.4679C69.0098 100.959 72.2919 101.794 72.6272 99.4679C72.779 98.3913 73.2581 97.3874 73.9996 96.5923C74.7411 95.7972 75.7092 95.2493 76.7726 95.0229C78.7632 94.6519 75.0745 93.8884 73.6832 90.6207C72.2919 87.3529 75.9449 86.989 70.1157 85.348C64.2865 83.707 59.3492 86.6608 53.7769 85.2624C48.2045 83.8639 25.1946 81.7163 18.4735 85.4479Z" fill="#407BFF"/>
<path d="M43.1888 105.591C60.9761 105.591 75.3956 100.527 75.3956 94.2818C75.3956 88.0361 60.9761 82.973 43.1888 82.973C25.4015 82.973 10.982 88.0361 10.982 94.2818C10.982 100.527 25.4015 105.591 43.1888 105.591Z" stroke="#263238" stroke-linecap="round" stroke-linejoin="round"/>
<path d="M14.3706 99.8185C14.3706 99.8185 15.084 91.8917 16.0473 89.53C17.1603 86.7117 22.647 79.9479 22.647 79.9479C22.647 79.9479 44.9934 77.5862 64.0293 79.9479C64.0293 79.9479 69.3376 86.2694 70.5006 88.8879C71.4638 91.0283 72.6411 98.3773 72.6411 98.3773C72.6411 98.3773 45.8354 104.627 14.3706 99.8185Z" fill="white" stroke="#263238" stroke-linecap="round" stroke-linejoin="round"/>
<path opacity="0.4" d="M17.3101 89.7932C17.8881 91.4984 26.771 92.3046 33.0069 92.5044C39.2427 92.7042 44.6224 93.8172 49.517 93.4177C54.4115 93.0181 54.0048 92.4045 58.9778 92.4045C63.9508 92.4045 69.1878 90.6921 69.8513 89.7932C70.5088 92.2151 71.0351 94.6706 71.4282 97.1492C71.4282 97.1492 51.265 103.1 15.9117 98.8616C15.9117 98.8616 16.4112 94.2239 16.5753 92.4045C16.6002 91.4866 16.8527 90.5893 17.3101 89.7932Z" fill="#407BFF"/>
<path opacity="0.4" d="M26.0649 81.4245C26.3676 81.3037 26.6774 81.2013 26.9924 81.1177C26.7106 80.9254 26.3667 80.8464 26.0292 80.8965H29.9249C30.3162 80.8645 30.7092 80.9333 31.0664 81.0963C31.3324 81.3408 31.4958 81.677 31.5236 82.0372C31.5514 82.3973 31.4416 82.7546 31.2163 83.037C31.0419 83.1677 30.8412 83.259 30.6281 83.3046C30.415 83.3502 30.1945 83.349 29.9819 83.301C28.0056 83.144 26.0292 82.9086 24.0671 82.5875C23.9244 82.5875 23.7675 82.5233 23.7104 82.3949C23.5534 82.0453 24.0671 81.4245 24.4239 81.3603C24.9162 81.2747 25.3799 81.5173 25.8508 81.4816C25.924 81.4699 25.9957 81.4508 26.0649 81.4245Z" fill="#407BFF"/>
<path opacity="0.4" d="M22.3549 85.5621C22.1871 85.6778 22.044 85.8257 21.934 85.9973C21.3766 86.6958 20.9247 87.4723 20.5926 88.3019C20.5612 88.3822 20.5612 88.4714 20.5926 88.5516C20.6454 88.621 20.7214 88.6691 20.8067 88.6872C21.4402 88.8159 22.0891 88.852 22.7331 88.7942C24.6986 88.7967 26.662 88.9206 28.6122 89.1652C28.8261 89.2091 29.0487 89.1682 29.233 89.0511C29.4541 88.8584 29.4042 88.5088 29.3828 88.2163C29.3638 87.8312 29.4372 87.4471 29.5968 87.0961C29.7282 86.8975 29.7954 86.6634 29.7895 86.4254C29.7181 86.0116 29.183 85.8975 28.762 85.8761L25.1946 85.6834C24.4312 85.6335 23.0256 85.1768 22.3549 85.5621Z" fill="#407BFF"/>
<path opacity="0.4" d="M34.5201 81.8021C35.0801 81.3886 35.7453 81.1414 36.4394 81.0886C38.15 80.7491 39.9049 80.6937 41.6336 80.9245C41.4481 81.7308 41.8904 82.7154 41.3411 83.329C40.9945 83.6324 40.5457 83.793 40.0853 83.7785C38.5769 83.8987 37.0597 83.8508 35.5618 83.6358C35.2122 83.5859 34.3846 83.6358 34.1348 83.3147C33.8851 82.9937 34.1991 82.0947 34.5201 81.8021Z" fill="#407BFF"/>
<path opacity="0.4" d="M32.7646 87.6605C33.1356 86.947 34.0774 86.8614 34.905 86.8614C37.338 86.8614 39.771 86.9541 42.204 87.0612C42.3085 87.0516 42.4139 87.0651 42.5125 87.1009C42.6112 87.1366 42.7007 87.1937 42.7748 87.2681C42.8312 87.3738 42.8629 87.4908 42.8676 87.6106C42.8676 87.9816 42.9104 88.324 42.8676 88.7236C42.8916 88.9288 42.8651 89.1369 42.7905 89.3296C42.7159 89.5223 42.5954 89.6939 42.4395 89.8295C42.2991 89.9002 42.1465 89.9438 41.99 89.9579C39.9593 90.1565 37.9104 90.0507 35.9111 89.644C35.0335 89.5084 34.1273 89.4513 33.264 89.3229C32.522 89.2016 32.4435 88.2527 32.7646 87.6605Z" fill="#407BFF"/>
<path opacity="0.4" d="M44.58 82.1448C44.6442 81.6382 44.7726 81.046 45.2364 80.8463C45.4477 80.7762 45.6714 80.7519 45.8928 80.7749L50.1737 80.9675C50.8915 80.9858 51.607 81.0574 52.3142 81.1816C52.6657 81.2336 52.9977 81.3762 53.2774 81.5954C53.4803 81.8372 53.6334 82.1168 53.7277 82.418C53.8219 82.7193 53.8556 83.0362 53.8268 83.3506C53.8268 83.636 48.2616 83.6503 47.7407 83.6288C47.2199 83.6074 46.7561 83.529 46.3137 83.5432C45.9998 83.5432 45.7287 83.6931 45.4362 83.7216C44.5229 83.8072 44.5015 82.8083 44.58 82.1448Z" fill="#407BFF"/>
<path opacity="0.4" d="M56.267 89.3585C56.267 89.1016 56.1885 88.8448 56.1529 88.5808C56.1296 88.1004 55.9576 87.6391 55.6606 87.2608C55.2462 86.9172 54.7218 86.7348 54.1836 86.7471C52.0629 86.5759 49.9285 86.7616 47.8693 87.2965C47.3881 87.4738 46.8681 87.5181 46.3638 87.4249C46.1921 87.3733 46.0371 87.2773 45.9143 87.1467C45.9857 88.0599 46.0499 88.9732 46.1141 89.8864C46.6492 89.9507 47.1915 89.9721 47.7266 89.9863L52.1359 90.1433C52.5566 90.1647 52.9781 90.1647 53.3988 90.1433C54.0552 90.1076 54.7116 89.9792 55.368 89.9935C55.7176 89.9935 56.1814 89.9935 56.2741 89.6367C56.2865 89.5442 56.2841 89.4503 56.267 89.3585Z" fill="#407BFF"/>
<path opacity="0.4" d="M60.9261 81.6096C61.0545 81.6096 61.2258 81.6096 61.2329 81.4526C61.2471 81.4135 61.2471 81.3705 61.2329 81.3314C61.026 80.9603 60.5194 80.9033 60.0985 80.8819H59.0996C59.9379 80.711 60.7912 80.625 61.6467 80.625C61.734 80.615 61.8222 80.6351 61.8965 80.6821C61.9588 80.7324 62.0057 80.7991 62.032 80.8747L62.8668 82.7369C62.8823 82.7742 62.8903 82.8142 62.8903 82.8547C62.8903 82.8951 62.8823 82.9351 62.8668 82.9724C62.8668 83.0651 62.7241 83.0937 62.6313 83.1151C60.9932 83.3862 59.3314 83.4866 57.6726 83.4147C57.3976 83.458 57.1161 83.4325 56.8534 83.3404C56.5906 83.2482 56.3549 83.0924 56.1671 82.8868C56.0917 82.7965 56.0367 82.691 56.006 82.5774C55.9753 82.4639 55.9695 82.345 55.9892 82.229C56.0089 82.113 56.0535 82.0027 56.1199 81.9056C56.1864 81.8085 56.2731 81.727 56.3741 81.6667C56.9306 81.4098 57.9509 81.6167 58.5573 81.6239L60.9261 81.6096Z" fill="#407BFF"/>
<path opacity="0.4" d="M63.302 85.6836L60.0485 86.2045C60.0251 86.2759 60.0281 86.3533 60.0569 86.4227C60.0857 86.4921 60.1384 86.5488 60.2055 86.5826C60.3451 86.6504 60.5002 86.68 60.655 86.6683L65.1071 86.7467C65.1894 86.7435 65.271 86.7633 65.3426 86.8038C65.395 86.8485 65.4324 86.9083 65.4496 86.9751C65.6565 87.4745 65.8349 87.9882 65.9919 88.5019C66.0496 88.6493 66.0692 88.8088 66.049 88.9657C65.9633 89.3224 65.5352 89.4509 65.1714 89.5079C63.4886 89.7124 61.7922 89.7816 60.0985 89.7148C59.8027 89.741 59.5066 89.6682 59.2566 89.5079C59.1203 89.3745 59.0176 89.2107 58.9569 89.0299C58.6786 88.3592 57.7796 86.1759 58.8071 85.912C60.2925 85.6717 61.7999 85.5951 63.302 85.6836Z" fill="#407BFF"/>
<path d="M29.7255 89.6865C26.5148 89.4867 23.3041 89.2441 20.1005 88.9088C20.5915 87.291 21.3671 85.7736 22.3908 84.4281" stroke="#263238" stroke-linecap="round" stroke-linejoin="round"/>
<path d="M42.675 90.2429C39.2716 90.1716 35.8754 90.0218 32.4792 89.8434L33.1927 85.9335" stroke="#263238" stroke-linecap="round" stroke-linejoin="round"/>
<path d="M55.7245 90.0363C52.5138 90.2218 49.3031 90.2932 46.0853 90.2861L45.7143 86.2834" stroke="#263238" stroke-linecap="round" stroke-linejoin="round"/>
<path d="M65.1352 86.4897L66.4623 88.9084C64.0221 89.2842 61.5749 89.5791 59.1205 89.7931L57.8291 85.448" stroke="#263238" stroke-linecap="round" stroke-linejoin="round"/>
<path d="M41.7328 82.181V83.7293H33.9344L34.2055 81.7101" stroke="#263238" stroke-linecap="round" stroke-linejoin="round"/>
<path d="M31.7158 81.7102L31.3305 83.3298L23.5321 82.7234L24.4168 81.3107" stroke="#263238" stroke-linecap="round" stroke-linejoin="round"/>
<path d="M23.147 85.4766L29.7253 85.9333L29.34 87.6314" stroke="#263238" stroke-linecap="round" stroke-linejoin="round"/>
<path d="M34.3769 87.0536H42.6747L42.953 88.6376" stroke="#263238" stroke-linecap="round" stroke-linejoin="round"/>
<path d="M47.2124 87.0539L55.3961 86.5544L56.2808 88.2882" stroke="#263238" stroke-linecap="round" stroke-linejoin="round"/>
<path d="M44.7511 81.7096V83.7288L54.212 83.3293L53.5484 81.3101C53.5484 81.3101 51.0584 80.4325 46.0283 80.9034" stroke="#263238" stroke-linecap="round" stroke-linejoin="round"/>
<path d="M56.5023 83.3297L63.1449 83.0586L62.4243 81.7101" stroke="#263238" stroke-linecap="round" stroke-linejoin="round"/>
<path d="M56.5023 81.7101H60.6762" stroke="#263238" stroke-linecap="round" stroke-linejoin="round"/>
<path d="M35.9252 81.3101C37.8438 80.9767 39.7858 80.7954 41.733 80.7678" stroke="#263238" stroke-linecap="round" stroke-linejoin="round"/>
<path d="M42.6748 74.1322C42.6748 74.1322 43.3883 70.5648 42.2895 69.1378C42.2895 69.1378 40.1491 72.7053 40.0421 74.1322C40.0421 74.1322 39.4213 70.8145 37.5734 70.2366C37.5734 70.2366 36.4746 70.679 36.5602 71.5351C37.0772 72.5659 37.5022 73.6403 37.8303 74.7458C37.2754 74.7222 36.7216 74.8133 36.2036 75.0134C35.6855 75.2135 35.2143 75.5183 34.8193 75.9088C35.0951 76.2894 35.4562 76.6 35.8738 76.8156C36.2914 77.0313 36.7538 77.1459 37.2238 77.1503C37.2238 77.1503 35.3188 78.4417 34.8193 79.6189C34.8193 79.6189 37.8873 80.8818 40.5272 79.4334C43.1671 77.9851 42.6748 74.1322 42.6748 74.1322Z" fill="#263238"/>
<path d="M41.0123 74.0821C41.2864 73.5127 41.678 73.0079 42.1613 72.6008C42.6446 72.1938 43.2087 71.8937 43.8163 71.7204C47.6335 70.6716 49.3887 74.2676 50.1378 77.3712C50.7372 79.8684 51.4292 83.1505 50.095 85.5264C47.8903 89.4506 41.9256 87.0319 39.0003 85.398C37.081 84.3277 35.6683 82.8151 36.0393 80.4036C36.1168 79.834 36.3278 79.2909 36.6552 78.8185C36.9825 78.3461 37.4169 77.9577 37.9229 77.6852C38.5343 77.4689 39.1223 77.1916 39.6781 76.8575C40.5272 76.1726 40.5557 75.0025 41.0123 74.0821Z" fill="#F8247D" stroke="#263238" stroke-linecap="round" stroke-linejoin="round"/>
<path opacity="0.6" d="M43.6521 73.804C45.2146 73.9111 45.9923 75.231 46.8771 78.0065C47.7618 80.782 48.8177 81.6453 48.8177 83.3933C48.8177 85.1414 48.3183 85.4482 48.3183 85.4482C48.3183 85.4482 50.3089 85.2627 49.5027 80.0756C48.6965 74.8886 47.7689 73.112 45.9353 72.7766C45.4732 72.6415 44.9797 72.6602 44.5292 72.8301C44.0788 73 43.6958 73.3118 43.438 73.7184" fill="white"/>
<path d="M37.944 81.2103C37.944 81.2103 39.0213 81.6027 38.3007 81.9951C37.5801 82.3875 37.944 81.2103 37.944 81.2103Z" fill="#263238"/>
<path d="M40.4704 78.6989C40.4704 78.6989 41.4122 79.2411 41.134 79.5907C40.8557 79.9403 40.4704 78.6989 40.4704 78.6989Z" fill="#263238"/>
<path d="M42.9532 76.173C42.9532 76.173 44.3088 76.2872 43.9735 76.7296C43.6382 77.1719 42.9532 76.173 42.9532 76.173Z" fill="#263238"/>
<path d="M45.0796 73.3194C45.0796 73.3194 45.9714 72.9626 45.9143 73.4835C45.8573 74.0043 45.0796 73.3194 45.0796 73.3194Z" fill="#263238"/>
<path d="M46.5562 77.3714C46.5562 77.3714 47.7335 78.0064 47.2126 78.3417C46.6918 78.6771 46.5562 77.3714 46.5562 77.3714Z" fill="#263238"/>
<path d="M44.252 80.5964C44.252 80.5964 45.1367 80.9104 44.7728 81.3099C44.4089 81.7095 44.252 80.5964 44.252 80.5964Z" fill="#263238"/>
<path d="M41.2622 82.5227C41.2622 82.5227 42.2325 82.8509 41.9757 83.1791C41.7188 83.5073 41.2622 82.5227 41.2622 82.5227Z" fill="#263238"/>
<path d="M43.1885 85.12C43.1885 85.12 44.2444 84.8988 44.0233 85.4125C43.8021 85.9262 43.1885 85.12 43.1885 85.12Z" fill="#263238"/>
<path d="M45.9143 83.8221C45.9143 83.8221 46.7705 84.1503 46.4352 84.4286C46.0998 84.7068 45.9143 83.8221 45.9143 83.8221Z" fill="#263238"/>
<path d="M47.2124 81.439C47.2124 81.439 48.1257 81.8314 47.876 82.1026C47.6262 82.3737 47.2124 81.439 47.2124 81.439Z" fill="#263238"/>
<path d="M49.196 79.5759C49.196 79.5759 49.7811 79.9541 49.5028 80.1039C49.2246 80.2537 49.196 79.5759 49.196 79.5759Z" fill="#263238"/>
<path d="M48.2616 84.4783C48.2616 84.4783 49.0393 84.7923 48.8395 85.0705C48.6397 85.3488 48.2616 84.4783 48.2616 84.4783Z" fill="#263238"/>
<path d="M49.5811 82.7228C49.5811 82.7228 49.788 83.265 49.6953 83.3935C49.6025 83.5219 49.5811 82.7228 49.5811 82.7228Z" fill="#263238"/>
<path d="M46.2134 85.9333C46.2134 85.9333 46.8484 85.8334 46.7699 86.1116C46.6915 86.3899 46.2134 85.9333 46.2134 85.9333Z" fill="#263238"/>
<path d="M39.3568 84.1499C39.3568 84.1499 40.1273 84.4781 39.8776 84.6208C39.6279 84.7635 39.3568 84.1499 39.3568 84.1499Z" fill="#263238"/>
<path d="M48.5678 75.3813C48.5678 75.3813 49.2813 75.8165 49.0387 76.1804C48.7961 76.5443 48.5678 75.3813 48.5678 75.3813Z" fill="#263238"/>
<path d="M96.7783 77.5218V71.6213C92.9682 70.1087 86.3614 69.1098 78.8697 69.1098C67.0829 69.1098 57.5293 71.5785 57.5293 74.6322C57.5293 77.6859 67.0829 80.1475 78.8697 80.1475C86.3756 80.1475 92.9754 79.1414 96.7783 77.6288V77.5218Z" fill="white" stroke="#263238" stroke-linecap="round" stroke-linejoin="round"/>
<path opacity="0.4" d="M93.2682 73.9256C93.2682 75.538 86.6898 76.8508 78.5703 76.8508C70.4508 76.8508 63.8725 75.538 63.8725 73.9256C63.8725 72.3131 70.458 71.0074 78.5703 71.0074C86.6827 71.0074 93.2682 72.3131 93.2682 73.9256Z" fill="#407BFF"/>
<path d="M78.87 77.7712C87.9252 77.7712 95.2659 76.0973 95.2659 74.0325C95.2659 71.9677 87.9252 70.2938 78.87 70.2938C69.8148 70.2938 62.474 71.9677 62.474 74.0325C62.474 76.0973 69.8148 77.7712 78.87 77.7712Z" stroke="#263238" stroke-linecap="round" stroke-linejoin="round"/>
<path d="M87.439 73.4261C87.439 74.7675 84.0571 75.852 78.8772 75.852C73.6973 75.852 70.3154 74.7675 70.3154 73.4261C70.3154 72.0848 73.7044 71.0074 78.8772 71.0074C84.05 71.0074 87.439 72.0919 87.439 73.4261Z" stroke="#263238" stroke-linecap="round" stroke-linejoin="round"/>
<path d="M96.7786 61.9819V59.4133C95.2824 59.1772 93.7622 59.1341 92.2551 59.2849L91.1277 61.7607C91.1277 61.7607 95.7012 60.3623 96.7786 61.9819Z" fill="white"/>
<mask id="mask1_2294_2494" style="mask-type:luminance" maskUnits="userSpaceOnUse" x="91" y="59" width="6" height="3">
<path d="M96.7802 61.9831V59.4146C95.284 59.1785 93.7638 59.1353 92.2566 59.2861L91.1293 61.7619C91.1293 61.7619 95.7028 60.3635 96.7802 61.9831Z" fill="white"/>
</mask>
<g mask="url(#mask1_2294_2494)">
<path opacity="0.4" d="M96.7802 61.9831V59.4146C95.284 59.1785 93.7638 59.1353 92.2566 59.2861L91.1293 61.7619C91.1293 61.7619 95.7028 60.3635 96.7802 61.9831Z" fill="#407BFF"/>
</g>
<path d="M96.7786 61.9819V59.4133C95.2824 59.1772 93.7622 59.1341 92.2551 59.2849L91.1277 61.7607C91.1277 61.7607 95.7012 60.3623 96.7786 61.9819Z" stroke="#263238" stroke-linecap="round" stroke-linejoin="round"/>
<path d="M96.7787 63.937C94.7096 70.5582 87.8102 69.5664 87.8102 69.5664V71.4714C89.4571 71.6774 91.1295 71.4885 92.689 70.9203C94.2484 70.352 95.6503 69.4209 96.7787 68.2037V63.937Z" fill="white"/>
<mask id="mask2_2294_2494" style="mask-type:luminance" maskUnits="userSpaceOnUse" x="87" y="63" width="10" height="9">
<path d="M96.778 63.938C94.7089 70.5592 87.8095 69.5674 87.8095 69.5674V71.4724C89.4564 71.6784 91.1288 71.4894 92.6883 70.9212C94.2477 70.353 95.6496 69.4218 96.778 68.2046V63.938Z" fill="white"/>
</mask>
<g mask="url(#mask2_2294_2494)">
<path opacity="0.4" d="M96.778 63.938C94.7089 70.5592 87.8095 69.5674 87.8095 69.5674V71.4724C89.4564 71.6784 91.1288 71.4894 92.6883 70.9212C94.2477 70.353 95.6496 69.4218 96.778 68.2046V63.938Z" fill="#407BFF"/>
</g>
<path d="M96.7787 63.937C94.7096 70.5582 87.8102 69.5664 87.8102 69.5664V71.4714C89.4571 71.6774 91.1295 71.4885 92.689 70.9203C94.2484 70.352 95.6503 69.4209 96.7787 68.2037V63.937Z" stroke="#263238" stroke-linecap="round" stroke-linejoin="round"/>
<path d="M63.9012 57.6225C63.9012 57.6225 64.7288 74.632 78.8844 74.632C93.04 74.632 93.8676 57.6225 93.8676 57.6225H63.9012Z" fill="white"/>
<mask id="mask3_2294_2494" style="mask-type:luminance" maskUnits="userSpaceOnUse" x="63" y="57" width="31" height="18">
<path d="M63.9008 57.6234C63.9008 57.6234 64.7284 74.6329 78.884 74.6329C93.0396 74.6329 93.8672 57.6234 93.8672 57.6234H63.9008Z" fill="white"/>
</mask>
<g mask="url(#mask3_2294_2494)">
<path opacity="0.4" d="M93.8387 57.6234C93.8387 57.6234 93.011 74.6329 78.8555 74.6329C75.6535 74.7274 72.5282 73.6433 70.0724 71.5864L70.2793 71.5364C73.4482 73.1036 77.0978 73.3947 80.4751 72.3498C85.4695 70.723 90.7636 59.614 91.6697 57.6234H93.8387Z" fill="#407BFF"/>
</g>
<path d="M63.9012 57.6225C63.9012 57.6225 64.7288 74.632 78.8844 74.632C93.04 74.632 93.8676 57.6225 93.8676 57.6225H63.9012Z" stroke="#263238" stroke-linecap="round" stroke-linejoin="round"/>
<path d="M93.8391 57.622C93.8391 58.3355 93.1256 59.0133 91.8056 59.5841C89.3441 60.6472 84.7707 61.3607 78.8701 61.3607C72.9696 61.3607 68.3961 60.6472 65.9346 59.5841C64.6146 59.0133 63.9012 58.3355 63.9012 57.622C63.9012 55.5529 69.816 53.8834 78.8844 53.8834C87.9528 53.8834 93.8391 55.5529 93.8391 57.622Z" fill="white" stroke="#263238" stroke-linecap="round" stroke-linejoin="round"/>
<path d="M91.8412 59.3916C91.8483 59.4557 91.8483 59.5203 91.8412 59.5843C89.3797 60.6474 84.8063 61.3609 78.9057 61.3609C73.0052 61.3609 68.4317 60.6474 65.9702 59.5843C65.9632 59.5203 65.9632 59.4557 65.9702 59.3916C65.9702 57.6008 71.0859 56.1524 78.9271 56.1524C86.7683 56.1524 91.8412 57.6222 91.8412 59.3916Z" fill="#936247" stroke="#263238" stroke-linecap="round" stroke-linejoin="round"/>
<path d="M78.8699 58.5787C78.8699 58.5787 81.0531 57.48 82.1448 58.5787C83.2364 59.6775 80.5965 60.6193 78.4061 60.5836C76.2157 60.548 74.2108 59.1567 74.9885 58.2577C75.7662 57.3587 78.0922 58.0079 78.8699 58.5787Z" fill="white"/>
<path d="M79.0416 57.6222C79.0416 57.6222 81.974 56.6804 83.3867 57.8434C84.7994 59.0064 82.2166 60.626 82.2166 60.626C82.2166 60.626 85.6842 59.3417 84.3571 57.8434C83.03 56.345 79.327 56.9872 79.0416 57.6222Z" fill="white"/>
<path d="M84.7064 57.3725C84.7064 57.3725 87.9314 58.2715 84.7064 60.0267C84.7064 60.0267 87.6531 59.4559 87.2678 58.2216C86.8825 56.9872 84.7064 57.3725 84.7064 57.3725Z" fill="white"/>
<path d="M75.0884 60.0272C75.0884 60.0272 73.3617 59.3137 73.4687 58.4004C73.5758 57.4871 76.2228 57.3159 76.2228 57.3159C76.2228 57.3159 73.0121 56.3884 72.5483 58.0793C72.0846 59.7703 75.0884 60.0272 75.0884 60.0272Z" fill="white"/>
<path d="M72.6911 60.0269C72.6911 60.0269 70.4436 59.4562 70.2937 58.8925C70.1439 58.3288 71.4924 57.6225 71.4924 57.6225C71.4924 57.6225 69.2735 57.7795 69.1308 58.7427C68.9881 59.7059 72.6911 60.0269 72.6911 60.0269Z" fill="white"/>
<path d="M78.3778 34.9406C73.255 39.2643 82.0808 46.2279 78.3778 49.1461C78.3778 49.1461 82.0023 47.7191 79.7477 42.9387C77.4931 38.1584 78.3778 34.9406 78.3778 34.9406Z" fill="#A7AFC1"/>
<path d="M19.9637 16.8896C21.6043 12.9287 19.7234 8.38777 15.7625 6.74712C11.8016 5.10646 7.26065 6.98738 5.61999 10.9483C3.97934 14.9092 5.86026 19.4501 9.82116 21.0908C13.7821 22.7314 18.323 20.8505 19.9637 16.8896Z" fill="white" stroke="#263238" stroke-linecap="round" stroke-linejoin="round"/>
<path d="M15.9688 18.7657C15.4979 18.7657 14.128 17.7311 14.5989 16.8821C15.0698 16.033 15.9688 14.6275 15.9688 14.6275C16.369 13.8384 16.5929 12.9717 16.6252 12.0875C16.8178 10.7675 16.0615 8.52002 12.7937 8.52002C9.52598 8.52002 8.76968 10.7746 8.95519 12.0875C8.98757 12.9725 9.2141 13.8397 9.61873 14.6275C9.61873 14.6275 10.5177 16.0544 10.9886 16.8821C11.4595 17.7097 10.0825 18.7657 9.61873 18.7657C8.85355 18.9328 8.10583 19.1717 7.38551 19.4792C7.38551 19.4792 10.5106 21.6767 12.7937 21.6767C15.0769 21.6767 18.1948 19.4792 18.1948 19.4792C17.477 19.1715 16.7317 18.9326 15.9688 18.7657Z" fill="#263238"/>
<path d="M12.8584 121.444C12.2163 120.366 10.9534 120.73 10.2899 121.579C9.65486 120.737 8.40626 120.309 7.73558 121.372C6.60114 123.156 8.86289 124.854 9.93312 125.518L10.2328 125.71L10.5467 125.525C11.6312 124.89 13.9358 123.263 12.8584 121.444Z" fill="#F97659" stroke="#263238" stroke-linecap="round" stroke-linejoin="round"/>
<path d="M95.7798 125.539L93.4681 124.405L91.1493 125.539V120.909H95.7798V125.539Z" fill="#151820" stroke="#263238" stroke-linecap="round" stroke-linejoin="round"/>
<path d="M18.0522 120.687H21.6196C21.7036 120.687 21.7868 120.704 21.8643 120.736C21.9418 120.769 22.0121 120.816 22.0712 120.876C22.1303 120.935 22.1769 121.006 22.2084 121.084C22.2399 121.162 22.2556 121.245 22.2546 121.329V124.255C22.2546 124.338 22.2382 124.421 22.2063 124.498C22.1744 124.575 22.1276 124.645 22.0687 124.704C22.0097 124.763 21.9397 124.809 21.8626 124.841C21.7856 124.873 21.703 124.89 21.6196 124.89H20.264L19.8502 125.76L19.4364 124.89H18.0807C17.9974 124.89 17.9148 124.873 17.8377 124.841C17.7607 124.809 17.6907 124.763 17.6317 124.704C17.5728 124.645 17.526 124.575 17.4941 124.498C17.4622 124.421 17.4457 124.338 17.4457 124.255V121.329C17.4437 121.165 17.5059 121.005 17.619 120.886C17.7322 120.766 17.8875 120.695 18.0522 120.687Z" fill="white" stroke="#263238" stroke-linecap="round" stroke-linejoin="round"/>
<path d="M24.3315 128.792H7.57171C7.36455 128.811 7.17203 128.907 7.03187 129.061C6.89172 129.215 6.81403 129.415 6.81403 129.623C6.81403 129.831 6.89172 130.032 7.03187 130.186C7.17203 130.339 7.36455 130.435 7.57171 130.455H24.3315C24.4472 130.465 24.5638 130.452 24.6739 130.415C24.784 130.378 24.8852 130.319 24.971 130.24C25.0568 130.162 25.1254 130.067 25.1723 129.961C25.2192 129.854 25.2434 129.739 25.2434 129.623C25.2434 129.507 25.2192 129.392 25.1723 129.286C25.1254 129.18 25.0568 129.085 24.971 129.006C24.8852 128.928 24.784 128.869 24.6739 128.832C24.5638 128.795 24.4472 128.781 24.3315 128.792Z" fill="#263238"/>
<path d="M91.4132 133.074H7.27162C7.13159 133.074 6.99729 133.129 6.89828 133.228C6.79926 133.327 6.74364 133.462 6.74364 133.602C6.74364 133.742 6.79926 133.876 6.89828 133.975C6.99729 134.074 7.13159 134.13 7.27162 134.13H91.4132C91.5532 134.13 91.6875 134.074 91.7865 133.975C91.8855 133.876 91.9412 133.742 91.9412 133.602C91.9412 133.462 91.8855 133.327 91.7865 133.228C91.6875 133.129 91.5532 133.074 91.4132 133.074Z" fill="#263238"/>
<path d="M77.1434 136.641H7.27162C7.13159 136.641 6.99729 136.697 6.89828 136.796C6.79926 136.895 6.74364 137.029 6.74364 137.169C6.74364 137.309 6.79926 137.443 6.89828 137.542C6.99729 137.641 7.13159 137.697 7.27162 137.697H77.1434C77.2835 137.697 77.4178 137.641 77.5168 137.542C77.6158 137.443 77.6714 137.309 77.6714 137.169C77.6714 137.029 77.6158 136.895 77.5168 136.796C77.4178 136.697 77.2835 136.641 77.1434 136.641Z" fill="#263238"/>
<path d="M170.66 158.887C166.546 164.269 162.112 169.398 157.382 174.248C148.356 183.459 136.591 192.899 128.322 190.145C113.082 185.065 114.209 174.056 114.209 160.892C114.209 147.728 118.347 145.095 118.347 145.095L119.011 141.314C126.488 139.637 131.818 142.198 131.818 142.198L132.274 145.851C135.663 147.086 137.64 158.908 137.64 158.908C137.64 158.908 139.438 155.505 142.178 150.874C147.764 141.421 157.254 126.816 163.29 125.417L168.612 149.597L170.66 158.887Z" fill="#407BFF"/>
<mask id="mask4_2294_2494" style="mask-type:luminance" maskUnits="userSpaceOnUse" x="114" y="125" width="57" height="66">
<path d="M170.66 158.887C166.546 164.269 162.112 169.398 157.382 174.248C148.356 183.459 136.591 192.899 128.322 190.145C113.082 185.065 114.209 174.056 114.209 160.892C114.209 147.728 118.347 145.095 118.347 145.095L119.011 141.314C126.488 139.637 131.818 142.198 131.818 142.198L132.274 145.851C135.663 147.086 137.64 158.908 137.64 158.908C137.64 158.908 139.438 155.505 142.178 150.874C147.764 141.421 157.254 126.816 163.29 125.417L168.612 149.597L170.66 158.887Z" fill="white"/>
</mask>
<g mask="url(#mask4_2294_2494)">
<path opacity="0.2" d="M170.66 158.887C166.546 164.269 162.112 169.399 157.382 174.248C155.955 161.769 166.093 145.074 166.093 145.074L168.612 149.576L170.66 158.887Z" fill="black"/>
<path opacity="0.2" d="M141.607 167.941C141.607 167.941 139.709 160.856 137.64 158.886C137.64 158.886 139.438 155.483 142.178 150.853C143.59 156.297 144.554 163.481 141.607 167.941Z" fill="black"/>
</g>
<path d="M170.66 158.887C166.546 164.269 162.112 169.398 157.382 174.248C148.356 183.459 136.591 192.899 128.322 190.145C113.082 185.065 114.209 174.056 114.209 160.892C114.209 147.728 118.347 145.095 118.347 145.095L119.011 141.314C126.488 139.637 131.818 142.198 131.818 142.198L132.274 145.851C135.663 147.086 137.64 158.908 137.64 158.908C137.64 158.908 139.438 155.505 142.178 150.874C147.764 141.421 157.254 126.816 163.29 125.417L168.612 149.597L170.66 158.887Z" stroke="#263238" stroke-linecap="round" stroke-linejoin="round"/>
<path d="M129.578 114.951L127.031 117.848C118.019 128.079 120.987 136.513 120.987 136.513L120.516 142.063C123.675 143.542 127.27 143.796 130.605 142.777L130.805 135.913C130.805 135.913 141.728 131.147 129.578 114.951Z" fill="white" stroke="#263238" stroke-linecap="round" stroke-linejoin="round"/>
<path d="M134.807 131.403L143.091 134.157C143.968 134.378 145.702 132.916 145.624 132.017L143.162 103.056C143.114 102.486 142.889 101.945 142.52 101.508C142.151 101.071 141.654 100.759 141.1 100.616L131.925 98.6256C131.047 98.3973 128.843 99.4461 128.914 100.345L132.745 128.97C132.795 129.539 133.02 130.079 133.39 130.514C133.759 130.95 134.254 131.261 134.807 131.403Z" fill="#407BFF"/>
<mask id="mask5_2294_2494" style="mask-type:luminance" maskUnits="userSpaceOnUse" x="128" y="98" width="18" height="37">
<path d="M134.808 131.403L143.091 134.157C143.969 134.378 145.703 132.916 145.624 132.017L143.163 103.056C143.114 102.486 142.89 101.945 142.52 101.508C142.151 101.071 141.655 100.759 141.101 100.616L131.925 98.6255C131.048 98.3972 128.843 99.446 128.914 100.345L132.746 128.97C132.796 129.539 133.021 130.079 133.39 130.514C133.759 130.95 134.255 131.261 134.808 131.403Z" fill="white"/>
</mask>
<g mask="url(#mask5_2294_2494)">
<path opacity="0.3" d="M134.808 131.403L143.091 134.157C143.969 134.378 145.703 132.916 145.624 132.017L143.163 103.056C143.114 102.486 142.89 101.945 142.52 101.508C142.151 101.071 141.655 100.759 141.101 100.616L131.925 98.6255C131.048 98.3972 128.843 99.446 128.914 100.345L132.746 128.97C132.796 129.539 133.021 130.079 133.39 130.514C133.759 130.95 134.255 131.261 134.808 131.403Z" fill="black" fill-opacity="0.7"/>
</g>
<path d="M134.807 131.403L143.091 134.157C143.968 134.378 145.702 132.916 145.624 132.017L143.162 103.056C143.114 102.486 142.889 101.945 142.52 101.508C142.151 101.071 141.654 100.759 141.1 100.616L131.925 98.6256C131.047 98.3973 128.843 99.4461 128.914 100.345L132.745 128.97C132.795 129.539 133.02 130.079 133.39 130.514C133.759 130.95 134.254 131.261 134.807 131.403Z" stroke="#263238" stroke-linecap="round" stroke-linejoin="round"/>
<path d="M133.445 132.117L142.62 134.115C142.824 134.167 143.036 134.169 143.241 134.122C143.446 134.075 143.636 133.98 143.796 133.845C143.957 133.709 144.083 133.538 144.164 133.344C144.244 133.15 144.278 132.94 144.261 132.731L141.785 103.77C141.737 103.2 141.512 102.659 141.143 102.222C140.774 101.785 140.278 101.473 139.723 101.33L130.541 99.3397C130.341 99.2929 130.132 99.2941 129.932 99.3432C129.733 99.3923 129.547 99.4878 129.392 99.622C129.236 99.7562 129.114 99.9253 129.036 100.116C128.958 100.306 128.926 100.512 128.943 100.717L131.383 129.684C131.433 130.253 131.658 130.793 132.027 131.229C132.396 131.664 132.892 131.975 133.445 132.117Z" fill="#407BFF" stroke="#263238" stroke-linecap="round" stroke-linejoin="round"/>
<path opacity="0.3" d="M138.531 109.129L140.016 109.45C140.048 109.458 140.082 109.458 140.115 109.45C140.147 109.443 140.178 109.427 140.203 109.406C140.229 109.384 140.249 109.357 140.263 109.326C140.276 109.295 140.282 109.262 140.28 109.229L139.88 104.555C139.871 104.463 139.834 104.376 139.774 104.306C139.714 104.236 139.634 104.186 139.545 104.163L138.068 103.842C138.035 103.834 138.001 103.834 137.969 103.841C137.936 103.849 137.906 103.864 137.88 103.886C137.854 103.907 137.834 103.934 137.821 103.965C137.807 103.996 137.802 104.03 137.804 104.063L138.203 108.736C138.21 108.828 138.245 108.915 138.304 108.986C138.363 109.056 138.442 109.106 138.531 109.129Z" fill="black" fill-opacity="0.7"/>
<path d="M125.625 123.648C125.268 119.588 128.964 113.495 131.418 113.495C133.872 113.495 141.364 119.253 141.364 119.253C144.261 121.358 142.791 123.356 142.791 123.356C144.496 124.483 144.932 126.003 144.218 126.709C143.505 127.415 140.957 126.709 140.957 126.709C140.957 126.709 143.44 128.528 142.827 129.42C141.4 131.525 136.548 128.742 136.548 128.742C136.548 128.742 139.345 130.583 139.181 130.933C138.132 133.237 133.573 130.555 133.573 130.555L130.362 132.196C130.365 132.572 130.29 132.945 130.142 133.292C129.994 133.638 129.777 133.95 129.503 134.208C129.229 134.467 128.905 134.666 128.551 134.794C128.196 134.921 127.82 134.974 127.444 134.95" fill="white"/>
<path d="M125.625 123.648C125.268 119.588 128.964 113.495 131.418 113.495C133.872 113.495 141.364 119.253 141.364 119.253C144.261 121.358 142.791 123.356 142.791 123.356C144.496 124.483 144.932 126.003 144.218 126.709C143.505 127.415 140.957 126.709 140.957 126.709C140.957 126.709 143.44 128.528 142.827 129.42C141.4 131.525 136.548 128.742 136.548 128.742C136.548 128.742 139.345 130.583 139.181 130.933C138.132 133.237 133.573 130.555 133.573 130.555L130.362 132.196C130.365 132.572 130.29 132.945 130.142 133.292C129.994 133.638 129.777 133.95 129.503 134.208C129.229 134.467 128.905 134.666 128.551 134.794C128.196 134.921 127.82 134.974 127.444 134.95" stroke="#263238" stroke-linecap="round" stroke-linejoin="round"/>
<path d="M142.827 123.356C142.827 123.356 135.82 118.825 134.936 118.704C134.051 118.583 130.805 117.876 130.805 117.876" fill="white"/>
<path d="M142.827 123.356C142.827 123.356 135.82 118.825 134.936 118.704C134.051 118.583 130.805 117.876 130.805 117.876" stroke="#263238" stroke-linecap="round" stroke-linejoin="round"/>
<path d="M140.958 126.709C140.958 126.709 135.25 123.769 134.23 123.769C132.664 123.598 131.111 123.331 129.578 122.97" fill="white"/>
<path d="M140.958 126.709C140.958 126.709 135.25 123.769 134.23 123.769C132.664 123.598 131.111 123.331 129.578 122.97" stroke="#263238" stroke-linecap="round" stroke-linejoin="round"/>
<path d="M136.548 128.742C135.883 128.269 135.179 127.853 134.443 127.5C133.085 127.407 131.721 127.407 130.362 127.5" fill="white"/>
<path d="M136.548 128.742C135.883 128.269 135.179 127.853 134.443 127.5C133.085 127.407 131.721 127.407 130.362 127.5" stroke="#263238" stroke-linecap="round" stroke-linejoin="round"/>
<path d="M160.693 129.684C161.071 127.587 161.92 126.117 163.29 125.403C178.815 117.662 211.949 116.192 232.362 118.754C251.198 121.122 254.088 172.829 252.176 220.725H179.065C179.065 220.725 179.521 179 170.296 162.562C168.256 158.937 163.696 149.783 163.161 145.566" fill="#407BFF"/>
<mask id="mask6_2294_2494" style="mask-type:luminance" maskUnits="userSpaceOnUse" x="160" y="117" width="93" height="104">
<path d="M160.693 129.684C161.071 127.586 161.92 126.116 163.29 125.403C178.816 117.661 211.95 116.192 232.363 118.753C251.199 121.122 254.089 172.828 252.176 220.725H179.065C179.065 220.725 179.522 179 170.297 162.561C168.256 158.937 163.697 149.783 163.162 145.566" fill="white"/>
</mask>
<g mask="url(#mask6_2294_2494)">
<path opacity="0.2" d="M252.176 220.718H179.065C179.065 220.718 179.165 211.878 178.352 200.74C178.352 200.74 176.326 192.799 183.254 188.647C189.525 184.886 205.329 183.031 209.353 179.635C213.983 175.725 215.182 165.144 222.395 147.328C226.819 136.405 247.589 140.194 247.589 140.194C252.704 160.136 253.354 191.151 252.176 220.718Z" fill="black"/>
</g>
<path d="M137.64 158.888C137.64 158.888 144.004 167.278 140.957 174.057" stroke="#263238" stroke-linecap="round" stroke-linejoin="round"/>
<path d="M160.45 149.776C160.45 149.776 162.862 156.876 168.455 159.116" stroke="#263238" stroke-linecap="round" stroke-linejoin="round"/>
<path d="M118.347 145.074C118.347 145.074 124.504 149.212 130.362 146.251" stroke="#263238" stroke-linecap="round" stroke-linejoin="round"/>
<path d="M139.709 162.334C139.709 162.334 143.89 163.989 144.946 167.942" stroke="#263238" stroke-linecap="round" stroke-linejoin="round"/>
<path d="M179.065 220.718C179.065 220.718 179.521 178.994 170.296 162.555C168.255 158.93 163.696 149.776 163.161 145.56" stroke="#263238" stroke-miterlimit="10"/>
<path d="M160.693 129.684C161.071 127.587 161.92 126.117 163.29 125.403C178.815 117.662 211.949 116.192 232.362 118.754C251.198 121.122 254.088 172.829 252.176 220.725" stroke="#263238" stroke-miterlimit="10"/>
<path d="M211.207 119.089C211.207 119.089 207.961 133.08 194.519 133.144C184.773 133.194 185.529 123.355 185.529 123.355C186.069 122.785 186.429 122.067 186.562 121.292C186.696 120.518 186.597 119.721 186.278 119.003C186.129 118.678 185.932 118.377 185.693 118.111C184.609 117.031 183.287 116.219 181.833 115.742C180.971 115.416 180.086 115.151 179.186 114.95C179.186 114.95 180.164 112.096 179.636 111.561C172.686 104.248 187.099 90.4849 201.561 94.352C201.561 94.352 193.627 104.405 211.207 119.089Z" fill="white" stroke="#263238" stroke-linecap="round" stroke-linejoin="round"/>
<path d="M185.693 118.111C184.609 117.031 183.287 116.22 181.833 115.742C185.086 113.424 188.668 111.233 188.668 111.233C188.719 112.529 188.478 113.82 187.963 115.011C187.448 116.202 186.672 117.261 185.693 118.111Z" fill="#263238"/>
<path d="M204.358 86.7538C205.97 65.2279 194.526 57.7934 187.526 56.0739C176.31 53.3483 163.682 62.3383 162.362 74.3606C161.042 86.3828 164.26 88.5732 164.845 93.3179C165.258 96.6499 163.475 98.5977 166.985 106.553C169.325 111.804 173.164 120.216 182.297 117.184C185.085 116.226 187.727 114.883 190.145 113.196" fill="white"/>
<path d="M204.358 86.7538C205.97 65.2279 194.526 57.7934 187.526 56.0739C176.31 53.3483 163.682 62.3383 162.362 74.3606C161.042 86.3828 164.26 88.5732 164.845 93.3179C165.258 96.6499 163.475 98.5977 166.985 106.553C169.325 111.804 173.164 120.216 182.297 117.184C185.085 116.226 187.727 114.883 190.145 113.196" stroke="#263238" stroke-linecap="round" stroke-linejoin="round"/>
<path d="M175.954 84.2641C175.954 84.2641 179.629 82.2092 182.418 86.4545" stroke="#263238" stroke-linecap="round" stroke-linejoin="round"/>
<path d="M162.334 83.8996C162.334 83.8996 166.265 82.3941 168.456 85.0697" stroke="#263238" stroke-linecap="round" stroke-linejoin="round"/>
<path d="M170.41 90.7988C170.41 90.7988 171.323 94.3663 170.046 95.2867C168.769 96.2071 166.372 95.0655 167.478 97.8623C168.584 100.659 171.93 100.317 171.93 100.317" stroke="#263238" stroke-linecap="round" stroke-linejoin="round"/>
<path d="M177.737 90.635C177.887 91.6053 178.451 92.3188 178.979 92.2332C179.507 92.1476 179.821 91.3057 179.692 90.3353C179.564 89.365 178.979 88.6586 178.458 88.7371C177.937 88.8156 177.588 89.6718 177.737 90.635Z" fill="#263238" stroke="#263238" stroke-linecap="round" stroke-linejoin="round"/>
<path d="M166.472 91.4134C166.621 92.3766 167.185 93.0972 167.706 93.0116C168.227 92.926 168.555 92.0769 168.419 91.1137C168.284 90.1505 167.706 89.4299 167.185 89.5155C166.664 89.6011 166.322 90.443 166.472 91.4134Z" fill="#263238" stroke="#263238" stroke-linecap="round" stroke-linejoin="round"/>
<path d="M179.515 102.051C179.515 102.051 175.64 105.069 171.502 104.655" stroke="#263238" stroke-linecap="round" stroke-linejoin="round"/>
<path d="M178.887 102.964C178.887 102.964 178.887 106.139 176.033 106.852C173.179 107.566 172.601 104.748 172.601 104.748" stroke="#263238" stroke-linecap="round" stroke-linejoin="round"/>
<path d="M197.951 55.603C197.951 55.603 193.534 49.5669 179.514 52.5921C165.494 55.6173 160.585 58.6353 158.317 62.9733C156.048 67.3113 152.273 81.2029 155.862 84.2709C159.451 87.3389 162.048 86.4542 162.048 86.4542C162.048 86.4542 156.811 86.019 156.811 82.052C156.811 82.052 159.38 84.8631 162.626 85.5338C162.358 83.1369 162.26 80.724 162.333 78.3133C162.476 73.1191 166.379 70.3222 169.561 71.6065C169.561 71.6065 171.787 68.7026 173.557 70.7789C175.954 73.59 171.787 87.7171 181.74 86.4756C181.74 86.4756 176.032 85.0914 178.708 75.3666C178.708 75.3666 179.514 85.9476 187.027 86.4756C189.724 86.6682 190.638 89.9075 190.894 91.7055L193.156 90.7993C193.727 89.8861 196.267 88.4377 197.437 89.2297C201.968 92.3476 198.522 96.1291 198.151 100.324L199.784 102.964C204.101 99.3326 213.669 82.8083 208.189 71.4781C208.938 71.7922 209.602 72.2793 210.127 72.8994C210.651 73.5194 211.022 74.2549 211.207 75.0455C211.207 75.0455 211.899 59.941 197.951 55.603Z" fill="#263238"/>
<path d="M193.156 92.2266C193.156 92.2266 195.861 84.5352 200.113 85.6482C204.365 86.7612 202.91 95.6727 199.885 98.9762C196.859 102.28 194.341 99.8395 194.341 99.8395" fill="white"/>
<path d="M193.156 92.2266C193.156 92.2266 195.861 84.5352 200.113 85.6482C204.365 86.7612 202.91 95.6727 199.885 98.9762C196.859 102.28 194.341 99.8395 194.341 99.8395" stroke="#263238" stroke-linecap="round" stroke-linejoin="round"/>
<g opacity="0.2">
<path d="M172.622 63.9373C177.802 61.276 180.77 68.3324 183.453 75.9524C186.136 83.5725 191.351 84.2717 191.351 84.2717" stroke="white" stroke-linecap="round" stroke-linejoin="round"/>
<path d="M169.561 66.4987C169.561 66.4987 165.759 61.276 162.048 64.5224C158.338 67.7687 154.799 79.3415 160.022 81.8815" stroke="white" stroke-linecap="round" stroke-linejoin="round"/>
<path d="M177.238 60.1058C183.025 58.0295 187.541 57.4516 190.93 67.3334C194.319 77.2152 197.138 82.7162 203.488 84.2716" stroke="white" stroke-linecap="round" stroke-linejoin="round"/>
<path d="M191.351 56.6168C196.724 58.1722 201.718 71.8212 206.263 74.033" stroke="white" stroke-linecap="round" stroke-linejoin="round"/>
<path d="M173.992 59.1996C173.992 59.1996 172.301 55.8818 167.928 57.7369" stroke="white" stroke-linecap="round" stroke-linejoin="round"/>
</g>
<path d="M232.569 122.215C226.733 124.641 224.8 128.308 222.973 138.803C221.831 145.346 222.26 183.039 222.26 183.039C222.26 183.039 189.439 186.443 183.275 188.633C180.456 189.632 179.186 192.914 179.186 192.914L175.512 193.628C174.539 196.337 174.212 199.237 174.559 202.095C174.906 204.953 175.917 207.69 177.51 210.088L181.955 209.581C184.152 215.838 238.135 214.39 245.555 205.714C253.168 196.81 259.71 132.225 237.164 120.638" fill="#407BFF"/>
<path d="M232.569 122.215C226.733 124.641 224.8 128.308 222.973 138.803C221.831 145.346 222.26 183.039 222.26 183.039C222.26 183.039 189.439 186.443 183.275 188.633C180.456 189.632 179.186 192.914 179.186 192.914L175.512 193.628C174.539 196.337 174.212 199.237 174.559 202.095C174.906 204.953 175.917 207.69 177.51 210.088L181.955 209.581C184.152 215.838 238.135 214.39 245.555 205.714C253.168 196.81 259.71 132.225 237.164 120.638" stroke="#263238" stroke-linecap="round" stroke-linejoin="round"/>
<path d="M183.274 124.219C183.274 124.219 182.375 132.424 191.015 136.106C199.656 139.787 212.042 130.562 213.847 120.63" stroke="#263238" stroke-linecap="round" stroke-linejoin="round"/>
<path d="M212.862 147.664C212.862 147.664 198.885 168.834 184.494 174.063" stroke="#263238" stroke-linecap="round" stroke-linejoin="round"/>
<path d="M222.259 183.046C222.259 183.046 226.975 182.518 229.394 185.344" stroke="#263238" stroke-linecap="round" stroke-linejoin="round"/>
<path d="M225.813 146.251C225.813 146.251 232.762 167.706 241.367 171.794" stroke="#263238" stroke-linecap="round" stroke-linejoin="round"/>
<path d="M229.372 177.581C229.372 177.581 224.663 178.145 222.238 181.676" stroke="#263238" stroke-linecap="round" stroke-linejoin="round"/>
<path d="M179.186 192.892C180.765 195.276 181.717 198.019 181.954 200.869" stroke="#263238" stroke-linecap="round" stroke-linejoin="round"/>
<path d="M175.818 195.418C175.818 195.418 165.83 196.132 165.045 196.132C164.26 196.132 155.634 190.752 153.137 191.059C150.383 191.394 143.826 200.22 143.49 201.183C143.3 201.71 143.324 202.291 143.558 202.801C143.791 203.311 144.215 203.708 144.739 203.909C144.618 206.199 147.593 207.098 147.593 207.098C147.55 209.096 150.953 209.545 150.953 209.545C152.88 213.213 159.515 208.389 159.515 208.389C162.146 208.403 164.763 207.994 167.264 207.176L177.823 207.483C178.173 200.091 175.818 195.418 175.818 195.418Z" fill="white" stroke="#263238" stroke-linecap="round" stroke-linejoin="round"/>
<path d="M153.85 192.264C153.85 192.264 153.308 193.955 153.8 194.59C154.292 195.225 155.52 195.068 155.498 196.238C155.477 197.408 155.355 198.115 157.168 198.956C158.98 199.798 156.839 202.524 158.252 203.088" stroke="#263238" stroke-linecap="round" stroke-linejoin="round"/>
<path d="M151.603 199.72C151.603 199.72 147.622 204.979 147.579 207.112" stroke="#263238" stroke-linecap="round" stroke-linejoin="round"/>
<path d="M154.235 203.009C154.235 203.009 150.668 207.846 150.939 209.559" stroke="#263238" stroke-linecap="round" stroke-linejoin="round"/>
<path d="M144.739 203.923C144.739 203.923 147.208 199.057 150.682 196.702" stroke="#263238" stroke-linecap="round" stroke-linejoin="round"/>
<path d="M157.582 205.978C156.902 207.163 155.84 208.083 154.571 208.589" stroke="#263238" stroke-linecap="round" stroke-linejoin="round"/>
<path d="M156.555 207.29C156.555 207.29 160.835 207.376 159.516 208.403" stroke="#263238" stroke-linecap="round" stroke-linejoin="round"/>
<path d="M270.12 225V209.139C270.12 208.225 269.757 207.349 269.111 206.702C268.465 206.056 267.588 205.693 266.674 205.693H4.54594C3.63196 205.693 2.75542 206.056 2.10914 206.702C1.46287 207.349 1.09979 208.225 1.09979 209.139V225" fill="white"/>
<mask id="mask7_2294_2494" style="mask-type:luminance" maskUnits="userSpaceOnUse" x="1" y="205" width="270" height="20">
<path d="M270.12 224.999V209.139C270.12 208.225 269.757 207.348 269.111 206.702C268.465 206.055 267.588 205.692 266.674 205.692H4.54594C3.63196 205.692 2.75542 206.055 2.10914 206.702C1.46287 207.348 1.09979 208.225 1.09979 209.139V224.999" fill="white"/>
</mask>
<g mask="url(#mask7_2294_2494)">
<path opacity="0.4" d="M270.12 209.139V215.596C268.198 215.2 266.226 215.116 264.277 215.346C258.433 216.152 252.704 222.167 235.074 222.167C217.444 222.167 209.517 216.238 193.77 216.238C178.023 216.238 176.211 222.731 169.726 222.731C163.24 222.731 157.596 220.062 145.824 220.062C134.051 220.062 126.538 223.865 103.257 223.865C79.976 223.865 74.6249 214.547 63.5301 215.353C52.4354 216.159 38.7721 220.726 19.5793 220.726C13.2675 220.806 6.99971 219.665 1.12138 217.365V209.139C1.12138 208.225 1.48446 207.348 2.13073 206.702C2.77701 206.056 3.65355 205.693 4.56753 205.693H266.646C267.101 205.689 267.552 205.775 267.973 205.947C268.395 206.118 268.778 206.371 269.101 206.692C269.424 207.012 269.68 207.393 269.855 207.813C270.03 208.233 270.12 208.684 270.12 209.139Z" fill="#FC4772"/>
</g>
<path d="M270.12 225V209.139C270.12 208.225 269.757 207.349 269.111 206.702C268.465 206.056 267.588 205.693 266.674 205.693H4.54594C3.63196 205.693 2.75542 206.056 2.10914 206.702C1.46287 207.349 1.09979 208.225 1.09979 209.139V225" stroke="#263238" stroke-linecap="round" stroke-linejoin="round"/>
<path d="M111.669 192.408C111.669 192.408 112.704 190.339 114.209 191.081C115.715 191.823 115.244 197.681 112.939 197.681C110.635 197.681 108.38 196.196 108.188 194.049C107.995 191.901 111.669 192.408 111.669 192.408Z" fill="#F8247D" stroke="#263238" stroke-linecap="round" stroke-linejoin="round"/>
<path d="M112.368 191.473L112.796 190.046L111.198 191.473L109.507 190.046L110.071 191.473L108.18 192.407C108.18 192.407 111.933 192.921 112.368 191.473Z" fill="#263238"/>
<path d="M129.171 202.211H96.7073L97.2852 198.208C97.3231 197.938 97.4575 197.691 97.6634 197.513C97.8694 197.335 98.1329 197.237 98.4054 197.238H127.516C127.787 197.239 128.049 197.337 128.253 197.515C128.458 197.694 128.591 197.94 128.629 198.208L129.171 202.211Z" fill="white"/>
<mask id="mask8_2294_2494" style="mask-type:luminance" maskUnits="userSpaceOnUse" x="96" y="197" width="34" height="6">
<path d="M129.171 202.21H96.7076L97.2855 198.207C97.3234 197.938 97.4578 197.691 97.6637 197.512C97.8696 197.334 98.1332 197.236 98.4056 197.237H127.516C127.787 197.238 128.049 197.336 128.253 197.515C128.458 197.693 128.591 197.939 128.629 198.207L129.171 202.21Z" fill="white"/>
</mask>
<g mask="url(#mask8_2294_2494)">
<path opacity="0.4" d="M129.171 202.21H96.7076L97.2855 198.207C97.3234 197.938 97.4578 197.691 97.6637 197.512C97.8696 197.334 98.1332 197.236 98.4056 197.237H127.516C127.787 197.238 128.049 197.336 128.253 197.515C128.458 197.693 128.591 197.939 128.629 198.207L129.171 202.21Z" fill="#407BFF"/>
</g>
<path d="M129.171 202.211H96.7073L97.2852 198.208C97.3231 197.938 97.4575 197.691 97.6634 197.513C97.8694 197.335 98.1329 197.237 98.4054 197.238H127.516C127.787 197.239 128.049 197.337 128.253 197.515C128.458 197.694 128.591 197.94 128.629 198.208L129.171 202.211Z" stroke="#263238" stroke-linecap="round" stroke-linejoin="round"/>
<path d="M127.509 205.693H98.5983L91.4634 203.01H134.644L127.509 205.693Z" fill="white"/>
<mask id="mask9_2294_2494" style="mask-type:luminance" maskUnits="userSpaceOnUse" x="91" y="203" width="44" height="3">
<path d="M127.51 205.694H98.5992L91.4644 203.011H134.645L127.51 205.694Z" fill="white"/>
</mask>
<g mask="url(#mask9_2294_2494)">
<path opacity="0.4" d="M127.51 205.694H98.5992L91.4644 203.011H134.645L127.51 205.694Z" fill="#407BFF"/>
</g>
<path d="M127.509 205.693H98.5983L91.4634 203.01H134.644L127.509 205.693Z" stroke="#263238" stroke-linecap="round" stroke-linejoin="round"/>
<path d="M136.156 203.503H89.9576C89.6712 203.503 89.3965 203.389 89.1933 203.187C88.9901 202.986 88.875 202.712 88.8731 202.425C88.8731 202.138 88.9874 201.862 89.1908 201.658C89.3942 201.455 89.67 201.341 89.9576 201.341H136.156C136.442 201.343 136.716 201.458 136.918 201.661C137.12 201.864 137.233 202.139 137.233 202.425C137.231 202.71 137.117 202.983 136.916 203.185C136.714 203.387 136.441 203.501 136.156 203.503Z" fill="white" stroke="#263238" stroke-linecap="round" stroke-linejoin="round"/>
<path d="M53.1847 190.025C53.1847 190.025 47.6338 189.204 47.3555 192.501C47.0772 195.797 50.98 203.267 56.6308 202.211V200.32C56.6308 200.32 51.1441 201.355 49.6743 194.313C48.8253 190.403 54.0266 192.472 54.0266 192.472L53.1847 190.025Z" fill="white"/>
<mask id="mask10_2294_2494" style="mask-type:luminance" maskUnits="userSpaceOnUse" x="47" y="189" width="10" height="14">
<path d="M53.184 190.024C53.184 190.024 47.633 189.203 47.3548 192.5C47.0765 195.796 50.9793 203.266 56.6301 202.21V200.32C56.6301 200.32 51.1434 201.354 49.6736 194.312C48.8246 190.402 54.0259 192.471 54.0259 192.471L53.184 190.024Z" fill="white"/>
</mask>
<g mask="url(#mask10_2294_2494)">
<path opacity="0.4" d="M53.184 190.024C53.184 190.024 47.633 189.203 47.3548 192.5C47.0765 195.796 50.9793 203.266 56.6301 202.21V200.32C56.6301 200.32 51.1434 201.354 49.6736 194.312C48.8246 190.402 54.0259 192.471 54.0259 192.471L53.184 190.024Z" fill="#407BFF"/>
</g>
<path d="M53.1847 190.025C53.1847 190.025 47.6338 189.204 47.3555 192.501C47.0772 195.797 50.98 203.267 56.6308 202.211V200.32C56.6308 200.32 51.1441 201.355 49.6743 194.313C48.8253 190.403 54.0266 192.472 54.0266 192.472L53.1847 190.025Z" stroke="#263238" stroke-linecap="round" stroke-linejoin="round"/>
<path d="M69.7229 202.212C67.8589 203.683 65.5317 204.441 63.1588 204.352C50.7442 204.352 52.1497 188.448 52.1497 188.448H74.168C74.168 188.448 75.0027 197.874 69.7229 202.212Z" fill="white"/>
<mask id="mask11_2294_2494" style="mask-type:luminance" maskUnits="userSpaceOnUse" x="52" y="188" width="23" height="17">
<path d="M69.7229 202.212C67.8589 203.683 65.5317 204.441 63.1588 204.352C50.7442 204.352 52.1497 188.448 52.1497 188.448H74.168C74.168 188.448 75.0027 197.874 69.7229 202.212Z" fill="white"/>
</mask>
<g mask="url(#mask11_2294_2494)">
<path opacity="0.4" d="M69.7229 202.212C67.8589 203.683 65.5317 204.441 63.1588 204.352C50.7442 204.352 52.1497 188.448 52.1497 188.448H56.1667C56.1667 188.448 56.6376 195.441 59.1776 198.83C61.7176 202.219 69.6587 202.212 69.7229 202.212Z" fill="#407BFF"/>
</g>
<path d="M69.7229 202.212C67.8589 203.683 65.5317 204.441 63.1588 204.352C50.7442 204.352 52.1497 188.448 52.1497 188.448H74.168C74.168 188.448 75.0027 197.874 69.7229 202.212Z" stroke="#263238" stroke-linecap="round" stroke-linejoin="round"/>
<path d="M72.3918 205.693H52.6924L47.8335 203.866H77.2577L72.3918 205.693Z" fill="white"/>
<mask id="mask12_2294_2494" style="mask-type:luminance" maskUnits="userSpaceOnUse" x="47" y="203" width="31" height="3">
<path d="M72.3926 205.693H52.6932L47.8344 203.867H77.2586L72.3926 205.693Z" fill="white"/>
</mask>
<g mask="url(#mask12_2294_2494)">
<path opacity="0.4" d="M72.3926 205.693H52.6932L47.8344 203.867H77.2586L72.3926 205.693Z" fill="#407BFF"/>
</g>
<path d="M72.3918 205.693H52.6924L47.8335 203.866H77.2577L72.3918 205.693Z" stroke="#263238" stroke-linecap="round" stroke-linejoin="round"/>
<path d="M78.2849 204.202H46.8058C46.6166 204.202 46.4351 204.127 46.3013 203.993C46.1675 203.859 46.0923 203.678 46.0923 203.488C46.0923 203.299 46.1675 203.118 46.3013 202.984C46.4351 202.85 46.6166 202.775 46.8058 202.775H78.2849C78.4741 202.775 78.6556 202.85 78.7894 202.984C78.9232 203.118 78.9983 203.299 78.9983 203.488C78.9983 203.678 78.9232 203.859 78.7894 203.993C78.6556 204.127 78.4741 204.202 78.2849 204.202Z" fill="white" stroke="#263238" stroke-linecap="round" stroke-linejoin="round"/>
<path d="M62.3099 170.482C57.1871 174.806 66.02 181.77 62.3099 184.688C62.3099 184.688 65.9415 183.261 63.6798 178.473C61.418 173.686 62.3099 170.482 62.3099 170.482Z" fill="white"/>
</svg>
