<svg width="341" height="429" viewBox="0 0 341 429" fill="none" xmlns="http://www.w3.org/2000/svg">
<path opacity="0.2" d="M276.609 70.3636C280.034 68.6627 283.233 66.5032 286.094 63.9625C288.905 61.4003 291.379 58.5298 293.445 55.4337C295.513 52.4336 297.223 49.26 298.538 45.9814C299.868 42.7082 300.606 39.3223 300.718 35.9783C300.767 34.2931 300.556 32.6461 300.092 31.0883C299.632 29.4607 298.78 28.0025 297.596 26.8173C296.256 25.5105 294.42 24.734 292.381 24.6114C290.283 24.5381 288.119 25.037 286.138 26.0503C285.206 26.5047 284.303 27.0258 283.44 27.6082C282.63 28.1872 281.847 28.8017 281.093 29.4494C280.367 30.0709 279.678 30.7309 279.031 31.4252L277.998 32.4742L277.101 33.5191C274.865 36.211 272.883 39.0655 271.181 42.0421C269.475 44.9429 268.18 47.9992 267.337 51.1199C266.54 54.08 266.19 57.0714 266.297 60.0007L266.321 61.0601L266.449 62.0931C266.527 62.7716 266.607 63.4786 266.703 64.1306C266.926 65.4448 267.225 66.737 267.596 68.0019C267.816 68.7334 268.078 69.4507 268.34 70.1679C267.569 70.3959 266.855 70.5546 266.026 70.7765C262.961 71.4821 259.868 71.8047 256.832 71.7358C253.932 71.6341 251.131 71.1085 248.525 70.177C243.629 68.2441 239.43 65.2122 236.243 61.3091C233.26 57.6492 230.898 53.5349 229.227 49.0848C227.681 45.0165 226.507 40.7871 225.718 36.4377C224.982 32.638 224.525 28.7582 224.35 24.8241C224.062 19.062 224.792 13.1544 226.511 7.33547C227.828 3.16522 229.093 0.867341 228.83 0.867273C228.396 1.34869 228.04 1.88442 227.778 2.45211C226.915 4.00995 226.172 5.61113 225.555 7.24149C223.433 13.138 222.395 19.1929 222.49 25.1231C222.509 29.175 222.829 33.1793 223.446 37.1074C224.112 41.6135 225.18 46.0055 226.639 50.2394C228.255 54.9561 230.612 59.3317 233.639 63.2358C236.972 67.5505 241.439 70.9268 246.691 73.1023C249.58 74.2066 252.7 74.8528 255.941 75.0178C259.333 75.1538 262.798 74.8393 266.237 74.0833C267.423 73.8381 268.604 73.5309 269.773 73.1633C271.043 75.7878 272.58 78.2627 274.366 80.5582C279.18 86.6195 285.03 91.8373 291.726 96.043C296.55 99.1261 301.691 101.796 307.096 104.028C313.059 106.547 319.389 108.405 325.978 109.57L328.06 109.852L326.049 110.597C323.903 111.45 321.861 112.381 319.924 113.285C316.515 114.926 313.206 116.796 310.027 118.877C304.587 122.441 301.705 125.215 301.979 125.566C302.254 125.916 305.646 123.914 311.125 121.025C313.895 119.597 317.185 117.933 320.917 116.327C322.791 115.51 324.76 114.704 326.806 113.934C327.842 113.556 328.89 113.169 329.952 112.802C330.489 112.615 330.973 112.479 331.75 112.157C332.775 111.76 333.682 111.072 334.333 110.2C334.671 109.727 334.911 109.207 335.039 108.672C335.133 108.252 335.169 107.831 335.146 107.419C335.096 106.814 334.975 106.225 334.787 105.663C334.518 104.756 334.225 103.865 333.957 102.987C333.392 101.237 332.826 99.562 332.278 97.9646C331.134 94.8022 329.993 92.0555 328.942 89.6959C326.876 85.1315 325.183 82.4478 324.657 82.7024C324.131 82.9569 324.824 86.0988 326.184 91.0113L328.66 99.5834C329.13 101.194 329.615 102.879 330.116 104.639C330.365 105.515 330.627 106.411 330.889 107.308C330.898 107.331 330.912 107.352 330.931 107.369C330.175 107.108 329.09 106.774 327.511 106.357C321.392 104.68 315.458 102.604 309.745 100.143C304.617 97.8649 299.726 95.2136 295.109 92.2094C288.785 88.1613 283.249 83.1835 278.667 77.4278C277.183 75.5015 275.878 73.4453 274.766 71.2779C275.397 70.9969 276.027 70.7159 276.643 70.4145L276.609 70.3636ZM272.534 65.8558C272.187 64.7419 271.905 63.6027 271.691 62.4429C271.595 61.8663 271.534 61.2652 271.455 60.6621L271.349 59.7636L271.328 58.8366C271.205 56.3244 271.49 53.753 272.174 51.2087C272.882 48.5133 273.983 45.8712 275.441 43.3614C276.939 40.6765 278.697 38.1006 280.688 35.6716L281.45 34.7631L282.253 33.9157C282.78 33.3538 283.335 32.8152 283.916 32.3025C284.479 31.7689 285.047 31.3961 285.692 30.8809C286.283 30.4755 286.901 30.1131 287.541 29.7974C288.602 29.1627 289.805 28.8495 290.964 28.9066C292.123 28.9636 293.173 29.3877 293.95 30.1128C295.563 31.9483 296.359 34.3564 296.204 36.9245C296.135 39.7797 295.537 42.6752 294.435 45.4812C293.282 48.4375 291.773 51.3032 289.941 54.0168C288.162 56.7689 286.015 59.3258 283.563 61.6127C281.073 63.8499 278.283 65.7546 275.293 67.2582C274.648 67.5942 273.989 67.9099 273.334 68.2072C273.03 67.4288 272.745 66.6525 272.468 65.8109" fill="#5B1727"/>
<path opacity="0.7" d="M46.3283 201.955C46.3283 201.955 27.3141 251.059 54.0349 300.504C80.7556 349.949 135.793 376.07 179.843 398.406C223.894 420.741 269.636 409.863 291.371 373.281C313.106 336.698 283.296 310.584 283.255 258.418C283.214 206.252 291.064 192.442 262.795 148.371C234.526 104.3 165.228 94.5404 112.823 127.229C60.4184 159.917 46.3283 201.955 46.3283 201.955Z" fill="white"/>
<path d="M292.713 148.803C254.071 106.062 181.67 112.657 148.02 121.625C124.873 127.818 111.526 148.223 95.3425 150.706C46.5795 158.208 14.505 183.08 22.1161 225.5C29.7273 267.921 70.0539 281.261 89.8319 342.702C109.61 404.144 158.468 414.244 210.321 393.436C262.173 372.628 271.53 356.479 283.806 298.638C296.082 240.798 337.002 197.757 292.713 148.803Z" fill="#FF89D8"/>
<path opacity="0.7" d="M292.713 148.802C254.071 106.061 181.67 112.656 148.02 121.625C124.873 127.817 111.526 148.223 95.3425 150.705C46.5795 158.207 14.505 183.08 22.1161 225.5C29.7273 267.921 70.0539 281.26 89.8319 342.702C109.61 404.143 158.468 414.244 210.321 393.436C262.173 372.628 271.53 356.478 283.806 298.638C296.082 240.797 337.002 197.756 292.713 148.802Z" fill="white"/>
<path d="M119.752 202.126C128.53 200.762 128.346 182.061 112.857 176.612C97.3691 171.163 105.355 159.03 113.035 161.711C120.714 164.391 120.844 182.3 132.41 183.896C143.977 185.492 146.412 162.359 140.056 154.911C133.699 147.464 146.671 150.539 148.24 148.302C150.742 144.688 142.422 127.338 151.499 128.872C155.994 129.629 151.281 140.794 154.644 157.387C158.006 173.98 162.036 182.239 169.647 173.414C177.259 164.589 168.877 157.666 174.456 153.472C180.034 149.278 184.536 153.097 184.004 158.369C183.472 163.641 183.24 168.824 186.936 166.935C190.633 165.046 196.716 156.221 199.737 149.285C202.759 142.349 206.196 142.792 206.476 147.961C206.755 153.131 193.006 164.384 192.651 172.084C192.297 179.784 197.657 193.731 209.838 184.455C222.018 175.18 224.842 171.804 229.057 176.762C233.271 181.72 230.141 189.836 237.036 189.72C243.931 189.604 252.524 171.259 256.862 172.67C261.199 174.082 269.39 178.072 254.481 186.31C239.573 194.549 234.519 194.194 235.181 203.183C235.842 212.172 270.761 213.243 267.235 219.203C263.709 225.164 224.637 224.448 220.559 239.131C216.48 253.815 237.609 251.571 233.912 259.789C230.216 268.007 221.636 256.27 213.882 249.334C206.128 242.398 205.964 247.588 199.144 249.777C192.324 251.966 190.83 248.079 186.452 246.974C182.074 245.869 184.747 254.851 178.159 253.897C171.571 252.942 176.113 251.591 171.653 249.88C167.192 248.168 163.339 265.177 153.75 262.524C144.161 259.871 138.33 252.123 132.328 257.593C126.327 263.063 130.712 274.677 122.153 273.872C113.594 273.068 116.629 265.088 120.25 264.161C123.872 263.233 133.652 250.111 131.96 245.065C130.269 240.018 113.962 253.46 110.484 246.551C107.006 239.643 103.991 233.716 95.6437 235.796C87.296 237.876 86.0207 226.248 92.5542 226.426C99.0878 226.603 114.249 227.742 115.435 222.272C116.622 216.803 112.748 210.678 102.436 205.515C92.1246 200.353 102.245 189.911 109.495 195.681C116.745 201.451 112.81 203.176 119.752 202.126Z" fill="#FF89D8"/>
<path d="M48.2106 287.178L42.3795 274.752H63.8761L48.2106 287.178Z" fill="#FF89D8" stroke="#263238" stroke-linecap="round" stroke-linejoin="round"/>
<path d="M141.058 201.144L143.752 208.387L131.687 207.384L141.058 201.144Z" fill="#FF89D8" stroke="#263238" stroke-linecap="round" stroke-linejoin="round"/>
<path d="M144.182 126.785L150.64 129.909L144.182 133.067L150.64 137.063L144.182 141.387L151.424 144.736L145.716 150.055" fill="#FF89D8"/>
<path d="M144.182 126.785L150.64 129.909L144.182 133.067L150.64 137.063L144.182 141.387L151.424 144.736L145.716 150.055" stroke="#263238" stroke-linecap="round" stroke-linejoin="round"/>
<path d="M247.066 360.755C249.351 358.47 249.351 354.765 247.066 352.48C244.781 350.194 241.076 350.194 238.79 352.48C236.505 354.765 236.505 358.47 238.79 360.755C241.076 363.04 244.781 363.04 247.066 360.755Z" fill="#FF89D8" stroke="#263238" stroke-linecap="round" stroke-linejoin="round"/>
<path d="M104.094 170.024C107.325 170.024 109.945 167.404 109.945 164.173C109.945 160.941 107.325 158.321 104.094 158.321C100.862 158.321 98.2421 160.941 98.2421 164.173C98.2421 167.404 100.862 170.024 104.094 170.024Z" fill="#FF89D8" stroke="#263238" stroke-linecap="round" stroke-linejoin="round"/>
<path d="M283.548 263.411L296.438 270.783" stroke="#263238" stroke-linecap="round" stroke-linejoin="round"/>
<path d="M292.476 263.083L287.511 272.856" stroke="#263238" stroke-linecap="round" stroke-linejoin="round"/>
<path d="M221.527 218.767L207.567 223.834" stroke="#263238" stroke-linecap="round" stroke-linejoin="round"/>
<path d="M216.003 225.784L211.754 215.677" stroke="#263238" stroke-linecap="round" stroke-linejoin="round"/>
<path d="M89.192 270.64C89.0965 270.899 99.3401 266.214 99.3401 266.214L104.346 277.678L94.191 282.104L89.192 270.64Z" fill="#FF89D8" stroke="#263238" stroke-linecap="round" stroke-linejoin="round"/>
<path d="M229.739 255.281C229.629 255.281 232.467 258.691 232.467 258.691L228.64 261.746L225.912 258.336L229.739 255.281Z" fill="#FF89D8" stroke="#263238" stroke-linecap="round" stroke-linejoin="round"/>
<path d="M42.3795 223.466C42.3795 223.982 42.2263 224.487 41.9393 224.917C41.6523 225.346 41.2443 225.681 40.767 225.879C40.2897 226.077 39.7645 226.128 39.2578 226.028C38.7511 225.927 38.2857 225.678 37.9204 225.313C37.5551 224.947 37.3063 224.482 37.2056 223.975C37.1048 223.469 37.1565 222.943 37.3542 222.466C37.5519 221.989 37.8867 221.581 38.3162 221.294C38.7458 221.007 39.2508 220.854 39.7674 220.854C40.1107 220.853 40.4508 220.92 40.7681 221.051C41.0854 221.182 41.3737 221.374 41.6164 221.617C41.8592 221.859 42.0515 222.148 42.1825 222.465C42.3134 222.782 42.3804 223.122 42.3795 223.466Z" fill="#FF89D8" stroke="#263238" stroke-linecap="round" stroke-linejoin="round"/>
<path d="M200.508 129.391C200.509 129.908 200.357 130.413 200.071 130.844C199.785 131.274 199.377 131.61 198.9 131.809C198.423 132.007 197.898 132.06 197.391 131.96C196.883 131.86 196.417 131.612 196.051 131.247C195.685 130.882 195.436 130.416 195.335 129.91C195.233 129.403 195.285 128.877 195.482 128.399C195.68 127.922 196.014 127.513 196.444 127.226C196.874 126.939 197.379 126.785 197.896 126.785C198.588 126.785 199.251 127.06 199.741 127.548C200.23 128.036 200.506 128.699 200.508 129.391Z" fill="#FF89D8" stroke="#263238" stroke-linecap="round" stroke-linejoin="round"/>
<path d="M233.414 286.762L236.19 291.4L230.516 291.843L232.023 296.181L225.735 296.658L228.791 304.985" fill="#FF89D8"/>
<path d="M233.414 286.762L236.19 291.4L230.516 291.843L232.023 296.181L225.735 296.658L228.791 304.985" stroke="#263238" stroke-linecap="round" stroke-linejoin="round"/>
<path d="M86.2798 324.552L91.1766 327.498L84.6226 332.845L88.7282 335.436L83.4495 341.288" fill="#FF89D8"/>
<path d="M86.2798 324.552L91.1766 327.498L84.6226 332.845L88.7282 335.436L83.4495 341.288" stroke="#263238" stroke-linecap="round" stroke-linejoin="round"/>
<path d="M227.788 175.296L223.751 171.245L231.409 167.651L228.061 164.139L234.601 159.746" fill="#FF89D8"/>
<path d="M227.788 175.296L223.751 171.245L231.409 167.651L228.061 164.139L234.601 159.746" stroke="#263238" stroke-linecap="round" stroke-linejoin="round"/>
<path d="M70.0141 177.553C70.0141 177.553 99.2174 220.519 140.383 227.715" stroke="#263238" stroke-linecap="round" stroke-linejoin="round"/>
<path d="M62.6076 186.672C62.6076 186.672 104.435 230.408 137.723 232.877" stroke="#263238" stroke-linecap="round" stroke-linejoin="round"/>
<path d="M59.2385 200.455C59.2385 200.455 101.857 236.676 134.299 238.722" stroke="#263238" stroke-linecap="round" stroke-linejoin="round"/>
<path d="M59.2385 215.473C59.2385 215.473 94.4706 242.528 131.728 242.978" stroke="#263238" stroke-linecap="round" stroke-linejoin="round"/>
<path d="M160.891 213.331C160.891 213.331 156.683 214.306 160.086 218.896C160.086 218.896 156.239 219.531 158.926 224.223C158.926 224.223 156.601 226.194 159.493 229.679C159.493 229.679 158.129 233.089 164.901 237.733C164.901 237.733 164.853 240.632 169.545 241.743C173.637 242.712 174.749 241 174.749 241C174.749 241 180.137 240.318 183.097 235.892C183.097 235.892 187.871 234.439 186.472 231.534C186.472 231.534 190.319 228.533 188.273 226.589C188.273 226.589 192.692 222.136 190.462 220.656C186.547 218.071 160.891 213.331 160.891 213.331Z" fill="#263238" stroke="#263238" stroke-linecap="round" stroke-linejoin="round"/>
<path d="M192.89 160.974C216.951 170.972 217.258 194.249 208.999 205.863C201.497 216.441 191.349 215.643 190.462 220.704C189.576 225.764 161.273 218.392 159.956 214.77C158.64 211.149 164.512 211.64 153.641 197.127C142.77 182.614 163.346 148.698 192.89 160.974Z" fill="white"/>
<mask id="mask0_2294_2421" style="mask-type:luminance" maskUnits="userSpaceOnUse" x="150" y="158" width="64" height="65">
<path d="M192.89 160.974C216.951 170.972 217.258 194.249 208.999 205.863C201.497 216.441 191.349 215.643 190.462 220.704C189.576 225.764 161.273 218.392 159.956 214.77C158.64 211.149 164.512 211.64 153.641 197.127C142.77 182.614 163.346 148.698 192.89 160.974Z" fill="white"/>
</mask>
<g mask="url(#mask0_2294_2421)">
<path opacity="0.4" d="M190.469 220.676C189.582 225.737 161.273 218.358 159.956 214.743C158.64 211.128 164.512 211.606 153.641 197.1C142.77 182.593 163.346 148.678 192.89 160.954C195.78 162.133 198.526 163.638 201.074 165.441C188.989 162.781 172.566 162.318 163.51 178.972C153.655 197.106 168.966 213.597 176.699 214.879C176.699 214.879 170.316 210.228 168.188 202.406C168.188 202.406 179.1 218.569 196.15 215.868C193.101 217.321 190.865 218.412 190.469 220.676Z" fill="#407BFF"/>
</g>
<path d="M192.89 160.974C216.951 170.972 217.258 194.249 208.999 205.863C201.497 216.441 191.349 215.643 190.462 220.704C189.576 225.764 161.273 218.392 159.956 214.77C158.64 211.149 164.512 211.64 153.641 197.127C142.77 182.614 163.346 148.698 192.89 160.974Z" stroke="#263238" stroke-linecap="round" stroke-linejoin="round"/>
<path d="M186.411 227.128C186.411 227.128 175.083 230.94 160.863 225.253" stroke="white" stroke-linecap="round" stroke-linejoin="round"/>
<path d="M179.782 223.718C180.457 223.671 181.129 223.582 181.794 223.452" stroke="white" stroke-linecap="round" stroke-linejoin="round"/>
<path d="M161.736 219.994C166.296 221.942 171.125 223.186 176.058 223.684" stroke="white" stroke-linecap="round" stroke-linejoin="round"/>
<path d="M169.484 232.311C174.203 233.055 179.209 233.198 183.806 231.779" stroke="white" stroke-linecap="round" stroke-linejoin="round"/>
<path d="M161.395 230.333C163.256 230.984 165.159 231.508 167.09 231.902" stroke="white" stroke-linecap="round" stroke-linejoin="round"/>
<path d="M176.72 236.546C172.484 236.07 168.346 234.954 164.444 233.239" stroke="white" stroke-linecap="round" stroke-linejoin="round"/>
<path d="M180.73 236.676C180.116 236.71 179.496 236.676 178.875 236.676" stroke="white" stroke-linecap="round" stroke-linejoin="round"/>
<path d="M165.931 238.477C168.212 240.093 170.924 240.991 173.719 241.055" stroke="white" stroke-linecap="round" stroke-linejoin="round"/>
<path d="M188.955 219.674C188.955 219.674 176.856 211.899 162.705 212.649" stroke="#263238" stroke-linecap="round" stroke-linejoin="round"/>
<path d="M180.484 217.471C180.484 217.471 187.42 202.351 197.105 201.328C197.105 201.328 191.24 196.615 188.955 195.906C186.67 195.197 185.218 200.182 186.813 199.65C188.409 199.118 190.687 192.203 187.966 190.396C185.245 188.588 179.993 197.577 181.542 198.314C183.09 199.05 185.02 189.591 181.228 188.52C177.436 187.449 174.626 195.606 176.406 195.77C178.186 195.933 178.8 192.36 174.749 191.037C170.364 189.57 164.867 191.719 164.867 191.719C164.867 191.719 173.358 201.894 170.555 214.852" stroke="#263238" stroke-linecap="round" stroke-linejoin="round"/>
<path d="M206.019 400.697C209.504 396.38 211.584 383.988 211.584 383.988C214.54 386.182 217.132 388.829 219.263 391.831C223.144 391.252 226.961 390.3 230.659 388.987C234.466 387.682 238.086 385.887 241.428 383.647C234.015 372.735 221.466 354.144 213.739 348.299C210.752 346.041 201.497 343.839 201.497 343.839C199.403 341.943 194.834 343.839 194.834 343.839C170.111 350.127 147.503 341.984 147.503 341.984C147.503 341.984 144.298 340.504 141.672 341.984C139.115 341.701 136.535 341.701 133.979 341.984C128.318 342.761 122.133 349.226 119.582 352.166L97.8602 377.325C97.8602 377.325 97.1304 387.227 98.6649 388.537C110.941 399.06 129.041 375.149 129.041 375.149C129.157 375.197 129.437 395.971 139.128 406.835C139.128 406.835 145.996 409.972 172.703 407.517C199.205 405.082 206.019 400.697 206.019 400.697Z" fill="#FF89D8"/>
<path opacity="0.2" d="M113.382 369.891C109.29 370.252 107.142 369.27 106.324 367.524C112.244 360.704 119.152 352.67 119.582 352.173L120.264 351.395C123.333 358.263 125.884 368.8 113.382 369.891Z" fill="black"/>
<path opacity="0.2" d="M131.571 391.558C130.182 386.177 129.335 380.671 129.041 375.122C129.041 375.122 132.015 371.228 132.84 367.136C132.84 367.163 136.7 382.556 131.571 391.558Z" fill="black"/>
<path opacity="0.2" d="M217.006 388.987C215.393 387.121 213.574 385.444 211.584 383.988C211.584 383.988 211.877 374.215 214.605 371.255C216.801 368.875 219.14 381.26 217.006 388.987Z" fill="black"/>
<path d="M206.019 400.697C209.504 396.38 211.584 383.988 211.584 383.988C214.54 386.182 217.132 388.829 219.263 391.831" stroke="#263238" stroke-linecap="round" stroke-linejoin="round"/>
<path d="M241.428 383.647C234.015 372.735 221.466 354.144 213.739 348.299C210.752 346.041 201.497 343.839 201.497 343.839C199.403 341.943 194.834 343.839 194.834 343.839C170.111 350.127 147.503 341.984 147.503 341.984C147.503 341.984 144.298 340.504 141.672 341.984C139.115 341.701 136.535 341.701 133.979 341.984C128.318 342.761 122.133 349.226 119.582 352.166L97.8602 377.325C97.8602 377.325 97.1304 387.227 98.6649 388.537C110.941 399.06 129.041 375.149 129.041 375.149C129.157 375.197 129.437 395.971 139.128 406.835" stroke="#263238" stroke-linecap="round" stroke-linejoin="round"/>
<path d="M195.734 337.837L195.407 337.973C195.522 337.945 195.633 337.899 195.734 337.837Z" fill="#263238"/>
<path d="M203.093 319.437C205.684 319.819 206.319 317.916 206.319 317.916C206.319 317.916 203.093 319.437 200.235 313.585C198.612 310.25 199.417 304.126 200.406 299.474C202.404 296.18 205.302 291.625 205.684 286.223C206.366 276.948 202.008 272.249 196.982 273.627C196.982 273.627 196.614 265.791 189.541 262.981C182.469 260.171 181.357 262.476 174.537 260.771C167.717 259.066 161.047 260.553 158.606 264.965C156.164 269.378 155.332 277.391 151.165 280.494C146.998 283.598 139.708 291.065 142.013 299.42C144.318 307.774 143.009 310.632 139.967 314.581C136.925 318.53 138.78 326.304 144.584 328.746C144.584 328.746 142.122 327.43 143.861 325.227C143.861 325.227 145.225 330.465 149.774 329.51C154.323 328.555 160.1 328.234 163.046 331.46C165.992 334.686 176.761 335.552 179.189 333.097C181.617 330.642 183.499 332.92 187.898 335.143C192.297 337.366 197.18 335.416 197.18 335.416C197.18 335.416 196.771 337.319 195.72 337.885C196.614 337.51 199.089 336.33 199.812 334.557C200.535 332.783 200.944 331.072 200.078 326.932C203.127 325.738 201.722 323.72 201.722 323.72C204.6 325.336 205.964 320.562 205.964 320.562C203.284 320.521 203.093 319.437 203.093 319.437Z" fill="#263238"/>
<path d="M197.309 344.691C197.309 344.691 178.057 353.257 171.871 353.605C165.685 353.953 144.645 342.761 144.645 342.761L160.686 338.383C162.868 334.222 162.923 329.326 162.398 323.59C162.234 321.81 162.023 320.132 161.791 318.625C161.245 314.99 160.638 312.453 160.638 312.453L183.308 313.394C182.836 314.835 182.446 316.301 182.142 317.786C181.515 320.866 181.157 323.995 181.071 327.136C180.812 334.979 182.026 339.412 182.026 339.412L197.309 344.691Z" fill="white" stroke="#263238" stroke-linecap="round" stroke-linejoin="round"/>
<path d="M150.442 345.707C150.442 345.707 162.582 347.835 165.596 347.487C168.611 347.139 170.977 350.106 170.977 350.106" fill="white"/>
<path d="M150.442 345.707C150.442 345.707 162.582 347.835 165.596 347.487C168.611 347.139 170.977 350.106 170.977 350.106" stroke="#263238" stroke-linecap="round" stroke-linejoin="round"/>
<path d="M193.101 346.478C193.101 346.478 180.73 347.842 177.736 347.91C174.742 347.978 173.855 350.106 173.855 350.106" fill="white"/>
<path d="M193.101 346.478C193.101 346.478 180.73 347.842 177.736 347.91C174.742 347.978 173.855 350.106 173.855 350.106" stroke="#263238" stroke-linecap="round" stroke-linejoin="round"/>
<path d="M182.142 317.786C181.515 320.866 181.157 323.995 181.071 327.136C179.21 328.776 177.056 330.049 174.722 330.887C170.909 332.149 165.856 327.477 162.398 323.59C162.234 321.81 162.023 320.132 161.791 318.625L182.142 317.786Z" fill="#263238"/>
<path d="M155.373 293.371C155.373 293.371 153.505 290.499 151.84 291.079C150.176 291.659 150.176 299.42 150.306 301.466C150.436 303.512 154.507 308.006 156.212 306.772" fill="white"/>
<path d="M155.373 293.371C155.373 293.371 153.505 290.499 151.84 291.079C150.176 291.659 150.176 299.42 150.306 301.466C150.436 303.512 154.507 308.006 156.212 306.772" stroke="#263238" stroke-linecap="round" stroke-linejoin="round"/>
<path d="M196.416 299.42C196.416 299.42 199.028 297.21 200.46 298.247C201.892 299.284 199.642 306.731 198.933 308.634C198.223 310.537 193.02 313.687 191.744 312.01" fill="white"/>
<path d="M196.416 299.42C196.416 299.42 199.028 297.21 200.46 298.247C201.892 299.284 199.642 306.731 198.933 308.634C198.223 310.537 193.02 313.687 191.744 312.01" stroke="#263238" stroke-linecap="round" stroke-linejoin="round"/>
<path d="M171.059 329.203C164.192 328.187 157.371 316.538 156.546 313.258C155.632 309.609 153.621 291.611 157.542 281.749C161.955 270.667 171.182 265.988 180.178 267.311C189.173 268.634 196.662 275.775 197.691 287.662C198.605 298.233 191.485 314.888 189.555 318.12C187.823 321.026 178.309 330.267 171.059 329.203Z" fill="white" stroke="#263238" stroke-linecap="round" stroke-linejoin="round"/>
<path d="M186.629 300.327C186.445 301.602 185.722 302.55 185.02 302.441C184.317 302.332 183.908 301.227 184.092 299.952C184.276 298.677 184.999 297.735 185.702 297.838C186.404 297.94 186.82 299.052 186.629 300.327Z" fill="#263238"/>
<path d="M164.205 297.026C164.021 298.295 164.437 299.413 165.139 299.515C165.842 299.618 166.558 298.67 166.742 297.394C166.926 296.119 166.517 295.007 165.815 294.905C165.112 294.803 164.396 295.751 164.205 297.026Z" fill="#263238"/>
<path d="M179.564 314.247C179.564 314.247 176.004 321.23 171.462 320.085C166.919 318.939 166.954 312.583 166.954 312.398L167.595 312.644C169.389 313.316 171.25 313.796 173.146 314.076C174.982 314.317 176.835 314.39 178.684 314.294C179.236 314.274 179.564 314.247 179.564 314.247Z" fill="#757575"/>
<path d="M173.637 299.713C173.815 304.098 170.05 304.842 170.773 306.363C171.286 307.32 172.152 308.039 173.187 308.368" fill="white"/>
<path d="M173.637 299.713C173.815 304.098 170.05 304.842 170.773 306.363C171.286 307.32 172.152 308.039 173.187 308.368" stroke="#263238" stroke-linecap="round" stroke-linejoin="round"/>
<path d="M166.954 312.378C166.954 312.378 166.913 318.932 171.462 320.078C176.011 321.223 179.564 314.233 179.564 314.233" stroke="#263238" stroke-linecap="round" stroke-linejoin="round"/>
<path d="M160.147 291.236C160.147 291.236 164.239 286.066 170.589 287.703" stroke="#263238" stroke-linecap="round" stroke-linejoin="round"/>
<path d="M191.581 295.873C191.581 295.873 189.146 289.735 182.605 289.483" stroke="#263238" stroke-linecap="round" stroke-linejoin="round"/>
<path d="M210.765 291.747L209.497 293.152L208.515 294.237L197.146 300.838L197.609 297.654L206.919 292.245L208.931 291.986L210.765 291.747Z" fill="#407BFF" stroke="#263238" stroke-linecap="round" stroke-linejoin="round"/>
<path d="M208.01 294.516C206.325 294.196 206.892 292.238 206.892 292.238L210.738 291.747L208.01 294.516Z" fill="white" stroke="#263238" stroke-linecap="round" stroke-linejoin="round"/>
<path d="M210.738 291.747L209.469 293.146C209.351 293.115 209.24 293.059 209.144 292.982C209.049 292.905 208.972 292.807 208.918 292.697C208.864 292.587 208.835 292.466 208.832 292.343C208.83 292.22 208.854 292.099 208.903 291.986L210.738 291.747Z" fill="#263238"/>
<path d="M186.916 276.798C186.916 276.798 182.599 282.459 173.228 284.095C161.491 286.141 155.012 296.29 155.175 300.525C152.868 294.585 152.174 288.14 153.164 281.845C155.496 266.268 170.029 261.814 180.594 262.899C191.158 263.983 196.28 274.575 196.28 274.575C196.28 274.575 204.211 280.754 203.1 288.542C201.995 295.996 200.187 296.208 199.226 297.892C197.903 300.225 199.642 301.2 195.004 305.04C195.004 305.04 196.839 294.632 194.561 286.871C192.283 279.11 186.916 276.798 186.916 276.798Z" fill="#263238"/>
<path d="M189.821 274.186C189.821 274.186 185.681 289.995 162.152 292.464C162.152 292.464 178.002 289.599 185.34 275.12L189.821 274.186Z" fill="#263238"/>
<path d="M171.966 316.654C171.966 316.654 175.199 315.501 176.447 316.654C176.447 316.654 174.319 320.064 171.584 319.232C168.85 318.4 168.27 315.14 168.27 315.14C168.27 315.14 169.75 314.424 171.966 316.654Z" fill="#BFBFBF"/>
<path d="M179.134 314.301L178.213 315.345C174.584 315.808 170.899 315.218 167.595 313.647L167.274 312.514C169.173 313.234 171.141 313.757 173.146 314.076C175.133 314.316 177.135 314.392 179.134 314.301Z" fill="white"/>
<path d="M165.937 311.969C165.937 311.969 173.33 315.413 180.478 314.11" stroke="#263238" stroke-linecap="round" stroke-linejoin="round"/>
<path d="M189.194 270.258C189.194 270.258 184.181 276.825 171.966 277.828C159.752 278.83 156.212 283.891 156.212 283.891" stroke="#757575" stroke-linecap="round" stroke-linejoin="round"/>
<path d="M161.689 270.776C160.556 270.994 158.961 271.397 158.456 272.549" stroke="#757575" stroke-linecap="round" stroke-linejoin="round"/>
<path d="M190.701 265.156C183.335 270.66 173.821 271.294 164.157 270.517" stroke="#757575" stroke-linecap="round" stroke-linejoin="round"/>
<path d="M144.038 315.501C143.336 316.229 142.785 317.09 142.417 318.032C142.05 318.974 141.873 319.98 141.897 320.992" stroke="#757575" stroke-linecap="round" stroke-linejoin="round"/>
<path d="M152.843 284.805C149.433 286.748 146.671 290.322 146.487 294.353C146.18 301.173 151.056 307.311 145.996 313.251" stroke="#757575" stroke-linecap="round" stroke-linejoin="round"/>
<path d="M151.404 306.983C151.404 306.983 155.182 310.98 152.727 315.045C150.272 319.109 149.003 323.229 154.037 326.229" stroke="#757575" stroke-linecap="round" stroke-linejoin="round"/>
<path d="M178.991 286.012C178.186 286.515 177.353 286.971 176.495 287.376" stroke="#757575" stroke-linecap="round" stroke-linejoin="round"/>
<path d="M187.816 275.945C186.35 279.321 184.047 282.267 181.126 284.505" stroke="#757575" stroke-linecap="round" stroke-linejoin="round"/>
<path d="M190.701 276.512C190.701 276.512 195.809 279.287 197.773 283.891C199.737 288.494 196.968 294.973 198.251 297.21" stroke="#757575" stroke-linecap="round" stroke-linejoin="round"/>
<path d="M198.646 321.414C199.35 321.857 200.122 322.18 200.931 322.369" stroke="#757575" stroke-linecap="round" stroke-linejoin="round"/>
<path d="M194.602 315.045C194.914 316.708 195.615 318.274 196.648 319.614" stroke="#757575" stroke-linecap="round" stroke-linejoin="round"/>
<path d="M192.583 318.707C192.583 318.707 192.106 323.904 195.42 327.341C198.735 330.778 197.766 332.92 197.766 332.92" stroke="#757575" stroke-linecap="round" stroke-linejoin="round"/>
<path d="M187.093 324.654C187.093 324.654 189.071 329.919 185.934 331.672" stroke="#757575" stroke-linecap="round" stroke-linejoin="round"/>
<path d="M194.602 275.066C194.602 275.066 202.063 276.573 203.154 279.84C204.245 283.106 203.154 286.864 203.154 286.864" stroke="#757575" stroke-linecap="round" stroke-linejoin="round"/>
<path d="M98.6649 388.537C92.336 385.025 93.5636 372.394 97.7511 356.619C99.7971 348.872 106.903 329.339 106.76 328.657C106.377 327.344 105.851 326.077 105.192 324.879C105.192 324.879 107.238 322.792 108.097 322.417C111.787 320.842 119.07 318.857 122.419 320.241C123.462 320.671 124.976 323.106 124.765 324.101C124.554 325.097 121.566 328.371 121.853 331.508C122.139 334.645 119.418 344.998 119.493 349.124C119.493 349.97 119.541 351.034 119.589 352.193C119.589 352.93 119.589 365.833 114.624 372.421" fill="#FF89D8"/>
<path d="M98.6649 388.537C92.336 385.025 93.5636 372.394 97.7511 356.619C99.7971 348.872 106.903 329.339 106.76 328.657C106.377 327.344 105.851 326.077 105.192 324.879C105.192 324.879 107.238 322.792 108.097 322.417C111.787 320.842 119.07 318.857 122.419 320.241C123.462 320.671 124.976 323.106 124.765 324.101C124.554 325.097 121.566 328.371 121.853 331.508C122.139 334.645 119.418 344.998 119.493 349.124C119.493 349.97 119.541 351.034 119.589 352.193C119.589 352.93 119.589 365.833 114.624 372.421" stroke="#263238" stroke-linecap="round" stroke-linejoin="round"/>
<path d="M119.241 290.554C119.377 291.809 122.085 300.784 122.924 309.902C124.635 309.281 126.244 308.407 127.698 307.311C129.396 305.824 132.949 307.011 132.806 307.993C132.663 308.975 129.396 308.811 126.634 312.521C123.872 316.231 123.306 320.344 119.636 322.321C115.967 324.299 110.266 325.002 108.042 322.362C105.819 319.723 103.35 305.722 104.216 304.262C104.955 303.197 105.879 302.273 106.944 301.534C106.944 301.534 107.879 298.806 109.297 298.595C110.716 298.383 114.071 298.315 114.071 298.315C114.855 297.734 115.828 297.466 116.799 297.565C116.799 297.565 115.694 287.062 114.753 283.536C113.812 280.01 118.129 280.031 119.241 290.554Z" fill="white" stroke="#263238" stroke-linecap="round" stroke-linejoin="round"/>
<path d="M116.847 297.565C119.746 298.874 121.028 304.385 121.028 304.78C120.448 306.739 119.751 308.662 118.941 310.537C118.218 312.105 116.656 310.537 116.656 310.537C116.656 310.537 116.179 312.583 115.081 311.689C113.683 310.537 113.683 306.806 113.683 306.806C113.683 306.806 113.512 309.909 112.7 311.423C111.889 312.937 110.252 311.928 110.491 307.447C110.491 307.447 107.149 306.629 107.033 305.81" stroke="#263238" stroke-linecap="round" stroke-linejoin="round"/>
<path d="M113.683 306.806C112.864 304.705 109.72 302.775 109.72 302.775" stroke="#263238" stroke-linecap="round" stroke-linejoin="round"/>
<path d="M116.656 310.537C116.656 310.537 118.3 305.763 117.856 304.78C117.413 303.798 114.617 301.091 114.617 301.091" stroke="#263238" stroke-linecap="round" stroke-linejoin="round"/>
<path d="M122.924 309.923C122.924 309.923 119.841 310.605 118.47 314.533" stroke="#263238" stroke-linecap="round" stroke-linejoin="round"/>
<path d="M106.76 328.63C106.76 328.63 111.739 332.722 117.093 329.312" stroke="#263238" stroke-linecap="round" stroke-linejoin="round"/>
<path d="M110.948 340.776C109.989 341.337 108.962 341.77 107.892 342.065" stroke="#263238" stroke-linecap="round" stroke-linejoin="round"/>
<path d="M122.924 327.341C120.519 331.834 117.278 335.827 113.376 339.106" stroke="#263238" stroke-linecap="round" stroke-linejoin="round"/>
<path d="M141.672 341.984C141.672 341.984 151.39 351.109 157.078 353.578" stroke="#263238" stroke-linecap="round" stroke-linejoin="round"/>
<path d="M131.981 351.859C132.419 353.072 132.708 354.334 132.84 355.617" stroke="#263238" stroke-linecap="round" stroke-linejoin="round"/>
<path d="M128.605 344.125C129.478 345.769 130.269 347.467 130.985 349.192" stroke="#263238" stroke-linecap="round" stroke-linejoin="round"/>
<path d="M168.27 356.619C168.27 356.619 184.174 356.837 194.384 349.867" stroke="#263238" stroke-linecap="round" stroke-linejoin="round"/>
<path d="M201.497 343.839C200.13 344.768 198.88 345.858 197.773 347.085" stroke="#263238" stroke-linecap="round" stroke-linejoin="round"/>
<path d="M209.483 355.494C207.849 357.189 205.988 358.649 203.952 359.832" stroke="#263238" stroke-linecap="round" stroke-linejoin="round"/>
<path d="M212.948 351.252C212.43 352.032 211.87 352.783 211.27 353.503" stroke="#263238" stroke-linecap="round" stroke-linejoin="round"/>
<path d="M129.041 375.122C129.041 375.122 132.922 370.096 132.84 364.067" stroke="#263238" stroke-linecap="round" stroke-linejoin="round"/>
<path d="M211.584 383.988C211.584 383.988 210.752 373.874 217.844 366.481" stroke="#263238" stroke-linecap="round" stroke-linejoin="round"/>
<path d="M219.263 372.053C219.604 372.394 213.207 377.973 211.686 380.469" stroke="#263238" stroke-linecap="round" stroke-linejoin="round"/>
<path d="M149.358 397.062C149.358 397.062 172.635 406.31 184.692 406.119" stroke="#263238" stroke-linecap="round" stroke-linejoin="round"/>
<path d="M174.64 374.726H171.878C171.429 374.726 171.066 375.09 171.066 375.538V379.753C171.066 380.201 171.429 380.564 171.878 380.564H174.64C175.088 380.564 175.451 380.201 175.451 379.753V375.538C175.451 375.09 175.088 374.726 174.64 374.726Z" fill="#BFBFBF"/>
<path d="M174.64 381.001H171.912C171.582 380.999 171.266 380.867 171.034 380.633C170.801 380.399 170.67 380.083 170.671 379.753V375.538C170.67 375.208 170.801 374.892 171.034 374.658C171.266 374.424 171.582 374.292 171.912 374.29H174.64C174.803 374.29 174.965 374.322 175.116 374.385C175.267 374.448 175.404 374.54 175.52 374.656C175.635 374.772 175.726 374.909 175.788 375.061C175.85 375.212 175.882 375.374 175.881 375.538V379.753C175.882 379.916 175.85 380.078 175.788 380.23C175.726 380.381 175.635 380.519 175.52 380.635C175.404 380.751 175.267 380.843 175.116 380.906C174.965 380.968 174.803 381.001 174.64 381.001ZM171.912 375.156C171.812 375.158 171.716 375.199 171.646 375.27C171.576 375.342 171.537 375.438 171.537 375.538V379.753C171.537 379.852 171.576 379.948 171.647 380.018C171.717 380.088 171.812 380.128 171.912 380.128H174.64C174.689 380.129 174.738 380.12 174.784 380.101C174.83 380.083 174.872 380.055 174.907 380.02C174.942 379.985 174.97 379.943 174.988 379.897C175.007 379.851 175.016 379.802 175.015 379.753V375.538C175.016 375.488 175.007 375.439 174.988 375.392C174.97 375.346 174.942 375.304 174.907 375.268C174.873 375.233 174.831 375.205 174.785 375.185C174.739 375.166 174.69 375.156 174.64 375.156H171.912Z" fill="#263238"/>
<path d="M182.026 339.44C182.026 339.44 194.384 341.984 173.262 374.078C173.262 374.078 148.656 342.911 160.686 338.383" stroke="#263238" stroke-linecap="round" stroke-linejoin="round"/>
<path d="M173.699 373.758C173.699 374.228 173.487 374.61 173.228 374.61C172.969 374.61 172.757 374.228 172.757 373.758C172.757 373.287 172.969 372.905 173.228 372.905C173.487 372.905 173.699 373.287 173.699 373.758Z" fill="#263238"/>
</svg>
