<svg width="165" height="25" viewBox="0 0 165 25" fill="none" xmlns="http://www.w3.org/2000/svg">
<g clip-path="url(#clip0_2294_3919)">
<path d="M10 5.92279H13.9532L15.1393 0.631592H1.1565L0.00746155 5.92279H3.11634L0.496045 17.7663C0.363128 18.5737 0.185295 19.426 0.185295 20.2339C0.185295 22.5584 1.21471 23.8802 2.603 24.5733H10.3058L11.4218 19.6057H10.0894C8.8455 19.5608 7.51359 19.4714 7.51359 17.5422C7.51359 17.0936 7.69142 16.2413 7.82434 15.5682L10 5.92279Z" fill="black"/>
<path d="M16.9515 24.4462H28.3814C31.3628 22.998 32.8368 20.5703 33.8392 18.9328L28.11 16.8693C27.4436 18.036 26.1113 20.3235 22.5138 20.3235C20.9591 20.3235 19.6712 19.7397 18.8274 18.529C18.1175 17.4971 18.0725 16.5101 18.0725 14.6712H34.727C34.8159 13.6392 34.9048 12.6522 34.9048 11.6203C34.9048 4.03877 29.6638 1.07813 24.3348 1.07813C15.2304 1.07766 11.3667 9.10775 11.3667 14.536C11.3667 18.3582 13.0121 22.4605 16.9515 24.4462ZM24.4241 5.92257C25.2675 5.92257 26.1113 6.14664 26.8221 6.55035C28.732 7.6272 28.776 9.46609 28.776 10.3189H19.0053C19.7606 8.61423 21.0045 5.92257 24.4241 5.92257Z" fill="black"/>
<path d="M58.6341 11.6203C58.6341 4.03877 53.3935 1.07812 48.064 1.07812C38.9597 1.07812 35.096 9.10822 35.096 14.5365C35.096 18.3573 36.74 22.4578 40.6775 24.4439H52.1153C55.094 22.9957 56.5666 20.5698 57.5685 18.9328L51.8393 16.8693C51.1729 18.036 49.841 20.3235 46.2435 20.3235C44.6889 20.3235 43.401 19.7397 42.5576 18.5291C41.8468 17.4971 41.8028 16.5101 41.8028 14.6712H58.4572C58.5452 13.6392 58.6341 12.6517 58.6341 11.6203ZM42.7345 10.3193C43.4899 8.61424 44.7333 5.92257 48.153 5.92257C48.9963 5.92257 49.8405 6.14664 50.551 6.55035C52.4608 7.6272 52.5053 9.46609 52.5053 10.3189H42.7345V10.3193Z" fill="black"/>
<path d="M74.5791 1.30225C71.071 1.30225 69.0717 3.41058 67.9177 4.6666L68.5836 1.88512H61.6999L56.6252 24.4439H63.4663L66.1402 12.6972C66.5404 10.8573 67.1174 9.01845 68.2279 7.89623C68.9379 7.1791 69.9151 6.64021 70.9812 6.64021C71.8254 6.64021 73.5575 7.08928 73.5575 9.24299C73.5575 9.96058 73.4241 10.6337 73.2907 11.3958L70.4344 24.4439H77.2777L80.5741 9.87076C80.7075 9.01845 80.8853 8.16567 80.8853 7.31382C80.8862 3.36567 78.0436 1.30225 74.5791 1.30225Z" fill="black"/>
<path d="M159.446 17.7448C159.005 14.317 158.204 12.6388 155.798 12.3245C155.387 12.3254 154.415 12.3263 154.088 12.3272C154.089 12.9661 154.087 21.0953 154.09 23.9282C155.365 23.9305 155.698 23.9249 156.968 23.9295C160.302 23.718 164.224 21.1258 165.007 15.6383C165.003 18.4027 165.008 21.2397 165.007 24.2027L147.875 24.2101L147.877 23.9272L150.42 23.9286C150.422 16.1249 150.416 8.91612 150.418 1.25686L148.61 1.25408C148.617 7.44251 148.617 12.511 148.612 18.9416C148.477 20.8226 147.699 21.9277 146.9 22.9476C145.85 24.1782 144.612 24.4953 144.005 24.6499C140.413 25.4592 136.344 24.693 134.529 21.986C134.056 21.1286 133.766 20.6638 133.721 17.7791L133.723 1.25871L131.604 1.25177L131.601 0.980469C134.325 0.989265 136.76 0.98695 139.541 0.984635L139.539 1.25547L137.389 1.25825L137.385 20.8995C137.33 21.9351 138.048 23.2434 139.886 24.3041C140.91 24.7601 142.569 24.6476 143.561 24.4606C144.319 24.367 144.793 24.1467 145.448 23.8254C146.75 23.1791 148.38 20.6985 148.347 18.9582C148.344 12.2592 148.34 1.24945 148.34 1.24945L145.609 1.25408C145.601 0.955006 145.615 1.24112 145.611 0.982784L164.032 0.984635L164.033 8.72353C163.822 7.77769 163.664 6.30454 162.87 4.85362C161.521 2.20223 159.85 1.16751 156.907 1.25732L154.092 1.25639L154.083 12.0541C154.394 12.0541 155.429 12.061 155.807 12.0536C158.261 11.8203 159.049 10.5073 159.44 7.36612L159.446 17.7448Z" fill="black"/>
<path d="M133.173 14.8875C132.621 14.8828 132.23 14.8852 131.799 14.8828C131.802 17.6018 131.802 20.9852 131.801 24.0365C131.254 23.0759 130.623 22.5416 129.239 22.9435C127.298 23.8796 124.965 24.8486 123.653 24.8152C122.248 24.8523 120.835 24.3504 119.543 23.7152C114.972 20.6041 113.298 14.8009 114.483 9.1958C115.34 5.6259 117.87 1.65367 121.591 0.456914C125.313 -0.914845 127.826 3.02775 130.357 0.250896C130.36 2.23654 130.36 7.80923 130.36 8.61247V8.89164C129.51 5.78099 128.09 1.74951 124.592 0.547655C122.466 0.086081 120.57 1.04904 119.674 2.69071C117.766 6.93191 117.647 18.0148 120.034 22.5986C120.335 23.2921 121.648 24.6291 123.655 24.5333C125.66 24.4435 128.139 23.162 128.139 21.3259C128.139 19.0981 128.139 17.2745 128.132 14.8879C127.765 14.8875 126.942 14.887 126.754 14.8847C126.755 14.7537 126.749 14.7588 126.753 14.6078L133.176 14.6111L133.173 14.8875Z" fill="black"/>
<path d="M108.578 23.2504C106.589 24.6217 104.137 25.3425 101.563 24.7647C98.3455 24.08 95.4117 21.0221 94.3383 17.9249C92.9349 13.3453 93.4693 7.60359 96.5841 3.98276C99.0326 1.52582 102.01 -0.0408512 105.53 0.72813C108.716 1.42859 112.044 4.71609 112.91 7.89109C114.715 13.4221 113.267 19.6828 108.578 23.2504ZM106.945 2.03091C105.854 0.838316 103.539 0.43739 101.709 1.15961C98.4207 2.88924 98.1736 7.34248 97.8844 11.0661C97.6883 13.5939 97.6158 20.1999 100.307 23.6235C101.402 24.7254 103.538 24.8962 104.906 24.4869C108.98 22.967 109.139 18.2943 109.427 14.4277L109.429 14.3453C109.646 10.0416 109.181 4.76748 106.945 2.03091Z" fill="black"/>
<path d="M97.8918 1.2494C97.8299 1.26884 95.9063 1.24801 95.6459 1.25634C93.2773 8.8406 90.7647 16.8443 88.4001 24.3725C87.9042 23.1651 87.4752 22.0471 86.9894 20.7188L79.8004 1.25079C78.9887 1.2531 78.7673 1.25866 78.1293 1.24986L78.1234 0.983196L85.4952 0.9869L85.4906 1.25449L83.7425 1.25496L89.8861 18.0272L89.9933 18.3503C91.7533 12.7915 93.6018 6.95218 95.4058 1.25681C94.5812 1.2494 93.6985 1.25403 92.9537 1.25588L92.9564 0.985048L97.8863 0.979492L97.8918 1.2494Z" fill="black"/>
</g>
<defs>
<clipPath id="clip0_2294_3919">
<rect width="165" height="25" fill="white"/>
</clipPath>
</defs>
</svg>
