<svg width="157" height="30" viewBox="0 0 157 30" fill="none" xmlns="http://www.w3.org/2000/svg">
<path d="M0.248249 20.3806L2.23424 20.0692V2.21453L0 1.90311L0.106393 0H13.9374L13.6183 5.39792L10.852 5.32872L10.6747 1.93772H6.41902V9.9654H8.29862L8.72419 8.13149L10.6747 8.16609V13.7024H8.75966L8.29862 11.7993H6.41902V20.3114H10.7102L11.1003 16.609L14.0084 16.7128L14.2211 22.3529H0.141857L0.248249 20.3806Z" fill="black"/>
<path d="M15.4979 22.3875L15.5688 20.7266L17.1292 20.4152V9.16949L15.3205 8.99648V7.30098L19.86 6.67814L20.2146 7.647V8.26983C21.314 7.16257 22.6262 6.50513 24.3284 6.50513C26.8109 6.50513 28.6196 7.95841 28.6196 10.865V20.4152L30.2864 20.7266L30.1446 22.3875H24.7895V11.6608C24.7895 10.1037 24.222 9.23869 22.8035 9.23869C22.307 9.23869 21.9878 9.3425 21.5977 9.4463C21.3494 9.61931 21.1367 9.93073 20.9593 10.1729V20.4152L22.5907 20.7266L22.4843 22.3875C22.4488 22.3875 15.4979 22.3875 15.4979 22.3875Z" fill="black"/>
<path d="M102.243 22.3875L102.314 20.7266L103.875 20.4152V9.16949L102.066 8.99648V7.30098L106.605 6.67814L106.96 7.647V8.26983C108.059 7.16257 109.372 6.50513 111.074 6.50513C113.556 6.50513 115.365 7.95841 115.365 10.865V20.4152L117.032 20.7266L116.925 22.3875H111.57V11.6608C111.57 10.1037 111.003 9.23869 109.584 9.23869C109.088 9.23869 108.769 9.3425 108.379 9.4463C108.13 9.61931 107.918 9.93073 107.74 10.1729V20.4152L109.372 20.7266L109.265 22.3875H102.243Z" fill="black"/>
<path d="M38.7978 22.076C38.1595 22.3182 37.0601 22.6297 35.5706 22.6297C33.6555 22.6297 31.8469 21.7992 31.8469 19.031V9.13485L30.0382 8.85804L30.1091 6.88572L32.166 6.78191L33.0526 3.77153L35.677 3.66772V6.88572H38.5496L38.3368 8.85804L35.7479 9.13485V18.9964C35.7479 19.8269 36.2089 20.3459 37.0601 20.3459H38.6205L38.7978 22.076Z" fill="black"/>
<path d="M146.29 22.3875L146.361 20.7612L147.815 20.4498V9.16951L146.077 8.9965V7.30099L150.758 6.67816L151.077 7.78542V8.13144C152.319 7.23179 153.986 6.64355 155.972 6.64355L156.681 7.23179L156.184 11.4532L153.595 11.3494L153.347 9.0657C152.744 9.16951 152.177 9.30791 151.68 9.65394V20.4152L153.312 20.7266L153.205 22.3529L146.29 22.3875Z" fill="black"/>
<path d="M78.6596 22.3875L78.7305 20.7612L80.1846 20.4498V9.16951L78.4468 8.9965V7.30099L83.1281 6.67816L83.4473 7.78542V8.13144C84.6885 7.23179 86.3553 6.64355 88.3413 6.64355L89.0506 7.23179L88.5541 11.4532L85.9652 11.3494L85.717 9.0657C85.1141 9.16951 84.5467 9.30791 84.0502 9.65394V20.4152L85.6815 20.7266L85.5751 22.3529L78.6596 22.3875Z" fill="black"/>
<path d="M39.9681 22.3875L40.0391 20.7612L41.4931 20.4498V9.16951L39.7554 8.9965V7.30099L44.4366 6.67816L44.7558 7.78542V8.13144C45.9971 7.23179 47.6639 6.64355 49.6499 6.64355L50.3592 7.23179L49.8627 11.4532L47.2738 11.3494L47.0255 9.0657C46.4226 9.16951 45.8552 9.30791 45.3587 9.65394V20.4152L46.9901 20.7266L46.8837 22.3529L39.9681 22.3875Z" fill="black"/>
<path d="M54.8277 15.5363C54.8277 18.2352 56.0334 20.3114 58.4095 20.3114C59.6153 20.3114 60.6083 20.0691 61.7786 19.5501L62.417 21.038C61.2467 21.9377 59.5444 22.6643 57.3811 22.6643C53.1963 22.6643 50.7847 19.1349 50.7847 14.602C50.7847 10.7266 52.5225 6.50513 57.3456 6.50513C61.5304 6.50513 63.1263 10.2768 63.1263 14.4982L62.7362 15.5017L54.8277 15.5363ZM54.7567 13.7024L59.5799 13.4947C59.4735 11.6262 59.0834 8.65046 57.2038 8.65046C56.7427 8.65046 56.4235 8.71966 55.8561 9.03108C55.0759 10.3114 54.7567 12.6297 54.7567 13.7024Z" fill="black"/>
<path d="M121.571 15.5363C121.571 18.2352 122.777 20.3114 125.153 20.3114C126.394 20.3114 127.352 20.0691 128.522 19.5501L129.161 21.038C127.99 21.9377 126.288 22.6643 124.125 22.6643C119.94 22.6643 117.528 19.1349 117.528 14.602C117.528 10.7266 119.266 6.50513 124.089 6.50513C128.274 6.50513 129.87 10.2768 129.87 14.4982L129.48 15.5017L121.571 15.5363ZM121.5 13.7024L126.323 13.4947C126.217 11.6262 125.827 8.65046 123.947 8.65046C123.486 8.65046 123.167 8.71966 122.6 9.03108C121.82 10.3114 121.465 12.6297 121.5 13.7024Z" fill="black"/>
<path d="M93.5191 15.5363C93.5191 18.2352 94.7249 20.3114 97.101 20.3114C98.3422 20.3114 99.2997 20.0691 100.47 19.5501L101.108 21.038C99.9381 21.9377 98.2358 22.6643 96.0725 22.6643C91.8877 22.6643 89.4762 19.1349 89.4762 14.602C89.4762 10.7266 91.2139 6.50513 96.037 6.50513C100.222 6.50513 101.818 10.2768 101.818 14.4982L101.392 15.5017L93.5191 15.5363ZM93.4481 13.7024L98.2713 13.4947C98.1649 11.6262 97.7748 8.65046 95.8952 8.65046C95.4341 8.65046 95.115 8.71966 94.5475 9.03108C93.7673 10.3114 93.4481 12.6297 93.4481 13.7024Z" fill="black"/>
<path d="M140.686 22.3877L140.296 21.0382C139.232 22.007 138.204 22.5953 136.608 22.5953C134.126 22.5953 131.927 21.3842 131.927 18.0624V8.71984L130.118 8.54683V7.05894L135.331 6.4707L135.721 7.82018V17.578C135.721 19.2735 136.431 20.1731 137.849 20.1731C138.239 20.1731 138.771 20.1385 139.232 19.9309C139.481 19.6887 139.729 19.3773 139.942 19.0659V8.75444L138.062 8.58143V7.09354L143.346 6.5053L143.772 7.85479V20.4153L145.403 20.7268L145.226 22.3877H140.686Z" fill="black"/>
<path d="M70.9284 20.3807C70.0773 20.3807 69.4389 20.2423 68.9069 19.9655V10.0347C69.1197 9.7233 69.4034 9.41188 69.6517 9.13506C70.1482 8.96205 70.5737 8.89285 71.0702 8.89285C73.2336 8.89285 73.5882 11.0382 73.5882 14.8444C73.5882 18.5122 73.0208 19.5157 72.8789 19.9309C72.3115 20.2423 71.7086 20.3807 70.9284 20.3807ZM77.3474 14.1524C77.3474 9.41188 75.8934 6.4707 72.347 6.4707C69.9709 6.4707 68.836 7.82018 68.375 8.37382V7.85479L67.9849 6.5053L63.3036 7.12814V8.75444L65.1123 8.99665V28.097L63.5873 28.4084L63.5164 30.0001H70.4319L70.5383 28.4084L68.9069 28.097V22.0416C69.5453 22.3877 70.4674 22.6299 71.4958 22.6299C77.3119 22.6299 77.3474 16.8167 77.3474 14.1524Z" fill="black"/>
<path d="M155.688 20.2075C156.468 20.2075 156.965 20.6573 156.965 21.3148C156.965 21.9722 156.433 22.4221 155.688 22.4221C154.908 22.4221 154.411 21.9722 154.411 21.3148C154.411 20.6573 154.943 20.2075 155.688 20.2075ZM155.688 22.0414C156.22 22.0414 156.574 21.73 156.574 21.2802C156.574 20.8304 156.22 20.5189 155.688 20.5189C155.156 20.5189 154.801 20.8304 154.801 21.2802C154.801 21.73 155.156 22.0414 155.688 22.0414ZM155.12 21.7992V21.6608L155.262 21.6262V20.9342H155.12V20.7958H155.723C155.972 20.7958 156.22 20.865 156.22 21.1072C156.22 21.2802 156.113 21.3494 156.007 21.4186C156.078 21.5224 156.184 21.6262 156.22 21.6608H156.326V21.7992H156.007C155.901 21.73 155.794 21.5916 155.723 21.4186H155.617V21.6262L155.759 21.6608V21.7992H155.12ZM155.617 20.9342V21.211H155.723C155.865 21.211 155.901 21.1418 155.901 21.0726C155.901 20.9342 155.794 20.9342 155.688 20.9342H155.617Z" fill="black"/>
</svg>
