<svg width="84" height="15" viewBox="0 0 84 15" fill="none" xmlns="http://www.w3.org/2000/svg">
<g clip-path="url(#clip0_2338_4309)">
<path d="M0.132821 10.1903L1.19539 10.0346V1.10727L0 0.951557L0.0569234 0H7.45697L7.2862 2.69896L5.80619 2.66436L5.71132 0.968858H3.43438V4.9827H4.44003L4.66772 4.06574L5.71132 4.08305V6.85121H4.6867L4.44003 5.89965H3.43438V10.1557H5.73029L5.93901 8.3045L7.49492 8.3564L7.60876 11.1765H0.0758979L0.132821 10.1903Z" fill="black"/>
<path d="M8.29189 11.1939L8.32984 10.3634L9.16472 10.2077V4.58487L8.19702 4.49836V3.65061L10.6258 3.33919L10.8155 3.82362V4.13504C11.4037 3.58141 12.1058 3.25269 13.0165 3.25269C14.3448 3.25269 15.3124 3.97933 15.3124 5.43262V10.2077L16.2043 10.3634L16.1284 11.1939H13.2632V5.83054C13.2632 5.05199 12.9596 4.61947 12.2006 4.61947C11.935 4.61947 11.7642 4.67137 11.5555 4.72327C11.4227 4.80978 11.3088 4.96549 11.214 5.0866V10.2077L12.0868 10.3634L12.0299 11.1939C12.0109 11.1939 8.29189 11.1939 8.29189 11.1939Z" fill="black"/>
<path d="M54.7034 11.1939L54.7413 10.3634L55.5762 10.2077V4.58487L54.6085 4.49836V3.65061L57.0373 3.33919L57.227 3.82362V4.13504C57.8152 3.58141 58.5173 3.25269 59.428 3.25269C60.7563 3.25269 61.7239 3.97933 61.7239 5.43262V10.2077L62.6158 10.3634L62.5588 11.1939H59.6937V5.83054C59.6937 5.05199 59.3901 4.61947 58.6311 4.61947C58.3655 4.61947 58.1947 4.67137 57.986 4.72327C57.8532 4.80978 57.7393 4.96549 57.6444 5.0866V10.2077L58.5173 10.3634L58.4603 11.1939H54.7034Z" fill="black"/>
<path d="M20.7581 11.0381C20.4166 11.1592 19.8284 11.315 19.0314 11.315C18.0068 11.315 17.0391 10.8997 17.0391 9.51565V4.56755L16.0714 4.42914L16.1094 3.44298L17.2099 3.39108L17.6842 1.88589L19.0884 1.83398V3.44298H20.6253L20.5114 4.42914L19.1263 4.56755V9.49835C19.1263 9.91357 19.373 10.1731 19.8284 10.1731H20.6632L20.7581 11.0381Z" fill="black"/>
<path d="M78.2697 11.1937L78.3077 10.3806L79.0856 10.2249V4.58475L78.1559 4.49825V3.6505L80.6605 3.33908L80.8313 3.89271V4.06572C81.4954 3.61589 82.3872 3.32178 83.4498 3.32178L83.8293 3.61589L83.5636 5.72662L82.1785 5.67472L82.0457 4.53285C81.7231 4.58475 81.4195 4.65396 81.1539 4.82697V10.2076L82.0267 10.3633L81.9698 11.1764L78.2697 11.1937Z" fill="black"/>
<path d="M42.0854 11.1937L42.1234 10.3806L42.9013 10.2249V4.58475L41.9716 4.49825V3.6505L44.4762 3.33908L44.647 3.89271V4.06572C45.3111 3.61589 46.2029 3.32178 47.2654 3.32178L47.6449 3.61589L47.3793 5.72662L45.9941 5.67472L45.8613 4.53285C45.5388 4.58475 45.2352 4.65396 44.9695 4.82697V10.2076L45.8424 10.3633L45.7854 11.1764L42.0854 11.1937Z" fill="black"/>
<path d="M21.3842 11.1937L21.4222 10.3806L22.2001 10.2249V4.58475L21.2704 4.49825V3.6505L23.775 3.33908L23.9458 3.89271V4.06572C24.6099 3.61589 25.5017 3.32178 26.5643 3.32178L26.9438 3.61589L26.6781 5.72662L25.293 5.67472L25.1602 4.53285C24.8376 4.58475 24.534 4.65396 24.2684 4.82697V10.2076L25.1412 10.3633L25.0843 11.1764L21.3842 11.1937Z" fill="black"/>
<path d="M29.3345 7.76826C29.3345 9.11774 29.9796 10.1558 31.2509 10.1558C31.896 10.1558 32.4273 10.0347 33.0535 9.77518L33.395 10.5191C32.7689 10.9689 31.8581 11.3323 30.7006 11.3323C28.4617 11.3323 27.1714 9.56756 27.1714 7.30113C27.1714 5.36341 28.1011 3.25269 30.6817 3.25269C32.9207 3.25269 33.7745 5.1385 33.7745 7.24923L33.5658 7.75096L29.3345 7.76826ZM29.2965 6.8513L31.8771 6.7475C31.8201 5.81324 31.6114 4.32535 30.6058 4.32535C30.3591 4.32535 30.1883 4.35995 29.8847 4.51566C29.4673 5.1558 29.2965 6.31497 29.2965 6.8513Z" fill="black"/>
<path d="M65.0444 7.76826C65.0444 9.11774 65.6896 10.1558 66.9609 10.1558C67.625 10.1558 68.1373 10.0347 68.7634 9.77518L69.105 10.5191C68.4788 10.9689 67.568 11.3323 66.4106 11.3323C64.1716 11.3323 62.8813 9.56756 62.8813 7.30113C62.8813 5.36341 63.8111 3.25269 66.3916 3.25269C68.6306 3.25269 69.4845 5.1385 69.4845 7.24923L69.2757 7.75096L65.0444 7.76826ZM65.0065 6.8513L67.587 6.7475C67.5301 5.81324 67.3214 4.32535 66.3157 4.32535C66.0691 4.32535 65.8983 4.35995 65.5947 4.51566C65.1773 5.1558 64.9875 6.31497 65.0065 6.8513Z" fill="black"/>
<path d="M50.0357 7.76826C50.0357 9.11774 50.6808 10.1558 51.9521 10.1558C52.6162 10.1558 53.1285 10.0347 53.7546 9.77518L54.0962 10.5191C53.47 10.9689 52.5593 11.3323 51.4018 11.3323C49.1628 11.3323 47.8726 9.56756 47.8726 7.30113C47.8726 5.36341 48.8023 3.25269 51.3828 3.25269C53.6218 3.25269 54.4757 5.1385 54.4757 7.24923L54.248 7.75096L50.0357 7.76826ZM49.9977 6.8513L52.5782 6.7475C52.5213 5.81324 52.3126 4.32535 51.3069 4.32535C51.0603 4.32535 50.8895 4.35995 50.5859 4.51566C50.1685 5.1558 49.9977 6.31497 49.9977 6.8513Z" fill="black"/>
<path d="M75.2717 11.1938L75.063 10.5191C74.4938 11.0035 73.9435 11.2976 73.0896 11.2976C71.7614 11.2976 70.585 10.6921 70.585 9.0312V4.35992L69.6173 4.27341V3.52947L72.4066 3.23535L72.6153 3.91009V8.78898C72.6153 9.63674 72.9948 10.0866 73.7537 10.0866C73.9625 10.0866 74.2471 10.0693 74.4938 9.96546C74.6266 9.84435 74.7594 9.68864 74.8732 9.53293V4.37722L73.8676 4.29071V3.54677L76.6948 3.25265L76.9225 3.92739V10.2077L77.7953 10.3634L77.7004 11.1938H75.2717Z" fill="black"/>
<path d="M37.9489 10.1904C37.4935 10.1904 37.152 10.1212 36.8674 9.98276V5.01736C36.9812 4.86165 37.133 4.70594 37.2658 4.56753C37.5315 4.48103 37.7592 4.44642 38.0248 4.44642C39.1822 4.44642 39.372 5.51909 39.372 7.4222C39.372 9.25611 39.0684 9.75784 38.9925 9.96546C38.6889 10.1212 38.3663 10.1904 37.9489 10.1904ZM41.3833 7.07618C41.3833 4.70594 40.6053 3.23535 38.7079 3.23535C37.4366 3.23535 36.8294 3.91009 36.5827 4.18691V3.92739L36.374 3.25265L33.8694 3.56407V4.37722L34.8371 4.49833V14.0485L34.0212 14.2042L33.9832 15.0001H37.6833L37.7402 14.2042L36.8674 14.0485V11.0208C37.2089 11.1938 37.7022 11.3149 38.2525 11.3149C41.3643 11.3149 41.3833 8.40836 41.3833 7.07618Z" fill="black"/>
<path d="M83.298 10.1038C83.7154 10.1038 83.981 10.3287 83.981 10.6574C83.981 10.9861 83.6964 11.211 83.298 11.211C82.8805 11.211 82.6149 10.9861 82.6149 10.6574C82.6149 10.3287 82.8995 10.1038 83.298 10.1038ZM83.298 11.0207C83.5826 11.0207 83.7723 10.865 83.7723 10.6401C83.7723 10.4152 83.5826 10.2595 83.298 10.2595C83.0133 10.2595 82.8236 10.4152 82.8236 10.6401C82.8236 10.865 83.0133 11.0207 83.298 11.0207ZM82.9944 10.8996V10.8304L83.0703 10.8131V10.4671H82.9944V10.3979H83.3169C83.4497 10.3979 83.5826 10.4325 83.5826 10.5536C83.5826 10.6401 83.5256 10.6747 83.4687 10.7093C83.5067 10.7612 83.5636 10.8131 83.5826 10.8304H83.6395V10.8996H83.4687C83.4118 10.865 83.3549 10.7958 83.3169 10.7093H83.26V10.8131L83.3359 10.8304V10.8996H82.9944ZM83.26 10.4671V10.6055H83.3169C83.3928 10.6055 83.4118 10.5709 83.4118 10.5363C83.4118 10.4671 83.3549 10.4671 83.298 10.4671H83.26Z" fill="black"/>
</g>
<defs>
<clipPath id="clip0_2338_4309">
<rect width="84" height="15" fill="white"/>
</clipPath>
</defs>
</svg>
