<svg width="97" height="15" viewBox="0 0 97 15" fill="none" xmlns="http://www.w3.org/2000/svg">
<g clip-path="url(#clip0_2338_4271)">
<path d="M5.87919 3.55363H8.20315L8.90047 0.378906H0.680258L0.00476074 3.55363H1.8324L0.291989 10.6597C0.21385 11.1442 0.109305 11.6556 0.109305 12.1403C0.109305 13.535 0.714477 14.3281 1.53062 14.7439H6.05891L6.71501 11.7634H5.93173C5.20046 11.7364 4.41745 11.6828 4.41745 10.5253C4.41745 10.2561 4.522 9.74474 4.60014 9.34085L5.87919 3.55363Z" fill="black"/>
<path d="M9.96543 14.6678H16.6848C18.4376 13.7989 19.3041 12.3422 19.8934 11.3598L16.5253 10.1217C16.1336 10.8217 15.3503 12.1942 13.2354 12.1942C12.3215 12.1942 11.5643 11.8439 11.0683 11.1175C10.6509 10.4984 10.6245 9.90614 10.6245 8.80281H20.4153C20.4676 8.18364 20.5198 7.59142 20.5198 6.97225C20.5198 2.42336 17.4387 0.646973 14.3059 0.646973C8.95367 0.646695 6.68225 5.46475 6.68225 8.72169C6.68225 11.015 7.64956 13.4764 9.96543 14.6678ZM14.3585 3.55364C14.8542 3.55364 15.3503 3.68808 15.7682 3.93031C16.891 4.57642 16.9168 5.67975 16.9168 6.19142H11.1728C11.6169 5.16864 12.3481 3.55364 14.3585 3.55364Z" fill="black"/>
<path d="M34.4698 6.97225C34.4698 2.42336 31.389 0.646973 28.2559 0.646973C22.9036 0.646973 20.6322 5.46503 20.6322 8.72197C20.6322 11.0145 21.5987 13.4747 23.9135 14.6664H30.6375C32.3886 13.7975 33.2543 12.342 33.8433 11.3598L30.4753 10.1217C30.0835 10.8217 29.3005 12.1942 27.1856 12.1942C26.2717 12.1942 25.5145 11.8439 25.0188 11.1175C24.6008 10.4984 24.575 9.90614 24.575 8.80281H34.3658C34.4175 8.18364 34.4698 7.59114 34.4698 6.97225ZM25.1228 6.19169C25.5668 5.16864 26.2978 3.55364 28.3081 3.55364C28.8039 3.55364 29.3002 3.68808 29.7179 3.93031C30.8406 4.57642 30.8668 5.67975 30.8668 6.19142H25.1228V6.19169Z" fill="black"/>
<path d="M43.8435 0.781494C41.7812 0.781494 40.6059 2.04649 39.9274 2.80011L40.3189 1.13122H36.2721L33.2888 14.6665H37.3105L38.8825 7.61844C39.1177 6.51455 39.4569 5.41122 40.1098 4.73788C40.5272 4.30761 41.1016 3.98427 41.7284 3.98427C42.2247 3.98427 43.2429 4.25372 43.2429 5.54594C43.2429 5.97649 43.1645 6.38038 43.0861 6.8376L41.4069 14.6665H45.43L47.3678 5.9226C47.4462 5.41122 47.5508 4.89955 47.5508 4.38844C47.5513 2.01955 45.8802 0.781494 43.8435 0.781494Z" fill="black"/>
<path d="M93.7352 10.6467C93.4757 8.59008 93.0047 7.58314 91.5901 7.39452C91.3487 7.39508 90.7775 7.39564 90.5854 7.39619C90.5859 7.77952 90.5843 12.657 90.5865 14.3567C91.3358 14.3581 91.5317 14.3548 92.2783 14.3576C94.238 14.2306 96.5436 12.6754 97.0041 9.38286C97.0019 11.0415 97.0046 12.7437 97.0041 14.5215L86.9325 14.5259L86.9336 14.3562L88.4287 14.357C88.4298 9.6748 88.4266 5.34952 88.4277 0.753968L87.3647 0.752301C87.369 4.46536 87.369 7.50647 87.3658 11.3648C87.2863 12.4934 86.8291 13.1565 86.3597 13.7684C85.7424 14.5067 85.0146 14.697 84.6573 14.7898C82.546 15.2754 80.1536 14.8156 79.0868 13.1915C78.8085 12.677 78.6379 12.3981 78.6115 10.6673L78.6132 0.755079L77.3675 0.750913L77.3654 0.588135C78.9667 0.593413 80.3982 0.592024 82.0332 0.590635L82.0321 0.753135L80.7682 0.754801L80.766 12.5395C80.7334 13.1609 81.1554 13.9459 82.2358 14.5823C82.8383 14.8559 83.8134 14.7884 84.3968 14.6762C84.8419 14.6201 85.1205 14.4879 85.5055 14.2951C86.2713 13.9073 87.2294 12.419 87.21 11.3748C87.2084 7.35536 87.2057 0.749524 87.2057 0.749524L85.6007 0.752301C85.5958 0.572857 85.6039 0.744524 85.6017 0.589524L96.431 0.590635L96.4315 5.23397C96.3073 4.66647 96.2146 3.78258 95.7479 2.91202C94.955 1.32119 93.9723 0.700357 92.2425 0.754246L90.5873 0.75369L90.5824 7.2323C90.7651 7.2323 91.3735 7.23647 91.5955 7.23202C93.0381 7.09202 93.5016 6.30425 93.7311 4.41952L93.7352 10.6467Z" fill="black"/>
<path d="M78.2895 8.93239C77.9649 8.92961 77.7353 8.931 77.4817 8.92961C77.4834 10.561 77.4834 12.591 77.4828 14.4218C77.1614 13.8454 76.7903 13.5249 75.9772 13.766C74.8358 14.3277 73.4643 14.9091 72.6932 14.8891C71.8671 14.9113 71.0366 14.6102 70.2765 14.2291C67.5894 12.3624 66.6054 8.88044 67.3021 5.51739C67.8057 3.37544 69.2931 0.992107 71.4807 0.274051C73.6688 -0.549005 75.1462 1.81655 76.6343 0.15044C76.636 1.34183 76.636 4.68544 76.636 5.16738V5.33488C76.1361 3.4685 75.3014 1.04961 73.2447 0.328495C71.9953 0.0515509 70.8804 0.629329 70.3539 1.61433C69.2319 4.15905 69.1624 10.8088 70.5654 13.5591C70.7421 13.9752 71.5141 14.7774 72.694 14.7199C73.8728 14.666 75.33 13.8971 75.33 12.7954C75.3305 11.4588 75.3305 10.3646 75.3262 8.93266C75.1104 8.93239 74.6267 8.93211 74.5162 8.93072C74.5168 8.85211 74.513 8.85516 74.5157 8.76461L78.2912 8.76655L78.2895 8.93239Z" fill="black"/>
<path d="M63.8308 13.9501C62.6615 14.7728 61.2202 15.2053 59.707 14.8587C57.8152 14.4478 56.0905 12.6131 55.4595 10.7548C54.6344 8.00701 54.9486 4.56201 56.7798 2.38951C58.2191 0.915343 59.9694 -0.0246572 62.0388 0.436732C63.9117 0.85701 65.8684 2.82951 66.3774 4.73451C67.4384 8.05312 66.5875 11.8095 63.8308 13.9501ZM62.8705 1.2184C62.2295 0.502843 60.8686 0.262287 59.7924 0.695621C57.8594 1.7334 57.7142 4.40534 57.5442 6.63951C57.4288 8.15618 57.3863 12.1198 58.9682 14.174C59.6119 14.8351 60.8675 14.9376 61.6721 14.692C64.0671 13.7801 64.1606 10.9765 64.3296 8.65645L64.3312 8.60701C64.4584 6.02479 64.1852 2.86034 62.8705 1.2184Z" fill="black"/>
<path d="M57.5485 0.749591C57.5122 0.761258 56.3813 0.748758 56.2283 0.753758C54.8358 5.30431 53.3587 10.1065 51.9686 14.6235C51.6771 13.899 51.4249 13.2282 51.1393 12.4313L46.913 0.750424C46.4358 0.751813 46.3057 0.755147 45.9306 0.749869L45.9271 0.589869L50.2609 0.592091L50.2582 0.752647L49.2305 0.752924L52.8421 10.8163L52.9052 11.0101C53.9399 7.67487 55.0265 4.17126 56.0871 0.754035C55.6023 0.749591 55.0834 0.752369 54.6455 0.75348L54.6472 0.59098L57.5453 0.587646L57.5485 0.749591Z" fill="black"/>
</g>
<defs>
<clipPath id="clip0_2338_4271">
<rect width="97" height="15" fill="white"/>
</clipPath>
</defs>
</svg>
