<svg width="102" height="15" viewBox="0 0 102 15" fill="none" xmlns="http://www.w3.org/2000/svg">
<path d="M3.30258 2.7227L0 14.8455H3.07772L4.97903 13.4456L5.17969 14.8455H8.23141L8.70719 14.4456L8.98241 14.4711L9.20726 14.8458H15.4876L17.1641 13.6211L16.9635 14.8458H19.9657L22.2178 13.2716L21.8428 14.8458H24.8953L28.1232 12.4216L32.2758 3.92262L32.9521 9.69736L31.5004 14.8458H34.8785L37.3555 12.9464C37.3555 12.9464 38.0561 14.6212 39.5068 14.8458C39.907 14.9212 40.5825 14.9464 40.5825 14.9464C41.0834 14.9464 41.3839 14.9413 41.8839 14.8458C42.4901 14.7317 42.8175 14.5879 43.385 14.3462C44.181 14.0075 45.3115 13.2465 45.3115 13.2465L44.9868 14.8458H48.1887L49.7905 13.746L49.5153 14.8458H56.4955L58.1972 13.6211L58.5974 14.8458H62.4262L65.4535 12.4216L64.0271 5.74753L68.3056 0.348489H64.6774L62.7761 1.7735L63.1017 0.323344H59.3988L58.7225 0.923553C58.7225 0.923553 58.1972 0.623438 57.9724 0.473396C57.7467 0.348595 57.1719 0.348605 57.1719 0.348605H51.0919L50.1907 1.04854C50.1907 1.04854 49.5656 0.398903 48.74 0.223698C47.363 -0.100658 47.113 0.0232395 46.4627 0.0232395C45.3367 0.0232395 44.0604 0.548869 44.0604 0.548869L44.0859 0.323461L40.3083 0.348916L38.4313 1.84855L38.3808 0.348916H34.678L33.4269 1.27437L33.7776 0.348916H30.5498L28.9488 1.49901L28.8984 0.348916H25.5958L24.3196 1.29866L24.2196 0.323772H14.9622L14.4865 0.574403L14.6114 0.323772L11.334 0.349266L10.0578 1.27476L9.8824 0.324121H6.30446L3.30258 2.7227Z" fill="black"/>
<path d="M71.45 0.328672L68.6476 2.55338L65.2201 14.8514H68.5227L71.6256 12.4766L72.0753 11.1019C72.0753 11.1019 72.704 11.1197 73.1015 11.0764C73.4667 11.037 74.0271 10.9022 74.0271 10.9022C74.0271 10.9022 73.7015 12.4666 74.1277 13.3013C74.7024 14.428 75.7035 14.7515 76.9796 14.8512C78.1308 14.9511 78.7676 14.8308 79.8317 14.4765C80.8012 14.154 82.1341 13.2267 82.1341 13.2267C82.1341 13.2267 82.7556 14.0524 83.3097 14.3768C83.9293 14.738 84.3727 14.7811 85.0859 14.8512C86.2183 14.9625 86.9126 14.8257 87.964 14.3768C89.0892 13.9015 90.9913 12.6013 90.9913 12.6013L90.4408 14.7515H93.5681L96.6205 12.4261L98.7719 4.90288L101.35 2.70331L102 0.328556H94.8191L94.0933 0.828108C94.0933 0.828108 93.5482 0.482189 93.1678 0.328556C92.3898 0.0140823 91.8799 -0.0093143 91.0407 0.0032677C89.957 0.0210964 89.2977 0.147953 88.3391 0.653805C87.7472 0.965604 86.963 1.67813 86.963 1.67813C86.963 1.67813 86.4872 0.753533 85.9367 0.503753C84.9609 0.0536025 84.3169 0.0455029 83.2601 0.0787408C82.313 0.109304 81.7599 0.219821 80.883 0.578332C80.1212 0.89008 79.0815 1.67813 79.0815 1.67813C79.0815 1.67813 78.7307 1.02847 78.4807 0.753529C78.2558 0.453446 77.5803 0.328556 77.5803 0.328556L71.45 0.328672Z" fill="black"/>
<path d="M6.56592 0.634277L3.51343 11.9825H5.81496L7.66683 5.63373L8.36745 11.9825H10.9694L14.2226 0.634277H11.8707L10.2193 6.08276L9.61855 0.634277H6.56592Z" fill="white"/>
<path d="M15.2087 0.634277L12.1057 11.9825H18.0605L18.7612 9.98244H15.4091L16.2096 7.18361H19.2621L19.862 5.18349H16.76L17.5605 2.68386H20.9136L20.2624 11.9826H22.9146L25.9169 5.58332L25.2666 11.9826H27.8192L33.3235 0.634316H30.9212L28.1196 6.28322L28.67 0.634316H26.068L23.4158 6.18365L23.9662 0.634316L15.2087 0.634277Z" fill="white"/>
<path d="M42.488 2.69736L40.4868 10.0464C40.4868 10.0464 40.2933 10.9835 40.5867 11.4463C40.7639 11.7266 40.9546 11.821 41.237 11.9962C41.7568 12.3179 42.1328 12.361 42.7381 12.4454C43.4154 12.5407 43.8156 12.5073 44.4892 12.396C45.0504 12.3035 45.3769 12.2379 45.8905 11.9962C46.3114 11.7975 46.5372 11.6475 46.8915 11.3456C47.3565 10.9512 47.8925 10.1964 47.8925 10.1461C47.8925 10.1461 48.943 6.39674 48.943 6.44692L49.7444 3.64703C49.6939 3.64703 50.1689 2.2723 50.0187 1.69725C49.7939 0.647795 49.0932 0.372853 48.6678 0.322525C47.8674 0.172509 47.6938 0.178879 47.0669 0.172511C46.637 0.167417 46.3915 0.162339 45.966 0.222956C45.3724 0.30828 45.0289 0.385694 44.4892 0.64793C44.134 0.820359 43.9424 0.945304 43.6393 1.19781C43.0718 1.66864 42.488 2.69736 42.488 2.69736Z" fill="white"/>
<path d="M35.2729 0.634277L36.1741 7.3328L34.923 11.9825H37.5744L38.8759 7.48282L43.5294 0.634277H40.8277L38.2752 4.68394L38.0251 0.634277H35.2729Z" fill="white"/>
<path d="M45.3688 2.9267L43.517 9.27549C43.517 9.27549 43.4198 9.59444 43.4914 9.77594C43.5534 9.92952 43.6444 10.0014 43.7919 10.0752C43.9673 10.1633 44.0968 10.1345 44.2928 10.1256C44.5337 10.1154 44.6922 10.1103 44.8936 9.97558C45.0366 9.88032 45.1095 9.80137 45.1931 9.65033C45.2443 9.55864 45.2186 9.32598 45.293 9.40048C45.3185 9.42595 46.7447 4.22684 46.7447 4.22684L46.9695 3.32653C46.9695 3.32653 47.0774 3.08229 47.045 2.9267C47.0246 2.82864 46.9856 2.77767 46.9201 2.70203C46.787 2.55099 46.6449 2.52224 46.4443 2.50161C46.2689 2.48378 46.1655 2.50923 45.9937 2.55202C45.8408 2.58971 45.7528 2.61747 45.6187 2.70203C45.508 2.77131 45.3688 2.9267 45.3688 2.9267Z" fill="black"/>
<path d="M51.4111 0.634277L48.3081 11.9825H51.0108L52.3617 7.38298H53.5624C53.5624 7.38298 53.9284 7.45123 54.013 7.63283C54.0706 7.75687 54.013 7.98322 54.013 7.98322L52.9625 11.9824H55.8143L57.0159 7.73337C57.0159 7.73337 57.1967 7.16099 57.0159 6.88335C56.917 6.73231 56.8171 6.67934 56.6652 6.58324C56.5033 6.47983 56.2146 6.38282 56.2146 6.38282C56.2146 6.38282 56.6553 6.1933 56.9152 6.03324C57.1409 5.89393 57.2777 5.82034 57.4656 5.63342C57.5735 5.52568 57.7157 5.33331 57.7157 5.33331L58.617 2.28384C58.617 2.28384 58.6809 1.87954 58.617 1.63424C58.5586 1.41061 58.4938 1.2829 58.3418 1.1095C58.1906 0.935289 58.0701 0.86599 57.8659 0.759068C57.7535 0.700743 57.5655 0.634277 57.5655 0.634277" fill="white"/>
<path d="M53.8077 2.69713L52.9821 5.34674H54.4085C54.4085 5.34674 54.6415 5.2515 54.7584 5.14733C54.9345 4.98916 54.9626 4.83732 55.0588 4.6217C55.1801 4.35123 55.2117 4.18411 55.2836 3.89658C55.3591 3.59828 55.4807 3.42668 55.4338 3.12207C55.4134 2.9909 55.4331 2.88573 55.3338 2.79682C55.2627 2.73314 55.2033 2.71404 55.109 2.69698C55.0226 2.6817 54.8833 2.69698 54.8833 2.69698L53.8077 2.69713Z" fill="black"/>
<path d="M59.85 0.634277L56.4969 11.9825H59.4245L60.9508 6.95816L61.8763 11.9825H64.954L63.6535 5.68312L67.6566 0.634549H65.0044L61.6011 4.38391L62.6525 0.634549L59.85 0.634277Z" fill="white"/>
<path d="M71.7814 0.634277L68.6038 11.9825H71.256L72.3065 8.53318C72.3065 8.53318 74.3832 8.63302 74.9337 8.53318C75.3591 8.45779 75.6325 8.36788 76.0346 8.1576C76.4798 7.92583 76.7577 7.78294 77.0608 7.38309C77.2578 7.12254 77.2981 6.93026 77.4358 6.63376C78.1094 5.17726 78.587 2.68394 78.587 2.68394C78.587 2.68394 78.7372 2.2095 78.6365 1.90939C78.5871 1.70895 78.6289 1.55721 78.5366 1.35951C78.4466 1.16441 78.3494 1.07381 78.1867 0.934537C78.007 0.780955 77.8863 0.759272 77.6605 0.634394H77.5606" fill="white"/>
<path d="M74.0251 2.69733L72.9736 6.34713C72.9736 6.34713 73.1355 6.43961 73.2498 6.47196C73.4188 6.51958 73.5241 6.50149 73.6995 6.49741C73.9162 6.49232 74.0457 6.49231 74.2499 6.42202C74.5395 6.32141 74.6951 6.19456 74.8759 5.94761C75.0253 5.74181 75.036 5.58462 75.126 5.3474C75.3345 4.7957 75.5514 3.89721 75.5514 3.89721C75.5514 3.89721 75.6432 3.5962 75.6514 3.39761C75.659 3.19182 75.7304 3.03284 75.6019 2.87292C75.5218 2.77308 75.4408 2.75346 75.3258 2.69768C74.8707 2.47482 74.0251 2.69733 74.0251 2.69733Z" fill="black"/>
<path d="M79.1495 2.29002L76.9226 9.98846C76.9226 9.98846 76.83 10.9625 77.1482 11.4387C77.3353 11.7199 77.5115 11.8331 77.7985 12.0137C78.3129 12.3381 78.6969 12.3561 79.2995 12.4387C79.9759 12.5312 80.3761 12.5205 81.0507 12.4133C81.6119 12.3244 81.9393 12.2587 82.4519 12.0134C82.8764 11.8094 83.1058 11.6558 83.453 11.3387C83.8847 10.9433 84.3533 10.1885 84.3533 10.1382C84.3533 10.1382 85.4541 6.46422 85.4541 6.51363L86.3049 3.51434C86.2555 3.51434 86.6557 2.49541 86.5056 1.86466C86.4227 1.5214 86.4057 1.18986 86.1297 1.03981C85.8301 0.840387 85.59 0.679491 85.2041 0.540223C84.6843 0.351493 84.356 0.341558 83.8029 0.314815C83.1976 0.28527 82.8477 0.302093 82.2523 0.415432C81.8026 0.500756 81.5481 0.564429 81.1263 0.739788C80.601 0.959081 80.3069 1.12075 79.8752 1.49001C79.555 1.76317 79.1495 2.29002 79.1495 2.29002Z" fill="white"/>
<path d="M81.6224 3.23223L79.8712 9.2316C79.8712 9.2316 79.7211 9.90546 80.0961 10.0807C80.2968 10.1561 80.5521 10.2397 80.8471 10.2055C81.0954 10.1778 81.2968 10.0555 81.447 9.98086C81.7726 9.80562 81.7726 9.33125 81.8473 9.40583C81.8728 9.4313 83.2989 4.23219 83.2989 4.23219L83.5238 3.33188C83.5238 3.33188 83.6739 3.0318 83.4238 2.68228C83.3734 2.58243 83.1306 2.51595 82.9238 2.48182C82.5685 2.42426 82.323 2.532 82.0225 2.68228C81.8229 2.78212 81.6224 3.23223 81.6224 3.23223Z" fill="black"/>
<path d="M95.0837 0.634433L94.5584 2.58422H96.3347L93.6823 11.9825H96.3095L98.9617 2.68379H100.863L101.464 0.634277L95.0837 0.634433Z" fill="white"/>
<path d="M91.0554 4.45479H93.7079C93.7079 4.45479 93.8887 3.81775 93.9831 3.40532C94.0721 3.01716 94.1792 2.80243 94.1827 2.40528C94.1878 1.95783 94.1955 1.65863 93.9579 1.28038C93.7924 1.01799 93.644 0.897602 93.3823 0.730496C93.1088 0.556283 92.9209 0.51295 92.607 0.430352C92.2634 0.340444 92.0592 0.332304 91.7058 0.305561C91.2489 0.270413 90.9845 0.240868 90.5303 0.305561C90.2722 0.342492 90.1337 0.398013 89.8791 0.455575C89.5679 0.525616 89.379 0.519508 89.0787 0.630811C88.7306 0.759432 88.5588 0.89498 88.253 1.10526C87.985 1.29042 87.8339 1.40087 87.6027 1.63089C87.386 1.84483 87.251 1.96421 87.1018 2.23016C86.9651 2.47544 86.9309 2.63545 86.8516 2.90499C86.7787 3.15485 86.7382 3.29763 86.7015 3.5546C86.6574 3.87358 86.6169 4.06405 86.676 4.38033C86.7219 4.6256 86.7956 4.75319 86.9009 4.97964C87.1311 5.47559 87.3749 5.69125 87.7013 6.12973C87.9379 6.44691 88.0728 6.62569 88.3273 6.92939C88.571 7.22051 88.7356 7.36158 88.9776 7.65451C89.1277 7.83611 89.2312 7.92679 89.3526 8.12892C89.4786 8.3393 89.5594 8.46317 89.6027 8.70398C89.6468 8.9439 89.6433 9.09392 89.5772 9.32933C89.525 9.51806 89.4872 9.63751 89.3516 9.77856C89.1861 9.95201 89.0386 10.0185 88.8012 10.0544C88.5574 10.0903 88.391 10.0748 88.1761 9.95383C88.0249 9.86927 87.9324 9.8056 87.8505 9.65373C87.7659 9.49734 87.7758 9.38237 87.7758 9.20447C87.7758 9.00504 87.8306 8.8981 87.8757 8.70402C87.9188 8.51809 88.0007 8.22957 88.0007 8.22957H85.2485C85.2485 8.22957 85.1486 8.47027 85.0984 8.6294C85.0201 8.87748 85.0012 9.02478 84.9482 9.27905C84.8691 9.65734 84.7657 9.86756 84.7728 10.2539C84.7805 10.5927 84.8133 10.7939 84.9482 11.1039C85.0606 11.3618 85.1471 11.5074 85.3484 11.7041C85.5463 11.8964 85.701 11.9575 85.9492 12.0788C86.3684 12.2828 86.6382 12.3358 87.0995 12.4041C87.6212 12.4805 87.927 12.4553 88.4514 12.4041C89.0261 12.3475 89.3597 12.3024 89.9021 12.104C90.3122 11.9529 90.5353 11.838 90.9031 11.6035C91.2602 11.3763 91.4644 11.2387 91.754 10.9287C92.0507 10.6106 92.1938 10.3977 92.379 10.0041C92.5733 9.59083 92.6408 9.33117 92.7046 8.87922C92.7811 8.33829 92.8224 8.00674 92.6791 7.47931C92.571 7.07946 92.4333 6.8746 92.2041 6.52956C91.9289 6.11535 91.6924 5.94376 91.3533 5.57985C90.9909 5.1917 90.7489 5.00748 90.4027 4.60496C90.1661 4.33182 89.9682 4.21236 89.827 3.87988C89.7064 3.59686 89.6264 3.40906 89.6769 3.10533C89.7064 2.92832 89.7289 2.81066 89.8523 2.68036C89.9629 2.56269 90.0718 2.54919 90.2273 2.50512C90.3882 2.4603 90.4863 2.43408 90.6527 2.45573C90.847 2.4812 90.9639 2.54104 91.1034 2.68036C91.214 2.79166 91.267 2.87696 91.303 3.02986C91.3453 3.21044 91.2979 3.32011 91.2775 3.5052C91.2596 3.70106 91.2479 3.8134 91.2028 4.00475C91.1597 4.18457 91.0526 4.45491 91.0526 4.45491" fill="white"/>
</svg>
