<svg width="167" height="43" viewBox="0 0 167 43" fill="none" xmlns="http://www.w3.org/2000/svg">
<mask id="mask0_2294_3946" style="mask-type:luminance" maskUnits="userSpaceOnUse" x="0" y="0" width="44" height="43">
<path d="M43.3336 0.0712891H0V42.9289H43.3336V0.0712891Z" fill="white"/>
</mask>
<g mask="url(#mask0_2294_3946)">
<path d="M41.0302 20.2185C41.0302 30.9131 32.2643 39.5827 21.4509 39.5827C10.6375 39.5827 1.87158 30.9131 1.87158 20.2185C1.87158 9.52392 10.6375 0.854248 21.4509 0.854248C32.2643 0.854248 41.0302 9.52392 41.0302 20.2185Z" fill="white"/>
<path d="M21.8546 0.0713205C9.73927 -0.0286806 -0.101072 9.70357 3.98737e-05 21.6859C0.101152 33.3216 9.71399 42.8289 21.4754 42.9253C33.5908 43.029 43.4348 33.2932 43.3301 21.3108C43.2325 9.67858 33.6198 0.171321 21.8546 0.0713205ZM15.3763 10.7357C16.763 12.4786 17.5935 14.6823 17.5935 17.075C17.5935 19.1466 16.9723 21.0752 15.9035 22.6858H8.39231L15.3763 10.7357ZM38.2781 25.3323C38.2781 25.4323 38.2239 25.518 38.1301 25.5573C37.6209 25.7716 35.9416 26.543 35.2411 27.5038C33.4391 29.986 32.0634 33.886 28.9867 33.886H16.149C11.6026 33.886 7.80009 30.318 7.80371 25.5644C7.80371 25.4466 7.90481 25.3501 8.02398 25.3501H14.1088C14.3182 25.3501 14.4843 25.518 14.4843 25.7216V26.8823C14.4843 27.5003 14.9899 28.0002 15.6146 28.0002H20.2297V25.343H17.0771C18.8899 23.0715 19.9697 20.2036 19.9697 17.0822C19.9697 13.6 18.619 10.425 16.409 8.04997C17.7451 8.20355 19.0235 8.46784 20.2297 8.81785V8.07855C20.2297 7.31069 20.8579 6.68925 21.6343 6.68925C22.4108 6.68925 23.039 7.31069 23.039 8.07855V9.86071C27.3472 11.85 30.1675 15.15 30.1675 18.8822C30.1675 21.0716 29.1997 23.1108 27.5277 24.8251C27.2064 25.1538 26.7621 25.3394 26.2964 25.3394H23.039V27.993H27.1269C28.008 27.993 29.5897 26.3394 30.3408 25.343C30.3408 25.343 30.3733 25.293 30.46 25.268C30.5467 25.243 37.9675 23.5574 37.9675 23.5574C38.1227 23.5145 38.2781 23.6322 38.2781 23.7894V25.3323Z" fill="black"/>
</g>
<path d="M60.9327 30.799C59.2185 30.799 57.6442 30.4011 56.2099 29.6053C54.7756 28.8095 53.6387 27.711 52.7991 26.3097C51.9595 24.8911 51.5397 23.291 51.5397 21.5091C51.5397 19.7445 51.9595 18.1616 52.7991 16.7603C53.6387 15.3417 54.7756 14.2346 56.2099 13.4388C57.6442 12.643 59.2185 12.2451 60.9327 12.2451C62.6645 12.2451 64.2387 12.643 65.6555 13.4388C67.0898 14.2346 68.2181 15.3417 69.0403 16.7603C69.8799 18.1616 70.2997 19.7445 70.2997 21.5091C70.2997 23.291 69.8799 24.8911 69.0403 26.3097C68.2181 27.711 67.0898 28.8095 65.6555 29.6053C64.2212 30.4011 62.6469 30.799 60.9327 30.799ZM60.9327 27.5553C62.0348 27.5553 63.0055 27.3131 63.8451 26.8287C64.6847 26.327 65.3406 25.6177 65.813 24.7009C66.2852 23.7839 66.5214 22.72 66.5214 21.5091C66.5214 20.2981 66.2852 19.2429 65.813 18.3433C65.3406 17.4263 64.6847 16.7257 63.8451 16.2413C63.0055 15.7569 62.0348 15.5147 60.9327 15.5147C59.8308 15.5147 58.8513 15.7569 57.9941 16.2413C57.1545 16.7257 56.4986 17.4263 56.0264 18.3433C55.554 19.2429 55.3179 20.2981 55.3179 21.5091C55.3179 22.72 55.554 23.7839 56.0264 24.7009C56.4986 25.6177 57.1545 26.327 57.9941 26.8287C58.8513 27.3131 59.8308 27.5553 60.9327 27.5553Z" fill="black"/>
<path d="M75.6562 18.317C76.1285 17.6597 76.7757 17.1147 77.5979 16.6823C78.4375 16.2325 79.3907 16.0076 80.4577 16.0076C81.6996 16.0076 82.819 16.3103 83.8162 16.9158C84.8307 17.5213 85.6265 18.3862 86.2038 19.5108C86.7985 20.618 87.0958 21.9068 87.0958 23.3772C87.0958 24.8478 86.7985 26.1539 86.2038 27.2956C85.6265 28.42 84.8307 29.2937 83.8162 29.9165C82.819 30.5393 81.6996 30.8507 80.4577 30.8507C79.3907 30.8507 78.4461 30.6344 77.6241 30.202C76.8194 29.7694 76.1635 29.2245 75.6562 28.5671V37.4678H71.9829V16.2411H75.6562V18.317ZM83.3438 23.3772C83.3438 22.5122 83.1602 21.7684 82.7928 21.1456C82.443 20.5055 81.9708 20.0211 81.3761 19.6925C80.7988 19.3637 80.1691 19.1994 79.487 19.1994C78.8223 19.1994 78.1926 19.3724 77.5979 19.7184C77.0205 20.047 76.5483 20.5314 76.1809 21.1716C75.8311 21.8116 75.6562 22.5642 75.6562 23.4292C75.6562 24.2942 75.8311 25.0467 76.1809 25.6867C76.5483 26.3269 77.0205 26.8199 77.5979 27.1659C78.1926 27.4945 78.8223 27.6589 79.487 27.6589C80.1691 27.6589 80.7988 27.4859 81.3761 27.1399C81.9708 26.7939 82.443 26.3009 82.7928 25.6608C83.1602 25.0208 83.3438 24.2596 83.3438 23.3772Z" fill="black"/>
<path d="M103.015 23.1178C103.015 23.6368 102.98 24.1038 102.91 24.519H92.2839C92.3714 25.557 92.7387 26.3701 93.386 26.9583C94.0331 27.5465 94.8289 27.8405 95.7735 27.8405C97.1379 27.8405 98.1088 27.261 98.6859 26.1019H102.648C102.228 27.4859 101.423 28.6276 100.234 29.5272C99.0445 30.4096 97.584 30.8507 95.8522 30.8507C94.4529 30.8507 93.1935 30.548 92.074 29.9424C90.9721 29.3196 90.1061 28.4461 89.4764 27.3215C88.8643 26.1971 88.5582 24.8996 88.5582 23.4292C88.5582 21.9414 88.8643 20.6352 89.4764 19.5108C90.0887 18.3862 90.9458 17.5213 92.0478 16.9158C93.1497 16.3103 94.4179 16.0076 95.8522 16.0076C97.2342 16.0076 98.4672 16.3017 99.5517 16.8899C100.654 17.4781 101.502 18.317 102.097 19.407C102.709 20.4796 103.015 21.7165 103.015 23.1178ZM99.2107 22.0798C99.1932 21.1456 98.8521 20.4017 98.1874 19.8481C97.5227 19.2773 96.7094 18.9918 95.7473 18.9918C94.8377 18.9918 94.0681 19.2686 93.4384 19.8222C92.8262 20.3584 92.45 21.111 92.3101 22.0798H99.2107Z" fill="black"/>
<path d="M112.964 16.0337C114.696 16.0337 116.095 16.5787 117.162 17.6685C118.229 18.7411 118.763 20.2463 118.763 22.1838V30.6174H115.089V22.6768C115.089 21.535 114.801 20.6615 114.224 20.0559C113.646 19.4331 112.859 19.1217 111.862 19.1217C110.848 19.1217 110.043 19.4331 109.448 20.0559C108.871 20.6615 108.583 21.535 108.583 22.6768V30.6174H104.909V16.2413H108.583V18.0319C109.072 17.4091 109.693 16.9247 110.445 16.5787C111.215 16.2154 112.055 16.0337 112.964 16.0337Z" fill="black"/>
<path d="M127.267 30.799C125.99 30.799 124.836 30.5828 123.804 30.1502C122.789 29.7178 121.985 29.095 121.39 28.2818C120.795 27.4688 120.489 26.5087 120.472 25.4016H124.407C124.46 26.1454 124.722 26.7336 125.194 27.1661C125.684 27.5985 126.349 27.8148 127.189 27.8148C128.046 27.8148 128.719 27.6159 129.209 27.2179C129.699 26.8028 129.943 26.2665 129.943 25.6091C129.943 25.0728 129.777 24.6317 129.445 24.2857C129.113 23.9397 128.693 23.6716 128.185 23.4812C127.696 23.2736 127.014 23.0488 126.139 22.8066C124.95 22.4606 123.979 22.1232 123.227 21.7945C122.492 21.4485 121.853 20.9382 121.311 20.2635C120.787 19.5715 120.524 18.6547 120.524 17.5129C120.524 16.4403 120.795 15.5061 121.337 14.7104C121.88 13.9145 122.641 13.309 123.62 12.8938C124.6 12.4614 125.719 12.2451 126.979 12.2451C128.868 12.2451 130.398 12.7036 131.57 13.6204C132.76 14.52 133.416 15.7829 133.538 17.4091H129.497C129.462 16.7863 129.191 16.2759 128.684 15.878C128.194 15.4629 127.538 15.2553 126.716 15.2553C125.999 15.2553 125.422 15.4369 124.985 15.8002C124.565 16.1635 124.355 16.6911 124.355 17.383C124.355 17.8674 124.512 18.2741 124.827 18.6027C125.159 18.9141 125.562 19.1737 126.034 19.3813C126.524 19.5715 127.206 19.7965 128.081 20.0559C129.27 20.4019 130.241 20.7479 130.993 21.0939C131.745 21.4399 132.392 21.9588 132.935 22.6508C133.477 23.3428 133.748 24.2511 133.748 25.3755C133.748 26.3443 133.494 27.2439 132.987 28.0742C132.48 28.9046 131.736 29.5707 130.757 30.0725C129.777 30.5569 128.614 30.799 127.267 30.799Z" fill="black"/>
<path d="M149.396 23.1178C149.396 23.6368 149.36 24.1038 149.291 24.519H138.664C138.752 25.557 139.119 26.3701 139.766 26.9583C140.413 27.5465 141.209 27.8405 142.154 27.8405C143.518 27.8405 144.49 27.261 145.067 26.1019H149.029C148.608 27.4859 147.804 28.6276 146.615 29.5272C145.425 30.4096 143.964 30.8507 142.232 30.8507C140.833 30.8507 139.574 30.548 138.454 29.9424C137.352 29.3196 136.487 28.4461 135.857 27.3215C135.245 26.1971 134.938 24.8996 134.938 23.4292C134.938 21.9414 135.245 20.6352 135.857 19.5108C136.469 18.3862 137.326 17.5213 138.428 16.9158C139.53 16.3103 140.798 16.0076 142.232 16.0076C143.614 16.0076 144.848 16.3017 145.932 16.8899C147.033 17.4781 147.883 18.317 148.477 19.407C149.089 20.4796 149.396 21.7165 149.396 23.1178ZM145.591 22.0798C145.574 21.1456 145.232 20.4017 144.567 19.8481C143.903 19.2773 143.09 18.9918 142.128 18.9918C141.218 18.9918 140.448 19.2686 139.819 19.8222C139.206 20.3584 138.83 21.111 138.691 22.0798H145.591Z" fill="black"/>
<path d="M150.607 23.3772C150.607 21.9241 150.896 20.6352 151.473 19.5108C152.068 18.3862 152.864 17.5213 153.86 16.9158C154.875 16.3103 156.004 16.0076 157.245 16.0076C158.33 16.0076 159.275 16.2238 160.08 16.6563C160.902 17.0888 161.557 17.6337 162.048 18.2911V16.2411H165.746V30.6172H162.048V28.5153C161.574 29.1899 160.919 29.7522 160.08 30.202C159.258 30.6344 158.303 30.8507 157.219 30.8507C155.995 30.8507 154.875 30.5393 153.86 29.9165C152.864 29.2937 152.068 28.42 151.473 27.2956C150.896 26.1539 150.607 24.8478 150.607 23.3772ZM162.048 23.4292C162.048 22.5468 161.872 21.7943 161.522 21.1716C161.172 20.5314 160.7 20.047 160.105 19.7184C159.511 19.3724 158.872 19.1994 158.189 19.1994C157.508 19.1994 156.878 19.3637 156.3 19.6925C155.723 20.0211 155.251 20.5055 154.884 21.1456C154.534 21.7684 154.36 22.5122 154.36 23.3772C154.36 24.2422 154.534 25.0034 154.884 25.6608C155.251 26.3009 155.723 26.7939 156.3 27.1399C156.895 27.4859 157.526 27.6589 158.189 27.6589C158.872 27.6589 159.511 27.4945 160.105 27.1659C160.7 26.8199 161.172 26.3355 161.522 25.7128C161.872 25.0726 162.048 24.3114 162.048 23.4292Z" fill="black"/>
</svg>
