<svg width="168" height="30" viewBox="0 0 168 30" fill="none" xmlns="http://www.w3.org/2000/svg">
<path d="M0 0.0171024C4.70638 0.0232333 9.41463 -0.0474051 14.1187 0.0604184C17.7449 0.143585 20.586 2.6066 21.1976 5.97085C21.8899 9.77919 19.9139 13.031 16.8655 13.9035C16.7881 13.9257 16.725 13.9975 16.6209 14.0701C19.5266 14.9019 21.261 16.8252 21.7493 19.7066C22.5546 24.4607 19.9324 28.3671 14.9783 28.9198C13.8795 29.0422 12.7638 29.0391 11.6557 29.0448C7.77062 29.0655 3.88524 29.0648 0.000133207 29.0723L0 0.0171024ZM6.25683 23.5252C6.3376 23.5529 6.41823 23.6047 6.4986 23.6047C8.44875 23.6079 10.4024 23.6771 12.3483 23.5849C14.3618 23.4893 15.5592 22.2518 15.6125 20.4281C15.6663 18.5958 14.5603 17.2742 12.5883 17.0375C11.3417 16.8878 10.0685 16.9565 8.80714 16.9387C7.97134 16.9271 7.13514 16.9366 6.25683 16.9366V23.5252ZM6.21418 11.5302C8.03212 11.5302 9.75822 11.5333 11.4843 11.5276C11.8165 11.5264 12.1562 11.5292 12.4793 11.4641C13.6981 11.2194 14.616 10.5945 14.9352 9.32404C15.4442 7.29859 14.1533 5.54875 12.0576 5.44493C11.0832 5.39682 10.1048 5.4316 9.12821 5.43067C8.18112 5.42947 7.23377 5.4304 6.25723 5.4304C6.23777 5.64018 6.21578 5.76813 6.21564 5.89608C6.21338 7.73601 6.21418 9.57594 6.21418 11.5302ZM112.222 29.6053C111.486 29.4685 110.743 29.3636 110.016 29.1893C104.325 27.8254 101.426 22.9277 101.923 17.5158C102.34 12.9844 104.624 9.67164 108.975 8.13798C115.049 5.99671 122.094 8.88768 123.133 16.9702C123.27 18.038 123.263 19.1244 123.329 20.2981H107.642C108.005 22.2893 109.01 23.6862 110.76 24.4287C113.606 25.6354 116.271 25.0339 118.784 23.4164C118.933 23.3208 119.07 23.2073 119.214 23.1045C119.228 23.0944 119.256 23.1032 119.357 23.1032C120.126 24.2349 120.92 25.4036 121.812 26.7169C121.003 27.2217 120.256 27.7688 119.441 28.1785C117.941 28.9322 116.328 29.3318 114.652 29.4713C114.462 29.4872 114.276 29.5591 114.087 29.6051L112.222 29.6053ZM117.914 16.4734C118.023 13.864 115.537 11.8712 112.389 11.9954C109.771 12.0987 107.443 14.316 107.723 16.4734H117.914ZM134.746 29.6053C133.841 29.4231 132.921 29.2943 132.033 29.0493C127.792 27.8794 124.866 24.2931 124.481 19.9099C124.118 15.7755 125.317 12.2715 128.636 9.66324C133.665 5.71082 143.549 6.6074 145.513 15.959C145.653 16.629 145.736 17.3168 145.778 18.0006C145.823 18.7265 145.788 19.4579 145.788 20.2977H130.204C130.34 21.4667 130.794 22.4065 131.547 23.184C133.27 24.963 135.422 25.2978 137.746 24.8899C139.227 24.6299 140.594 24.0673 141.825 23.0131L144.333 26.6908C143.68 27.1278 143.088 27.5901 142.438 27.9457C140.823 28.8296 139.074 29.296 137.243 29.4673C137.03 29.4872 136.823 29.5579 136.612 29.605C135.99 29.6053 135.368 29.6053 134.746 29.6053ZM130.241 16.4697H140.443C140.574 13.9403 138.147 11.9313 135.096 11.9908C132.389 12.0435 130.046 14.1842 130.241 16.4697ZM31.5874 29.6053C30.9207 29.4688 30.2496 29.3506 29.588 29.1928C25.4899 28.2161 23.0692 25.1485 23.0656 20.9318C23.0624 16.8899 23.0649 12.848 23.0649 8.80612V8.08174H28.6043V8.85357C28.6043 12.6735 28.6155 16.4933 28.5992 20.3131C28.5916 22.0457 29.1217 23.513 30.7634 24.267C32.5428 25.0841 34.365 25.0543 36.0112 23.8818C37.217 23.0234 37.5578 21.7092 37.5603 20.2973C37.5676 16.4996 37.563 12.7019 37.563 8.90434V8.06921H43.0421L43.0424 8.81785C43.0424 12.8154 43.0442 16.8129 43.0417 20.8105C43.0389 25.6343 40.0365 28.9502 35.2248 29.4557C34.9873 29.4808 34.7548 29.5539 34.5198 29.6047C33.5422 29.6053 32.5647 29.6053 31.5874 29.6053ZM83.8916 29.0055V0.0366945H104.041V2.84677C104.041 3.46865 103.999 4.09414 104.052 4.71149C104.105 5.32618 103.859 5.44546 103.293 5.44226C99.3173 5.41961 95.3414 5.43027 91.3657 5.43027H90.1082V11.5302H90.8586C93.8571 11.5302 96.8557 11.5474 99.8539 11.5161C100.46 11.5098 100.602 11.7024 100.588 12.2749C100.551 13.8012 100.575 15.329 100.575 16.9318H90.063V29.0055H83.8916ZM147.192 28.9942V28.2321C147.192 21.7491 147.192 15.2665 147.192 8.78346C147.192 7.93247 147.193 7.925 148.072 7.93313C151.112 7.96112 154.164 7.83157 157.189 8.06575C161.498 8.39921 164.871 10.3402 166.468 14.5942C168.091 18.917 166.854 23.8505 163.557 26.5533C161.614 28.1456 159.328 28.9297 156.866 29.0184C153.74 29.1316 150.606 29.0541 147.476 29.0564C147.413 29.0565 147.349 29.0296 147.192 28.9942ZM152.475 24.5481C153.537 24.5481 154.531 24.5483 155.525 24.5481C159.102 24.5469 161.354 22.531 161.755 18.9718C162.043 16.4163 160.661 13.8745 158.459 12.972C156.52 12.1774 154.495 12.5999 152.475 12.4876C152.475 16.5458 152.475 20.4914 152.475 24.5481ZM54.209 12.8136H44.8235V8.06002H61.7909C61.7909 8.95686 61.7458 9.8581 61.8041 10.7529C61.8576 11.5778 61.6067 12.215 61.0859 12.8626C58.264 16.3743 55.4866 19.9213 52.6946 23.4568C52.5448 23.6464 52.4024 23.8418 52.169 24.15H61.9035V28.9948H44.7721C44.7721 27.6715 44.7526 26.3487 44.7905 25.0274C44.797 24.8005 45.0249 24.5641 45.1855 24.3598C48.0498 20.7118 50.9199 17.0684 53.787 13.4225C53.9063 13.2705 54.0081 13.1044 54.209 12.8136ZM63.4197 12.8189C63.4197 11.3188 63.4183 9.9438 63.4217 8.56861C63.4219 8.41694 63.447 8.26527 63.4649 8.06855H80.3797C80.3797 9.34657 80.3937 10.6041 80.3649 11.8606C80.3605 12.05 80.1736 12.2495 80.0399 12.4195C77.1274 16.1156 74.2102 19.808 71.2954 23.5024C71.1515 23.6848 71.023 23.8797 70.7989 24.1918H71.648C74.4011 24.1918 77.1546 24.2034 79.908 24.1818C80.4195 24.178 80.6105 24.3036 80.5956 24.8488C80.5581 26.2201 80.5832 27.5933 80.5832 29.007H63.4362C63.4362 27.6375 63.4253 26.2907 63.4501 24.9447C63.453 24.776 63.6301 24.5998 63.7507 24.4463C66.5475 20.885 69.348 17.3267 72.1474 13.7673C72.3612 13.4953 72.5704 13.2197 72.8796 12.8188L63.4197 12.8189Z" fill="black"/>
</svg>
