<svg width="158" height="24" viewBox="0 0 158 24" fill="none" xmlns="http://www.w3.org/2000/svg">
<path d="M5.11575 4.21752L0 22.9959H4.76745L7.71262 20.8274L8.02344 22.9959H12.7506L13.4876 22.3766L13.9139 22.416L14.2622 22.9964H23.9907L26.5876 21.0993L26.2768 22.9964H30.9273L34.4158 20.5579L33.8349 22.9964H38.5633L43.5633 19.2413L49.9958 6.07621L51.0435 15.0214L48.7948 22.9964H54.0275L57.8643 20.0541C57.8643 20.0541 58.9496 22.6485 61.1968 22.9964C61.8168 23.1132 62.8631 23.1522 62.8631 23.1522C63.639 23.1522 64.1044 23.1443 64.879 22.9964C65.818 22.8196 66.3251 22.5969 67.2042 22.2226C68.4372 21.6978 70.1884 20.519 70.1884 20.519L69.6855 22.9964H74.6453L77.1265 21.2928L76.7002 22.9964H87.5127L90.1486 21.0994L90.7686 22.9964H96.6995L101.389 19.2413L99.1792 8.90304L105.807 0.539816H100.187L97.2414 2.74719L97.7457 0.500866H92.0099L90.9623 1.4306C90.9623 1.4306 90.1487 0.965718 89.8003 0.7333C89.4508 0.539981 88.5604 0.539997 88.5604 0.539997H79.1424L77.7464 1.62421C77.7464 1.62421 76.7781 0.617909 75.4992 0.346512C73.3662 -0.155921 72.9789 0.0359984 71.9717 0.0359984C70.2274 0.0359984 68.2505 0.850209 68.2505 0.850209L68.2899 0.501047L62.4384 0.540478L59.5308 2.86343L59.4527 0.540478H53.7168L51.7789 1.97403L52.3222 0.540478H47.3222L44.8423 2.32199L44.7641 0.540478H39.6483L37.6715 2.01166L37.5167 0.501528H23.1768L22.4398 0.889761L22.6333 0.501528L17.5567 0.54102L15.5797 1.97463L15.308 0.50207H9.76573L5.11575 4.21752Z" fill="black"/>
<path d="M110.677 0.508962L106.337 3.95508L101.027 23.005H106.143L110.95 19.3264L111.646 17.1969C111.646 17.1969 112.62 17.2245 113.236 17.1575C113.801 17.0963 114.669 16.8876 114.669 16.8876C114.669 16.8876 114.165 19.3108 114.825 20.6037C115.716 22.3491 117.266 22.8502 119.243 23.0047C121.026 23.1593 122.013 22.9731 123.661 22.4243C125.163 21.9246 127.227 20.4882 127.227 20.4882C127.227 20.4882 128.19 21.7673 129.048 22.2697C130.008 22.8292 130.695 22.8961 131.8 23.0047C133.554 23.1771 134.629 22.9652 136.258 22.2697C138.001 21.5335 140.947 19.5195 140.947 19.5195L140.095 22.8501H144.939L149.667 19.2481L153 7.59449L156.993 4.18733L158 0.508781H146.877L145.752 1.2826C145.752 1.2826 144.908 0.746762 144.319 0.508781C143.114 0.0216557 142.324 -0.014586 141.024 0.00490376C139.345 0.0325208 138.324 0.229024 136.839 1.0126C135.922 1.49558 134.707 2.5993 134.707 2.5993C134.707 2.5993 133.97 1.16708 133.118 0.780165C131.606 0.0828734 130.609 0.0703269 128.972 0.121813C127.505 0.169157 126.648 0.34035 125.289 0.89569C124.109 1.37859 122.499 2.5993 122.499 2.5993C122.499 2.5993 121.955 1.59297 121.568 1.16707C121.22 0.702238 120.174 0.508781 120.174 0.508781L110.677 0.508962Z" fill="black"/>
<path d="M10.1707 0.982422L5.44235 18.5611H9.00747L11.876 8.72667L12.9613 18.5611H16.9919L22.031 0.982422H18.3879L15.8299 9.42222L14.8993 0.982422H10.1707Z" fill="white"/>
<path d="M23.5585 0.982422L18.7519 18.5611H27.976L29.0613 15.4629H23.869L25.1089 11.1275H29.8372L30.7665 8.02924H25.9615L27.2015 4.15727H32.3955L31.3868 18.5611H35.4951L40.1457 8.64859L39.1384 18.5611H43.0923L51.6186 0.982482H47.8974L43.5577 9.73274L44.4103 0.982482H40.3798L36.2714 9.5785L37.1241 0.982482L23.5585 0.982422Z" fill="white"/>
<path d="M65.8148 4.17813L62.7149 15.5619C62.7149 15.5619 62.4152 17.0136 62.8697 17.7303C63.1442 18.1646 63.4396 18.3108 63.877 18.5822C64.6822 19.0805 65.2646 19.1473 66.2023 19.2781C67.2513 19.4256 67.8712 19.3739 68.9147 19.2015C69.7841 19.0583 70.2898 18.9565 71.0853 18.5822C71.7374 18.2744 72.087 18.0421 72.6359 17.5745C73.3562 16.9635 74.1865 15.7943 74.1865 15.7164C74.1865 15.7164 75.8137 9.90854 75.8137 9.98627L77.0551 5.64918C76.9769 5.64918 77.7127 3.5197 77.48 2.62893C77.1317 1.00331 76.0465 0.577417 75.3875 0.499458C74.1475 0.267081 73.8787 0.276948 72.9076 0.267085C72.2417 0.259194 71.8614 0.251327 71.2024 0.345225C70.2829 0.477392 69.7506 0.597309 68.9147 1.00352C68.3644 1.27061 68.0677 1.46416 67.5982 1.85529C66.7191 2.58462 65.8148 4.17813 65.8148 4.17813Z" fill="white"/>
<path d="M54.6385 0.982422L56.0344 11.3586L54.0965 18.5611H58.2037L60.2196 11.5909L67.4281 0.982422H63.2431L59.2892 7.25543L58.9018 0.982422H54.6385Z" fill="white"/>
<path d="M70.2773 4.53336L67.4088 14.3678C67.4088 14.3678 67.2583 14.8618 67.3692 15.143C67.4652 15.3809 67.6062 15.4922 67.8346 15.6065C68.1063 15.743 68.3069 15.6984 68.6106 15.6846C68.9838 15.6688 69.2292 15.6609 69.5412 15.4522C69.7628 15.3047 69.8757 15.1824 70.0051 14.9484C70.0845 14.8064 70.0446 14.446 70.1599 14.5614C70.1994 14.6008 72.4086 6.54731 72.4086 6.54731L72.7569 5.1527C72.7569 5.1527 72.9239 4.77438 72.8738 4.53336C72.8422 4.38147 72.7818 4.30252 72.6803 4.18534C72.4742 3.95139 72.254 3.90685 71.9433 3.87489C71.6716 3.84727 71.5114 3.88669 71.2453 3.95297C71.0084 4.01136 70.8721 4.05436 70.6644 4.18534C70.493 4.29265 70.2773 4.53336 70.2773 4.53336Z" fill="black"/>
<path d="M79.6369 0.982422L74.8304 18.5611H79.0168L81.1095 11.4363H82.9693C82.9693 11.4363 83.5364 11.542 83.6673 11.8233C83.7566 12.0155 83.6673 12.3661 83.6673 12.3661L82.0401 18.561H86.4577L88.319 11.9791C88.319 11.9791 88.599 11.0924 88.319 10.6624C88.1657 10.4284 88.011 10.3463 87.7757 10.1975C87.5249 10.0373 87.0777 9.88703 87.0777 9.88703C87.0777 9.88703 87.7603 9.59345 88.163 9.34553C88.5125 9.12972 88.7244 9.01573 89.0156 8.72619C89.1826 8.5593 89.403 8.26132 89.403 8.26132L90.799 3.53763C90.799 3.53763 90.8981 2.91135 90.799 2.53138C90.7085 2.18498 90.6082 1.98715 90.3727 1.71855C90.1385 1.44869 89.9519 1.34135 89.6356 1.17573C89.4615 1.08538 89.1703 0.982422 89.1703 0.982422" fill="white"/>
<path d="M83.3491 4.178L82.0702 8.28228H84.2798C84.2798 8.28228 84.6407 8.13476 84.8217 7.9734C85.0946 7.72839 85.1381 7.49319 85.2871 7.15918C85.4751 6.74023 85.524 6.48135 85.6354 6.03596C85.7523 5.57389 85.9406 5.30809 85.868 4.83623C85.8364 4.63305 85.8669 4.47014 85.7132 4.33241C85.603 4.23378 85.511 4.20419 85.3649 4.17776C85.231 4.15409 85.0154 4.17776 85.0154 4.17776L83.3491 4.178Z" fill="black"/>
<path d="M92.7087 0.982422L87.5148 18.5611H92.0496L94.4138 10.7782L95.8474 18.5611H100.615L98.6003 8.80318L104.801 0.982843H100.693L95.4212 6.79068L97.0498 0.982843L92.7087 0.982422Z" fill="white"/>
<path d="M111.191 0.982422L106.269 18.5611H110.377L112.004 13.218C112.004 13.218 115.221 13.3726 116.074 13.218C116.733 13.1012 117.156 12.9619 117.779 12.6362C118.469 12.2772 118.899 12.0558 119.369 11.4365C119.674 11.0329 119.736 10.735 119.95 10.2757C120.993 8.01959 121.733 4.15739 121.733 4.15739C121.733 4.15739 121.965 3.42247 121.809 2.9576C121.733 2.6471 121.798 2.41206 121.655 2.10582C121.515 1.80361 121.365 1.66326 121.113 1.44753C120.834 1.20963 120.647 1.17604 120.298 0.982602H120.143" fill="white"/>
<path d="M114.666 4.17803L113.037 9.83164C113.037 9.83164 113.288 9.9749 113.465 10.025C113.727 10.0988 113.89 10.0707 114.162 10.0644C114.497 10.0565 114.698 10.0565 115.014 9.94764C115.463 9.7918 115.704 9.59531 115.984 9.21278C116.215 8.894 116.232 8.65051 116.371 8.28304C116.695 7.42845 117.03 6.03666 117.03 6.03666C117.03 6.03666 117.173 5.5704 117.185 5.26278C117.197 4.944 117.308 4.69774 117.109 4.45002C116.985 4.29536 116.859 4.26498 116.681 4.17857C115.976 3.83336 114.666 4.17803 114.666 4.17803Z" fill="black"/>
<path d="M122.604 3.547L119.154 15.4721C119.154 15.4721 119.011 16.9808 119.504 17.7184C119.794 18.1541 120.067 18.3294 120.511 18.6092C121.308 19.1116 121.903 19.1395 122.836 19.2676C123.884 19.4108 124.504 19.3942 125.549 19.2281C126.418 19.0904 126.925 18.9886 127.72 18.6087C128.377 18.2927 128.732 18.0548 129.27 17.5635C129.939 16.9511 130.665 15.7819 130.665 15.704C130.665 15.704 132.37 10.0129 132.37 10.0895L133.688 5.4435C133.611 5.4435 134.231 3.86516 133.999 2.88811C133.87 2.3564 133.844 1.84283 133.416 1.61042C132.952 1.3015 132.58 1.05227 131.983 0.836539C131.178 0.544192 130.669 0.528802 129.812 0.487376C128.875 0.441611 128.333 0.46767 127.41 0.643235C126.714 0.775403 126.32 0.874035 125.666 1.14567C124.852 1.48536 124.397 1.73579 123.728 2.30778C123.232 2.73091 122.604 3.547 122.604 3.547Z" fill="white"/>
<path d="M126.435 5.00664L123.722 14.2998C123.722 14.2998 123.49 15.3436 124.07 15.615C124.381 15.7318 124.777 15.8613 125.234 15.8084C125.618 15.7654 125.93 15.576 126.163 15.4604C126.667 15.1889 126.667 14.4541 126.783 14.5697C126.822 14.6091 129.032 6.55559 129.032 6.55559L129.38 5.16099C129.38 5.16099 129.613 4.69615 129.225 4.15474C129.147 4.00008 128.771 3.89709 128.451 3.84423C127.9 3.75506 127.52 3.92197 127.055 4.15474C126.745 4.30939 126.435 5.00664 126.435 5.00664Z" fill="black"/>
<path d="M147.286 0.982419L146.473 4.00267H149.224L145.116 18.5608H149.185L153.294 4.15691H156.239L157.169 0.982178L147.286 0.982419Z" fill="white"/>
<path d="M141.047 6.90052H145.155C145.155 6.90052 145.435 5.91373 145.582 5.27486C145.72 4.6736 145.885 4.34098 145.891 3.72579C145.899 3.03268 145.911 2.5692 145.543 1.98328C145.286 1.57684 145.056 1.39036 144.651 1.13151C144.227 0.861651 143.936 0.794527 143.45 0.666581C142.918 0.527312 142.602 0.514703 142.054 0.473277C141.346 0.418832 140.937 0.373067 140.233 0.473277C139.833 0.530484 139.619 0.616487 139.225 0.705651C138.742 0.814147 138.45 0.804685 137.985 0.977095C137.445 1.17633 137.179 1.3863 136.706 1.71202C136.29 1.99884 136.056 2.16993 135.698 2.52623C135.363 2.85764 135.154 3.04256 134.922 3.45452C134.711 3.83446 134.658 4.08231 134.535 4.49984C134.422 4.88688 134.359 5.10805 134.302 5.50609C134.234 6.0002 134.171 6.29525 134.263 6.78517C134.334 7.1651 134.448 7.36275 134.611 7.71352C134.968 8.48175 135.345 8.81581 135.851 9.49504C136.218 9.98634 136.426 10.2633 136.821 10.7337C137.198 11.1847 137.453 11.4032 137.828 11.8569C138.061 12.1382 138.221 12.2787 138.409 12.5918C138.604 12.9177 138.729 13.1096 138.796 13.4826C138.865 13.8542 138.859 14.0866 138.757 14.4513C138.676 14.7436 138.617 14.9286 138.407 15.1471C138.151 15.4158 137.923 15.5188 137.555 15.5744C137.177 15.6301 136.919 15.606 136.587 15.4186C136.352 15.2877 136.209 15.189 136.082 14.9538C135.951 14.7115 135.966 14.5334 135.966 14.2579C135.966 13.9489 136.051 13.7833 136.121 13.4827C136.188 13.1946 136.315 12.7477 136.315 12.7477H132.052C132.052 12.7477 131.897 13.1206 131.819 13.3671C131.698 13.7513 131.669 13.9795 131.586 14.3734C131.464 14.9594 131.304 15.285 131.315 15.8835C131.327 16.4082 131.378 16.7199 131.586 17.2001C131.761 17.5996 131.894 17.8251 132.206 18.1299C132.513 18.4278 132.753 18.5224 133.137 18.7102C133.786 19.0262 134.204 19.1083 134.919 19.2141C135.727 19.3325 136.201 19.2934 137.013 19.2141C137.903 19.1265 138.42 19.0566 139.26 18.7492C139.895 18.5153 140.241 18.3372 140.811 17.974C141.364 17.622 141.68 17.4089 142.129 16.9287C142.588 16.4361 142.81 16.1062 143.097 15.4965C143.398 14.8563 143.502 14.4541 143.601 13.754C143.72 12.9161 143.784 12.4025 143.562 11.5856C143.394 10.9662 143.181 10.6488 142.826 10.1144C142.4 9.47275 142.033 9.20696 141.508 8.64326C140.947 8.042 140.572 7.75665 140.036 7.13313C139.669 6.71004 139.363 6.52499 139.144 6.00997C138.957 5.57157 138.833 5.28065 138.911 4.81018C138.957 4.53598 138.992 4.35373 139.183 4.15189C139.354 3.96961 139.523 3.9487 139.764 3.88044C140.013 3.811 140.165 3.77039 140.423 3.80393C140.724 3.84338 140.905 3.93608 141.121 4.15189C141.292 4.32429 141.374 4.45643 141.43 4.69327C141.496 4.97299 141.422 5.14287 141.391 5.42958C141.363 5.73297 141.345 5.90699 141.275 6.2034C141.208 6.48193 141.042 6.9007 141.042 6.9007" fill="white"/>
</svg>
