<svg width="85" height="15" viewBox="0 0 85 15" fill="none" xmlns="http://www.w3.org/2000/svg">
<path d="M0 0.00866522C2.38457 0.0117715 4.77008 -0.0240186 7.1535 0.030612C8.99075 0.0727498 10.4303 1.32068 10.7401 3.02523C11.0909 4.95479 10.0897 6.60235 8.54519 7.04446C8.50596 7.05567 8.47402 7.09207 8.42128 7.12887C9.89347 7.55032 10.7722 8.52476 11.0196 9.98466C11.4276 12.3934 10.0991 14.3727 7.58899 14.6527C7.03228 14.7147 6.467 14.7131 5.90557 14.716C3.93712 14.7265 1.96852 14.7262 6.74914e-05 14.73L0 0.00866522ZM3.17013 11.9194C3.21105 11.9335 3.2519 11.9597 3.29262 11.9597C4.2807 11.9614 5.27053 11.9964 6.25645 11.9497C7.27667 11.9012 7.88335 11.2742 7.91036 10.3503C7.93757 9.42187 7.37722 8.75226 6.37807 8.63233C5.74647 8.55649 5.10138 8.59127 4.46229 8.58229C4.03881 8.57642 3.61514 8.58121 3.17013 8.58121V11.9194ZM3.14852 5.84198C4.06961 5.84198 4.94417 5.84354 5.81873 5.84063C5.98701 5.84002 6.15914 5.84144 6.32283 5.80849C6.94038 5.68451 7.40545 5.36786 7.56718 4.72418C7.82507 3.69795 7.17099 2.81137 6.10917 2.75876C5.61547 2.73439 5.11974 2.75201 4.62496 2.75154C4.1451 2.75093 3.66511 2.7514 3.17033 2.7514C3.16047 2.85769 3.14933 2.92252 3.14926 2.98735C3.14811 3.91958 3.14852 4.85181 3.14852 5.84198ZM56.859 15C56.4862 14.9307 56.1096 14.8776 55.7414 14.7892C52.8582 14.0982 51.3891 11.6167 51.641 8.87469C51.852 6.57879 53.0094 4.9003 55.2139 4.12325C58.2916 3.03833 61.8608 4.50309 62.3874 8.59823C62.4569 9.13927 62.4535 9.68969 62.4866 10.2843H54.5385C54.7228 11.2932 55.2315 12.001 56.1186 12.3772C57.5602 12.9886 58.9107 12.6838 60.1841 11.8643C60.2593 11.8159 60.3287 11.7584 60.4018 11.7063C60.4091 11.7012 60.4232 11.7056 60.4742 11.7056C60.8638 12.279 61.266 12.8712 61.718 13.5366C61.308 13.7923 60.9298 14.0695 60.5166 14.2771C59.7567 14.659 58.9396 14.8614 58.0905 14.9321C57.9938 14.9402 57.8996 14.9766 57.8043 14.9999L56.859 15ZM59.7432 8.34655C59.7985 7.02441 58.5389 6.01472 56.944 6.07766C55.6173 6.12999 54.438 7.25346 54.5795 8.34655H59.7432ZM68.2713 15C67.8127 14.9077 67.3465 14.8425 66.8966 14.7183C64.7479 14.1256 63.2656 12.3085 63.0706 10.0877C62.8865 7.9929 63.4938 6.21758 65.1754 4.89604C67.7235 2.89348 72.7315 3.34775 73.7264 8.08589C73.7977 8.42535 73.8395 8.77387 73.861 9.12029C73.8839 9.48812 73.8661 9.85865 73.8661 10.2841H65.97C66.0388 10.8764 66.2688 11.3526 66.6504 11.7465C67.5237 12.6479 68.6136 12.8175 69.7911 12.6109C70.5416 12.4792 71.2344 12.1941 71.8578 11.66L73.1289 13.5234C72.798 13.7448 72.4981 13.979 72.1688 14.1591C71.3503 14.607 70.4643 14.8433 69.5366 14.9301C69.4288 14.9402 69.3234 14.976 69.2169 14.9999C68.9016 15 68.5865 15 68.2713 15ZM65.9889 8.34466H71.1578C71.2242 7.0631 69.9943 6.04518 68.4487 6.07536C67.0773 6.10204 65.8901 7.18668 65.9889 8.34466ZM16.0043 15C15.6665 14.9309 15.3265 14.871 14.9913 14.791C12.9149 14.2961 11.6884 12.7419 11.6866 10.6054C11.6849 8.55757 11.6862 6.50964 11.6862 4.46177V4.09475H14.4928V4.48581C14.4928 6.42124 14.4985 8.35661 14.4903 10.292C14.4864 11.1698 14.755 11.9133 15.5868 12.2953C16.4884 12.7093 17.4116 12.6942 18.2457 12.1001C18.8566 11.6652 19.0293 10.9993 19.0306 10.2839C19.0343 8.35978 19.0319 6.43563 19.0319 4.51154V4.0884H21.808L21.8081 4.46771C21.8081 6.49316 21.8091 8.51854 21.8078 10.544C21.8064 12.9881 20.2852 14.6681 17.8472 14.9242C17.7269 14.9369 17.6091 14.974 17.49 14.9997C16.9947 15 16.4994 15 16.0043 15ZM42.5051 14.6961V0.0185919H52.7139V1.44236C52.7139 1.75745 52.6928 2.07436 52.7199 2.38716C52.7467 2.6986 52.6217 2.75903 52.3351 2.75741C50.3208 2.74593 48.3063 2.75134 46.292 2.75134H45.6548V5.84198H46.035C47.5543 5.84198 49.0736 5.85069 50.5926 5.83482C50.8998 5.83165 50.9716 5.92923 50.9646 6.21926C50.9457 6.9926 50.9581 7.76668 50.9581 8.57878H45.6319V14.6961H42.5051ZM74.5773 14.6904V14.3043C74.5773 11.0195 74.5773 7.73501 74.5775 4.45029C74.5775 4.01912 74.578 4.01534 75.023 4.01945C76.5634 4.03364 78.1099 3.968 79.6422 4.08665C81.8257 4.2556 83.5347 5.23902 84.3437 7.3944C85.166 9.58462 84.5393 12.0843 82.8686 13.4537C81.8844 14.2604 80.7262 14.6577 79.4788 14.7027C77.8948 14.76 76.3072 14.7208 74.7213 14.7219C74.689 14.722 74.6568 14.7083 74.5773 14.6904ZM77.2539 12.4377C77.7919 12.4377 78.2956 12.4378 78.7993 12.4377C80.6117 12.4371 81.7529 11.4157 81.956 9.61237C82.1017 8.31758 81.4014 7.02974 80.2861 6.57251C79.3036 6.1699 78.2772 6.38397 77.2541 6.32704C77.2539 8.38322 77.2539 10.3823 77.2539 12.4377ZM27.4659 6.49221H22.7106V4.08374H31.3074C31.3074 4.53814 31.2845 4.99477 31.3141 5.44816C31.3412 5.86609 31.214 6.18894 30.9502 6.51707C29.5204 8.29631 28.1132 10.0934 26.6986 11.8848C26.6227 11.9809 26.5505 12.0799 26.4323 12.236H31.3644V14.6907H22.6845C22.6845 14.0202 22.6747 13.35 22.6938 12.6805C22.6971 12.5656 22.8126 12.4458 22.894 12.3423C24.3452 10.494 25.7994 8.64799 27.2521 6.80075C27.3125 6.7237 27.3641 6.63956 27.4659 6.49221ZM32.1326 6.49492C32.1326 5.73488 32.132 5.03819 32.1337 4.34143C32.1338 4.26458 32.1465 4.18774 32.1555 4.08806H40.7257C40.7257 4.7356 40.7328 5.37273 40.7182 6.00939C40.716 6.10534 40.6213 6.20643 40.5536 6.29253C39.0779 8.16523 37.5998 10.036 36.123 11.9079C36.0501 12.0003 35.985 12.099 35.8714 12.2572H36.3016C37.6966 12.2572 39.0917 12.2631 40.4867 12.2521C40.7459 12.2502 40.8427 12.3138 40.8351 12.59C40.8161 13.2848 40.8288 13.9806 40.8288 14.6969H32.141C32.141 14.003 32.1355 13.3206 32.148 12.6387C32.1495 12.5532 32.2393 12.4639 32.3004 12.3861C33.7174 10.5817 35.1363 8.77887 36.5547 6.97545C36.663 6.83762 36.769 6.69797 36.9257 6.49485L32.1326 6.49492Z" fill="black"/>
</svg>
