<svg width="296" height="72" viewBox="0 0 296 72" fill="none" xmlns="http://www.w3.org/2000/svg">
<path d="M17.408 25C17.1733 24.232 16.9067 23.4427 16.608 22.632C16.3307 21.8213 16.0533 21.0107 15.776 20.2H7.136C6.85867 21.0107 6.57067 21.8213 6.272 22.632C5.99467 23.4427 5.73867 24.232 5.504 25H0.32C1.152 22.6107 1.94133 20.4027 2.688 18.376C3.43467 16.3493 4.16 14.44 4.864 12.648C5.58933 10.856 6.29333 9.16 6.976 7.56C7.68 5.93867 8.40533 4.36 9.152 2.824H13.92C14.6453 4.36 15.36 5.93867 16.064 7.56C16.768 9.16 17.472 10.856 18.176 12.648C18.9013 14.44 19.6373 16.3493 20.384 18.376C21.1307 20.4027 21.92 22.6107 22.752 25H17.408ZM11.424 7.848C11.3173 8.168 11.1573 8.60533 10.944 9.16C10.7307 9.71467 10.4853 10.3547 10.208 11.08C9.93067 11.8053 9.62133 12.6053 9.28 13.48C8.96 14.3547 8.62933 15.272 8.288 16.232H14.592C14.2507 15.272 13.92 14.3547 13.6 13.48C13.28 12.6053 12.9707 11.8053 12.672 11.08C12.3947 10.3547 12.1493 9.71467 11.936 9.16C11.7227 8.60533 11.552 8.168 11.424 7.848ZM26.2625 2.824H31.2545V25H26.2625V2.824ZM52.011 2.568C55.3177 2.568 57.8563 3.15467 59.627 4.328C61.3977 5.48 62.283 7.37867 62.283 10.024C62.283 12.6907 61.387 14.6213 59.595 15.816C57.803 16.9893 55.243 17.576 51.915 17.576H50.347V25H45.355V3.144C46.443 2.93067 47.595 2.78133 48.811 2.696C50.027 2.61067 51.0937 2.568 52.011 2.568ZM52.331 6.824C51.9683 6.824 51.6057 6.83467 51.243 6.856C50.9017 6.87733 50.603 6.89867 50.347 6.92V13.32H51.915C53.643 13.32 54.9443 13.0853 55.819 12.616C56.6937 12.1467 57.131 11.272 57.131 9.992C57.131 9.37333 57.0137 8.86133 56.779 8.456C56.5657 8.05067 56.2457 7.73067 55.819 7.496C55.4137 7.24 54.9123 7.06933 54.315 6.984C53.7177 6.87733 53.0563 6.824 52.331 6.824ZM81.544 16.552C81.544 17.8747 81.352 19.0907 80.968 20.2C80.584 21.288 80.0293 22.2267 79.304 23.016C78.5787 23.784 77.704 24.3813 76.68 24.808C75.6773 25.2347 74.5467 25.448 73.288 25.448C72.0507 25.448 70.92 25.2347 69.896 24.808C68.8933 24.3813 68.0293 23.784 67.304 23.016C66.5787 22.2267 66.0133 21.288 65.608 20.2C65.2027 19.0907 65 17.8747 65 16.552C65 15.2293 65.2027 14.024 65.608 12.936C66.0347 11.848 66.6107 10.92 67.336 10.152C68.0827 9.384 68.9573 8.78667 69.96 8.36C70.984 7.93333 72.0933 7.72 73.288 7.72C74.504 7.72 75.6133 7.93333 76.616 8.36C77.64 8.78667 78.5147 9.384 79.24 10.152C79.9653 10.92 80.5307 11.848 80.936 12.936C81.3413 14.024 81.544 15.2293 81.544 16.552ZM76.68 16.552C76.68 15.08 76.3813 13.928 75.784 13.096C75.208 12.2427 74.376 11.816 73.288 11.816C72.2 11.816 71.3573 12.2427 70.76 13.096C70.1627 13.928 69.864 15.08 69.864 16.552C69.864 18.024 70.1627 19.1973 70.76 20.072C71.3573 20.9253 72.2 21.352 73.288 21.352C74.376 21.352 75.208 20.9253 75.784 20.072C76.3813 19.1973 76.68 18.024 76.68 16.552ZM95.7425 15.336C95.3158 16.9573 94.8572 18.568 94.3665 20.168C93.8972 21.768 93.3958 23.3787 92.8625 25H89.1505C88.7665 24.104 88.3505 23.0373 87.9025 21.8C87.4545 20.5627 86.9852 19.2187 86.4945 17.768C86.0252 16.296 85.5345 14.7493 85.0225 13.128C84.5318 11.4853 84.0518 9.832 83.5825 8.168H88.6065C88.7772 8.936 88.9585 9.77867 89.1505 10.696C89.3638 11.592 89.5772 12.52 89.7905 13.48C90.0252 14.44 90.2598 15.4107 90.4945 16.392C90.7505 17.352 91.0065 18.28 91.2625 19.176C91.5398 18.2373 91.8065 17.2773 92.0625 16.296C92.3398 15.3147 92.5958 14.3547 92.8305 13.416C93.0865 12.456 93.3212 11.5387 93.5345 10.664C93.7692 9.768 93.9718 8.936 94.1425 8.168H97.5985C97.7692 8.936 97.9612 9.768 98.1745 10.664C98.3878 11.5387 98.6118 12.456 98.8465 13.416C99.0812 14.3547 99.3265 15.3147 99.5825 16.296C99.8385 17.2773 100.105 18.2373 100.382 19.176C100.638 18.28 100.894 17.352 101.15 16.392C101.406 15.4107 101.641 14.44 101.854 13.48C102.089 12.52 102.302 11.592 102.494 10.696C102.708 9.77867 102.9 8.936 103.07 8.168H108.03C107.561 9.832 107.07 11.4853 106.558 13.128C106.068 14.7493 105.577 16.296 105.086 17.768C104.617 19.2187 104.148 20.5627 103.678 21.8C103.23 23.0373 102.814 24.104 102.43 25H98.7185C98.1852 23.3787 97.6625 21.768 97.1505 20.168C96.6385 18.568 96.1692 16.9573 95.7425 15.336ZM110.061 16.712C110.061 15.2187 110.285 13.9173 110.733 12.808C111.203 11.6773 111.811 10.7387 112.557 9.992C113.304 9.24533 114.157 8.68 115.117 8.296C116.099 7.912 117.101 7.72 118.125 7.72C120.515 7.72 122.403 8.456 123.789 9.928C125.176 11.3787 125.869 13.5227 125.869 16.36C125.869 16.6373 125.859 16.9467 125.837 17.288C125.816 17.608 125.795 17.896 125.773 18.152H114.957C115.064 19.1333 115.523 19.912 116.333 20.488C117.144 21.064 118.232 21.352 119.597 21.352C120.472 21.352 121.325 21.2773 122.157 21.128C123.011 20.9573 123.704 20.7547 124.237 20.52L124.877 24.392C124.621 24.52 124.28 24.648 123.853 24.776C123.427 24.904 122.947 25.0107 122.413 25.096C121.901 25.2027 121.347 25.288 120.749 25.352C120.152 25.416 119.555 25.448 118.957 25.448C117.443 25.448 116.12 25.224 114.989 24.776C113.88 24.328 112.952 23.72 112.205 22.952C111.48 22.1627 110.936 21.2347 110.573 20.168C110.232 19.1013 110.061 17.9493 110.061 16.712ZM121.261 14.888C121.24 14.4827 121.165 14.088 121.037 13.704C120.931 13.32 120.749 12.9787 120.493 12.68C120.259 12.3813 119.949 12.136 119.565 11.944C119.203 11.752 118.744 11.656 118.189 11.656C117.656 11.656 117.197 11.752 116.813 11.944C116.429 12.1147 116.109 12.3493 115.853 12.648C115.597 12.9467 115.395 13.2987 115.245 13.704C115.117 14.088 115.021 14.4827 114.957 14.888H121.261ZM140.333 12.392C139.906 12.2853 139.405 12.1787 138.829 12.072C138.253 11.944 137.634 11.88 136.973 11.88C136.674 11.88 136.311 11.912 135.885 11.976C135.479 12.0187 135.17 12.072 134.957 12.136V25H130.189V9.064C131.042 8.76533 132.045 8.488 133.197 8.232C134.37 7.95467 135.671 7.816 137.101 7.816C137.357 7.816 137.666 7.83733 138.029 7.88C138.391 7.90133 138.754 7.944 139.117 8.008C139.479 8.05067 139.842 8.11467 140.205 8.2C140.567 8.264 140.877 8.34933 141.133 8.456L140.333 12.392ZM143.216 16.712C143.216 15.2187 143.44 13.9173 143.888 12.808C144.358 11.6773 144.966 10.7387 145.712 9.992C146.459 9.24533 147.312 8.68 148.272 8.296C149.254 7.912 150.256 7.72 151.28 7.72C153.67 7.72 155.558 8.456 156.944 9.928C158.331 11.3787 159.024 13.5227 159.024 16.36C159.024 16.6373 159.014 16.9467 158.992 17.288C158.971 17.608 158.95 17.896 158.928 18.152H148.112C148.219 19.1333 148.678 19.912 149.488 20.488C150.299 21.064 151.387 21.352 152.752 21.352C153.627 21.352 154.48 21.2773 155.312 21.128C156.166 20.9573 156.859 20.7547 157.392 20.52L158.032 24.392C157.776 24.52 157.435 24.648 157.008 24.776C156.582 24.904 156.102 25.0107 155.568 25.096C155.056 25.2027 154.502 25.288 153.904 25.352C153.307 25.416 152.71 25.448 152.112 25.448C150.598 25.448 149.275 25.224 148.144 24.776C147.035 24.328 146.107 23.72 145.36 22.952C144.635 22.1627 144.091 21.2347 143.728 20.168C143.387 19.1013 143.216 17.9493 143.216 16.712ZM154.416 14.888C154.395 14.4827 154.32 14.088 154.192 13.704C154.086 13.32 153.904 12.9787 153.648 12.68C153.414 12.3813 153.104 12.136 152.72 11.944C152.358 11.752 151.899 11.656 151.344 11.656C150.811 11.656 150.352 11.752 149.968 11.944C149.584 12.1147 149.264 12.3493 149.008 12.648C148.752 12.9467 148.55 13.2987 148.4 13.704C148.272 14.088 148.176 14.4827 148.112 14.888H154.416ZM167.408 16.456C167.408 17.928 167.738 19.112 168.4 20.008C169.061 20.904 170.042 21.352 171.344 21.352C171.77 21.352 172.165 21.3413 172.528 21.32C172.89 21.2773 173.189 21.2347 173.424 21.192V12.52C173.125 12.328 172.73 12.168 172.24 12.04C171.77 11.912 171.29 11.848 170.8 11.848C168.538 11.848 167.408 13.384 167.408 16.456ZM178.192 24.456C177.765 24.584 177.274 24.712 176.72 24.84C176.165 24.9467 175.578 25.0427 174.96 25.128C174.362 25.2133 173.744 25.2773 173.104 25.32C172.485 25.384 171.888 25.416 171.312 25.416C169.925 25.416 168.688 25.2133 167.6 24.808C166.512 24.4027 165.594 23.8267 164.848 23.08C164.101 22.312 163.525 21.3947 163.12 20.328C162.736 19.24 162.544 18.024 162.544 16.68C162.544 15.3147 162.714 14.088 163.056 13C163.397 11.8907 163.888 10.952 164.528 10.184C165.168 9.416 165.946 8.82933 166.864 8.424C167.802 8.01867 168.869 7.816 170.064 7.816C170.725 7.816 171.312 7.88 171.824 8.008C172.357 8.136 172.89 8.31733 173.424 8.552V0.935999L178.192 0.167999V24.456ZM196.936 20.936C197.17 20.9573 197.437 20.9787 197.736 21C198.056 21 198.429 21 198.856 21C201.352 21 203.197 20.3707 204.392 19.112C205.608 17.8533 206.216 16.1147 206.216 13.896C206.216 11.5707 205.64 9.81067 204.488 8.616C203.336 7.42133 201.512 6.824 199.016 6.824C198.674 6.824 198.322 6.83467 197.96 6.856C197.597 6.856 197.256 6.87733 196.936 6.92V20.936ZM211.368 13.896C211.368 15.816 211.069 17.4907 210.472 18.92C209.874 20.3493 209.021 21.5333 207.912 22.472C206.824 23.4107 205.49 24.1147 203.912 24.584C202.333 25.0533 200.562 25.288 198.6 25.288C197.704 25.288 196.658 25.2453 195.464 25.16C194.269 25.096 193.096 24.9467 191.944 24.712V3.112C193.096 2.89867 194.29 2.76 195.528 2.696C196.786 2.61067 197.864 2.568 198.76 2.568C200.658 2.568 202.376 2.78133 203.912 3.208C205.469 3.63467 206.802 4.30667 207.912 5.224C209.021 6.14133 209.874 7.31467 210.472 8.744C211.069 10.1733 211.368 11.8907 211.368 13.896ZM220.625 25H215.857V8.168H220.625V25ZM221.073 3.304C221.073 4.17867 220.785 4.872 220.209 5.384C219.655 5.87467 218.993 6.12 218.225 6.12C217.457 6.12 216.785 5.87467 216.209 5.384C215.655 4.872 215.377 4.17867 215.377 3.304C215.377 2.42933 215.655 1.74667 216.209 1.256C216.785 0.743999 217.457 0.487999 218.225 0.487999C218.993 0.487999 219.655 0.743999 220.209 1.256C220.785 1.74667 221.073 2.42933 221.073 3.304ZM229.812 16.04C229.812 18.7067 230.889 20.04 233.044 20.04C233.534 20.04 233.993 19.976 234.42 19.848C234.846 19.72 235.209 19.5707 235.508 19.4V11.784C235.273 11.7413 234.996 11.7093 234.676 11.688C234.356 11.6453 233.982 11.624 233.556 11.624C232.297 11.624 231.358 12.04 230.74 12.872C230.121 13.704 229.812 14.76 229.812 16.04ZM240.276 22.888C240.276 25.64 239.572 27.6773 238.164 29C236.777 30.344 234.622 31.016 231.7 31.016C230.676 31.016 229.652 30.92 228.628 30.728C227.604 30.5573 226.654 30.3227 225.78 30.024L226.612 26.024C227.358 26.3227 228.137 26.5573 228.948 26.728C229.78 26.8987 230.718 26.984 231.764 26.984C233.129 26.984 234.089 26.6853 234.644 26.088C235.22 25.4907 235.508 24.7227 235.508 23.784V23.176C234.996 23.4107 234.462 23.592 233.908 23.72C233.374 23.8267 232.788 23.88 232.148 23.88C229.822 23.88 228.041 23.1973 226.804 21.832C225.566 20.4453 224.948 18.5147 224.948 16.04C224.948 14.8027 225.14 13.6827 225.524 12.68C225.908 11.656 226.462 10.7813 227.188 10.056C227.934 9.33067 228.841 8.776 229.908 8.392C230.974 7.98667 232.18 7.784 233.524 7.784C234.1 7.784 234.686 7.816 235.284 7.88C235.902 7.92267 236.51 7.98667 237.108 8.072C237.705 8.15733 238.27 8.264 238.804 8.392C239.358 8.49867 239.849 8.616 240.276 8.744V22.888ZM250.156 25H245.388V8.168H250.156V25ZM250.604 3.304C250.604 4.17867 250.316 4.872 249.74 5.384C249.185 5.87467 248.524 6.12 247.756 6.12C246.988 6.12 246.316 5.87467 245.74 5.384C245.185 4.872 244.908 4.17867 244.908 3.304C244.908 2.42933 245.185 1.74667 245.74 1.256C246.316 0.743999 246.988 0.487999 247.756 0.487999C248.524 0.487999 249.185 0.743999 249.74 1.256C250.316 1.74667 250.604 2.42933 250.604 3.304ZM255.118 3.976L259.886 3.208V8.168H265.614V12.136H259.886V18.056C259.886 19.0587 260.056 19.8587 260.398 20.456C260.76 21.0533 261.475 21.352 262.542 21.352C263.054 21.352 263.576 21.3093 264.11 21.224C264.664 21.1173 265.166 20.9787 265.614 20.808L266.286 24.52C265.71 24.7547 265.07 24.9573 264.366 25.128C263.662 25.2987 262.798 25.384 261.774 25.384C260.472 25.384 259.395 25.2133 258.542 24.872C257.688 24.5093 257.006 24.0187 256.494 23.4C255.982 22.76 255.619 21.992 255.406 21.096C255.214 20.2 255.118 19.208 255.118 18.12V3.976ZM275.943 21.672C276.413 21.672 276.861 21.6613 277.287 21.64C277.714 21.6187 278.055 21.5867 278.311 21.544V17.928C278.119 17.8853 277.831 17.8427 277.447 17.8C277.063 17.7573 276.711 17.736 276.391 17.736C275.943 17.736 275.517 17.768 275.111 17.832C274.727 17.8747 274.386 17.9707 274.087 18.12C273.789 18.2693 273.554 18.472 273.383 18.728C273.213 18.984 273.127 19.304 273.127 19.688C273.127 20.4347 273.373 20.9573 273.863 21.256C274.375 21.5333 275.069 21.672 275.943 21.672ZM275.559 7.72C276.967 7.72 278.141 7.88 279.079 8.2C280.018 8.52 280.765 8.97867 281.319 9.576C281.895 10.1733 282.301 10.8987 282.535 11.752C282.77 12.6053 282.887 13.5547 282.887 14.6V24.52C282.205 24.6693 281.255 24.84 280.039 25.032C278.823 25.2453 277.351 25.352 275.623 25.352C274.535 25.352 273.543 25.256 272.647 25.064C271.773 24.872 271.015 24.5627 270.375 24.136C269.735 23.688 269.245 23.112 268.903 22.408C268.562 21.704 268.391 20.84 268.391 19.816C268.391 18.8347 268.583 18.0027 268.967 17.32C269.373 16.6373 269.906 16.0933 270.567 15.688C271.229 15.2827 271.986 14.9947 272.839 14.824C273.693 14.632 274.578 14.536 275.495 14.536C276.114 14.536 276.658 14.568 277.127 14.632C277.618 14.6747 278.013 14.7387 278.311 14.824V14.376C278.311 13.5653 278.066 12.9147 277.575 12.424C277.085 11.9333 276.231 11.688 275.015 11.688C274.205 11.688 273.405 11.752 272.615 11.88C271.826 11.9867 271.143 12.1467 270.567 12.36L269.959 8.52C270.237 8.43467 270.578 8.34933 270.983 8.264C271.41 8.15733 271.869 8.072 272.359 8.008C272.85 7.92267 273.362 7.85867 273.895 7.816C274.45 7.752 275.005 7.72 275.559 7.72ZM294.559 25.32C293.172 25.2987 292.041 25.1493 291.167 24.872C290.313 24.5947 289.631 24.2107 289.119 23.72C288.628 23.208 288.287 22.6 288.095 21.896C287.924 21.1707 287.839 20.36 287.839 19.464V0.935999L292.607 0.167999V18.504C292.607 18.9307 292.639 19.3147 292.703 19.656C292.767 19.9973 292.884 20.2853 293.055 20.52C293.247 20.7547 293.513 20.9467 293.855 21.096C294.196 21.2453 294.655 21.3413 295.231 21.384L294.559 25.32ZM8.448 42.824C8.832 43.528 9.26933 44.4027 9.76 45.448C10.272 46.472 10.7947 47.592 11.328 48.808C11.8827 50.0027 12.4267 51.2293 12.96 52.488C13.4933 53.7467 13.9947 54.9307 14.464 56.04C14.9333 54.9307 15.4347 53.7467 15.968 52.488C16.5013 51.2293 17.0347 50.0027 17.568 48.808C18.1227 47.592 18.6453 46.472 19.136 45.448C19.648 44.4027 20.096 43.528 20.48 42.824H25.024C25.2373 44.296 25.4293 45.9493 25.6 47.784C25.792 49.5973 25.952 51.496 26.08 53.48C26.2293 55.4427 26.3573 57.416 26.464 59.4C26.592 61.384 26.6987 63.2507 26.784 65H21.92C21.856 62.8453 21.7707 60.4987 21.664 57.96C21.5573 55.4213 21.3973 52.8613 21.184 50.28C20.8 51.176 20.3733 52.168 19.904 53.256C19.4347 54.344 18.9653 55.432 18.496 56.52C18.048 57.608 17.6107 58.6533 17.184 59.656C16.7573 60.6373 16.3947 61.48 16.096 62.184H12.608C12.3093 61.48 11.9467 60.6373 11.52 59.656C11.0933 58.6533 10.6453 57.608 10.176 56.52C9.728 55.432 9.26933 54.344 8.8 53.256C8.33067 52.168 7.904 51.176 7.52 50.28C7.30667 52.8613 7.14667 55.4213 7.04 57.96C6.93333 60.4987 6.848 62.8453 6.784 65H1.92C2.00533 63.2507 2.10133 61.384 2.208 59.4C2.336 57.416 2.464 55.4427 2.592 53.48C2.74133 51.496 2.90133 49.5973 3.072 47.784C3.264 45.9493 3.46667 44.296 3.68 42.824H8.448ZM38.0308 61.672C38.5001 61.672 38.9481 61.6613 39.3748 61.64C39.8014 61.6187 40.1427 61.5867 40.3988 61.544V57.928C40.2068 57.8853 39.9188 57.8427 39.5347 57.8C39.1507 57.7573 38.7987 57.736 38.4788 57.736C38.0307 57.736 37.6041 57.768 37.1987 57.832C36.8147 57.8747 36.4734 57.9707 36.1747 58.12C35.8761 58.2693 35.6414 58.472 35.4707 58.728C35.3001 58.984 35.2147 59.304 35.2147 59.688C35.2147 60.4347 35.4601 60.9573 35.9507 61.256C36.4627 61.5333 37.1561 61.672 38.0308 61.672ZM37.6467 47.72C39.0547 47.72 40.2281 47.88 41.1667 48.2C42.1054 48.52 42.8521 48.9787 43.4067 49.576C43.9827 50.1733 44.3881 50.8987 44.6228 51.752C44.8574 52.6053 44.9748 53.5547 44.9748 54.6V64.52C44.2921 64.6693 43.3428 64.84 42.1267 65.032C40.9107 65.2453 39.4387 65.352 37.7107 65.352C36.6227 65.352 35.6307 65.256 34.7347 65.064C33.8601 64.872 33.1027 64.5627 32.4627 64.136C31.8227 63.688 31.3321 63.112 30.9907 62.408C30.6494 61.704 30.4787 60.84 30.4787 59.816C30.4787 58.8347 30.6707 58.0027 31.0547 57.32C31.4601 56.6373 31.9934 56.0933 32.6547 55.688C33.3161 55.2827 34.0734 54.9947 34.9267 54.824C35.7801 54.632 36.6654 54.536 37.5827 54.536C38.2014 54.536 38.7454 54.568 39.2148 54.632C39.7054 54.6747 40.1001 54.7387 40.3988 54.824V54.376C40.3988 53.5653 40.1534 52.9147 39.6628 52.424C39.1721 51.9333 38.3188 51.688 37.1027 51.688C36.2921 51.688 35.4921 51.752 34.7027 51.88C33.9134 51.9867 33.2307 52.1467 32.6547 52.36L32.0467 48.52C32.3241 48.4347 32.6654 48.3493 33.0707 48.264C33.4974 48.1573 33.9561 48.072 34.4467 48.008C34.9374 47.9227 35.4494 47.8587 35.9827 47.816C36.5374 47.752 37.0921 47.72 37.6467 47.72ZM60.0702 52.392C59.6436 52.2853 59.1422 52.1787 58.5662 52.072C57.9902 51.944 57.3716 51.88 56.7102 51.88C56.4116 51.88 56.0489 51.912 55.6222 51.976C55.2169 52.0187 54.9076 52.072 54.6942 52.136V65H49.9262V49.064C50.7796 48.7653 51.7822 48.488 52.9342 48.232C54.1076 47.9547 55.4089 47.816 56.8382 47.816C57.0942 47.816 57.4036 47.8373 57.7662 47.88C58.1289 47.9013 58.4916 47.944 58.8542 48.008C59.2169 48.0507 59.5796 48.1147 59.9422 48.2C60.3049 48.264 60.6142 48.3493 60.8702 48.456L60.0702 52.392ZM68.8342 54.248C69.3036 53.736 69.7836 53.2027 70.2742 52.648C70.7862 52.0933 71.2769 51.5493 71.7462 51.016C72.2156 50.4613 72.6529 49.9387 73.0582 49.448C73.4849 48.9573 73.8476 48.5307 74.1462 48.168H79.8102C78.6796 49.4693 77.5702 50.7173 76.4822 51.912C75.4156 53.0853 74.2422 54.3013 72.9622 55.56C73.6022 56.136 74.2636 56.8293 74.9462 57.64C75.6289 58.4293 76.2902 59.2507 76.9302 60.104C77.5702 60.9573 78.1569 61.8107 78.6902 62.664C79.2236 63.5173 79.6716 64.296 80.0342 65H74.5622C74.2209 64.4453 73.8262 63.8373 73.3782 63.176C72.9516 62.4933 72.4929 61.8213 72.0022 61.16C71.5116 60.4773 70.9889 59.8267 70.4342 59.208C69.9009 58.5893 69.3676 58.0667 68.8342 57.64V65H64.0662V40.936L68.8342 40.168V54.248ZM81.2812 56.712C81.2812 55.2187 81.5052 53.9173 81.9532 52.808C82.4226 51.6773 83.0306 50.7387 83.7772 49.992C84.5239 49.2453 85.3772 48.68 86.3372 48.296C87.3186 47.912 88.3212 47.72 89.3452 47.72C91.7346 47.72 93.6226 48.456 95.0092 49.928C96.3959 51.3787 97.0892 53.5227 97.0892 56.36C97.0892 56.6373 97.0786 56.9467 97.0572 57.288C97.0359 57.608 97.0146 57.896 96.9932 58.152H86.1772C86.2839 59.1333 86.7426 59.912 87.5532 60.488C88.3639 61.064 89.4519 61.352 90.8172 61.352C91.6919 61.352 92.5452 61.2773 93.3772 61.128C94.2306 60.9573 94.9239 60.7547 95.4572 60.52L96.0972 64.392C95.8412 64.52 95.4999 64.648 95.0732 64.776C94.6466 64.904 94.1666 65.0107 93.6332 65.096C93.1212 65.2027 92.5666 65.288 91.9692 65.352C91.3719 65.416 90.7746 65.448 90.1772 65.448C88.6626 65.448 87.3399 65.224 86.2092 64.776C85.0999 64.328 84.1719 63.72 83.4252 62.952C82.6999 62.1627 82.1559 61.2347 81.7932 60.168C81.4519 59.1013 81.2812 57.9493 81.2812 56.712ZM92.4812 54.888C92.4599 54.4827 92.3852 54.088 92.2572 53.704C92.1506 53.32 91.9692 52.9787 91.7132 52.68C91.4786 52.3813 91.1692 52.136 90.7852 51.944C90.4226 51.752 89.9639 51.656 89.4092 51.656C88.8759 51.656 88.4172 51.752 88.0332 51.944C87.6492 52.1147 87.3292 52.3493 87.0732 52.648C86.8172 52.9467 86.6146 53.2987 86.4652 53.704C86.3372 54.088 86.2412 54.4827 86.1772 54.888H92.4812ZM101.249 43.976L106.017 43.208V48.168H111.745V52.136H106.017V58.056C106.017 59.0587 106.187 59.8587 106.529 60.456C106.891 61.0533 107.606 61.352 108.673 61.352C109.185 61.352 109.707 61.3093 110.241 61.224C110.795 61.1173 111.297 60.9787 111.745 60.808L112.417 64.52C111.841 64.7547 111.201 64.9573 110.497 65.128C109.793 65.2987 108.929 65.384 107.905 65.384C106.603 65.384 105.526 65.2133 104.673 64.872C103.819 64.5093 103.137 64.0187 102.625 63.4C102.113 62.76 101.75 61.992 101.537 61.096C101.345 60.2 101.249 59.208 101.249 58.12V43.976ZM121.035 65H116.267V48.168H121.035V65ZM121.483 43.304C121.483 44.1787 121.195 44.872 120.619 45.384C120.065 45.8747 119.403 46.12 118.635 46.12C117.867 46.12 117.195 45.8747 116.619 45.384C116.065 44.872 115.787 44.1787 115.787 43.304C115.787 42.4293 116.065 41.7467 116.619 41.256C117.195 40.744 117.867 40.488 118.635 40.488C119.403 40.488 120.065 40.744 120.619 41.256C121.195 41.7467 121.483 42.4293 121.483 43.304ZM126.158 48.744C126.968 48.5093 128.014 48.296 129.294 48.104C130.574 47.8907 131.918 47.784 133.326 47.784C134.755 47.784 135.939 47.976 136.878 48.36C137.838 48.7227 138.595 49.2453 139.15 49.928C139.704 50.6107 140.099 51.4213 140.334 52.36C140.568 53.2987 140.686 54.344 140.686 55.496V65H135.918V56.072C135.918 54.536 135.715 53.448 135.31 52.808C134.904 52.168 134.147 51.848 133.038 51.848C132.696 51.848 132.334 51.8693 131.95 51.912C131.566 51.9333 131.224 51.9653 130.926 52.008V65H126.158V48.744ZM149.705 56.04C149.705 58.7067 150.783 60.04 152.937 60.04C153.428 60.04 153.887 59.976 154.313 59.848C154.74 59.72 155.103 59.5707 155.401 59.4V51.784C155.167 51.7413 154.889 51.7093 154.569 51.688C154.249 51.6453 153.876 51.624 153.449 51.624C152.191 51.624 151.252 52.04 150.633 52.872C150.015 53.704 149.705 54.76 149.705 56.04ZM160.169 62.888C160.169 65.64 159.465 67.6773 158.057 69C156.671 70.344 154.516 71.016 151.593 71.016C150.569 71.016 149.545 70.92 148.521 70.728C147.497 70.5573 146.548 70.3227 145.673 70.024L146.505 66.024C147.252 66.3227 148.031 66.5573 148.841 66.728C149.673 66.8987 150.612 66.984 151.657 66.984C153.023 66.984 153.983 66.6853 154.537 66.088C155.113 65.4907 155.401 64.7227 155.401 63.784V63.176C154.889 63.4107 154.356 63.592 153.801 63.72C153.268 63.8267 152.681 63.88 152.041 63.88C149.716 63.88 147.935 63.1973 146.697 61.832C145.46 60.4453 144.841 58.5147 144.841 56.04C144.841 54.8027 145.033 53.6827 145.417 52.68C145.801 51.656 146.356 50.7813 147.081 50.056C147.828 49.3307 148.735 48.776 149.801 48.392C150.868 47.9867 152.073 47.784 153.417 47.784C153.993 47.784 154.58 47.816 155.177 47.88C155.796 47.9227 156.404 47.9867 157.001 48.072C157.599 48.1573 158.164 48.264 158.697 48.392C159.252 48.4987 159.743 48.616 160.169 48.744V62.888Z" fill="#282C4B"/>
</svg>
