<svg width="646" height="160" viewBox="0 0 646 160" fill="none" xmlns="http://www.w3.org/2000/svg">
<path d="M31.552 62C31.1267 60.608 30.6433 59.1773 30.102 57.708C29.5993 56.2387 29.0967 54.7693 28.594 53.3H12.934C12.4313 54.7693 11.9093 56.2387 11.368 57.708C10.8653 59.1773 10.4013 60.608 9.976 62H0.58C2.088 57.6693 3.51867 53.6673 4.872 49.994C6.22533 46.3207 7.54 42.86 8.816 39.612C10.1307 36.364 11.4067 33.29 12.644 30.39C13.92 27.4513 15.2347 24.59 16.588 21.806H25.23C26.5447 24.59 27.84 27.4513 29.116 30.39C30.392 33.29 31.668 36.364 32.944 39.612C34.2587 42.86 35.5927 46.3207 36.946 49.994C38.2993 53.6673 39.73 57.6693 41.238 62H31.552ZM20.706 30.912C20.5127 31.492 20.2227 32.2847 19.836 33.29C19.4493 34.2953 19.0047 35.4553 18.502 36.77C17.9993 38.0847 17.4387 39.5347 16.82 41.12C16.24 42.7053 15.6407 44.368 15.022 46.108H26.448C25.8293 44.368 25.23 42.7053 24.65 41.12C24.07 39.5347 23.5093 38.0847 22.968 36.77C22.4653 35.4553 22.0207 34.2953 21.634 33.29C21.2473 32.2847 20.938 31.492 20.706 30.912ZM47.6008 21.806H56.6488V62H47.6008V21.806ZM94.2699 21.342C100.263 21.342 104.865 22.4053 108.074 24.532C111.283 26.62 112.888 30.0613 112.888 34.856C112.888 39.6893 111.264 43.1887 108.016 45.354C104.768 47.4807 100.128 48.544 94.0959 48.544H91.2539V62H82.2059V22.386C84.1779 21.9993 86.2659 21.7287 88.4699 21.574C90.6739 21.4193 92.6073 21.342 94.2699 21.342ZM94.8499 29.056C94.1926 29.056 93.5353 29.0753 92.8779 29.114C92.2593 29.1527 91.7179 29.1913 91.2539 29.23V40.83H94.0959C97.2279 40.83 99.5866 40.4047 101.172 39.554C102.757 38.7033 103.55 37.118 103.55 34.798C103.55 33.6767 103.337 32.7487 102.912 32.014C102.525 31.2793 101.945 30.6993 101.172 30.274C100.437 29.81 99.5286 29.5007 98.4459 29.346C97.3633 29.1527 96.1646 29.056 94.8499 29.056ZM147.799 46.688C147.799 49.0853 147.451 51.2893 146.755 53.3C146.059 55.272 145.053 56.9733 143.739 58.404C142.424 59.796 140.839 60.8787 138.983 61.652C137.165 62.4253 135.116 62.812 132.835 62.812C130.592 62.812 128.542 62.4253 126.687 61.652C124.869 60.8787 123.303 59.796 121.988 58.404C120.674 56.9733 119.649 55.272 118.914 53.3C118.18 51.2893 117.812 49.0853 117.812 46.688C117.812 44.2907 118.18 42.106 118.914 40.134C119.688 38.162 120.732 36.48 122.046 35.088C123.4 33.696 124.985 32.6133 126.802 31.84C128.658 31.0667 130.669 30.68 132.835 30.68C135.039 30.68 137.049 31.0667 138.867 31.84C140.723 32.6133 142.308 33.696 143.622 35.088C144.937 36.48 145.962 38.162 146.697 40.134C147.431 42.106 147.799 44.2907 147.799 46.688ZM138.983 46.688C138.983 44.02 138.441 41.932 137.359 40.424C136.315 38.8773 134.807 38.104 132.835 38.104C130.863 38.104 129.335 38.8773 128.252 40.424C127.17 41.932 126.629 44.02 126.629 46.688C126.629 49.356 127.17 51.4827 128.252 53.068C129.335 54.6147 130.863 55.388 132.835 55.388C134.807 55.388 136.315 54.6147 137.359 53.068C138.441 51.4827 138.983 49.356 138.983 46.688ZM173.533 44.484C172.76 47.4227 171.929 50.342 171.039 53.242C170.189 56.142 169.28 59.0613 168.313 62H161.585C160.889 60.376 160.135 58.4427 159.323 56.2C158.511 53.9573 157.661 51.5213 156.771 48.892C155.921 46.224 155.031 43.4207 154.103 40.482C153.214 37.5047 152.344 34.508 151.493 31.492H160.599C160.909 32.884 161.237 34.4113 161.585 36.074C161.972 37.698 162.359 39.38 162.745 41.12C163.171 42.86 163.596 44.6193 164.021 46.398C164.485 48.138 164.949 49.82 165.413 51.444C165.916 49.7427 166.399 48.0027 166.863 46.224C167.366 44.4453 167.83 42.7053 168.255 41.004C168.719 39.264 169.145 37.6013 169.531 36.016C169.957 34.392 170.324 32.884 170.633 31.492H176.897C177.207 32.884 177.555 34.392 177.941 36.016C178.328 37.6013 178.734 39.264 179.159 41.004C179.585 42.7053 180.029 44.4453 180.493 46.224C180.957 48.0027 181.441 49.7427 181.943 51.444C182.407 49.82 182.871 48.138 183.335 46.398C183.799 44.6193 184.225 42.86 184.611 41.12C185.037 39.38 185.423 37.698 185.771 36.074C186.158 34.4113 186.506 32.884 186.815 31.492H195.805C194.955 34.508 194.065 37.5047 193.137 40.482C192.248 43.4207 191.359 46.224 190.469 48.892C189.619 51.5213 188.768 53.9573 187.917 56.2C187.105 58.4427 186.351 60.376 185.655 62H178.927C177.961 59.0613 177.013 56.142 176.085 53.242C175.157 50.342 174.307 47.4227 173.533 44.484ZM199.486 46.978C199.486 44.2713 199.892 41.9127 200.704 39.902C201.555 37.8527 202.657 36.1513 204.01 34.798C205.363 33.4447 206.91 32.42 208.65 31.724C210.429 31.028 212.246 30.68 214.102 30.68C218.433 30.68 221.855 32.014 224.368 34.682C226.881 37.3113 228.138 41.1973 228.138 46.34C228.138 46.8427 228.119 47.4033 228.08 48.022C228.041 48.602 228.003 49.124 227.964 49.588H208.36C208.553 51.3667 209.385 52.778 210.854 53.822C212.323 54.866 214.295 55.388 216.77 55.388C218.355 55.388 219.902 55.2527 221.41 54.982C222.957 54.6727 224.213 54.3053 225.18 53.88L226.34 60.898C225.876 61.13 225.257 61.362 224.484 61.594C223.711 61.826 222.841 62.0193 221.874 62.174C220.946 62.3673 219.941 62.522 218.858 62.638C217.775 62.754 216.693 62.812 215.61 62.812C212.865 62.812 210.467 62.406 208.418 61.594C206.407 60.782 204.725 59.68 203.372 58.288C202.057 56.8573 201.071 55.1753 200.414 53.242C199.795 51.3087 199.486 49.2207 199.486 46.978ZM219.786 43.672C219.747 42.9373 219.612 42.222 219.38 41.526C219.187 40.83 218.858 40.2113 218.394 39.67C217.969 39.1287 217.408 38.684 216.712 38.336C216.055 37.988 215.223 37.814 214.218 37.814C213.251 37.814 212.42 37.988 211.724 38.336C211.028 38.6453 210.448 39.0707 209.984 39.612C209.52 40.1533 209.153 40.7913 208.882 41.526C208.65 42.222 208.476 42.9373 208.36 43.672H219.786ZM254.353 39.148C253.58 38.9547 252.671 38.7613 251.627 38.568C250.583 38.336 249.462 38.22 248.263 38.22C247.722 38.22 247.064 38.278 246.291 38.394C245.556 38.4713 244.996 38.568 244.609 38.684V62H235.967V33.116C237.514 32.5747 239.331 32.072 241.419 31.608C243.546 31.1053 245.904 30.854 248.495 30.854C248.959 30.854 249.52 30.8927 250.177 30.97C250.834 31.0087 251.492 31.086 252.149 31.202C252.806 31.2793 253.464 31.3953 254.121 31.55C254.778 31.666 255.339 31.8207 255.803 32.014L254.353 39.148ZM259.579 46.978C259.579 44.2713 259.985 41.9127 260.797 39.902C261.648 37.8527 262.75 36.1513 264.103 34.798C265.457 33.4447 267.003 32.42 268.743 31.724C270.522 31.028 272.339 30.68 274.195 30.68C278.526 30.68 281.948 32.014 284.461 34.682C286.975 37.3113 288.231 41.1973 288.231 46.34C288.231 46.8427 288.212 47.4033 288.173 48.022C288.135 48.602 288.096 49.124 288.057 49.588H268.453C268.647 51.3667 269.478 52.778 270.947 53.822C272.417 54.866 274.389 55.388 276.863 55.388C278.449 55.388 279.995 55.2527 281.503 54.982C283.05 54.6727 284.307 54.3053 285.273 53.88L286.433 60.898C285.969 61.13 285.351 61.362 284.577 61.594C283.804 61.826 282.934 62.0193 281.967 62.174C281.039 62.3673 280.034 62.522 278.951 62.638C277.869 62.754 276.786 62.812 275.703 62.812C272.958 62.812 270.561 62.406 268.511 61.594C266.501 60.782 264.819 59.68 263.465 58.288C262.151 56.8573 261.165 55.1753 260.507 53.242C259.889 51.3087 259.579 49.2207 259.579 46.978ZM279.879 43.672C279.841 42.9373 279.705 42.222 279.473 41.526C279.28 40.83 278.951 40.2113 278.487 39.67C278.062 39.1287 277.501 38.684 276.805 38.336C276.148 37.988 275.317 37.814 274.311 37.814C273.345 37.814 272.513 37.988 271.817 38.336C271.121 38.6453 270.541 39.0707 270.077 39.612C269.613 40.1533 269.246 40.7913 268.975 41.526C268.743 42.222 268.569 42.9373 268.453 43.672H279.879ZM303.427 46.514C303.427 49.182 304.026 51.328 305.225 52.952C306.423 54.576 308.202 55.388 310.561 55.388C311.334 55.388 312.049 55.3687 312.707 55.33C313.364 55.2527 313.905 55.1753 314.331 55.098V39.38C313.789 39.032 313.074 38.742 312.185 38.51C311.334 38.278 310.464 38.162 309.575 38.162C305.476 38.162 303.427 40.946 303.427 46.514ZM322.973 61.014C322.199 61.246 321.31 61.478 320.305 61.71C319.299 61.9033 318.236 62.0773 317.115 62.232C316.032 62.3867 314.911 62.5027 313.751 62.58C312.629 62.696 311.547 62.754 310.503 62.754C307.989 62.754 305.747 62.3867 303.775 61.652C301.803 60.9173 300.14 59.8733 298.787 58.52C297.433 57.128 296.389 55.4653 295.655 53.532C294.959 51.56 294.611 49.356 294.611 46.92C294.611 44.4453 294.92 42.222 295.539 40.25C296.157 38.2393 297.047 36.538 298.207 35.146C299.367 33.754 300.778 32.6907 302.441 31.956C304.142 31.2213 306.075 30.854 308.241 30.854C309.439 30.854 310.503 30.97 311.431 31.202C312.397 31.434 313.364 31.7627 314.331 32.188V18.384L322.973 16.992V61.014ZM356.946 54.634C357.371 54.6727 357.855 54.7113 358.396 54.75C358.976 54.75 359.653 54.75 360.426 54.75C364.95 54.75 368.295 53.6093 370.46 51.328C372.664 49.0467 373.766 45.8953 373.766 41.874C373.766 37.6593 372.722 34.4693 370.634 32.304C368.546 30.1387 365.24 29.056 360.716 29.056C360.097 29.056 359.459 29.0753 358.802 29.114C358.145 29.114 357.526 29.1527 356.946 29.23V54.634ZM383.104 41.874C383.104 45.354 382.563 48.3893 381.48 50.98C380.397 53.5707 378.851 55.7167 376.84 57.418C374.868 59.1193 372.451 60.3953 369.59 61.246C366.729 62.0967 363.519 62.522 359.962 62.522C358.338 62.522 356.443 62.4447 354.278 62.29C352.113 62.174 349.986 61.9033 347.898 61.478V22.328C349.986 21.9413 352.151 21.69 354.394 21.574C356.675 21.4193 358.628 21.342 360.252 21.342C363.693 21.342 366.806 21.7287 369.59 22.502C372.413 23.2753 374.829 24.4933 376.84 26.156C378.851 27.8187 380.397 29.9453 381.48 32.536C382.563 35.1267 383.104 38.2393 383.104 41.874ZM399.884 62H391.242V31.492H399.884V62ZM400.696 22.676C400.696 24.2613 400.174 25.518 399.13 26.446C398.124 27.3353 396.926 27.78 395.534 27.78C394.142 27.78 392.924 27.3353 391.88 26.446C390.874 25.518 390.372 24.2613 390.372 22.676C390.372 21.0907 390.874 19.8533 391.88 18.964C392.924 18.036 394.142 17.572 395.534 17.572C396.926 17.572 398.124 18.036 399.13 18.964C400.174 19.8533 400.696 21.0907 400.696 22.676ZM416.533 45.76C416.533 50.5933 418.486 53.01 422.391 53.01C423.281 53.01 424.112 52.894 424.885 52.662C425.659 52.43 426.316 52.1593 426.857 51.85V38.046C426.432 37.9687 425.929 37.9107 425.349 37.872C424.769 37.7947 424.093 37.756 423.319 37.756C421.038 37.756 419.337 38.51 418.215 40.018C417.094 41.526 416.533 43.44 416.533 45.76ZM435.499 58.172C435.499 63.16 434.223 66.8527 431.671 69.25C429.158 71.686 425.253 72.904 419.955 72.904C418.099 72.904 416.243 72.73 414.387 72.382C412.531 72.0727 410.811 71.6473 409.225 71.106L410.733 63.856C412.087 64.3973 413.498 64.8227 414.967 65.132C416.475 65.4413 418.177 65.596 420.071 65.596C422.546 65.596 424.286 65.0547 425.291 63.972C426.335 62.8893 426.857 61.4973 426.857 59.796V58.694C425.929 59.1193 424.963 59.448 423.957 59.68C422.991 59.8733 421.927 59.97 420.767 59.97C416.553 59.97 413.324 58.7327 411.081 56.258C408.839 53.7447 407.717 50.2453 407.717 45.76C407.717 43.5173 408.065 41.4873 408.761 39.67C409.457 37.814 410.463 36.2287 411.777 34.914C413.131 33.5993 414.774 32.594 416.707 31.898C418.641 31.1633 420.825 30.796 423.261 30.796C424.305 30.796 425.369 30.854 426.451 30.97C427.573 31.0473 428.675 31.1633 429.757 31.318C430.84 31.4727 431.865 31.666 432.831 31.898C433.837 32.0913 434.726 32.304 435.499 32.536V58.172ZM453.407 62H444.765V31.492H453.407V62ZM454.219 22.676C454.219 24.2613 453.697 25.518 452.653 26.446C451.648 27.3353 450.449 27.78 449.057 27.78C447.665 27.78 446.447 27.3353 445.403 26.446C444.398 25.518 443.895 24.2613 443.895 22.676C443.895 21.0907 444.398 19.8533 445.403 18.964C446.447 18.036 447.665 17.572 449.057 17.572C450.449 17.572 451.648 18.036 452.653 18.964C453.697 19.8533 454.219 21.0907 454.219 22.676ZM462.4 23.894L471.042 22.502V31.492H481.424V38.684H471.042V49.414C471.042 51.2313 471.352 52.6813 471.97 53.764C472.628 54.8467 473.923 55.388 475.856 55.388C476.784 55.388 477.732 55.3107 478.698 55.156C479.704 54.9627 480.612 54.7113 481.424 54.402L482.642 61.13C481.598 61.5553 480.438 61.9227 479.162 62.232C477.886 62.5413 476.32 62.696 474.464 62.696C472.106 62.696 470.153 62.3867 468.606 61.768C467.06 61.1107 465.822 60.2213 464.894 59.1C463.966 57.94 463.309 56.548 462.922 54.924C462.574 53.3 462.4 51.502 462.4 49.53V23.894ZM500.147 55.968C500.998 55.968 501.81 55.9487 502.583 55.91C503.356 55.8713 503.975 55.8133 504.439 55.736V49.182C504.091 49.1047 503.569 49.0273 502.873 48.95C502.177 48.8727 501.539 48.834 500.959 48.834C500.147 48.834 499.374 48.892 498.639 49.008C497.943 49.0853 497.324 49.2593 496.783 49.53C496.242 49.8007 495.816 50.168 495.507 50.632C495.198 51.096 495.043 51.676 495.043 52.372C495.043 53.7253 495.488 54.6727 496.377 55.214C497.305 55.7167 498.562 55.968 500.147 55.968ZM499.451 30.68C502.003 30.68 504.13 30.97 505.831 31.55C507.532 32.13 508.886 32.9613 509.891 34.044C510.935 35.1267 511.67 36.4413 512.095 37.988C512.52 39.5347 512.733 41.2553 512.733 43.15V61.13C511.496 61.4007 509.775 61.71 507.571 62.058C505.367 62.4447 502.699 62.638 499.567 62.638C497.595 62.638 495.797 62.464 494.173 62.116C492.588 61.768 491.215 61.2073 490.055 60.434C488.895 59.622 488.006 58.578 487.387 57.302C486.768 56.026 486.459 54.46 486.459 52.604C486.459 50.8253 486.807 49.3173 487.503 48.08C488.238 46.8427 489.204 45.8567 490.403 45.122C491.602 44.3873 492.974 43.8653 494.521 43.556C496.068 43.208 497.672 43.034 499.335 43.034C500.456 43.034 501.442 43.092 502.293 43.208C503.182 43.2853 503.898 43.4013 504.439 43.556V42.744C504.439 41.2747 503.994 40.0953 503.105 39.206C502.216 38.3167 500.669 37.872 498.465 37.872C496.996 37.872 495.546 37.988 494.115 38.22C492.684 38.4133 491.447 38.7033 490.403 39.09L489.301 32.13C489.804 31.9753 490.422 31.8207 491.157 31.666C491.93 31.4727 492.762 31.318 493.651 31.202C494.54 31.0473 495.468 30.9313 496.435 30.854C497.44 30.738 498.446 30.68 499.451 30.68ZM533.888 62.58C531.374 62.5413 529.325 62.2707 527.74 61.768C526.193 61.2653 524.956 60.5693 524.028 59.68C523.138 58.752 522.52 57.65 522.172 56.374C521.862 55.0593 521.708 53.59 521.708 51.966V18.384L530.35 16.992V50.226C530.35 50.9993 530.408 51.6953 530.524 52.314C530.64 52.9327 530.852 53.4547 531.162 53.88C531.51 54.3053 531.993 54.6533 532.612 54.924C533.23 55.1947 534.062 55.3687 535.106 55.446L533.888 62.58ZM15.312 101.806C16.008 103.082 16.8007 104.667 17.69 106.562C18.618 108.418 19.5653 110.448 20.532 112.652C21.5373 114.817 22.5233 117.041 23.49 119.322C24.4567 121.603 25.3653 123.749 26.216 125.76C27.0667 123.749 27.9753 121.603 28.942 119.322C29.9087 117.041 30.8753 114.817 31.842 112.652C32.8473 110.448 33.7947 108.418 34.684 106.562C35.612 104.667 36.424 103.082 37.12 101.806H45.356C45.7427 104.474 46.0907 107.471 46.4 110.796C46.748 114.083 47.038 117.524 47.27 121.12C47.5407 124.677 47.7727 128.254 47.966 131.85C48.198 135.446 48.3913 138.829 48.546 142H39.73C39.614 138.095 39.4593 133.841 39.266 129.24C39.0727 124.639 38.7827 119.999 38.396 115.32C37.7 116.944 36.9267 118.742 36.076 120.714C35.2253 122.686 34.3747 124.658 33.524 126.63C32.712 128.602 31.9193 130.497 31.146 132.314C30.3727 134.093 29.7153 135.62 29.174 136.896H22.852C22.3107 135.62 21.6533 134.093 20.88 132.314C20.1067 130.497 19.2947 128.602 18.444 126.63C17.632 124.658 16.8007 122.686 15.95 120.714C15.0993 118.742 14.326 116.944 13.63 115.32C13.2433 119.999 12.9533 124.639 12.76 129.24C12.5667 133.841 12.412 138.095 12.296 142H3.48C3.63467 138.829 3.80867 135.446 4.002 131.85C4.234 128.254 4.466 124.677 4.698 121.12C4.96867 117.524 5.25867 114.083 5.568 110.796C5.916 107.471 6.28333 104.474 6.67 101.806H15.312ZM68.9307 135.968C69.7814 135.968 70.5934 135.949 71.3667 135.91C72.1401 135.871 72.7587 135.813 73.2227 135.736V129.182C72.8747 129.105 72.3527 129.027 71.6567 128.95C70.9607 128.873 70.3227 128.834 69.7427 128.834C68.9307 128.834 68.1574 128.892 67.4227 129.008C66.7267 129.085 66.1081 129.259 65.5667 129.53C65.0254 129.801 64.6001 130.168 64.2907 130.632C63.9814 131.096 63.8267 131.676 63.8267 132.372C63.8267 133.725 64.2714 134.673 65.1607 135.214C66.0887 135.717 67.3454 135.968 68.9307 135.968ZM68.2347 110.68C70.7867 110.68 72.9134 110.97 74.6147 111.55C76.3161 112.13 77.6694 112.961 78.6747 114.044C79.7187 115.127 80.4534 116.441 80.8787 117.988C81.3041 119.535 81.5167 121.255 81.5167 123.15V141.13C80.2794 141.401 78.5587 141.71 76.3547 142.058C74.1507 142.445 71.4827 142.638 68.3507 142.638C66.3787 142.638 64.5807 142.464 62.9567 142.116C61.3714 141.768 59.9987 141.207 58.8387 140.434C57.6787 139.622 56.7894 138.578 56.1707 137.302C55.5521 136.026 55.2427 134.46 55.2427 132.604C55.2427 130.825 55.5907 129.317 56.2867 128.08C57.0214 126.843 57.9881 125.857 59.1867 125.122C60.3854 124.387 61.7581 123.865 63.3047 123.556C64.8514 123.208 66.4561 123.034 68.1187 123.034C69.2401 123.034 70.2261 123.092 71.0767 123.208C71.9661 123.285 72.6814 123.401 73.2227 123.556V122.744C73.2227 121.275 72.7781 120.095 71.8887 119.206C70.9994 118.317 69.4527 117.872 67.2487 117.872C65.7794 117.872 64.3294 117.988 62.8987 118.22C61.4681 118.413 60.2307 118.703 59.1867 119.09L58.0847 112.13C58.5874 111.975 59.2061 111.821 59.9407 111.666C60.7141 111.473 61.5454 111.318 62.4347 111.202C63.3241 111.047 64.2521 110.931 65.2187 110.854C66.2241 110.738 67.2294 110.68 68.2347 110.68ZM108.877 119.148C108.104 118.955 107.195 118.761 106.151 118.568C105.107 118.336 103.986 118.22 102.787 118.22C102.246 118.22 101.589 118.278 100.815 118.394C100.081 118.471 99.52 118.568 99.1333 118.684V142H90.4913V113.116C92.038 112.575 93.8553 112.072 95.9433 111.608C98.07 111.105 100.429 110.854 103.019 110.854C103.483 110.854 104.044 110.893 104.701 110.97C105.359 111.009 106.016 111.086 106.673 111.202C107.331 111.279 107.988 111.395 108.645 111.55C109.303 111.666 109.863 111.821 110.327 112.014L108.877 119.148ZM124.762 122.512C125.613 121.584 126.483 120.617 127.372 119.612C128.3 118.607 129.189 117.621 130.04 116.654C130.891 115.649 131.683 114.701 132.418 113.812C133.191 112.923 133.849 112.149 134.39 111.492H144.656C142.607 113.851 140.596 116.113 138.624 118.278C136.691 120.405 134.564 122.609 132.244 124.89C133.404 125.934 134.603 127.191 135.84 128.66C137.077 130.091 138.276 131.579 139.436 133.126C140.596 134.673 141.659 136.219 142.626 137.766C143.593 139.313 144.405 140.724 145.062 142H135.144C134.525 140.995 133.81 139.893 132.998 138.694C132.225 137.457 131.393 136.239 130.504 135.04C129.615 133.803 128.667 132.623 127.662 131.502C126.695 130.381 125.729 129.433 124.762 128.66V142H116.12V98.384L124.762 96.992V122.512ZM147.322 126.978C147.322 124.271 147.728 121.913 148.54 119.902C149.391 117.853 150.493 116.151 151.846 114.798C153.2 113.445 154.746 112.42 156.486 111.724C158.265 111.028 160.082 110.68 161.938 110.68C166.269 110.68 169.691 112.014 172.204 114.682C174.718 117.311 175.974 121.197 175.974 126.34C175.974 126.843 175.955 127.403 175.916 128.022C175.878 128.602 175.839 129.124 175.8 129.588H156.196C156.39 131.367 157.221 132.778 158.69 133.822C160.16 134.866 162.132 135.388 164.606 135.388C166.192 135.388 167.738 135.253 169.246 134.982C170.793 134.673 172.05 134.305 173.016 133.88L174.176 140.898C173.712 141.13 173.094 141.362 172.32 141.594C171.547 141.826 170.677 142.019 169.71 142.174C168.782 142.367 167.777 142.522 166.694 142.638C165.612 142.754 164.529 142.812 163.446 142.812C160.701 142.812 158.304 142.406 156.254 141.594C154.244 140.782 152.562 139.68 151.208 138.288C149.894 136.857 148.908 135.175 148.25 133.242C147.632 131.309 147.322 129.221 147.322 126.978ZM167.622 123.672C167.584 122.937 167.448 122.222 167.216 121.526C167.023 120.83 166.694 120.211 166.23 119.67C165.805 119.129 165.244 118.684 164.548 118.336C163.891 117.988 163.06 117.814 162.054 117.814C161.088 117.814 160.256 117.988 159.56 118.336C158.864 118.645 158.284 119.071 157.82 119.612C157.356 120.153 156.989 120.791 156.718 121.526C156.486 122.222 156.312 122.937 156.196 123.672H167.622ZM183.513 103.894L192.155 102.502V111.492H202.537V118.684H192.155V129.414C192.155 131.231 192.465 132.681 193.083 133.764C193.741 134.847 195.036 135.388 196.969 135.388C197.897 135.388 198.845 135.311 199.811 135.156C200.817 134.963 201.725 134.711 202.537 134.402L203.755 141.13C202.711 141.555 201.551 141.923 200.275 142.232C198.999 142.541 197.433 142.696 195.577 142.696C193.219 142.696 191.266 142.387 189.719 141.768C188.173 141.111 186.935 140.221 186.007 139.1C185.079 137.94 184.422 136.548 184.035 134.924C183.687 133.3 183.513 131.502 183.513 129.53V103.894ZM219.377 142H210.735V111.492H219.377V142ZM220.189 102.676C220.189 104.261 219.667 105.518 218.623 106.446C217.618 107.335 216.419 107.78 215.027 107.78C213.635 107.78 212.417 107.335 211.373 106.446C210.368 105.518 209.865 104.261 209.865 102.676C209.865 101.091 210.368 99.8533 211.373 98.964C212.417 98.036 213.635 97.572 215.027 97.572C216.419 97.572 217.618 98.036 218.623 98.964C219.667 99.8533 220.189 101.091 220.189 102.676ZM228.66 112.536C230.13 112.111 232.024 111.724 234.344 111.376C236.664 110.989 239.1 110.796 241.652 110.796C244.243 110.796 246.389 111.144 248.09 111.84C249.83 112.497 251.203 113.445 252.208 114.682C253.214 115.919 253.929 117.389 254.354 119.09C254.78 120.791 254.992 122.686 254.992 124.774V142H246.35V125.818C246.35 123.034 245.983 121.062 245.248 119.902C244.514 118.742 243.141 118.162 241.13 118.162C240.512 118.162 239.854 118.201 239.158 118.278C238.462 118.317 237.844 118.375 237.302 118.452V142H228.66V112.536ZM271.341 125.76C271.341 130.593 273.293 133.01 277.199 133.01C278.088 133.01 278.919 132.894 279.693 132.662C280.466 132.43 281.123 132.159 281.665 131.85V118.046C281.239 117.969 280.737 117.911 280.157 117.872C279.577 117.795 278.9 117.756 278.127 117.756C275.845 117.756 274.144 118.51 273.023 120.018C271.901 121.526 271.341 123.44 271.341 125.76ZM290.307 138.172C290.307 143.16 289.031 146.853 286.479 149.25C283.965 151.686 280.06 152.904 274.763 152.904C272.907 152.904 271.051 152.73 269.195 152.382C267.339 152.073 265.618 151.647 264.033 151.106L265.541 143.856C266.894 144.397 268.305 144.823 269.775 145.132C271.283 145.441 272.984 145.596 274.879 145.596C277.353 145.596 279.093 145.055 280.099 143.972C281.143 142.889 281.665 141.497 281.665 139.796V138.694C280.737 139.119 279.77 139.448 278.765 139.68C277.798 139.873 276.735 139.97 275.575 139.97C271.36 139.97 268.131 138.733 265.889 136.258C263.646 133.745 262.525 130.245 262.525 125.76C262.525 123.517 262.873 121.487 263.569 119.67C264.265 117.814 265.27 116.229 266.585 114.914C267.938 113.599 269.581 112.594 271.515 111.898C273.448 111.163 275.633 110.796 278.069 110.796C279.113 110.796 280.176 110.854 281.259 110.97C282.38 111.047 283.482 111.163 284.565 111.318C285.647 111.473 286.672 111.666 287.639 111.898C288.644 112.091 289.533 112.304 290.307 112.536V138.172Z" fill="#282C4B"/>
<path d="M348 84C420.638 76.2079 461.362 75.7948 534 84" stroke="#FF698D" stroke-width="2"/>
</svg>
